<svg xmlns="http://www.w3.org/2000/svg" width="32" height="32" viewBox="0 0 32 32"><path fill="#c5ced4" d="M5 29h22v1H5v-1zM5 31h22v1H5v-1zM29 0H3C1.35 0 0 1.35 0 3s1.35 3 3 3h2v22h22V6h2c1.65 0 3-1.35 3-3s-1.35-3-3-3zm0 4h-2V3h-2v19.1c-1.95.4-3.475 1.95-3.875 3.9H10.9c-.4-1.95-1.95-3.5-3.9-3.9V3H5v1H3c-.55 0-1-.45-1-1s.45-1 1-1h26c.55 0 1 .45 1 1s-.45 1-1 1z"/><path fill="#c5ced4" d="M16.625 12.875c-1.475-.5-2.35-.875-2.35-1.65 0-.85.925-1.025 1.725-1.025 1.15 0 1.75.35 2.3.875.225.2.475.325.75.325.575 0 1.05-.475 1.05-1.05 0-.35-.175-.575-.25-.675-.65-.85-1.65-1.4-2.875-1.575V7c0-.55-.45-1-1-1s-1 .45-1 1v1.075c-1.85.3-2.975 1.45-2.975 3.15 0 2.425 2.15 3.15 3.875 3.725 1.425.475 2.3.825 2.3 1.575 0 1.125-1.325 1.3-2.125 1.3-1.15 0-2-.325-2.725-1.05-.275-.275-.575-.35-.775-.35-.575 0-1.05.475-1.05 1.05 0 .3.125.5.225.675v.025c.575.75 1.75 1.475 3.225 1.75V21c0 .55.45 1 1 1s1-.45 1-1v-1.05c.85-.1 1.575-.375 2.15-.775.875-.6 1.325-1.525 1.325-2.65.025-2.35-2.075-3.075-3.8-3.65z"/></svg>