<svg xmlns="http://www.w3.org/2000/svg" width="32" height="32" viewBox="0 0 32 32"><path fill="#c5ced4" d="M15.975.25c-6.625 0-12 5.375-12 12s5.375 12 12 12 12-5.375 12-12-5.375-12-12-12zm0 22c-5.525 0-10-4.475-10-10s4.475-10 10-10 10 4.475 10 10-4.5 10-10 10z"/><path fill="#c5ced4" d="M15.975 26.25c-6.3 0-11.45-4.85-11.975-11-.025.325-.05.675-.05 1 0 6.625 5.375 12 12 12s12-5.375 12-12c0-.325-.025-.675-.05-1-.475 6.15-5.65 11-11.925 11z"/><path fill="#c5ced4" d="M15.975 30.25c-6.3 0-11.45-4.85-11.95-11-.025.325-.05.675-.05 1 0 6.625 5.375 12 12 12s12-5.375 12-12c0-.325-.025-.675-.05-1-.5 6.15-5.675 11-11.95 11zM20.925 11.875c-.4-.4-1-.4-1.4 0L17 14.425V7.25c0-.55-.45-1-1-1s-1 .45-1 1v7.175l-2.55-2.55c-.4-.4-1.025-.4-1.425 0s-.4 1.025 0 1.425l4.25 4.25.7.7.7-.7 4.25-4.25c.375-.4.375-1.025 0-1.425z"/></svg>