<svg xmlns="http://www.w3.org/2000/svg" width="32" height="32" viewBox="0 0 32 32"><path fill="#c5ced4" d="M16 0C7.175 0 0 7.175 0 16s7.175 16 16 16 16-7.175 16-16S24.825 0 16 0zm14 16c0 1.8-.35 3.55-.975 5.175-1.775-1.05-2.95-2.975-2.95-5.175s1.175-4.125 2.95-5.175C29.65 12.45 30 14.2 30 16zM2 16c0-1.825.35-3.6 1-5.225C4.825 11.8 6.05 13.75 6.05 16S4.825 20.2 3 21.225C2.35 19.6 2 17.825 2 16zm23.9 9.9C23.25 28.55 19.75 30 16 30s-7.25-1.45-9.9-4.1c-.875-.875-1.6-1.825-2.225-2.875 2.5-1.35 4.175-4 4.175-7.025s-1.7-5.675-4.175-7.025c.6-1.025 1.35-2 2.225-2.875C8.75 3.45 12.25 2 16 2s7.25 1.45 9.9 4.1c.875.875 1.625 1.875 2.25 2.925C25.7 10.4 24.05 13 24.05 16s1.65 5.6 4.075 6.975c-.6 1.05-1.35 2.05-2.225 2.925z"/><path fill="#c5ced4" d="M17.05 11.05c-.4-.4-1.025-.4-1.425 0s-.4 1.025 0 1.425l2.55 2.55C18.125 15 18.075 15 18 15h-7c-.55 0-1 .45-1 1s.45 1 1 1h7c.075 0 .125 0 .2-.025l-2.575 2.575c-.4.4-.4 1.025 0 1.425s1.025.4 1.425 0l4.25-4.25c.375-.4.7-.725.7-.725l-.7-.7-4.25-4.25z"/></svg>