<svg xmlns="http://www.w3.org/2000/svg" width="32" height="32" viewBox="0 0 32 32"><path fill="#c5ced4" d="M31 30H1c-.55 0-1 .45-1 1s.45 1 1 1h30c.55 0 1-.45 1-1s-.45-1-1-1zM2 12h2v15H3c-.55 0-1 .45-1 1s.45 1 1 1h26c.55 0 1-.45 1-1s-.45-1-1-1h-1V12h2c.9 0 1.7-.6 1.925-1.475s-.15-1.8-.95-2.25l-14-8C16.675.1 16.35 0 16 0s-.675.1-1 .275l-14 8c-.775.45-1.175 1.375-.95 2.25C.3 11.4 1.1 12 2 12zm4 15V14h2v13H6zm4 0V12h3v15h-3zm5 0V14h2v13h-2zm9 0V14h2v13h-2zm-2 0h-3V12h3v15zM16 2l14 8H2l14-8z"/><path fill="#c5ced4" d="M17 7c0 .552-.448 1-1 1s-1-.448-1-1 .448-1 1-1 1 .448 1 1z"/></svg>