<svg xmlns="http://www.w3.org/2000/svg" width="32" height="32" viewBox="0 0 32 32"><path fill="#c5ced4" d="M28 11H8c-2.2 0-4 1.8-4 4v13c0 2.2 1.8 4 4 4h20c2.2 0 4-1.8 4-4V15c0-2.2-1.8-4-4-4zm2 17c0 1.1-.9 2-2 2H8c-1.1 0-2-.9-2-2V15c0-1.1.9-2 2-2h20c1.1 0 2 .9 2 2v13z"/><path fill="#c5ced4" d="M10.05 27c0 .552-.448 1-1 1s-1-.448-1-1 .448-1 1-1 1 .448 1 1zM13.05 27c0 .552-.448 1-1 1s-1-.448-1-1 .448-1 1-1 1 .448 1 1zM16.05 27c0 .552-.448 1-1 1s-1-.448-1-1 .448-1 1-1 1 .448 1 1zM21.05 27c0 .552-.448 1-1 1s-1-.448-1-1 .448-1 1-1 1 .448 1 1zM24.05 27c0 .552-.448 1-1 1s-1-.448-1-1 .448-1 1-1 1 .448 1 1zM27.05 27c0 .552-.448 1-1 1s-1-.448-1-1 .448-1 1-1 1 .448 1 1zM24.05 0h-20C1.85 0 0 1.8 0 4v13c0 1.875 1.25 3.45 3 3.875V18.75c-.5-.325-1-1-1-1.775V8h24v2h2V4c0-2.2-1.75-4-3.95-4zm-22 4c0-1.1.9-2 2-2h20c1.1 0 2 .9 2 2h-24z"/><path fill="#c5ced4" d="M6 15h24v4H6v-4z"/></svg>