<svg xmlns="http://www.w3.org/2000/svg" width="32" height="32" viewBox="0 0 32 32"><path fill="#c5ced4" d="M28 4H4C1.8 4 0 5.8 0 8v16c0 2.2 1.8 4 4 4h24c2.2 0 4-1.8 4-4V8c0-2.2-1.8-4-4-4zm2 20c0 1.1-.9 2-2 2H4c-1.1 0-2-.9-2-2V8c0-1.1.9-2 2-2h24c1.1 0 2 .9 2 2v16zM4 23c0-.55.45-1 1-1s1 .45 1 1-.45 1-1 1-1-.45-1-1zm3 0c0-.55.45-1 1-1s1 .45 1 1-.45 1-1 1-1-.45-1-1zm3 0c0-.55.45-1 1-1s1 .45 1 1-.45 1-1 1-1-.45-1-1zm6 0c0-.55.45-1 1-1s1 .45 1 1-.45 1-1 1-1-.45-1-1zm3 0c0-.55.45-1 1-1s1 .45 1 1-.45 1-1 1-1-.45-1-1zm3 0c0-.55.45-1 1-1s1 .45 1 1-.45 1-1 1-1-.45-1-1z"/></svg>