<svg xmlns="http://www.w3.org/2000/svg" width="64" height="64" viewBox="0 0 64 64"><path fill="#c5ced4" d="M40 36c0-1 1-2 2-2h10c1 0 2 1 2 2s-1 2-2 2H42c-1 0-2-1-2-2zM56 52H8c-3 0-5.8-1.2-8-3 .6 4 4 7 8 7h48c4 0 7.4-3 8-7-2.2 1.8-5 3-8 3zM56 60H8c-3 0-5.8-1.2-8-3 .6 4 4 7 8 7h48c4 0 7.4-3 8-7-2.2 1.8-5 3-8 3z"/><path fill="#c5ced4" d="M56 0H8C3.6 0 0 3.6 0 8v32c0 4.4 3.6 8 8 8h48c4.4 0 8-3.6 8-8V8c0-4.4-3.6-8-8-8zM8 4h48c2.2 0 4 1.8 4 4H4c0-2.2 1.8-4 4-4zm52 8v2H4v-2h56zm-4 32H8c-2.2 0-4-1.8-4-4V18h56v22c0 2.2-1.8 4-4 4z"/></svg>