<svg xmlns="http://www.w3.org/2000/svg" width="32" height="32" viewBox="0 0 32 32"><path fill="#c5ced4" d="M16 0C7.175 0 0 7.175 0 16s7.175 16 16 16 16-7.175 16-16S24.825 0 16 0zm0 30C8.275 30 2 23.725 2 16S8.275 2 16 2s14 6.275 14 14-6.275 14-14 14zm4.25-19.65L16 14.6l-4.25-4.25c-.4-.4-1.025-.4-1.425 0s-.4 1.025 0 1.425l4.25 4.25-4.25 4.25c-.4.4-.4 1.025 0 1.425s1.025.4 1.425 0L16 17.45l4.25 4.25c.4.4 1.025.4 1.425 0s.4-1.025 0-1.425l-4.25-4.25 4.25-4.25c.4-.4.4-1.025 0-1.425s-1.05-.4-1.425 0z"/></svg>