<svg xmlns="http://www.w3.org/2000/svg" width="32" height="32" viewBox="0 0 32 32"><path fill="#c5ced4" d="M16 0C7.175 0 0 7.175 0 16s7.175 16 16 16 16-7.175 16-16S24.825 0 16 0zM6.1 6.1C8.75 3.45 12.25 2 16 2s7.25 1.45 9.9 4.1C28.55 8.75 30 12.25 30 16c0 3.325-1.15 6.475-3.275 9H5.275C3.15 22.475 2 19.325 2 16c0-3.75 1.45-7.25 4.1-9.9zm14.85 9.525c-.4-.4-1.025-.4-1.425 0l-2.55 2.575c.025-.075.025-.125.025-.2v-7c0-.55-.45-1-1-1s-1 .45-1 1v7c0 .075 0 .125.025.2l-2.575-2.575c-.4-.4-1.025-.4-1.425 0s-.4 1.025 0 1.425l4.25 4.25c.4.375.725.7.725.7l.7-.7 4.25-4.25c.4-.4.4-1.025 0-1.425zM7.35 27h17.325c-2.45 1.95-5.475 3-8.65 3S9.8 28.95 7.35 27z"/></svg>