<svg xmlns="http://www.w3.org/2000/svg" width="32" height="32" viewBox="0 0 32 32"><path fill="#c5ced4" d="M16 0C7.175 0 0 7.175 0 16s7.175 16 16 16 16-7.175 16-16S24.825 0 16 0zm9.9 25.9C23.25 28.55 19.75 30 16 30s-7.25-1.45-9.9-4.1C3.45 23.25 2 19.75 2 16s1.45-7.25 4.1-9.9C8.75 3.45 12.25 2 16 2s7.25 1.45 9.9 4.1C28.55 8.75 30 12.25 30 16s-1.45 7.25-4.1 9.9zm-2.2-15.475c-.4-.4-1.025-.4-1.425 0l-9.075 9.05-3.5-3.5c-.4-.4-1.025-.4-1.425 0s-.4 1.025 0 1.4l4.225 4.2c.4.4 1.025.4 1.425 0l9.8-9.75c.375-.4.375-1.025-.025-1.4z"/></svg>