<svg xmlns="http://www.w3.org/2000/svg" width="32" height="32" viewBox="0 0 32 32"><path fill="#c5ced4" d="M28.225 26.575C30.575 23.8 32 20.175 32 16.25c0-8.825-7.175-16-16-16s-16 7.175-16 16c0 3.925 1.425 7.55 3.775 10.325l-1.7 2.575c-.4.625-.45 1.4-.1 2.05S3 32.25 3.75 32.25h24.525c.75 0 1.425-.4 1.775-1.05s.3-1.45-.1-2.05l-1.725-2.575zM6.1 6.35c2.65-2.65 6.15-4.1 9.9-4.1s7.25 1.45 9.9 4.1C28.55 9 30 12.5 30 16.25s-1.45 7.25-4.1 9.9l-.1.1H6.2l-.1-.1C3.45 23.5 2 20 2 16.25S3.45 9 6.1 6.35zm-2.375 23.9l1.325-2H26.9l1.325 2h-24.5z"/><path fill="#c5ced4" d="M16 4.25c-6.625 0-12 5.375-12 12 0 .55.45 1 1 1s1-.45 1-1c0-5.525 4.475-10 10-10 .55 0 1-.45 1-1s-.45-1-1-1zM16.1 22.25c-1.975 0-3.6-.925-4.3-1.825V20.4c-.125-.175-.225-.375-.225-.675 0-.575.475-1.05 1.05-1.05.2 0 .5.05.775.35.7.7 1.575 1.05 2.725 1.05.8 0 2.125-.175 2.125-1.3 0-.75-.875-1.1-2.3-1.575-1.725-.575-3.875-1.3-3.875-3.725-.05-2 1.475-3.225 3.925-3.225 1.7 0 3.075.575 3.875 1.65.075.1.25.325.25.675 0 .575-.475 1.05-1.05 1.05-.3 0-.55-.1-.75-.325-.55-.525-1.15-.875-2.3-.875-.775 0-1.725.175-1.725 1.025 0 .775.9 1.15 2.35 1.65 1.7.575 3.825 1.325 3.825 3.65 0 1.125-.45 2.05-1.325 2.65-.775.575-1.825.85-3.05.85z"/><path fill="#c5ced4" d="M17 11.25c0 .55-.45 1-1 1s-1-.45-1-1v-2c0-.55.45-1 1-1s1 .45 1 1v2zM17 23.25c0 .55-.45 1-1 1s-1-.45-1-1v-2c0-.55.45-1 1-1s1 .45 1 1v2z"/></svg>