<svg xmlns="http://www.w3.org/2000/svg" width="32" height="32" viewBox="0 0 32 32"><path fill="#c5ced4" d="M15.96 3.636C9.132 3.636 3.596 9.17 3.596 16S9.13 28.364 15.96 28.364 28.324 22.83 28.324 16 22.79 3.636 15.96 3.636zm0 23.184C9.984 26.82 5.14 21.976 5.14 16S9.984 5.18 15.96 5.18 26.78 10.024 26.78 16s-4.844 10.82-10.82 10.82z"/><path fill="#c5ced4" d="M16.73 21.41c0 .426-.345.772-.77.772s-.773-.346-.773-.772c0-.426.345-.772.772-.772s.77.346.77.772zM19.822 13.68c0-2.132-1.73-3.862-3.863-3.862-1.787 0-3.286 1.212-3.73 2.857-.024.073-.036.154-.036.234 0 .427.347.77.772.77.356 0 .65-.237.743-.56.25-1.01 1.167-1.76 2.25-1.76 1.277 0 2.32 1.04 2.32 2.32 0 1.277-1.04 2.32-2.316 2.32-.428 0-.772.346-.772.77v2.32c0 .428.34.772.768.772s.768-.347.768-.772v-1.624c1.778-.356 3.095-1.915 3.095-3.786z"/></svg>