<svg xmlns="http://www.w3.org/2000/svg" width="64" height="64" viewBox="0 0 64 64"><path fill="#c5ced4" d="M44 44H20v-8c0-3.3-2.7-6-6-6s-6 2.7-6 6v8H4V20h40v8c0 3.3 2.7 6 6 6s6-2.7 6-6v-8h4v24H44zm12-28c0-5.2-3.352-9.653-8-11.31V0h-4v8h.005c4.41.002 7.995 3.59 7.995 8v12c0 1.084-.916 2-2 2s-2-.916-2-2V16H24c0-4.285 3.387-7.794 7.625-7.99V8H32V0h-4v4.69C23.35 6.347 20 10.8 20 16H0v32h8c0 5.198 3.35 9.652 8 11.308v4.69h4v-8c-4.41 0-8-3.588-8-8V36c0-1.083.916-2 2-2s2 .917 2 2v12h24c0 4.412-3.59 8-8 8v8h4v-4.69c4.65-1.657 8-6.11 8-11.31h20V16h-8zm-24 8c-4.418 0-8 3.582-8 8s3.582 8 8 8 8-3.582 8-8-3.582-8-8-8z"/></svg>