<svg xmlns="http://www.w3.org/2000/svg" width="32" height="32" viewBox="0 0 32 32"><path fill="#c5ced4" d="M22.517 6.35c-1.81-1.81-4.186-2.714-6.558-2.714-2.373 0-4.748.905-6.56 2.715-3.405 3.407-3.607 8.8-.61 12.44l7.17 9.573 7.167-9.572c2.998-3.64 2.796-9.033-.61-12.44zm-.582 11.46l-.024.028-5.95 7.947-5.976-7.976C8.772 16.333 8.15 14.467 8.24 12.55c.088-1.927.888-3.74 2.254-5.107 1.46-1.46 3.402-2.263 5.463-2.263s4.004.804 5.463 2.263c1.366 1.366 2.166 3.18 2.255 5.107.093 1.915-.525 3.782-1.737 5.257z"/><path fill="#c5ced4" d="M19.05 12.91c0 1.706-1.384 3.09-3.09 3.09s-3.092-1.384-3.092-3.09c0-1.708 1.384-3.092 3.09-3.092s3.092 1.384 3.092 3.09z"/></svg>