<svg xmlns="http://www.w3.org/2000/svg" width="32" height="32" viewBox="0 0 32 32"><path fill="#c5ced4" d="M15.96 16c-1.067 0-1.93.865-1.93 1.93 0 .793.476 1.472 1.163 1.77v2.482h1.535v-2.48c.687-.3 1.164-.98 1.164-1.77 0-1.068-.865-1.932-1.93-1.932z"/><path fill="#c5ced4" d="M20.606 11.06V8.27c0-2.557-2.085-4.633-4.646-4.633s-4.646 2.077-4.646 4.638v2.788c-2.747 1.6-4.63 4.598-4.63 8.028 0 5.12 4.154 9.274 9.273 9.274s9.28-4.154 9.28-9.273c0-3.43-1.882-6.427-4.63-8.03zm-7.758-2.785c0-1.705 1.386-3.09 3.09-3.09s3.092 1.385 3.092 3.09v2.073c-.93-.343-2.008-.53-3.09-.53s-2.122.187-3.092.53V8.275zM15.96 26.82c-4.263 0-7.725-3.467-7.725-7.725 0-4.263 3.467-7.725 7.725-7.725s7.725 3.46 7.725 7.72c0 4.264-3.463 7.73-7.725 7.73z"/></svg>