<svg xmlns="http://www.w3.org/2000/svg" width="32" height="32" viewBox="0 0 32 32"><path fill="#c5ced4" d="M26.82 12.137v1.543L16 18.318 5.18 13.68v-1.543c-.848 0-1.543.695-1.543 1.543v12.364c0 .85.695 1.543 1.543 1.543h21.636c.85 0 1.543-.695 1.543-1.543V13.68c.003-.848-.692-1.543-1.54-1.543zm0 13.907H5.18V15.228L16 19.862l10.82-4.638v10.82z"/><path fill="#c5ced4" d="M7.5 11.362h17v2.396l1.544-.66V7.5c0-1.7-1.39-3.09-3.09-3.09H9.045c-1.7 0-3.09 1.39-3.09 3.09v5.605l1.542.66v-2.4zm0-1.544v-.772h17v.772h-17zm1.546-3.862h13.907c.85 0 1.543.695 1.543 1.543H7.498c0-.85.695-1.544 1.547-1.544z"/></svg>