<svg xmlns="http://www.w3.org/2000/svg" width="32" height="32" viewBox="0 0 32 32"><path fill="#c5ced4" d="M12 6c0-2.2 1.8-4 4-4s4 1.8 4 4v4.25h2V6c0-3.325-2.675-6-6-6s-6 2.675-6 6v4.25h2V6z"/><path fill="#c5ced4" d="M16 8C9.375 8 4 13.375 4 20s5.375 12 12 12 12-5.375 12-12S22.625 8 16 8zm0 22c-5.525 0-10-4.475-10-10s4.475-10 10-10 10 4.475 10 10-4.475 10-10 10z"/><path fill="#c5ced4" d="M16.625 18.875c-1.475-.5-2.35-.875-2.35-1.65 0-.85.925-1.025 1.725-1.025 1.15 0 1.75.35 2.3.875.225.2.475.325.75.325.575 0 1.05-.475 1.05-1.05 0-.35-.175-.575-.25-.675-.65-.85-1.65-1.4-2.875-1.575V13c0-.55-.45-1-1-1s-1 .45-1 1v1.075c-1.85.3-2.975 1.45-2.975 3.15 0 2.425 2.15 3.15 3.875 3.725 1.425.475 2.3.825 2.3 1.575 0 1.125-1.325 1.3-2.125 1.3-1.15 0-2-.325-2.725-1.05-.275-.275-.575-.35-.775-.35-.575 0-1.05.475-1.05 1.05 0 .3.125.5.225.675v.025c.575.75 1.75 1.475 3.225 1.75v1.1c0 .55.45 1 1 1s1-.45 1-1v-1.05c.85-.1 1.575-.375 2.15-.775.875-.6 1.325-1.525 1.325-2.65.025-2.375-2.075-3.1-3.8-3.675z"/></svg>