<svg xmlns="http://www.w3.org/2000/svg" width="32" height="32" viewBox="0 0 32 32"><path fill="#c5ced4" d="M16 0C7.175 0 0 7.175 0 16c0 2.55.6 4.975 1.65 7.1l-1.6 6.4c-.175.675.025 1.4.525 1.9.375.375.9.575 1.425.575.15 0 .325-.025.475-.05l6.4-1.6c2.15 1.075 4.55 1.65 7.1 1.65 8.825 0 16-7.175 16-16S24.825 0 16 0zm9.9 25.9C23.25 28.55 19.75 30 16 30c-1.825 0-3.575-.35-5.225-1-.575-.225-1.1-.5-1.65-.775L2 30l1.775-7.15c-.3-.525-.55-1.075-.775-1.65-.65-1.625-1-3.375-1-5.2 0-3.75 1.45-7.25 4.1-9.9S12.25 2 16 2s7.25 1.45 9.9 4.1C28.55 8.75 30 12.25 30 16s-1.45 7.25-4.1 9.9z"/><path fill="#c5ced4" d="M24 12c0 .55-.45 1-1 1H9c-.55 0-1-.45-1-1s.45-1 1-1h14c.55 0 1 .45 1 1zM24 16c0 .55-.45 1-1 1H9c-.55 0-1-.45-1-1s.45-1 1-1h14c.55 0 1 .45 1 1zM24 20c0 .55-.45 1-1 1H9c-.55 0-1-.45-1-1s.45-1 1-1h14c.55 0 1 .45 1 1z"/></svg>