<svg xmlns="http://www.w3.org/2000/svg" width="32" height="32" viewBox="0 0 32 32"><path fill="#c5ced4" d="M23.7 15.325c-.4-.4-1.025-.4-1.425 0l-9.075 9.05-3.5-3.5c-.4-.4-1.025-.4-1.425 0s-.4 1.025 0 1.4L12.5 26.5c.4.4 1.025.4 1.425 0l9.8-9.75c.375-.4.375-1.05-.025-1.425zM2 10h28v2H2v-2zM10 5c0 .55-.45 1-1 1s-1-.45-1-1V1c0-.55.45-1 1-1s1 .45 1 1v4zM24 5c0 .55-.45 1-1 1s-1-.45-1-1V1c0-.55.45-1 1-1s1 .45 1 1v4zM11 2h10v2H11V2z"/><path fill="#c5ced4" d="M28 2h-3v2h3c1.1 0 2 .9 2 2v22c0 1.1-.9 2-2 2H4c-1.1 0-2-.9-2-2V6c0-1.1.9-2 2-2h3V2H4C1.8 2 0 3.8 0 6v22c0 2.2 1.8 4 4 4h24c2.2 0 4-1.8 4-4V6c0-2.2-1.8-4-4-4z"/></svg>