<svg xmlns="http://www.w3.org/2000/svg" width="32" height="32" viewBox="0 0 32 32"><path fill="#c5ced4" d="M30 3H2C.9 3 0 3.875 0 4.975v16C0 22.1.9 23 2 23h22l2-2h-.025L32 14.975v-10C32 3.875 31.1 3 30 3zm-4 11.975c-1.1 0-2 .9-2 2V21H2V5h28v9.975h-4zM2 27c-.775 0-1.475-.3-2-.775V27c0 1.1.9 2 2 2h28c1.1 0 2-.9 2-2v-.775c-.55.475-1.225.775-2 .775H2z"/><path fill="#c5ced4" d="M30 24H2c-.775 0-1.475-.3-2-.775V24c0 1.1.9 2 2 2h28c1.1 0 2-.9 2-2v-7.6l-2 2V24zM7.85 12.15c-1.1-.375-1.775-.65-1.775-1.225 0-.65.7-.775 1.275-.775.85 0 1.3.275 1.725.65.15.15.35.25.575.25.425 0 .8-.35.8-.8 0-.275-.2-.45-.25-.5-.475-.625-1.225-1.05-2.225-1.175V7.75c0-.425-.325-.75-.75-.75s-.75.325-.75.75v.8C5.225 8.775 4.3 9.625 4.3 10.9c0 1.825 1.65 2.35 2.95 2.8 1.075.375 1.75.625 1.75 1.175 0 .85-.975.975-1.575.975-.85 0-1.5-.25-2.025-.775-.225-.225-.425-.25-.575-.25-.425 0-.8.35-.8.8 0 .225.075.375.175.5h-.05c.425.55 1.35 1.1 2.35 1.3v.825c0 .425.325.75.75.75s.75-.325.75-.75v-.8c.75-.075 1.25-.275 1.675-.575.65-.45 1.025-1.15 1.025-2 0-1.75-1.575-2.275-2.85-2.725z"/><path fill="#c5ced4" d="M21.5 18h-7c-.275 0-.5.225-.5.5s.225.5.5.5h7c.275 0 .5-.225.5-.5s-.225-.5-.5-.5zM27.5 7h-7c-.275 0-.5.225-.5.5s.225.5.5.5h7c.275 0 .5-.225.5-.5s-.225-.5-.5-.5z"/></svg>