<svg xmlns="http://www.w3.org/2000/svg" width="32" height="32" viewBox="0 0 32 32"><path fill="#c5ced4" d="M31 4h-3l-1.6 4H1c-.325 0-.65.175-.825.45s-.225.625-.1.925l4 10c.15.375.525.625.925.625h16.6l-.8 2c-1.225.075-2.225.9-2.625 2h-7.35c-.4-1.175-1.525-2-2.825-2-1.65 0-3 1.35-3 3s1.35 3 3 3c1.3 0 2.425-.825 2.825-2h7.35c.4 1.175 1.525 2 2.825 2 1.65 0 3-1.35 3-3 0-1.075-.55-2-1.4-2.525L29.2 6H31c.55 0 1-.45 1-1s-.45-1-1-1zM7 10h2v8H7v-8zm4 0h2v8h-2v-8zm4 0h2v8h-2v-8zm4 0h2v8h-2v-8zm4 6.5V10h2.6L23 16.5zM2.475 10H5v6.3L2.475 10zM8 26c-.55 0-1-.45-1-1s.45-1 1-1 1 .45 1 1-.45 1-1 1zm13 0c-.55 0-1-.45-1-1s.45-1 1-1 1 .45 1 1-.45 1-1 1z"/></svg>