<svg xmlns="http://www.w3.org/2000/svg" width="32" height="32" viewBox="0 0 32 32"><path fill="#c5ced4" d="M9.5 10l.7 2.225 2.3-.025-1.875 1.35.725 2.2-1.85-1.375-1.85 1.375.725-2.2L6.5 12.2l2.3.025zM3 10l.7 2.225L6 12.2l-1.875 1.35.725 2.2L3 14.375 1.15 15.75l.725-2.2L0 12.2l2.3.025zM16 10l.7 2.225L19 12.2l-1.875 1.35.725 2.2L16 14.375l-1.85 1.375.725-2.2L13 12.2l2.3.025zM22.5 10l.7 2.225 2.3-.025-1.875 1.35.725 2.2-1.85-1.375-1.85 1.375.725-2.2L19.5 12.2l2.3.025zM29 10l.7 2.225L32 12.2l-1.875 1.35.725 2.2L29 14.375l-1.85 1.375.725-2.2L26 12.2l2.3.025zM17 28c0 .552-.448 1-1 1s-1-.448-1-1 .448-1 1-1 1 .448 1 1zM8 9V2h16v7h2V2c0-1.1-.9-2-2-2H8C6.9 0 6 .9 6 2v7h2z"/><path fill="#c5ced4" d="M24 17v7H8v-7H6v13c0 1.1.9 2 2 2h16c1.1 0 2-.9 2-2V17h-2zm0 13H8v-4h16v4z"/></svg>