<svg xmlns="http://www.w3.org/2000/svg" width="32" height="32" viewBox="0 0 32 32"><path fill="#c5ced4" d="M2 16c0-3.75 1.45-7.25 4.1-9.9S12.25 2 16 2c3.7 0 7.175 1.425 9.8 4H22c-.55 0-1 .45-1 1s.45 1 1 1h6c.55 0 1-.45 1-1V1c0-.55-.45-1-1-1s-1 .45-1 1v3.375C24.125 1.675 20.25 0 16 0 7.175 0 0 7.175 0 16c0 2.55.6 4.975 1.675 7.125.425-.525 1.025-.9 1.7-1.05C2.475 20.2 2 18.125 2 16zM30.325 8.875c-.425.525-1.025.9-1.7 1.05C29.525 11.8 30 13.85 30 16c0 3.75-1.45 7.25-4.1 9.9S19.75 30 16 30c-3.7 0-7.175-1.425-9.8-4H10c.55 0 1-.45 1-1s-.45-1-1-1H4c-.55 0-1 .45-1 1v6c0 .55.45 1 1 1s1-.45 1-1v-3.375C7.875 30.325 11.75 32 16 32c8.825 0 16-7.175 16-16 0-2.55-.6-4.975-1.675-7.125z"/></svg>