<svg xmlns="http://www.w3.org/2000/svg" width="32" height="32" viewBox="0 0 32 32"><path fill="#c5ced4" d="M20 4C13.375 4 8 9.375 8 16s5.375 12 12 12 12-5.375 12-12S26.625 4 20 4zm0 22c-5.525 0-10-4.475-10-10S14.475 6 20 6s10 4.475 10 10-4.475 10-10 10zM6.325 19H5c-.55 0-1 .45-1 1s.45 1 1 1h1.925c-.25-.65-.45-1.325-.6-2zM6 16c0-.325 0-.675.025-1H3c-.55 0-1 .45-1 1s.45 1 1 1h3.025C6 16.675 6 16.325 6 16zM6.925 11H1c-.55 0-1 .45-1 1s.45 1 1 1h5.325c.15-.675.35-1.35.6-2z"/><path fill="#c5ced4" d="M21.15 15.2c-1.15-1.025-1.85-1.7-1.55-2.425.325-.8 1.25-.6 1.975-.3 1.05.45 1.475 1 1.775 1.7.125.275.3.475.575.575.55.225 1.15-.025 1.375-.575.125-.325.075-.6.025-.725-.275-1.025-.975-1.9-2.05-2.55l.4-1c.2-.5-.025-1.1-.55-1.3-.5-.2-1.1.025-1.3.55l-.4 1c-1.825-.425-3.3.2-3.95 1.775-.925 2.225.775 3.725 2.15 4.925 1.125 1 1.8 1.65 1.525 2.35-.425 1.05-1.725.675-2.45.375-1.05-.45-1.725-1.075-2.1-2-.15-.375-.4-.55-.6-.625-.55-.225-1.15.025-1.375.575-.125.275-.075.5-.05.7v.025c.25.9 1.05 2.025 2.3 2.85l-.425 1c-.2.5.025 1.1.55 1.3.5.2 1.1-.025 1.3-.55l.4-.975c.825.225 1.6.275 2.275.125 1.025-.225 1.8-.9 2.225-1.95.975-2.175-.7-3.65-2.05-4.85z"/></svg>