<svg xmlns="http://www.w3.org/2000/svg" width="32" height="32" viewBox="0 0 32 32"><path fill="#c5ced4" d="M22.8 17.325C24.775 15.5 26 12.9 26 10c0-5.525-4.475-10-10-10S6 4.475 6 10c0 2.9 1.225 5.5 3.2 7.325C3.925 18.6 0 23.325 0 29v3h32v-3c0-5.675-3.925-10.4-9.2-11.675zM8 10c0-4.425 3.575-8 8-8s8 3.575 8 8-3.575 8-8 8-8-3.575-8-8zM2 30v-1c0-5.4 4.3-9.8 9.65-10 1.325.625 2.8 1 4.35 1s3.025-.35 4.35-1c5.35.175 9.65 4.6 9.65 10v1H2z"/><path fill="#c5ced4" d="M12.825 13.125c.425.55 1.3 1.1 2.425 1.3v.825c0 .425.325.75.75.75s.75-.325.75-.75v-.8c.625-.075 1.175-.275 1.6-.575.65-.45 1-1.15 1-2 0-1.75-1.6-2.3-2.875-2.75-1.1-.375-1.775-.65-1.775-1.225 0-.65.7-.775 1.275-.775.85 0 1.3.275 1.725.65.15.15.35.25.575.25.425 0 .8-.35.8-.8 0-.275-.125-.45-.175-.5-.475-.625-1.225-1.05-2.15-1.175v-.8c0-.425-.325-.75-.75-.75s-.75.325-.75.75v.8c-1.4.225-2.225 1.075-2.225 2.35 0 1.825 1.6 2.35 2.9 2.8 1.075.375 1.725.625 1.725 1.175 0 .85-1 .975-1.575.975-.85 0-1.5-.25-2.05-.775-.225-.225-.425-.25-.575-.25-.425 0-.8.35-.8.8 0 .2.1.35.175.5z"/></svg>