<svg xmlns="http://www.w3.org/2000/svg" width="32" height="32" viewBox="0 0 32 32"><path fill="#c5ced4" d="M30 13h-2.375c-.275-1.075-.7-2.125-1.275-3.1l1.675-1.675c.775-.775.775-2.05 0-2.825L26.6 3.975c-.775-.775-2.05-.775-2.825 0L22.1 5.65c-.975-.575-2.025-1-3.1-1.275V2c0-1.1-.9-2-2-2h-2c-1.1 0-2 .9-2 2v2.375c-1.075.275-2.125.7-3.1 1.275L8.225 3.975c-.775-.775-2.05-.775-2.825 0L3.975 5.4c-.775.775-.775 2.05 0 2.825L5.65 9.9c-.575.975-1 2.025-1.275 3.1H2c-1.1 0-2 .9-2 2v2c0 1.1.9 2 2 2h2.375c.275 1.075.7 2.125 1.275 3.1l-1.675 1.675c-.775.775-.775 2.05 0 2.825L5.4 28.025c.775.775 2.05.775 2.825 0L9.9 26.35c.975.575 2.025 1 3.1 1.275V30c0 1.1.9 2 2 2h2c1.1 0 2-.9 2-2v-2.375c1.075-.275 2.125-.7 3.1-1.275l1.675 1.675c.775.775 2.05.775 2.825 0l1.425-1.425c.775-.775.775-2.05 0-2.825L26.35 22.1c.575-.975 1-2.025 1.275-3.1H30c1.1 0 2-.9 2-2v-2c0-1.1-.9-2-2-2zm0 4h-4.05c-.2 1.9-.925 3.775-2.2 5.325l2.85 2.85-1.4 1.4-2.875-2.825c-1.575 1.275-3.45 2.025-5.325 2.2V30h-2v-4.05c-1.9-.2-3.775-.925-5.325-2.2l-2.85 2.85-1.4-1.4 2.85-2.85C6.975 20.775 6.25 18.875 6.05 17H2v-2h4.05c.2-1.875.925-3.775 2.2-5.325L5.4 6.8l1.4-1.4 2.875 2.85C11.25 6.975 13.1 6.225 15 6.025V2h2v4.05c1.9.2 3.775.925 5.325 2.225l2.85-2.85 1.4 1.4-2.825 2.85c1.275 1.575 2.025 3.45 2.2 5.325H30v2z"/><path fill="#c5ced4" d="M12.475 12.475c-1.95 1.95-1.95 5.125 0 7.075s5.125 1.95 7.075 0c1.95-1.95 1.95-5.125 0-7.075-1.975-1.975-5.125-1.975-7.075 0zm5.65 5.65c-1.175 1.175-3.075 1.175-4.25 0s-1.175-3.075 0-4.25c1.175-1.175 3.075-1.175 4.25 0s1.175 3.075 0 4.25z"/></svg>