<svg xmlns="http://www.w3.org/2000/svg" width="32" height="32" viewBox="0 0 32 32"><path fill="#c5ced4" d="M29 4h-6.575L20.8 1.1C20.45.425 19.75 0 19 0h-6c-.75 0-1.45.425-1.8 1.1L9.575 4H3c-.55 0-1 .45-1 1s.45 1 1 1h26c.55 0 1-.45 1-1s-.45-1-1-1zM12 4l1-2h6l1 2h-8zM24 30H8L6.075 7h-2L6 30.175C6.075 31.2 6.95 32 8 32h16c1.05 0 1.9-.8 2-1.825L27.925 7h-2L24 30z"/><path fill="#c5ced4" d="M12 27V9c0-.55-.45-1-1-1s-1 .45-1 1v18c0 .55.45 1 1 1s1-.45 1-1zM17 27V9c0-.55-.45-1-1-1s-1 .45-1 1v18c0 .55.45 1 1 1s1-.45 1-1zM22 27V9c0-.55-.45-1-1-1s-1 .45-1 1v18c0 .55.45 1 1 1s1-.45 1-1z"/></svg>