<svg xmlns="http://www.w3.org/2000/svg" width="32" height="32" viewBox="0 0 32 32"><path fill="#c5ced4" d="M30 0H2C.9 0 0 .9 0 2v26c0 1.1.9 2 2 2h2c0 1.1.9 2 2 2s2-.9 2-2h16c0 1.1.9 2 2 2s2-.9 2-2h2c1.1 0 2-.9 2-2V2c0-1.1-.9-2-2-2zm0 28H2v-8h1c.55 0 1-.45 1-1s-.45-1-1-1H2v-6h1c.55 0 1-.45 1-1s-.45-1-1-1H2V2h28v26z"/><path fill="#c5ced4" d="M14 23c4.425 0 8-3.575 8-8s-3.575-8-8-8-8 3.575-8 8 3.575 8 8 8zm0-14c3.325 0 6 2.675 6 6s-2.675 6-6 6-6-2.675-6-6 2.675-6 6-6zM26 23c.55 0 1-.45 1-1V8c0-.55-.45-1-1-1s-1 .45-1 1v14c0 .55.45 1 1 1z"/></svg>