<svg xmlns="http://www.w3.org/2000/svg" viewBox="0 0 35.64 22.09"><defs><style>.a,.b{fill:none;}.b{clip-rule:evenodd;}.c{isolation:isolate;}.d{clip-path:url(#a);}.e{clip-path:url(#b);}.f{fill:#4fc143;}</style><clipPath id="a" transform="translate(-400 -261)"><path class="a" d="M405 266h26v13h-26z"/></clipPath><clipPath id="b" transform="translate(-400 -261)"><path class="b" d="M430.17 268.28l-11.23 9.43a1.66 1.66 0 0 1-.25.17l-.13.07a1.82 1.82 0 0 1-1.86-.24l-11.23-9.43a1.19 1.19 0 0 1 0-1.89 1.81 1.81 0 0 1 2.25 0l10.11 8.49 10.11-8.49a1.81 1.81 0 0 1 2.25 0 1.19 1.19 0 0 1 0 1.89"/></clipPath></defs><title>page-subnavigation-menu</title><path class="c d e d f" d="M0 0h35.64v22.09H0z"/></svg>