<svg width="40" height="40" viewBox="0 0 40 40" xmlns="http://www.w3.org/2000/svg"><title>Close button</title><g fill="none" fill-rule="evenodd"><circle fill="#FFF" cx="20" cy="20" r="20"/><path d="M25.304 12.93L20 18.232l-5.304-5.304c-.487-.49-1.278-.49-1.767 0-.49.488-.49 1.28 0 1.766L18.232 20l-5.304 5.304c-.49.487-.49 1.28 0 1.767.488.49 1.28.49 1.766 0L20 21.768l5.304 5.304c.487.49 1.28.49 1.767 0 .49-.488.49-1.28 0-1.766L21.768 20l5.304-5.304c.49-.487.49-1.278 0-1.767-.488-.49-1.28-.49-1.766 0z" fill="#7F979D"/></g></svg>