<svg xmlns="http://www.w3.org/2000/svg" viewBox="0 0 170.8 26.91"><defs><style>.a { fill: #fff; }</style></defs><title>logo-seiu-white</title><path class="a" d="M0 6.81l2.9 5.5 3.8-2.6-4 16.8h8.7L17.6.61h-6.8L0 6.81M18.2 6.81l2.9 5.5 3.8-2.6-4 16.8h8.7L35.8.61H29l-10.8 6.2M34.8 25.7a16.26 16.26 0 0 0 6.4 1.2c10.8 0 14.6-8.1 16-13.7C58.7 6.7 58.1 0 48.9 0c-5.8 0-10.4 3.7-11.5 8.6-1.3 5.4 1.2 9 6.2 9a10.75 10.75 0 0 0 4.2-.8l.1-.1c-1.1 2.2-2.5 4.4-6.7 4.4a8 8 0 0 1-4.4-1.5zM49.5 8.61c-.4 1.8-1.1 3.1-2.7 3.1s-1.2-1.3-.8-3.1 1.2-3.1 2.6-3.1 1.3 1.4.9 3.1zM58 25.7a16.26 16.26 0 0 0 6.4 1.2c10.8 0 14.6-8.1 16-13.7C81.9 6.7 81.3 0 72.1 0c-5.8 0-10.4 3.7-11.5 8.6-1.3 5.4 1.2 9 6.2 9a10.75 10.75 0 0 0 4.2-.8l.1-.1c-1.1 2.2-2.5 4.4-6.7 4.4a8 8 0 0 1-4.4-1.5zM72.7 8.61c-.4 1.8-1.1 3.09-2.7 3.09s-1.2-1.3-.8-3.1 1.2-3.1 2.6-3.1 1.3 1.41.9 3.11zM91.1 26.8a37.68 37.68 0 0 1-9.1-1.3l-.8-.2 2.4-6.6.8.4a16.91 16.91 0 0 0 6.7 1.3c1.6 0 5.4-.2 5.4-2.1 0-1.1-1.5-1.6-3.9-2.4-3.2-1.1-7.3-2.4-7.3-6.9 0-5.7 4.9-9 13.6-9 2.3 0 6.6.1 9.1 1.1l.7.3-2.5 6.3-.7-.3a16.58 16.58 0 0 0-6.1-1.1c-4.2 0-4.8.8-4.8 1.6s1.7 1.4 3.5 2c3.2 1.1 7.7 2.6 7.7 7.5.1 6.1-5.2 9.4-14.7 9.4M127.7 26.1h-21.2l6.2-26h20.6l-1.4 6.1H120l-.9 3.5h11.3l-1.5 6.2h-11.3l-1 4H129l-1.3 6.2M140 25.9h-7.9L137.3.1h7.9L140 25.9M155.5 26.3c-6.6 0-10.3-3-10.3-8.4a23.92 23.92 0 0 1 .5-4.7l2.8-13h8l-3 14.6a17.62 17.62 0 0 0-.4 2.5 2.47 2.47 0 0 0 2.6 2.7c2.9 0 3.7-3 4.6-7.3.1-.3.1-.7.2-1L163 .1h7.8l-2.5 12.2c-1.6 7.9-3.6 14-12.8 14"/></svg>