<svg xmlns="http://www.w3.org/2000/svg" xmlns:xlink="http://www.w3.org/1999/xlink" width="327" height="76" viewBox="0 0 327 76"><title>GreenDot/desktop/logos/Lockup-grey</title><defs><path id="a" d="M38.26.18c20.9 0 37.85 16.94 37.85 37.83 0 20.89-16.95 37.82-37.85 37.82C17.35 75.83.4 58.9.4 38.01S17.35.18 38.26.18"/><path id="c" d="M38.26.18c20.9 0 37.85 16.94 37.85 37.83 0 20.89-16.95 37.82-37.85 37.82C17.35 75.83.4 58.9.4 38.01S17.35.18 38.26.18"/><path id="e" d="M38.26.18c20.9 0 37.85 16.94 37.85 37.83 0 20.89-16.95 37.82-37.85 37.82C17.35 75.83.4 58.9.4 38.01S17.35.18 38.26.18"/><path id="g" d="M38.26.18c20.9 0 37.85 16.94 37.85 37.83 0 20.89-16.95 37.82-37.85 37.82C17.35 75.83.4 58.9.4 38.01S17.35.18 38.26.18"/><path id="i" d="M38.26.18c20.9 0 37.85 16.94 37.85 37.83 0 20.89-16.95 37.82-37.85 37.82C17.35 75.83.4 58.9.4 38.01S17.35.18 38.26.18"/></defs><g fill="none" fill-rule="evenodd"><g><mask id="b" fill="#fff"><use xlink:href="#a"/></mask><path d="M38.26.18c20.9 0 37.85 16.94 37.85 37.83 0 20.89-16.95 37.82-37.85 37.82C17.35 75.83.4 58.9.4 38.01S17.35.18 38.26.18" mask="url(#b)"/></g><g><mask id="d" fill="#fff"><use xlink:href="#c"/></mask><path d="M38.26.18c20.9 0 37.85 16.94 37.85 37.83 0 20.89-16.95 37.82-37.85 37.82C17.35 75.83.4 58.9.4 38.01S17.35.18 38.26.18" mask="url(#d)"/></g><g><mask id="f" fill="#fff"><use xlink:href="#e"/></mask><path d="M38.26.18c20.9 0 37.85 16.94 37.85 37.83 0 20.89-16.95 37.82-37.85 37.82C17.35 75.83.4 58.9.4 38.01S17.35.18 38.26.18" mask="url(#f)"/></g><g><mask id="h" fill="#fff"><use xlink:href="#g"/></mask><path d="M38.26.18c20.9 0 37.85 16.94 37.85 37.83 0 20.89-16.95 37.82-37.85 37.82C17.35 75.83.4 58.9.4 38.01S17.35.18 38.26.18" mask="url(#h)"/></g><use fill="#4FC143" xlink:href="#i"/><path d="M16.79 25.76c0-.48 0-1.78 1.41-1.78 1.39 0 1.39 1.2 1.39 1.83v6.62c0 .76-.17 1.69-1.43 1.69-1.37 0-1.37-1.19-1.37-1.67v-6.69m2.84-2.94c-.74-.65-1.62-1.48-3.13-1.48-3.16 0-3.16 3.22-3.16 3.78v7.93c0 1.71.37 3.73 3.24 3.73 1.76 0 2.55-.91 3.05-1.46v2.31c0 .91-.19 1.78-1.41 1.78-.68 0-1.02-.29-1.21-.64-.14-.36-.14-.73-.14-.94h-3.45c.03 1.39.05 4.1 4.63 4.1 5.05 0 5.05-3.28 5.05-4.79v-15.5h-3.47v1.18M24.98 21.64h3.48l-.03 1.89c.59-1.05 1.37-2.22 3.43-2.16v3.44c-.28-.07-.62-.23-1.18-.23-2.25 0-2.25 2.05-2.25 3.22v8.8h-3.45V21.64M36.1 25.58c0-.93.37-1.5 1.28-1.5 1.19 0 1.19 1.1 1.19 1.5v1.84H36.1v-1.84m-.04 4.3h5.97v-4.27c0-.87-.18-2.1-1.02-2.98-.9-.87-2.26-1.32-3.63-1.32-1.06 0-2.28.27-3.16.88-.97.67-1.6 1.72-1.6 3.59v6.32c0 3.02 1.37 4.8 4.79 4.8 2.17 0 4.56-.79 4.56-4.03v-1.2h-3.4c0 1.54-.02 1.72-.29 2.07-.2.27-.53.43-.93.43-1.29 0-1.29-1.19-1.29-1.84v-2.45M46.95 25.58c0-.93.38-1.5 1.28-1.5 1.2 0 1.2 1.1 1.2 1.5v1.84h-2.48v-1.84m-.04 4.3h5.98v-4.27c0-.87-.19-2.1-1.04-2.98-.9-.87-2.24-1.32-3.62-1.32-1.05 0-2.28.27-3.15.88-.97.67-1.61 1.72-1.61 3.59v6.32c0 3.02 1.37 4.8 4.79 4.8 2.16 0 4.57-.79 4.57-4.03v-1.2h-3.4c0 1.54-.03 1.72-.29 2.07-.2.27-.52.43-.94.43-1.28 0-1.28-1.19-1.28-1.84l-.01-2.45M54.49 21.64h3.54l-.05 1.1c.69-.67 1.46-1.4 3.01-1.4 1.07 0 1.9.42 2.4.99.7.8.7 1.68.7 2.58V36.6h-3.43V25.61c0-.82-.05-1.82-1.22-1.82-1.46 0-1.46 1.36-1.46 2.02V36.6h-3.49V21.64M38.64 47.83c0-.72 0-1.9 1.35-1.9 1.46 0 1.46 1.26 1.46 1.73v6.43c0 .48 0 1.81-1.46 1.81-1.35 0-1.35-.95-1.35-1.7v-6.37m2.84-3.06c-.73-.65-1.67-1.52-3.03-1.52-.83 0-2.21.43-2.85 1.75-.29.59-.41 1.18-.41 2.22v6.84c0 1.47.06 2.46.45 3.19.43.83 1.51 1.58 2.92 1.58 1.67 0 2.33-.96 2.89-1.76l-.03 1.47h3.51V37.87h-3.45v6.9M50.12 47.28c0-.71 0-1.84 1.25-1.84 1.05 0 1.17.96 1.17 1.81v7.61c0 .56 0 1.58-1.23 1.58-1.19 0-1.19-1.17-1.19-1.55v-7.61m-3.49 7.03c0 1.11 0 4.52 4.56 4.52 3.1 0 4.79-1.49 4.79-4.19v-7.18c0-1.2-.19-2.5-1.45-3.37-.87-.58-2.11-.82-3.16-.82-4.13 0-4.74 2.52-4.74 4.33v6.71M58.45 38.16h3.48v5.4h2.16v2.31h-2.18v8.54c0 .98.16 1.64 1.57 1.64.23 0 .38-.03.61-.03v2.48c-.23.06-.66.19-1.84.19-3.28 0-3.77-1.23-3.77-3.13v-9.69h-1.9v-2.31h1.87v-5.4M64.7 38.06c.28 0 .56.07.83.21.26.14.48.36.62.62.16.28.23.55.23.84 0 .3-.07.57-.23.84-.13.27-.36.48-.62.63-.26.15-.54.21-.83.21-.29 0-.57-.06-.84-.21s-.47-.36-.62-.63c-.15-.27-.22-.54-.22-.84 0-.28.07-.56.22-.84.15-.26.36-.48.63-.62.28-.14.55-.21.83-.21zm0 .27c-.24 0-.46.06-.69.19-.23.12-.41.29-.54.51-.12.22-.18.47-.18.7 0 .25.06.49.18.71.13.22.31.39.53.52.22.12.45.18.7.18.25 0 .47-.06.7-.18.22-.13.39-.3.52-.52.12-.22.19-.46.19-.71 0-.23-.07-.48-.19-.7-.13-.22-.31-.39-.52-.51-.24-.13-.45-.19-.7-.19zm-.73 2.34v-1.81h.61c.22 0 .38.02.47.05.1.03.17.09.23.18.05.08.08.16.08.26 0 .13-.05.25-.14.35-.09.1-.22.15-.38.16.07.04.12.07.15.1.07.07.17.19.28.35l.21.36h-.35l-.16-.29c-.13-.22-.24-.37-.31-.41-.06-.04-.13-.07-.23-.07h-.17v.77h-.29zm.29-1.02h.35c.17 0 .29-.02.35-.08.07-.05.09-.11.09-.2 0-.05-.01-.1-.04-.13-.03-.05-.06-.09-.12-.1-.05-.03-.16-.04-.3-.04h-.33v.55z" fill="#FFF"/><path d="M90.33 12.78h5.57c2.48 0 3.99 1.3 3.99 3.85 0 1.99-.8 3.33-2.5 3.69v.04c2.06.27 2.37 1.4 2.41 4.56.02 1.57.11 2.39.67 2.68v.13H97.2c-.29-.42-.35-.98-.37-1.57l-.09-2.87c-.04-1.17-.56-1.88-1.78-1.88h-1.61v6.32h-3.02V12.78zm3.02 6.53h1.26c1.44 0 2.26-.63 2.26-2.24 0-1.38-.74-2.07-2.1-2.07h-1.42v4.31zM109.87 12.78v2.47h-5.35v3.52h5.03v2.47h-5.03v4.02h5.56v2.47h-8.57V12.78h8.36M111.11 27.73V12.78h3.02v12.48h5.34v2.47h-8.36M125.11 12.49c4.52 0 5.09 3.22 5.09 7.76 0 4.55-.57 7.77-5.09 7.77-4.53 0-5.09-3.22-5.09-7.77 0-4.54.56-7.76 5.09-7.76zm0 13.31c1.78 0 2.07-1.53 2.07-5.55 0-3.99-.29-5.54-2.07-5.54-1.78 0-2.08 1.55-2.08 5.54 0 4.02.3 5.55 2.08 5.55zM134.25 12.78h3.73l3.96 14.95h-3.14l-.69-3.16h-3.98l-.69 3.16h-3.15l3.96-14.95zm.4 9.32h2.94l-1.45-6.72h-.04l-1.45 6.72zM142.83 12.78h4.95c4.19 0 4.94 2.87 4.94 7.27 0 5.29-1.13 7.68-5.13 7.68h-4.76V12.78zm3.02 12.73h1.34c2.1 0 2.52-1.32 2.52-5.38 0-3.39-.28-5.13-2.58-5.13h-1.28v10.51zM156.82 12.78h3.73l3.96 14.95h-3.15l-.69-3.16h-3.98l-.69 3.16h-3.14l3.96-14.95zm.4 9.32h2.93l-1.45-6.72h-.04l-1.44 6.72zM165.33 12.78h5.05c2.47 0 4.25.92 4.25 3.79 0 1.61-.77 2.85-2.26 3.27v.04c1.65.23 2.72 1.48 2.72 3.47 0 2.35-1.15 4.38-4.67 4.38h-5.09V12.78zm3.02 6.13h.85c1.66 0 2.41-.56 2.41-1.96 0-1.43-.69-1.95-2.18-1.95h-1.08v3.91zm0 6.6h1.17c1.44 0 2.43-.52 2.43-2.26 0-1.74-.99-2.24-2.3-2.24h-1.3v4.5zM176.34 27.73V12.78h3.02v12.48h5.34v2.47h-8.36M194.02 12.78v2.47h-5.34v3.52h5.03v2.47h-5.03v4.02h5.55v2.47h-8.57V12.78h8.36M90.45 35.18h9.97c5.77 0 7.75 4.23 7.75 8.46 0 5.85-3.6 8.5-8.98 8.5h-3.05V63.4h-5.69V35.18zm5.69 12.77h2.54c2.25 0 3.79-1.35 3.79-4.23 0-2.77-1.1-4.35-3.95-4.35h-2.38v8.58zM109.7 35.18h10.52c4.67 0 7.51 2.45 7.51 7.27 0 3.76-1.5 6.29-4.7 6.96v.08c3.87.51 4.47 2.65 4.55 8.61.04 2.97.19 4.51 1.26 5.06v.24h-6.17c-.55-.79-.67-1.86-.71-2.96l-.16-5.42c-.08-2.21-1.07-3.56-3.36-3.56h-3.05V63.4h-5.69V35.18zm5.69 12.33h2.38c2.73 0 4.27-1.18 4.27-4.23 0-2.61-1.39-3.91-3.96-3.91h-2.69v8.14zM146.17 35.18v4.66h-10.09v6.64h9.5v4.67h-9.5v7.59h10.49v4.66h-16.18V35.18h15.78M148.11 35.18h9.97c5.77 0 7.75 4.23 7.75 8.46 0 5.85-3.6 8.5-8.98 8.5h-3.04V63.4h-5.7V35.18zm5.7 12.77h2.53c2.25 0 3.79-1.35 3.79-4.23 0-2.77-1.1-4.35-3.95-4.35h-2.37v8.58zM170.97 35.18h7.05l7.47 28.22h-5.93l-1.31-5.97h-7.51l-1.31 5.97h-5.93l7.47-28.22zm.76 17.59h5.53l-2.73-12.69h-.07l-2.73 12.69zM186.77 35.18h5.69V63.4h-5.69V35.18zM195.34 35.18h9.33c7.92 0 9.34 5.41 9.34 13.72 0 10-2.14 14.5-9.69 14.5h-8.98V35.18zm5.7 24.03h2.53c3.95 0 4.74-2.49 4.74-10.16 0-6.4-.51-9.68-4.86-9.68h-2.41v19.84zM238.14 44.71c0-4.12-.83-5.89-3.4-5.89-2.89 0-3.56 2.88-3.56 10.87 0 8.53 1.19 10.08 3.64 10.08 2.06 0 3.56-1.07 3.56-7.16h5.69c0 6.09-1.5 11.35-8.97 11.35-8.55 0-9.62-6.09-9.62-14.67s1.07-14.66 9.62-14.66c8.14 0 8.74 5.96 8.74 10.08h-5.7M251.41 35.18h7.04l7.47 28.22h-5.93l-1.31-5.97h-7.51l-1.31 5.97h-5.93l7.48-28.22zm.75 17.59h5.54l-2.73-12.69h-.08l-2.73 12.69zM267.08 35.18h10.52c4.67 0 7.51 2.45 7.51 7.27 0 3.76-1.5 6.29-4.7 6.96v.08c3.87.51 4.47 2.65 4.55 8.61.04 2.97.19 4.51 1.26 5.06v.24h-6.17c-.55-.79-.67-1.86-.71-2.96l-.16-5.42c-.08-2.21-1.07-3.56-3.36-3.56h-3.05V63.4h-5.69V35.18zm5.69 12.33h2.38c2.72 0 4.27-1.18 4.27-4.23 0-2.61-1.39-3.91-3.96-3.91h-2.69v8.14zM287.89 35.18h9.34c7.91 0 9.33 5.41 9.33 13.72 0 10-2.13 14.5-9.69 14.5h-8.98V35.18zm5.7 24.03h2.53c3.96 0 4.75-2.49 4.75-10.16 0-6.4-.52-9.68-4.87-9.68h-2.41v19.84zM313.59 54.59v.83c0 2.65.75 4.35 3.75 4.35 1.74 0 3.41-1.11 3.41-3.48 0-2.57-1.31-3.52-5.07-4.83-5.06-1.73-7.4-3.83-7.4-8.53 0-5.5 3.37-8.3 8.75-8.3 5.06 0 8.74 2.17 8.74 7.58v.8h-5.46c0-2.65-.91-4.2-3.09-4.2-2.57 0-3.24 1.63-3.24 3.29 0 1.73.51 2.8 2.93 3.83l4.39 1.9c4.27 1.86 5.38 4.03 5.38 7.47 0 5.97-3.64 8.66-9.81 8.66-6.45 0-8.98-3.01-8.98-8.23v-1.14h5.7" fill="#C5CED4"/></g></svg>