<svg width="403" height="84" viewBox="0 0 403 84" xmlns="http://www.w3.org/2000/svg"><title>logo-gobank-white</title><g fill="#FFF" fill-rule="evenodd"><path d="M110.105 63.912V20.067l36 21.75-36 22.095zM122.525 0c-19.822 0-36.4 13.85-40.61 32.4H35.675l6.008 18.513h21.184C59.294 59.083 51.144 64.8 41.657 64.8c-12.783 0-23.144-10.363-23.144-23.144 0-12.78 10.36-23.142 23.143-23.142 5.208 0 10.015 1.722 13.883 4.627h23.43C72.153 9.43 58.01 0 41.656 0 18.65 0 0 18.65 0 41.656s18.65 41.656 41.656 41.656c19.558 0 35.95-13.49 40.428-31.667 4.475 18.18 20.878 31.667 40.44 31.667 23.008 0 41.657-18.65 41.657-41.656C164.18 18.65 145.533 0 122.526 0zM199.135 34.338c-10.675 0-12.3 9.05-12.3 19.494 0 10.444 1.625 19.61 12.3 19.61 10.676 0 12.185-9.166 12.185-19.61 0-10.443-1.51-19.494-12.185-19.494m17.405 44.44C213.29 82.03 208.07 84 202.153 84c-6.382 0-11.14-1.623-15.55-6.96v6.265H175V.69h11.836v29.704c4.293-5.106 9.166-6.615 15.432-6.615 5.918 0 11.023 1.972 14.272 5.222 5.918 5.916 6.615 15.896 6.615 24.83 0 8.934-.697 19.03-6.615 24.947M263.835 57.313h-13.81c-6.96 0-10.557 3.133-10.557 8.47 0 5.338 3.364 8.355 10.79 8.355 4.526 0 7.89-.35 11.024-3.365 1.74-1.74 2.553-4.524 2.553-8.702v-4.757zm.23 25.992v-5.34C259.774 82.26 255.713 84 248.402 84c-7.308 0-12.18-1.74-15.78-5.335-3.015-3.136-4.64-7.66-4.64-12.65 0-9.861 6.846-16.94 20.306-16.94h15.55v-4.178c0-7.425-3.715-11.023-12.88-11.023-6.5 0-9.633 1.508-12.88 5.686l-7.775-7.31c5.57-6.498 11.372-8.47 21.12-8.47 16.128 0 24.25 6.846 24.25 20.188v39.337h-11.604zM318.253 83.305V47.45c0-9.166-5.22-13.112-11.835-13.112-6.614 0-12.183 4.063-12.183 13.113v35.855H282.4v-58.83H294v5.92c4.062-4.41 9.747-6.615 15.664-6.615 6.034 0 11.024 1.972 14.506 5.337 4.524 4.41 5.917 9.98 5.917 16.593v37.595h-11.837zM373.948 83.305l-16.478-27.15-8.702 9.86v17.29h-11.836V.69h11.836v50.937l22.86-27.15h14.387l-20.422 23.09 22.974 35.738h-14.62zM402.784 7.12c0-3.776-3.008-6.784-6.784-6.784-3.744 0-6.784 3.008-6.784 6.784 0 3.744 3.04 6.784 6.784 6.784 3.776 0 6.784-3.04 6.784-6.784zm-.864 0c0 3.232-2.656 5.92-5.92 5.92s-5.92-2.688-5.92-5.92c0-3.296 2.656-5.92 5.92-5.92s5.92 2.624 5.92 5.92zm-2.816 3.904l-2.08-3.104c.448 0 1.984-.576 1.984-2.304 0-1.44-1.088-2.368-2.4-2.368h-3.168v7.776h.96V7.952h1.472l2.016 3.072h1.216zm-1.088-5.408c0 .8-.736 1.408-1.408 1.408H394.4v-2.88h2.208c.672 0 1.408.608 1.408 1.472z"/></g></svg>