<svg xmlns="http://www.w3.org/2000/svg" viewBox="0 0 426 93"><defs><style>.a{fill:#77787b}</style></defs><title>logo-gd-credit-cards-gray-v2</title><path class="a" d="M46.4 33.2h-3V31c0-1.1.5-1.8 1.6-1.8 1.4 0 1.4 1.3 1.4 1.8v2.2zm1.7 22.4c-1.6 0-1.6 1.4-1.6 2.3v7.7c0 .9 0 2.1 1.6 2.1 1.8 0 1.8-1.6 1.8-2.2v-7.8c0-.6 0-2.1-1.8-2.1zm13.8-.6c-1.5 0-1.5 1.4-1.5 2.2v9.2c0 .5 0 1.9 1.4 1.9s1.5-1.2 1.5-1.9v-9.2c0-1.1-.2-2.2-1.4-2.2zm-40-25.9c-1.7 0-1.7 1.6-1.7 2.2v8.1c0 .6 0 2 1.6 2s1.7-1.1 1.7-2v-8c0-.9 0-2.3-1.6-2.3zM59.5 31c0-.5 0-1.8-1.4-1.8-1.1 0-1.5.7-1.5 1.8v2.2h3V31zm19.9 16.3a3.09 3.09 0 0 1 .2.8 2.92 2.92 0 0 1-.2.9 1.7 1.7 0 0 1-.6.6 3.09 3.09 0 0 1-.8.2 2.92 2.92 0 0 1-.9-.2 1.7 1.7 0 0 1-.6-.6 2.92 2.92 0 0 1-.2-.9 1.88 1.88 0 0 1 .2-.8 1.7 1.7 0 0 1 .6-.6 1.2 1.2 0 0 1 .8-.2 1.88 1.88 0 0 1 .8.2 1.34 1.34 0 0 1 .7.6zm-.5 1.9l-.3-.4a1.38 1.38 0 0 0-.3-.4.35.35 0 0 0-.2-.1.69.69 0 0 0 .7-.6.37.37 0 0 0-.1-.3c-.1-.1-.2-.2-.3-.2a3.54 3.54 0 0 0-.6-.1H77v2.2h.4v-.9h.2a.37.37 0 0 1 .3.1 2.74 2.74 0 0 1 .4.5l.2.3h.4zm13.5-3A46.2 46.2 0 1 1 46.2 0a46.22 46.22 0 0 1 46.2 46.2zm-26.8-1.9h4.2v-13c0-.8 0-2.4 1.8-2.4 1.4 0 1.5 1.2 1.5 2.2v13.3h4.1V30.2a4.3 4.3 0 0 0-.8-3.1 3.74 3.74 0 0 0-2.9-1.2 4.59 4.59 0 0 0-3.6 1.7l.1-1.3h-4.3v18zm-13.3-5.4c0 3.6 1.7 5.8 5.8 5.8 2.6 0 5.5-.9 5.5-4.9v-1.4h-4.1c0 1.9 0 2.1-.4 2.5a1.29 1.29 0 0 1-1.1.5c-1.5 0-1.5-1.4-1.5-2.2v-3h7.2v-5.1a5.22 5.22 0 0 0-1.2-3.6 6.59 6.59 0 0 0-4.4-1.6 6.48 6.48 0 0 0-3.8 1.1c-1.2.8-1.9 2.1-1.9 4.3v7.6zM27.8 26.3h-4.2v1.4a5.29 5.29 0 0 0-3.8-1.8c-3.8 0-3.8 3.9-3.8 4.6V40c0 2.1.5 4.5 3.9 4.5a4.49 4.49 0 0 0 3.7-1.8v2.8c0 1.1-.2 2.1-1.7 2.1a1.73 1.73 0 0 1-1.5-.8 2.56 2.56 0 0 1-.2-1.1H16c0 1.7.1 4.9 5.6 4.9 6.1 0 6.1-4 6.1-5.8V26.3zm10.5-.4c-2.5-.1-3.4 1.3-4.1 2.6v-2.3H30v18.1h4.2V33.7c0-1.4 0-3.9 2.7-3.9a3.66 3.66 0 0 1 1.4.3v-4.2zM45 44.7c2.6 0 5.5-.9 5.5-4.9v-1.4h-4.1c0 1.9 0 2.1-.4 2.5a1.29 1.29 0 0 1-1.1.5c-1.6 0-1.6-1.4-1.6-2.2v-3h7.2v-5.1a5.22 5.22 0 0 0-1.2-3.6 6.59 6.59 0 0 0-4.4-1.6 6.28 6.28 0 0 0-3.8 1.1c-1.2.8-1.9 2.1-1.9 4.3v7.6c0 3.6 1.7 5.8 5.8 5.8zm9.1 1.1h-4.2v8.3a5.46 5.46 0 0 0-3.7-1.8 3.75 3.75 0 0 0-3.4 2.1 5 5 0 0 0-.5 2.7v8.3a9.08 9.08 0 0 0 .5 3.8 3.88 3.88 0 0 0 3.5 1.9 4.08 4.08 0 0 0 3.5-2.1v1.8H54v-25zm13.3 11.6a4.5 4.5 0 0 0-1.8-4.1 7.21 7.21 0 0 0-3.8-1c-5 0-5.7 3-5.7 5.2v8.1c0 1.3 0 5.5 5.5 5.5 3.7 0 5.8-1.8 5.8-5.1v-8.6zm9.8-4.7h-2.6v-6.5h-4.2v6.5h-2.3v2.8h2.3v11.7c0 2.3.6 3.8 4.6 3.8a14.1 14.1 0 0 0 2.2-.2v-3h-.7c-1.7 0-1.9-.8-1.9-2V55.5h2.6v-2.8zm2.5-3.6a1.69 1.69 0 0 0 .3-1 1.93 1.93 0 0 0-.3-1 1.39 1.39 0 0 0-.8-.7 1.82 1.82 0 0 0-2 0 2.7 2.7 0 0 0-.8.7 1.93 1.93 0 0 0-.3 1 1.69 1.69 0 0 0 .3 1 2.7 2.7 0 0 0 .7.8 1.82 1.82 0 0 0 2 0 1.8 1.8 0 0 0 .9-.8zm-1.3-1.4c0-.1 0-.1-.1-.2s-.1-.1-.2-.1h-.8v.6h.4c.2 0 .3 0 .4-.1s.3-.1.3-.2zM101 33.5l2.5-3.5a11 11 0 0 0 8.1 3.5c3.7 0 5.2-1.8 5.2-3.5 0-5.4-15-2-15-11.5 0-4.2 3.7-7.5 9.4-7.5a13.38 13.38 0 0 1 9.6 3.6l-2.6 3.4a10.34 10.34 0 0 0-7.4-2.9c-2.7 0-4.4 1.3-4.4 3.2 0 4.8 14.9 1.8 14.9 11.4 0 4.3-3 7.9-9.9 7.9a13.86 13.86 0 0 1-10.4-4.1zM123.9 27.8c0-5.4 3.9-9.7 9.4-9.7s9.2 4.3 9.2 10.1v1h-14.4a5.59 5.59 0 0 0 5.9 5.1 7.94 7.94 0 0 0 5.3-2l1.8 2.7a10.62 10.62 0 0 1-7.5 2.7 9.46 9.46 0 0 1-9.7-9.9zm9.4-6.4a5.1 5.1 0 0 0-5.2 4.9h10.5a5.13 5.13 0 0 0-5.3-4.9zM144.9 27.8a9.32 9.32 0 0 1 9.6-9.7 8.23 8.23 0 0 1 7.1 3.3l-2.7 2.5a4.89 4.89 0 0 0-4.3-2.2c-3.4 0-5.6 2.5-5.6 6.2s2.2 6.2 5.6 6.2a5.26 5.26 0 0 0 4.3-2.2l2.7 2.5a8.23 8.23 0 0 1-7.1 3.3 9.49 9.49 0 0 1-9.6-9.9zM177.4 37.1v-2.5a8.9 8.9 0 0 1-6.6 2.9c-4 0-6-2.1-6-5.9V18.5h4v11.7c0 2.9 1.5 3.8 3.7 3.8a6.58 6.58 0 0 0 4.8-2.4V18.5h4v18.6zM186.3 37.1V18.5h4v2.7a7.87 7.87 0 0 1 6-3.2v4a4.89 4.89 0 0 0-1.3-.1 6.51 6.51 0 0 0-4.8 2.5v12.7zM198.1 27.8c0-5.4 3.9-9.7 9.4-9.7s9.2 4.3 9.2 10.1v1h-14.4a5.59 5.59 0 0 0 5.9 5.1 7.94 7.94 0 0 0 5.3-2l1.8 2.7a10.62 10.62 0 0 1-7.5 2.7 9.51 9.51 0 0 1-9.7-9.9zm9.4-6.4a5.1 5.1 0 0 0-5.2 4.9h10.5a5 5 0 0 0-5.3-4.9zM233.4 37.1v-2.5a7.68 7.68 0 0 1-6 3c-4.8 0-8.3-3.6-8.3-9.7s3.5-9.8 8.3-9.8a7.68 7.68 0 0 1 6 3v-9.7h4v25.7zm0-5.6v-7.4a6 6 0 0 0-4.8-2.5c-3.2 0-5.2 2.6-5.2 6.2s2 6.2 5.2 6.2a6 6 0 0 0 4.8-2.5zM101.5 63.2c0-9.6 7.3-16.2 16.7-16.2a14.36 14.36 0 0 1 13.1 7.7l-5.7 2.8a8.55 8.55 0 0 0-7.4-4.6c-5.7 0-9.8 4.4-9.8 10.3s4.1 10.3 9.8 10.3a8.48 8.48 0 0 0 7.4-4.6l5.7 2.8c-2.3 3.9-6.2 7.7-13.1 7.7-9.4 0-16.7-6.6-16.7-16.2zM152.6 78.8l-6.2-11.2h-4.9v11.2h-6.7V47.5h14.7c6.5 0 10.5 4.3 10.5 10.1 0 5.6-3.5 8.5-6.9 9.3l7.1 12h-7.6zm.7-21.2c0-2.6-2-4.2-4.7-4.2h-7v8.5h7c2.6-.1 4.7-1.7 4.7-4.3zM164.7 78.8V47.5h22.2v5.9h-15.5V60h15.2v5.9h-15.2V73h15.5v5.9h-22.2v-.1zM191.6 78.8V47.5H204c9.8 0 16.7 6.3 16.7 15.7s-6.8 15.7-16.7 15.7h-12.4zm22.2-15.6c0-5.6-3.4-9.8-9.8-9.8h-5.7V73h5.7c6.2 0 9.8-4.5 9.8-9.8zM224.9 78.8V47.5h6.7v31.4h-6.7v-.1zM244.6 78.8V53.3h-9.2v-5.9h25v5.9h-9.1v25.5h-6.7zM274.4 63.2c0-9.6 7.3-16.2 16.7-16.2a14.36 14.36 0 0 1 13.1 7.7l-5.7 2.8a8.55 8.55 0 0 0-7.4-4.6c-5.7 0-9.8 4.4-9.8 10.3s4.1 10.3 9.8 10.3a8.48 8.48 0 0 0 7.4-4.6l5.7 2.8c-2.3 3.9-6.2 7.7-13.1 7.7-9.4 0-16.7-6.6-16.7-16.2zM329.1 78.8l-1.9-5.3h-13.5l-2 5.3h-7.6l12.1-31.4h8.4l12.1 31.4zm-8.7-24.7l-4.9 13.5h9.8l-4.9-13.5zM356.9 78.8l-6.2-11.2h-4.9v11.2h-6.7V47.5h14.7c6.5 0 10.5 4.3 10.5 10.1 0 5.6-3.5 8.5-6.9 9.3l7.1 12h-7.6zm.6-21.2c0-2.6-2-4.2-4.7-4.2h-7v8.5h7c2.7-.1 4.7-1.7 4.7-4.3zM368.9 78.8V47.5h12.4c9.8 0 16.7 6.3 16.7 15.7s-6.8 15.7-16.7 15.7h-12.4zm22.2-15.6c0-5.6-3.4-9.8-9.8-9.8h-5.7V73h5.7c6.2 0 9.8-4.5 9.8-9.8zM400.1 74.4l3.6-5.1a13.67 13.67 0 0 0 10 4.2c3.7 0 5.5-1.7 5.5-3.5 0-5.6-18.1-1.7-18.1-13.6 0-5.2 4.5-9.6 11.9-9.6 5 0 9.1 1.5 12.2 4.4l-3.7 4.9a13.08 13.08 0 0 0-9.1-3.4c-2.9 0-4.5 1.3-4.5 3.2 0 5 18 1.6 18 13.4 0 5.7-4.1 10.1-12.6 10.1-5.9 0-10.3-2-13.2-5z"/></svg>