<svg xmlns="http://www.w3.org/2000/svg" viewBox="0 0 305.97 77.81"><defs><style>.a { fill: #006b35; } .b { fill: #7ac143; } .c { fill: #fff; }</style></defs><title>logo-moneypak-v3</title><path class="a" d="M294.36 76.88H11.61A10.71 10.71 0 0 1 .93 66.2V11.61A10.71 10.71 0 0 1 11.61.93h282.75A10.71 10.71 0 0 1 305 11.61V66.2a10.71 10.71 0 0 1-10.64 10.68z"/><path class="b" d="M294.36 77.81H11.61A11.6 11.6 0 0 1 0 66.2V11.61A11.6 11.6 0 0 1 11.61 0h282.75A11.6 11.6 0 0 1 306 11.61V66.2a11.6 11.6 0 0 1-11.64 11.61zM11.61 1.86a9.76 9.76 0 0 0-9.76 9.76V66.2a9.76 9.76 0 0 0 9.76 9.8h282.75a9.76 9.76 0 0 0 9.76-9.76V11.61a9.76 9.76 0 0 0-9.76-9.76H11.61z"/><g><path class="c" d="M58.76 58.07V30.19L47.23 58.07h-2.79L32.9 30.19V58h-6.58V20.59h9.29l10.14 24.7L56 20.59h9.29v37.48h-6.5zm12.62-13.63c0-7.74 5.34-14.25 13.94-14.25s14 6.43 14 14.25-5.26 14.25-14 14.25c-8.6-.01-13.94-6.43-13.94-14.25zm21.76 0c0-4.8-2.79-9-7.9-9s-7.82 4.18-7.82 9 2.79 9.06 7.82 9.06 7.9-4.26 7.9-9.06zm30 13.63V41c0-4.18-2.17-5.65-5.42-5.65a8.89 8.89 0 0 0-7 3.64V58h-5.88V30.89h5.88v3.72a12.67 12.67 0 0 1 9.52-4.41c5.81 0 8.75 3.17 8.75 8.75v19.12h-5.89zm11.3-13.63c0-7.9 5.73-14.25 13.78-14.25s13.36 6.27 13.36 14.81v1.39h-21a8.28 8.28 0 0 0 8.67 7.51 11.54 11.54 0 0 0 7.67-2.94l2.71 3.87a15.92 15.92 0 0 1-11 3.95c-8.19-.1-14.23-5.78-14.23-14.34zm13.78-9.37c-5 0-7.36 3.87-7.67 7.2h15.25a7.21 7.21 0 0 0-7.62-7.2zm17.73 28.34a5.55 5.55 0 0 0 2.25.46c1.86 0 3.1-.54 3.87-2.32l1.32-3.1-11.11-27.56h6.27l7.9 20.36 7.9-20.36h6.35l-13.09 32.05c-1.86 4.64-5.11 6-9.29 6.12a16.29 16.29 0 0 1-3.33-.39zm28.65-5.34V20.59h16.49c7.9 0 12.23 5.42 12.23 11.77s-4.41 11.77-12.23 11.77h-9.91v14h-6.58v-.06zm21.91-25.78c0-3.56-2.71-6-6.43-6h-9v11.96h9c3.68 0 6.39-2.33 6.39-5.96zm27.87 25.78v-2.95a11.37 11.37 0 0 1-8.75 3.56c-4.41 0-9.45-2.94-9.45-9 0-6.27 5-8.83 9.45-8.83 3.64 0 6.81 1.16 8.75 3.48v-4c0-3.17-2.55-5-6.35-5a11.46 11.46 0 0 0-8.05 3.41l-2.4-4.1a16.3 16.3 0 0 1 11.38-4.41c6 0 11.3 2.55 11.3 9.83V58l-5.88.08zm0-6.19v-4.1C243 45.91 240.47 45 237.92 45c-3.33 0-5.81 1.94-5.81 4.88s2.48 4.8 5.81 4.8c2.55-.02 5.08-.95 6.42-2.81zm30.89 6.19l-8.28-11.23-3.79 3.87V58h-5.88V20.59h5.88v23.46l12-13.08h7.28l-11.3 12.31 11.54 14.87h-7.43v-.08zM284.6 24a2.32 2.32 0 1 1 2.32-2.32A2.33 2.33 0 0 1 284.6 24zm0-4.26a1.94 1.94 0 1 0 1.94 1.94 1.92 1.92 0 0 0-1.94-1.94zm.62 3.33l-.7-1.07h-.46v1.08h-.39v-2.64h1.08a.8.8 0 0 1 .85.77.75.75 0 0 1-.7.77l.7 1.08h-.39zm-.46-2.32h-.7v.93h.7a.45.45 0 0 0 .46-.46.41.41 0 0 0-.46-.47z"/></g></svg>