<svg width="58" height="36" viewBox="0 0 58 36" xmlns="http://www.w3.org/2000/svg"><title>FDIC logo</title><g fill="#87969D" fill-rule="evenodd"><path d="M0 8.455v1.063h4.37V8.455C3.106 8.415 2.9 8.25 2.9 7.392V2.036l2.615 7.482h1.103l2.82-7.482V7.27c0 1.103 0 1.103-1.553 1.185v1.063h5.066V8.455c-1.47 0-1.51-.164-1.51-.94V2.28c0-.858.122-1.144 1.51-1.144V.032H8.62l-2.206 6.01L4.37.033H0v1.104c1.226 0 1.43 0 1.43 1.063v5.028c0 .982 0 1.227-1.43 1.227M21.197 8.455v1.063h4.045V8.455c-.98-.04-.98-.164-.98-1.513V5.797c0-1.104.49-2.003 1.51-2.003.818 0 1.063.53 1.063 1.267v2.414c0 .817-.04.98-1.02.98V9.52h3.635V8.455c-.858 0-.94-.082-.94-.9V5.88c0-1.146.53-2.127 1.593-2.127.817 0 .98.49.98 1.472v2.453c0 .695 0 .777-.98.777v1.063h4.004V8.455c-1.226 0-1.307.04-1.307-.654V5.06c0-1.552-.368-2.452-1.96-2.452-.94 0-1.554.368-2.33 1.186-.41-.736-.98-1.227-1.96-1.227-1.022 0-1.717.532-2.29 1.31V2.77h-3.063v.98c1.226 0 1.348.042 1.348 1.023v2.25c0 1.43 0 1.43-1.348 1.43M34.596.035h2.86V3.51c.776-.654 1.266-.9 2.043-.9 1.633 0 2.736 1.473 2.736 3.517 0 2.208-1.103 3.64-2.982 3.64-.9 0-1.47-.287-2.084-.94l-.572.776h-.858v-7.36c0-1.104-.082-1.227-1.144-1.227v-.98zm5.72 6.09c0-1.555-.57-2.332-1.388-2.332-1.062 0-1.51.86-1.51 2.454 0 1.39.53 2.33 1.47 2.33.776 0 1.43-.736 1.43-2.453zM50.937 8.455v1.063h4.412V8.455c-1.227 0-1.35.04-1.35-.94V6.043c0-1.35.45-2.576 1.676-2.576.082 0 .163 0 .408.08-.408.206-.694.492-.694.942 0 .53.408.898.94.898.653 0 1.103-.49 1.103-1.226 0-.9-.654-1.554-1.553-1.554-.735 0-1.266.368-1.92 1.104v-.94h-3.023v.98c1.062 0 1.348 0 1.348.9v2.78c0 .94 0 1.023-1.348 1.023M45.38 6.332c0 1.31.614 2.208 1.717 2.208.98 0 1.43-.572 1.593-1.472h1.226c-.204 1.718-1.348 2.658-2.982 2.658-1.96 0-3.432-1.186-3.432-3.476 0-2.085 1.307-3.64 3.268-3.64 1.92 0 3.146 1.473 3.146 3.722H45.38zm1.39-2.663c-.817 0-1.307.57-1.307 1.594h2.574c0-1.064-.41-1.595-1.267-1.595zM15.642 6.332c0 1.31.653 2.208 1.756 2.208.98 0 1.43-.572 1.594-1.472h1.184c-.204 1.718-1.307 2.658-2.94 2.658-1.962 0-3.474-1.186-3.474-3.476 0-2.085 1.35-3.64 3.31-3.64 1.92 0 3.104 1.473 3.104 3.722h-4.534zm1.43-2.663c-.818 0-1.308.57-1.308 1.594h2.533c0-1.104-.41-1.595-1.226-1.595zM51.67 21.39v.677h-.148v-.516h-.056l.07-.16h.133M52.01 21.6c0 .14.127.252.286.252.064 0 .123-.018.17-.05-.088.228-.323.136-.373.118l-.063.124c.077.077.593.127.593-.365 0-.058-.042-.332-.327-.332v.122c.08 0 .164.06.164.13 0 .072-.083.13-.164.13-.083 0-.15-.058-.15-.13 0-.07.067-.13.15-.13v-.122c-.16 0-.287.113-.287.252M53.072 22.098c-.153 0-.243-.068-.267-.098l.09-.09c.04.025.11.068.16.068.047 0 .137-.022.137-.098 0-.037-.035-.1-.177-.08v-.117c.15.012.186-.04.186-.09 0-.05-.055-.09-.122-.09-.052 0-.104.03-.147.08l-.1-.1c.046-.068.136-.115.242-.115.148 0 .26.093.26.207 0 .06-.025.114-.08.152.06.033.084.107.084.153 0 .114-.102.218-.264.218M53.802 22.098c-.153 0-.242-.068-.267-.098l.09-.09c.04.025.11.068.16.068.048 0 .137-.022.137-.098 0-.037-.034-.1-.177-.08v-.117c.15.012.186-.04.186-.09 0-.05-.054-.09-.122-.09-.052 0-.103.03-.147.08l-.098-.1c.044-.068.135-.115.24-.115.15 0 .26.093.26.207 0 .06-.024.114-.078.152.058.033.082.107.082.153 0 .114-.1.218-.264.218M51.615 26.527v-.388h-.076v.462h.25v-.18h.126v.18h.25v-.463h.115c.14 0 .14.07.23.07.07 0 .092-.07.142-.07.05 0 .065.086.13.086.064 0 .08-.087.13-.087s.072.07.14.07c.093 0 .12-.07.256-.07.077 0 .123.032.123.12 0 .153.124.276.276.276.152 0 .275-.123.275-.275v-.394c0-.152-.122-.275-.274-.275v.097c.092 0 .165.074.165.165 0 .144-.06.212-.06.212s.06.066.06.212c0 .09-.072.164-.163.164-.09 0-.164-.074-.164-.164 0-.146.06-.212.06-.212s-.06-.068-.06-.212c0-.09.073-.165.164-.165v-.096c-.153 0-.276.124-.276.276 0 .09-.045.125-.122.125-.137 0-.163-.07-.255-.07-.07 0-.092.066-.142.066-.048 0-.064-.085-.13-.085-.063 0-.078.086-.128.086s-.073-.067-.142-.067c-.09 0-.09.07-.23.07h-.858v.15h.67v.387h-.1v-.18h-.277v.18h-.1"/><path d="M56.31 24.32c0 1.92-1.556 3.478-3.475 3.478v-.174c1.823 0 3.3-1.48 3.3-3.303 0-1.824-1.477-3.302-3.3-3.302-1.822 0-3.3 1.478-3.3 3.303s1.478 3.304 3.3 3.304v.174c-1.918 0-3.474-1.557-3.474-3.477s1.557-3.476 3.475-3.476c1.92 0 3.474 1.556 3.474 3.477"/><path d="M56.406 24.32c0-1.973-1.6-3.573-3.57-3.573-1.973 0-3.572 1.6-3.572 3.574 0 1.975 1.6 3.575 3.57 3.575v.084c-2.017 0-3.653-1.64-3.653-3.66 0-2.02 1.637-3.657 3.655-3.657S56.49 22.3 56.49 24.32c0 2.02-1.637 3.66-3.655 3.66v-.085c1.972 0 3.57-1.6 3.57-3.574"/><path d="M57.804 24.32c0 2.747-2.224 4.974-4.97 4.974v.17c2.84 0 5.14-2.303 5.14-5.143s-2.3-5.142-5.14-5.142c-2.837 0-5.137 2.303-5.137 5.143s2.3 5.143 5.138 5.143v-.17c-2.743 0-4.97-2.226-4.97-4.972 0-2.745 2.227-4.972 4.97-4.972 2.745 0 4.97 2.227 4.97 4.973"/><path d="M57.696 24.32c0-2.686-2.176-4.865-4.86-4.865-2.686 0-4.863 2.18-4.863 4.866 0 2.688 2.177 4.866 4.862 4.866v-.088c-2.636 0-4.773-2.14-4.773-4.777s2.137-4.776 4.773-4.776c2.636 0 4.773 2.14 4.773 4.777 0 2.64-2.137 4.778-4.773 4.778v.088c2.685 0 4.86-2.178 4.86-4.865"/><path d="M51.922 19.837l.395.678c-.057.007-.116.017-.176.03l-.07-.12-.216.047.014-.17.117-.025-.1-.174-.017.2-.014.17-.01.14c-.06.012-.117.03-.172.05l.064-.784.186-.043M56.036 21.162l-.222.196c-.028.024-.03.067-.007.095l.165.187-.1.085-.207-.237-.118.104.256.29c.03.035.086.038.12.007l.223-.19c.03-.025.032-.068.007-.096l-.166-.188.098-.084.21.24.124-.105-.263-.297c-.032-.035-.086-.04-.12-.008M49.388 22.635c-.023.045-.044.09-.066.14l-.66-.33.207-.415.142.073-.135.273.113.057.116-.234.143.074-.116.232.254.13M55.834 20.862c.043.035.05.097.015.14l-.346.42c-.034.042-.1.048-.142.013-.06-.05-.118-.106-.134-.12l-.13-.1c-.046-.032-.05-.098-.016-.14l.343-.42c.035-.042.098-.05.14-.013l-.054.16-.266.324.18.146.266-.324-.18-.146.055-.16.27.22M51.203 20.536l-.144.065-.067-.146.16-.072c.02-.01.027-.032.02-.05l-.02-.047c-.01-.02-.033-.028-.053-.02l-.16.072.053.117.066.147.114.26-.15.072-.302-.673.437-.197c.034-.016.074 0 .09.035l.1.222c.015.033 0 .07-.033.086-.002 0-.003.003-.002.005 0 .004.004.004.007.004.03-.015.07 0 .084.032l.086.192c.005.013.02.05.063.045l.005.01c-.057.022-.11.044-.172.07-.023-.008-.038-.024-.048-.047-.01-.023-.044-.116-.06-.15-.013-.03-.047-.043-.077-.03M52.92 20.482l-.002-.16-.298.01-.022-.578-.156.005.028.736c.158-.012.305-.016.45-.014M49.728 21.802l.13.096c-.09.115-.178.233-.265.366l-.6-.427.27-.38.13.096-.177.248.103.076.15-.213.13.095-.15.212.106.076.172-.244M49.958 21.78l-.526-.53.07-.07.153.07.297.3.164-.164-.298-.298-.163.162-.153-.07.246-.245c.04-.04.102-.038.142 0l.38.387c.04.04.04.103 0 .142-.057.056-.117.108-.132.12l-.18.195M50.767 20.898l.09.133c-.126.08-.248.16-.373.257l-.42-.607.382-.265.09.135-.25.172.072.105.214-.15.09.136-.214.147.074.108.245-.17M53.245 20.498l.13-.735.097.017.03.166-.074.414.23.04.07-.414-.225-.04-.03-.166.34.06c.055.01.09.062.082.116l-.096.534c-.01.055-.064.09-.118.082-.078-.014-.155-.035-.175-.038-.018-.003-.188-.027-.262-.036M54.442 20.657l-.06.15c-.133-.06-.27-.112-.42-.16l.256-.693.436.162-.06.15-.284-.105-.045.12.245.09-.06.15-.242-.09-.046.123.28.104M54.78 20.68l.082-.143.153.087c.02.01.044.004.056-.015l.025-.044c.01-.02.004-.044-.016-.055l-.155-.086-.063.113-.082.143-.142.252c-.055-.032-.104-.056-.15-.08l.368-.655.425.24c.035.02.047.062.028.096l-.157.28c-.018.03-.058.043-.09.024l-.28-.157M55.973 22.108l.61-.41.087.128-.61.41-.043-.065c-.014-.02-.03-.04-.044-.062M56.796 22.373l-.513.262c-.01-.023-.023-.046-.035-.07l-.036-.07.513-.262-.073-.143.142-.073.217.425-.14.072-.074-.14M48.722 23.016l-.006.198.183.075-.19.053-.016.198-.11-.163-.193.048.123-.157-.105-.168.186.067.128-.15M56.948 23.016l.008.198-.185.075.19.053.016.198.11-.163.194.048-.122-.157.104-.168-.186.067-.128-.15M51.14 28.357l-.02.04-.21-.094.173-.383.21.096-.02.042.143.064.046-.1c.023-.05 0-.11-.05-.133-.072-.034-.146-.064-.164-.072-.018-.008-.084-.037-.15-.07-.048-.026-.11-.002-.132.048l-.225.494c-.022.05 0 .11.05.132l.316.145c.05.022.11 0 .133-.05l.04-.095-.14-.065M49.01 24.16l-.734-.046.01-.156.734.046-.005.08c-.003.025-.004.05-.005.076M48.982 25.076l-.286.076c-.036.01-.058.046-.05.083l.065.24-.125.032-.08-.305-.153.04.1.374c.01.045.06.072.105.06l.283-.07c.036-.008.06-.046.05-.08l-.065-.244.124-.03.08.308.158-.04-.102-.383c-.01-.045-.06-.073-.104-.06M48.608 24.823l.425-.042.007.08.008.076-.73.07-.016-.156.43-.33-.46.015-.003-.156.733-.022.002.08c0 .025 0 .05.003.076l-.4.31M48.744 26.33c.022.05.08.074.13.053l.587-.254-.063-.145-.525.23L48.78 26l.525-.226-.064-.146-.582.253c-.05.023-.077.085-.052.135l.138.315M49.51 27.48l.126-.07.15-.08.177-.093-.092.18-.084-.086-.15.08.158.158-.068.128.127.125.355-.695-.136-.134-.69.366.127.125M49.818 26.687c.022.032.014.076-.017.097l-.2.14c-.03.018-.07.01-.09-.02h-.006c-.002 0-.002.004 0 .006.02.03.013.07-.017.09-.042.028-.162.11-.174.12-.01.007-.047.027-.032.07l-.006.004-.105-.153c.003-.022.018-.042.04-.056.02-.015.105-.064.137-.086.026-.02.032-.055.014-.08l-.088-.132.133-.09.1.143c.01.016.036.02.053.01l.04-.03c.02-.01.023-.036.01-.054l-.1-.144-.103.073-.133.09-.236.163-.094-.137.605-.417c.08.13.177.28.27.394M51.968 28.235l.042-.156c-.143-.034-.283-.073-.434-.123l-.206.708.447.13.042-.156-.294-.086.036-.122.25.073.042-.156-.248-.073.035-.126.288.085M50.547 27.92l.235-.355.066.045c.022.013.043.028.065.04l-.41.612-.13-.086.02-.543-.28.365-.126-.095.45-.582c.02.017.04.034.062.05l.06.046-.013.504M53.253 28.892c-.055.007-.105-.03-.113-.085l-.073-.538c-.007-.056.03-.106.086-.115.078-.01.158-.014.178-.017.02-.002.09-.015.164-.03.053-.01.106.032.113.087l.075.536c.007.056-.03.106-.086.114l-.08-.15-.057-.416-.23.032.058.418.228-.033.08.15-.343.047M54.857 27.595c.035-.018.078-.006.098.03l.15.282c.017.033.004.072-.027.09l-.284.152-.077-.147.156-.084c.02-.01.027-.035.017-.055l-.024-.043c-.01-.02-.034-.028-.054-.018l-.156.084.06.115.078.146.138.254c-.057.032-.106.055-.152.082l-.352-.662c.1-.045.312-.156.43-.23M57.004 26.21l-.53-.23-.063.15-.145-.064c.063-.12.14-.304.19-.438l.146.063-.063.148.53.228-.063.144M52.794 28.703v.046l-.23-.01.013-.42.232.008-.002.046.154.007.005-.11c.002-.055-.04-.1-.096-.103-.08-.004-.158-.003-.18-.004-.017 0-.09-.002-.164-.01-.054-.004-.102.043-.104.098l-.02.54c-.003.057.04.103.095.105l.347.014c.055 0 .102-.042.104-.097l.003-.103-.156-.007M54.198 27.918c.037-.012.077.01.09.046l.07.233c.01.033-.008.07-.043.08-.003 0-.004.003-.003.006 0 .002.003.003.006.002.033-.01.07.01.08.043l.062.2c.004.014.013.055.058.054l.002.007-.178.054c-.02-.01-.034-.032-.042-.056-.008-.025-.03-.12-.04-.156-.01-.03-.043-.05-.074-.04l-.15.048-.048-.154.166-.052c.02-.007.032-.03.025-.05l-.015-.046c-.006-.02-.028-.032-.05-.026l-.166.052.038.122.047.154.085.273-.16.05-.218-.702c.147-.04.32-.086.456-.142M55.556 28.02c-.044.036-.105.028-.14-.015l-.34-.422c-.036-.042-.03-.106.013-.14.06-.05.127-.096.144-.108l.123-.11c.042-.037.107-.028.142.015l.34.42c.034.043.028.106-.015.14l-.145-.084-.265-.328-.18.147.266.326.18-.144.145.085-.27.22M55.863 26.695c.026-.03.07-.032.1-.006l.18.16c.027.024.03.065.006.09-.002.003-.002.007 0 .008 0 .002.003.002.005 0 .024-.027.065-.03.09-.006.04.034.148.13.158.14.01.01.04.04.076.015l.005.005-.123.14c-.023 0-.046-.01-.064-.027-.02-.017-.09-.088-.118-.112-.023-.022-.06-.02-.08.005l-.106.12-.12-.11.115-.13c.013-.016.012-.04-.005-.055l-.036-.033c-.017-.013-.043-.012-.057.004l-.115.13.095.085.12.107.215.19-.11.125-.552-.488c.107-.11.228-.24.317-.36M56.655 26.885l-.096-.108-.112-.13-.13-.152.193.05-.062.102.11.13.117-.19.142.038.093-.15-.757-.194-.1.164.508.592.095-.15M56.54 25.356l.704.212-.045.15-.704-.213.023-.075.02-.074M57.1 24.087l-.425.016c0-.026 0-.052-.002-.078l-.003-.078.735-.025.005.157-.452.3.46.015-.005.156-.734-.023.002-.08.002-.076.417-.283M57.336 25.227c-.01.055-.06.092-.114.084l-.536-.082c-.055-.007-.092-.06-.084-.114.012-.078.03-.156.033-.176.003-.018.012-.09.02-.164.005-.055.06-.093.114-.085l.533.08c.055.007.092.06.084.114l-.165.035-.415-.065-.034.23.416.062.032-.228.165-.036-.05.343M51.737 22.805c.044 0 .078-.034.078-.077 0-.044-.034-.078-.078-.078-.043 0-.078.034-.078.078 0 .043.034.077.077.077"/><path d="M51.718 22.74l-.27 1.047h.067l.19-.74v.74h.074v-.74l.19.74h-.52c.04.123.184.192.29.192.107 0 .25-.07.293-.193l-.27-1.047h-.045M52.834 22.275l.125.057-.013.022c-.06 0-.072.113-.072.17 0 .03.03.077.09.077.054 0 .155-.05.293-.05.138 0 .28.057.43.057.152 0 .187-.042.224-.042.04 0 .114.016.114.07 0 .056-.075.072-.114.072-.037 0-.072-.042-.223-.042-.15 0-.294.058-.432.058s-.24-.052-.294-.052c-.058 0-.09.047-.09.08 0 .03.07.096.07.096l-.11.166-.11-.166s.07-.065.07-.097c0-.033-.032-.08-.09-.08-.055 0-.155.053-.293.053-.137 0-.28-.058-.432-.058-.15 0-.184.042-.222.042-.038 0-.113-.016-.113-.07 0-.056.075-.072.113-.072.038 0 .072.042.222.042.15 0 .295-.058.433-.058.14 0 .24.05.295.05.057 0 .088-.045.088-.077 0-.056-.012-.17-.07-.17l-.014-.02.124-.058"/><path d="M53.93 22.805c-.04 0-.077-.034-.077-.077 0-.044.036-.078.078-.078.045 0 .08.034.08.078 0 .043-.035.077-.08.077"/><path d="M53.95 22.74l.27 1.047h-.066l-.192-.74v.74h-.074v-.74l-.19.74h.522c-.042.123-.186.192-.292.192-.107 0-.25-.07-.292-.193l.27-1.047h.045M51.09 22.5c.038 0 .07-.03.07-.07 0-.04-.032-.07-.07-.07-.042 0-.073.03-.073.07 0 .04.03.07.072.07M50.843 22.748c.038 0 .07-.032.07-.07 0-.04-.032-.073-.07-.073-.04 0-.072.032-.072.072 0 .04.034.07.073.07M51.335 22.748c.04 0 .07-.032.07-.07 0-.04-.03-.073-.07-.073-.04 0-.072.032-.072.072 0 .04.033.07.072.07M51.09 22.994c.038 0 .07-.032.07-.07 0-.04-.032-.073-.07-.073-.042 0-.073.034-.073.073 0 .04.03.07.072.07M51.572 22.5c.04 0 .072-.03.072-.07 0-.04-.032-.07-.072-.07-.04 0-.07.03-.07.07 0 .04.03.07.07.07M54.104 22.5c.04 0 .07-.03.07-.07 0-.04-.03-.07-.07-.07-.04 0-.07.03-.07.07 0 .04.03.07.07.07M54.643 22.5c.04 0 .07-.03.07-.07 0-.04-.03-.07-.07-.07-.04 0-.07.03-.07.07 0 .04.03.07.07.07M51.573 22.986c.038 0 .07-.032.07-.07 0-.04-.032-.073-.07-.073-.04 0-.07.033-.07.072 0 .04.03.07.07.07M52.088 23.478c.04 0 .072-.03.072-.07 0-.04-.033-.072-.072-.072-.04 0-.07.032-.07.072 0 .04.03.07.07.07M52.358 23.71c.04 0 .07-.033.07-.073 0-.038-.03-.07-.07-.07-.04 0-.07.032-.07.07 0 .04.03.072.07.072M51.326 23.232c.04 0 .072-.03.072-.07 0-.04-.033-.072-.072-.072-.04 0-.07.032-.07.07 0 .04.03.072.07.072M51.09 23.47c.038 0 .07-.03.07-.07 0-.04-.032-.072-.07-.072-.042 0-.073.032-.073.072 0 .04.03.07.072.07M51.33 23.712c.04 0 .072-.03.072-.07 0-.04-.032-.07-.072-.07-.038 0-.07.03-.07.07 0 .04.032.07.07.07M51.834 24.217c.04 0 .07-.03.07-.07 0-.04-.03-.072-.07-.072-.04 0-.07.032-.07.07 0 .04.03.072.07.072M51.09 23.955c.038 0 .07-.03.07-.072 0-.038-.032-.07-.07-.07-.042 0-.073.032-.073.07 0 .04.03.072.072.072M51.09 24.463c.038 0 .07-.03.07-.07 0-.04-.032-.072-.07-.072-.042 0-.073.033-.073.072 0 .04.03.07.072.07M51.09 24.948c.038 0 .07-.032.07-.072 0-.038-.032-.07-.07-.07-.042 0-.073.032-.073.07 0 .04.03.072.072.072M51.342 24.694c.04 0 .07-.032.07-.072 0-.038-.03-.07-.07-.07-.04 0-.07.032-.07.07 0 .04.03.072.07.072M51.596 24.463c.04 0 .07-.03.07-.07 0-.04-.03-.072-.07-.072-.038 0-.07.033-.07.072 0 .04.032.07.07.07M51.342 24.21c.04 0 .07-.032.07-.072 0-.04-.03-.07-.07-.07-.04 0-.07.03-.07.07 0 .04.03.07.07.07M50.847 25.19c.038 0 .07-.032.07-.07 0-.04-.032-.073-.07-.073-.04 0-.072.033-.072.072 0 .038.032.07.072.07M52.088 22.986c.04 0 .072-.032.072-.07 0-.04-.033-.073-.072-.073-.04 0-.07.033-.07.072 0 .04.03.07.07.07M52.334 23.232c.04 0 .07-.03.07-.07 0-.04-.03-.072-.07-.072-.038 0-.07.032-.07.07 0 .04.032.072.07.072M52.596 23.463c.04 0 .072-.032.072-.072 0-.038-.033-.07-.072-.07-.038 0-.07.032-.07.07 0 .04.032.073.07.073M52.596 22.986c.04 0 .072-.032.072-.07 0-.04-.033-.073-.072-.073-.038 0-.07.033-.07.072 0 .04.032.07.07.07M52.842 23.232c.04 0 .072-.03.072-.07 0-.04-.032-.072-.072-.072-.04 0-.07.032-.07.07 0 .04.03.072.07.072M53.088 22.986c.04 0 .07-.032.07-.07 0-.04-.03-.073-.07-.073-.04 0-.07.033-.07.072 0 .04.03.07.07.07M53.374 23.24c.04 0 .07-.03.07-.07 0-.04-.03-.072-.07-.072-.04 0-.07.032-.07.07 0 .04.03.072.07.072M53.612 22.994c.04 0 .07-.032.07-.07 0-.04-.03-.073-.07-.073-.04 0-.07.034-.07.073 0 .04.03.07.07.07M53.12 23.478c.038 0 .07-.03.07-.07 0-.04-.032-.072-.07-.072-.04 0-.07.032-.07.072 0 .04.03.07.07.07M53.38 23.74c.04 0 .073-.03.073-.07 0-.04-.032-.072-.072-.072-.037 0-.07.032-.07.07 0 .04.033.072.07.072M53.632 23.49c.038 0 .07-.03.07-.07 0-.04-.032-.072-.07-.072-.04 0-.072.032-.072.07 0 .04.033.073.072.073M54.37 22.768c.04 0 .07-.032.07-.072 0-.04-.03-.07-.07-.07-.04 0-.072.03-.072.07 0 .04.033.072.072.072M54.877 22.735c.04 0 .072-.03.072-.07 0-.04-.034-.07-.073-.07-.04 0-.07.03-.07.07 0 .04.03.07.07.07M54.62 22.994c.04 0 .07-.032.07-.07 0-.04-.03-.073-.07-.073-.04 0-.072.034-.072.073 0 .04.033.07.072.07M54.365 23.248c.04 0 .072-.032.072-.07 0-.04-.033-.072-.072-.072-.04 0-.07.032-.07.07 0 .04.03.072.07.072M54.365 23.74c.04 0 .072-.03.072-.07 0-.038-.033-.07-.072-.07-.04 0-.07.032-.07.07 0 .04.03.07.07.07M54.62 23.502c.04 0 .07-.032.07-.07 0-.04-.03-.072-.07-.072-.04 0-.072.032-.072.07 0 .04.033.072.072.072M54.675 23.994c.04 0 .07-.03.07-.07 0-.04-.03-.072-.07-.072-.04 0-.07.032-.07.072 0 .04.03.07.07.07M54.413 24.24c.04 0 .07-.03.07-.07 0-.04-.03-.072-.07-.072-.04 0-.07.032-.07.072 0 .04.03.07.07.07M53.89 24.233c.038 0 .07-.032.07-.07 0-.04-.032-.073-.07-.073-.04 0-.07.033-.07.072 0 .04.03.07.07.07M54.16 24.495c.04 0 .07-.032.07-.07 0-.04-.03-.073-.07-.073-.04 0-.072.033-.072.072 0 .04.033.07.07.07M54.38 24.717c.04 0 .073-.03.073-.07 0-.04-.032-.072-.072-.072-.038 0-.07.032-.07.07 0 .04.032.072.07.072M54.66 24.964c.04 0 .07-.032.07-.072 0-.04-.03-.07-.07-.07-.04 0-.072.03-.072.07 0 .04.033.072.07.072M51.31 26.29c.04 0 .072-.032.072-.07 0-.04-.033-.073-.072-.073-.04 0-.07.033-.07.072 0 .038.03.07.07.07M51.818 25.782c.04 0 .07-.032.07-.072 0-.04-.03-.07-.07-.07-.04 0-.07.03-.07.07 0 .04.03.072.07.072M52.06 25.54c.04 0 .07-.033.07-.072 0-.038-.03-.07-.07-.07-.04 0-.07.032-.07.07 0 .04.03.07.07.07M52.32 25.28c.038 0 .07-.03.07-.07 0-.04-.032-.07-.07-.07-.04 0-.073.03-.073.07 0 .04.032.07.072.07M52.568 25.03c.04 0 .07-.03.07-.07 0-.04-.03-.07-.07-.07-.04 0-.07.03-.07.07 0 .04.03.07.07.07M52.818 24.78c.04 0 .07-.03.07-.07 0-.04-.03-.07-.07-.07-.04 0-.07.03-.07.07 0 .04.03.07.07.07M53.077 25.04c.038 0 .07-.033.07-.072 0-.04-.032-.07-.07-.07-.04 0-.072.03-.072.07 0 .04.032.07.072.07M53.346 25.277c.04 0 .07-.032.07-.07 0-.04-.03-.072-.07-.072-.04 0-.07.033-.07.07 0 .04.03.072.07.072M53.592 25.523c.04 0 .07-.03.07-.07 0-.04-.03-.07-.07-.07-.04 0-.07.03-.07.07 0 .04.03.07.07.07M53.077 25.53c.038 0 .07-.03.07-.07 0-.038-.032-.07-.07-.07-.04 0-.072.032-.072.07 0 .04.032.07.072.07M52.83 25.285c.04 0 .07-.032.07-.07 0-.04-.03-.072-.07-.072-.04 0-.07.032-.07.07 0 .04.03.072.07.072M52.576 25.54c.04 0 .072-.033.072-.072 0-.038-.032-.07-.072-.07-.04 0-.07.032-.07.07 0 .04.03.07.07.07M52.33 25.785c.04 0 .072-.03.072-.07 0-.04-.032-.07-.072-.07-.04 0-.07.03-.07.07 0 .04.03.07.07.07M52.83 25.785c.04 0 .07-.03.07-.07 0-.04-.03-.07-.07-.07-.04 0-.07.03-.07.07 0 .04.03.07.07.07M53.323 25.785c.038 0 .07-.03.07-.07 0-.04-.032-.07-.07-.07-.04 0-.072.03-.072.07 0 .04.033.07.073.07M54.092 26.016c.04 0 .07-.032.07-.07 0-.04-.03-.072-.07-.072-.04 0-.07.032-.07.07 0 .04.03.072.07.072M54.354 26.254c.04 0 .07-.03.07-.07 0-.04-.03-.072-.07-.072-.04 0-.072.032-.072.07 0 .04.032.072.072.072M54.1 26.516c.04 0 .07-.03.07-.07 0-.04-.03-.072-.07-.072-.04 0-.07.033-.07.07 0 .04.03.072.07.072M53.092 26.524c.04 0 .07-.032.07-.07 0-.04-.03-.072-.07-.072-.04 0-.07.032-.07.07 0 .04.03.072.07.072M52.576 26.524c.04 0 .072-.032.072-.07 0-.04-.032-.072-.072-.072-.04 0-.07.032-.07.07 0 .04.03.072.07.072M53.33 26.762c.038 0 .07-.03.07-.07 0-.04-.032-.07-.07-.07-.04 0-.07.03-.07.07 0 .04.03.07.07.07M52.83 26.762c.04 0 .07-.03.07-.07 0-.04-.03-.07-.07-.07-.04 0-.07.03-.07.07 0 .04.03.07.07.07M52.33 26.762c.04 0 .072-.03.072-.07 0-.04-.032-.07-.072-.07-.04 0-.07.03-.07.07 0 .04.03.07.07.07"/><path d="M55.51 22.792c.124.05.32.27.196.393-.448-.16-.59.233-.59.455 0 .51.386.774.386 1.683 0 .286-.073 1.394-1.58 1.743-.236.056-.75.192-1.087.505v-.094c.37-.342 1.08-.464 1.197-.5.564-.17 1.41-.632 1.41-1.674 0-.64-.262-1.142-.507-1.142-.103 0-.072.128-.013.214.035.05.076.134-.018.116-.094-.02-.22.012-.22.097 0 .04.053.04.082.025.028-.016.066-.028.12-.028.102 0 .216.065.216.14 0 .076-.145.045-.145.104 0 .04.345.286.345.574 0 .09-.038.057-.06 0-.022-.056-.08-.13-.137-.13-.057 0-.09.02-.063.067.024.047.12.19.12.392 0 .2-.15.464-.246.583-.047.06-.063.022-.07 0-.01-.022-.033-.09-.08-.09-.082 0-.032.388-.925.627-.177.047-.63.16-1.005.45-.376-.29-.83-.403-1.007-.45-.892-.24-.842-.628-.924-.628-.047 0-.07.07-.08.09-.008.023-.023.06-.07 0-.097-.118-.245-.38-.245-.582 0-.2.093-.345.118-.393.024-.047-.006-.07-.063-.07-.056 0-.116.076-.138.132-.022.057-.06.09-.06 0 0-.288.345-.533.345-.574 0-.06-.143-.028-.143-.104 0-.075.11-.14.215-.14.053 0 .09.012.12.028.026.015.08.015.08-.025 0-.085-.125-.117-.22-.097-.093.018-.053-.067-.018-.116.058-.086.09-.214-.012-.214-.245 0-.51.502-.51 1.142 0 1.042.848 1.505 1.413 1.675.114.035.827.157 1.197.5v.094c-.338-.312-.855-.448-1.09-.504-1.508-.35-1.582-1.457-1.582-1.743 0-.91.387-1.174.387-1.683 0-.222-.14-.614-.59-.455-.122-.122.074-.344.197-.393-.024-.11.35-.596.957-.596.394 0 .7.19 1.117.19.162 0 .446-.074.605-.172v.087c-.16.1-.443.172-.604.172-.416 0-.722-.19-1.116-.19-.297 0-.528.118-.673.242.022.002.097.03.106.037.037.03.018.07-.032.052-.033-.013-.075-.038-.123-.043-.02.02-.04.04-.056.06.098 0 .157.03.2.053.043.025.028.075-.028.05-.05-.023-.11-.053-.216-.042-.016.03-.025.053-.028.07l.02.096c-.077 0-.293.075-.252.21.072-.022.583-.01.583.51 0 .086.03.077.03.048.052-.235-.108-.498-.306-.592-.077-.037-.06-.104.05-.045.107.058.32.217.32.518 0 .07-.02.21-.02.21s.08-.078.08-.272c0-.323-.26-.587-.484-.587l-.02-.095c.128-.017.594.106.594.738 0 .104-.062.436-.172.578.123-.02.356-.012.172.313.27.055.202.325.116.325-.113 0-.105-.06-.214-.06-.08 0-.09.052-.045.066.056.02.093.05.093.112 0 .113-.166.055-.31.386.05-.015.076-.024.11-.024s.114.012.114.08c0 .067-.14.17-.14.445 0 .144.146.402.183.45.043-.043.085-.073.135-.073.17 0 .147.136.147.172 0 .036.19.368.737.502.266.066.848.23 1.05.428.203-.197.785-.362 1.052-.428.547-.134.737-.466.737-.503 0-.037-.025-.173.147-.173.05 0 .092.03.135.074.037-.048.184-.306.184-.45 0-.277-.143-.38-.143-.446 0-.068.08-.08.114-.08.035 0 .063.01.112.024-.144-.33-.31-.273-.31-.386 0-.062.037-.092.09-.11.046-.015.038-.068-.04-.068-.112 0-.103.06-.216.06-.086 0-.153-.27.117-.325-.184-.326.05-.333.172-.314-.11-.142-.172-.474-.172-.578 0-.378.166-.574.328-.667-.027-.036-.053-.058-.077-.08-.045-.04-.007-.074.033-.044.03.02.064.048.098.098.02-.008.04-.016.06-.022-.023-.04-.06-.066-.085-.09-.038-.037-.01-.07.032-.048.02.01.062.035.114.122.038-.007.07-.008.092-.005l-.023.096c-.222 0-.482.264-.482.587 0 .194.08.272.08.272s-.02-.14-.02-.21c0-.3.213-.46.32-.518.11-.06.126.008.05.045-.198.094-.358.357-.308.592 0 .03.032.038.032-.05 0-.517.51-.53.583-.508.04-.135-.176-.21-.255-.21l.023-.095c-.018-.115-.332-.478-.852-.478-.394 0-.7.19-1.118.19-.16 0-.443-.073-.603-.17v-.088c.16.098.44.173.6.173.417 0 .726-.19 1.118-.19.608 0 .982.484.958.595"/><path d="M53.118 27.19c.123-.077.578-.29.902-.35.117-.022.092.025-.018.05-.358.08-.798.284-.84.32-.05.04-.135.038-.044-.02M52.626 27.23c-.133-.1-.52-.264-.843-.326-.117-.022-.092.025.018.05.358.08.643.203.783.296.052.035.127.047.043-.02M52.834 23.48l2.267 2.224c.01-.025.005-.08-.008-.14l-2.258-2.213-2.26 2.213c-.012.06-.018.116-.007.14l2.267-2.222"/><path d="M52.834 24.48l1.812 1.777.05-.082-1.862-1.825-1.863 1.825.05.082 1.814-1.777"/><path d="M52.834 24.256l1.958 1.92c.158.126.27-.27.304-.384l-2.262-2.217-2.263 2.217.244.148v-.115l-.068-.092.11-.034.066-.094.066.093.144-.072.002-.114-.068-.092.108-.034.066-.094.067.094.143-.07.002-.115-.068-.092.11-.033.065-.093.066.093.143-.07v-.116l-.068-.09.11-.035.066-.093.066.093.144-.07.002-.114-.07-.092.11-.034.067-.094.066.094.144-.07.002-.115-.07-.093.11-.034.065-.093.067.093.144-.07v-.116l-.067-.09.108-.036.067-.092.066.093.11.036-.068.09v.116l.033.105.11-.034.066-.093.067.093.11.034-.07.092.003.113.144.07.066-.093.066.094.11.034-.07.093.002.114.144.07.066-.092.067.093.108.035-.067.09v.117l.145.07.068-.093.066.093.108.034-.068.093.002.114.144.07.066-.093.067.094.108.034-.067.092v.114l.146.07.064-.092.068.093.108.033-.068.092v.115l-.108-.037-.108.037v-.115l-.066-.092.11-.034-.146-.072-.108-.036-.11.036.004-.114-.07-.092.11-.034-.144-.07-.108-.037-.11.037.002-.114-.068-.092.11-.033-.146-.07-.108-.038-.108.037.002-.116-.07-.09.11-.035-.144-.07-.108-.037-.11.036.003-.113-.07-.092.11-.034-.143-.07-.11-.037-.108.036.002-.114-.07-.093-.03-.105-.11-.036-.108.036-.144.07.11.035-.07.092v.113l-.107-.036-.108.036-.144.07.11.035-.07.093.003.114-.11-.036-.108.036-.144.07.11.036-.07.09.003.117-.11-.038-.108.037-.144.07.11.034-.07.093.002.114-.11-.036-.108.037-.143.07.11.035-.07.092.002.114-.11-.036-.108.036-.144.07.11.035-.07.092.002.115-.108-.037-.108.037-.243-.148c.034.113.146.51.304.384l1.96-1.92M5.954 18.115v3.705h6.317v4.88H5.955v8.703H.196V13.235h12.72v4.88H5.955M13.998 13.234v22.17h5.73l.027-4.882V18.115h1.352c3.702 0 6.316 2.234 6.316 6.204 0 4.32-2.938 6.202-6.375 6.202h-1.293l-.027 4.88h2.436c6.14 0 11.252-4.85 11.252-11.083 0-6.235-5.082-11.086-11.252-11.086h-8.166M34.235 13.234h5.758v22.17h-5.758v-22.17z"/><path d="M57.727 20.673c-1.175-1.588-3.084-2.44-5.052-2.44-3.526 0-5.905 2.704-5.905 6.145 0 3.498 2.408 6.027 5.992 6.027 1.88 0 3.76-.91 4.965-2.352v6.91c-1.91.588-3.29 1.028-5.082 1.028-3.084 0-6.022-1.174-8.314-3.262-2.437-2.205-3.554-5.087-3.554-8.38 0-3.028 1.147-5.94 3.26-8.115 2.175-2.234 5.32-3.587 8.433-3.587 1.85 0 3.553.412 5.257 1.118v6.91"/></g></svg>