<svg width="204" height="64" viewBox="0 0 204 64" xmlns="http://www.w3.org/2000/svg"><title>logo-walmart simple</title><g fill="none" fill-rule="evenodd"><path d="M49.657 13.81c0 .174-.015.355-.063.51-.198.655-.874 1.207-1.72 1.207-.704 0-1.266-.4-1.266-1.248 0-1.297 1.427-1.654 3.05-1.645v1.176zm2.547-2.256c0-2.137-.915-4.015-3.998-4.015-1.583 0-2.84.444-3.525.84l.503 1.716c.626-.395 1.626-.723 2.57-.723 1.566-.003 1.823.886 1.823 1.456v.134c-3.413-.005-5.567 1.176-5.567 3.58 0 1.47 1.097 2.847 3.006 2.847 1.172 0 2.155-.467 2.742-1.216h.058s.39 1.63 2.536 1.005c-.112-.678-.148-1.403-.148-2.274v-3.352zM0 4.63s2.228 9.13 2.584 10.61c.415 1.732 1.162 2.37 3.32 1.94l1.39-5.662c.354-1.407.59-2.41.817-3.84h.04c.16 1.446.386 2.437.676 3.845 0 0 .567 2.57.858 3.92.29 1.35 1.1 2.2 3.212 1.736L16.21 4.63h-2.676L12.4 10.055c-.304 1.58-.578 2.814-.79 4.26h-.04c-.193-1.432-.44-2.617-.748-4.156L9.644 4.63h-2.79l-1.26 5.39c-.356 1.637-.692 2.96-.904 4.356h-.038c-.218-1.314-.507-2.977-.82-4.563 0 0-.75-3.855-1.013-5.183H0M21.118 13.81c0 .174-.015.355-.065.51-.196.655-.873 1.207-1.718 1.207-.705 0-1.267-.4-1.267-1.248 0-1.297 1.426-1.654 3.05-1.645v1.176zm2.546-2.256c0-2.137-.913-4.015-3.997-4.015-1.584 0-2.84.444-3.526.84l.503 1.716c.627-.395 1.625-.723 2.57-.723 1.565-.003 1.822.886 1.822 1.456v.134c-3.41-.005-5.566 1.176-5.566 3.58 0 1.47 1.097 2.847 3.004 2.847 1.175 0 2.156-.467 2.744-1.216h.057s.39 1.63 2.538 1.005c-.113-.678-.15-1.403-.15-2.274v-3.352zM27.6 14.514V4.63h-2.546v12.55H27.6v-2.666M60.017 4.63v9.26c0 1.275.24 2.168.755 2.714.45.478 1.188.787 2.073.787.755 0 1.497-.14 1.845-.272l-.032-1.992c-.26.065-.56.115-.97.115-.865 0-1.157-.553-1.157-1.7V9.998h2.22V7.596h-2.22V4.63h-2.513M53.438 7.752v9.427h2.63v-4.83c0-.26.015-.486.056-.695.195-1.01.97-1.657 2.078-1.657.306 0 .522.032.76.068v-2.47c-.198-.04-.334-.057-.58-.057-.98 0-2.098.632-2.565 1.99h-.073V7.75h-2.306M29.077 7.752v9.427h2.56v-5.53c0-.26.03-.534.122-.773.212-.555.73-1.207 1.556-1.207 1.034 0 1.518.875 1.518 2.137v5.372h2.56v-5.597c0-.248.033-.545.105-.765.21-.633.768-1.148 1.537-1.148 1.048 0 1.552.86 1.552 2.344v5.165h2.56v-5.553c0-2.93-1.488-4.088-3.166-4.088-.744 0-1.33.186-1.86.51-.447.275-.846.662-1.194 1.173h-.04c-.403-1.014-1.355-1.684-2.598-1.684-1.593 0-2.31.807-2.745 1.493h-.038v-1.28h-2.433" fill="#1A75CF"/><g fill="#FEBA30"><path d="M78.52 7.33c.508 0 .926-.265.982-.604l.502-5.663c0-.56-.656-1.018-1.48-1.018s-1.477.46-1.477 1.018l.5 5.663c.054.34.47.603.978.603h-.004M75.462 9.1c.254-.44.234-.934-.034-1.154l-4.652-3.262c-.484-.28-1.21.056-1.62.77-.413.714-.34 1.51.142 1.79L74.45 9.64c.322.122.76-.107 1.014-.545l-.002.004M81.584 9.095c.254.438.69.667 1.012.546l5.154-2.397c.485-.28.554-1.075.145-1.79-.414-.713-1.14-1.05-1.624-.77L81.62 7.947c-.266.22-.285.713-.034 1.153v-.005M78.52 14.4c.508 0 .926.26.982.602l.502 5.66c0 .56-.656 1.02-1.48 1.02s-1.477-.46-1.477-1.02l.5-5.66c.054-.34.47-.603.978-.603h-.004M81.584 12.632c.254-.44.69-.668 1.012-.545l5.154 2.394c.485.282.554 1.08.145 1.794-.414.71-1.14 1.05-1.624.77l-4.652-3.26c-.266-.22-.285-.715-.034-1.154v.002M75.462 12.63c.254.44.234.933-.034 1.153l-4.652 3.26c-.484.28-1.21-.058-1.62-.77-.413-.713-.34-1.51.142-1.792l5.152-2.393c.322-.123.76.105 1.014.545l-.002-.002"/></g><path d="M89.087 16.417h.073c.086 0 .156-.03.156-.1 0-.06-.045-.1-.144-.1-.04 0-.07.003-.085.007v.193zm-.005.377h-.155v-.668c.06-.013.147-.025.258-.025.127 0 .185.022.233.054.038.03.066.083.066.144 0 .078-.057.135-.14.16v.008c.067.02.104.074.124.164.02.103.033.144.05.164h-.17c-.02-.024-.032-.08-.052-.16-.012-.074-.053-.106-.14-.106h-.074v.266zm.103-.885c-.296 0-.517.24-.517.536 0 .3.22.537.525.537.295.004.513-.238.513-.537 0-.296-.218-.537-.517-.537h-.005zm.008-.137c.386 0 .685.3.685.673 0 .38-.3.676-.69.676-.384 0-.692-.295-.692-.676 0-.374.308-.673.693-.673h.003zM27.377 41.455c-.217-4.068-.476-8.96-.434-12.595h-.13c-.995 3.42-2.207 7.097-3.678 11.08l-5.15 14.153h-2.857L10.41 40.2c-1.384-4.11-2.553-7.878-3.375-11.34h-.087c-.086 3.635-.303 8.527-.563 12.897l-.778 12.51H2.014L4.05 25.093H8.85l4.977 14.11c1.21 3.592 2.208 6.795 2.942 9.824h.13c.736-2.94 1.775-6.146 3.073-9.825l5.195-14.11h4.804l1.817 29.173h-3.678l-.735-12.81M38.802 43.835c0 4.587 2.64 8.052 6.363 8.052 3.635 0 6.36-3.42 6.36-8.14 0-3.547-1.773-8.048-6.275-8.048-4.5 0-6.448 4.155-6.448 8.135zm16.62-.215c0 7.745-5.367 11.123-10.43 11.123-5.67 0-10.042-4.156-10.042-10.777 0-7.012 4.588-11.123 10.388-11.123 6.015 0 10.083 4.37 10.083 10.777zM58.106 38.988c0-2.165-.044-3.938-.173-5.67h3.375l.216 3.463h.087c1.04-1.99 3.464-3.937 6.926-3.937 2.9 0 7.4 1.73 7.4 8.914v12.51H72.13V42.19c0-3.375-1.254-6.188-4.847-6.188-2.51 0-4.457 1.775-5.106 3.894-.173.478-.26 1.126-.26 1.774v12.596h-3.808V38.988M93.292 41.757c.044-2.422-.996-6.19-5.28-6.19-3.852 0-5.54 3.55-5.843 6.19H93.29zm-11.166 2.727c.086 5.15 3.376 7.27 7.184 7.27 2.727 0 4.372-.473 5.8-1.08l.65 2.727c-1.342.606-3.637 1.343-6.97 1.343-6.448 0-10.3-4.287-10.3-10.605 0-6.32 3.722-11.295 9.825-11.295 6.84 0 8.655 6.015 8.655 9.868 0 .778-.085 1.384-.13 1.774H82.127zM102.684 33.32l4.588 12.376c.476 1.386.995 3.03 1.342 4.285h.086c.39-1.254.823-2.857 1.342-4.37l4.154-12.29h4.027l-5.713 14.93c-2.728 7.184-4.59 10.863-7.186 13.114-1.86 1.644-3.72 2.294-4.674 2.466l-.953-3.202c.953-.302 2.208-.91 3.333-1.86 1.038-.823 2.337-2.295 3.203-4.242.173-.39.303-.694.303-.91 0-.215-.087-.52-.26-.995l-7.746-19.3h4.154M141.81 53.313c-1.385.693-4.155 1.43-7.704 1.43-8.224 0-14.412-5.238-14.412-14.803 0-9.132 6.188-15.32 15.234-15.32 3.636 0 5.93.776 6.924 1.297l-.91 3.073c-1.426-.693-3.46-1.21-5.883-1.21-6.84 0-11.385 4.368-11.385 12.03 0 7.142 4.112 11.73 11.21 11.73 2.294 0 4.63-.478 6.145-1.212l.78 2.985M157.433 43.574c-4.154-.086-8.873.652-8.873 4.718 0 2.468 1.646 3.636 3.593 3.636 2.727 0 4.46-1.73 5.065-3.506.128-.39.215-.822.215-1.21v-3.638zm3.68 5.67c0 1.818.086 3.593.347 5.022h-3.464l-.304-2.64h-.13c-1.167 1.644-3.418 3.117-6.405 3.117-4.24 0-6.405-2.988-6.405-6.017 0-5.063 4.5-7.834 12.594-7.79V40.5c0-1.728-.476-4.845-4.76-4.845-1.948 0-3.983.607-5.453 1.558l-.866-2.51c1.732-1.125 4.242-1.86 6.88-1.86 6.407 0 7.966 4.37 7.966 8.568v7.835zM165.138 39.855c0-2.468-.044-4.59-.173-6.536h3.332l.13 4.11h.174c.952-2.813 3.247-4.587 5.8-4.587.433 0 .735.042 1.083.13v3.59c-.392-.086-.78-.13-1.298-.13-2.686 0-4.59 2.035-5.108 4.89-.088.522-.174 1.127-.174 1.777v11.166h-3.765v-14.41M193.183 41.845c0-.477-.044-1.125-.174-1.603-.562-2.423-2.64-4.414-5.496-4.414-3.938 0-6.277 3.46-6.277 8.093 0 4.244 2.078 7.75 6.19 7.75 2.555 0 4.89-1.69 5.582-4.547.13-.518.173-1.036.173-1.643v-3.635zm3.808-18.307v25.317c0 1.862.044 3.982.175 5.41h-3.42l-.173-3.635h-.085c-1.17 2.338-3.724 4.113-7.142 4.113-5.065 0-8.96-4.287-8.96-10.65-.042-6.967 4.286-11.25 9.392-11.25 3.205 0 5.367 1.513 6.32 3.202h.086V23.538h3.808zM200.57 26.293h.32c.37 0 .674-.124.674-.43 0-.265-.2-.444-.625-.444-.18 0-.304.017-.37.036v.837zm-.02 1.636h-.676v-2.9c.264-.054.638-.11 1.12-.11.552 0 .8.09 1.014.232.163.127.285.358.285.622 0 .34-.25.59-.607.695v.036c.285.088.446.32.537.71.085.45.14.628.213.713h-.73c-.09-.107-.142-.356-.235-.696-.048-.32-.225-.46-.598-.46h-.322v1.155zm.444-3.846c-1.284 0-2.246 1.05-2.246 2.333 0 1.3.962 2.334 2.282 2.334 1.278.017 2.225-1.033 2.225-2.333 0-1.283-.947-2.333-2.246-2.333h-.016zm.036-.586c1.675 0 2.974 1.3 2.974 2.92 0 1.654-1.3 2.935-2.995 2.935-1.673 0-3.006-1.28-3.006-2.936 0-1.62 1.333-2.92 3.005-2.92h.02z" fill="#1A75CF"/></g></svg>