<svg xmlns="http://www.w3.org/2000/svg" viewBox="0 0 158.64 64.92"><defs><style>.a { fill: #fefefe; } .b { fill: #4fc143; }</style></defs><title>logo-greendot-green</title><path class="a" d="M32.64 0a32.46 32.46 0 1 0 32.64 32.46A32.59 32.59 0 0 0 32.64 0"/><path class="b" d="M32.64 1.65a30.8 30.8 0 1 0 31 30.8 30.92 30.92 0 0 0-31-30.8"/><path class="a" d="M17.48 20.12a3.61 3.61 0 0 0-2.53-1.2c-2.55 0-2.55 2.59-2.55 3v6.38c0 1.38.3 3 2.62 3a3 3 0 0 0 2.47-1.18v1.86c0 .73-.15 1.43-1.14 1.43a1 1 0 0 1-1-.51 2 2 0 0 1-.12-.75h-2.77c0 1.11 0 3.29 3.74 3.29 4.08 0 4.08-2.63 4.08-3.86V19.17h-2.8v1zm-2.29 2.37a1.18 1.18 0 0 1 1.14-1.44 1.17 1.17 0 0 1 1.12 1.47v5.33a1.12 1.12 0 0 1-1.16 1.36 1.1 1.1 0 0 1-1.1-1.34v-5.38zM21.8 19.17h2.81v1.52a2.8 2.8 0 0 1 2.76-1.77v2.8a3 3 0 0 0-1-.18c-1.82 0-1.82 1.65-1.82 2.59v7.08H21.8v-12M30.76 25.8h4.83v-3.44a3.44 3.44 0 0 0-.83-2.4 4.27 4.27 0 0 0-2.93-1.04 4.66 4.66 0 0 0-2.56.71A3.18 3.18 0 0 0 28 22.5v5.09c0 2.43 1.11 3.86 3.87 3.86 1.75 0 3.69-.63 3.69-3.25v-1h-2.77c0 1.24 0 1.39-.24 1.67a.91.91 0 0 1-.75.35c-1 0-1-1-1-1.48v-2zm0-3.46a1 1 0 1 1 2 0v1.48h-2v-1.48zM39.54 25.8h4.83v-3.44a3.44 3.44 0 0 0-.83-2.4 4.25 4.25 0 0 0-2.94-1.04 4.65 4.65 0 0 0-2.55.71 3.19 3.19 0 0 0-1.3 2.89v5.09c0 2.43 1.11 3.86 3.88 3.86 1.75 0 3.69-.63 3.69-3.25v-1h-2.75c0 1.24 0 1.39-.24 1.67a.91.91 0 0 1-.76.35c-1 0-1-1-1-1.48v-2zm0-3.46a1 1 0 1 1 2 0v1.48h-2v-1.48zM45.67 19.17h2.86v.89a3.18 3.18 0 0 1 2.39-1.14 2.53 2.53 0 0 1 1.94.8 2.83 2.83 0 0 1 .56 2.07v9.41h-2.77v-8.83c0-.66 0-1.47-1-1.47-1.19 0-1.19 1.09-1.19 1.63v8.68h-2.79v-12M35.14 37.78a3.71 3.71 0 0 0-2.45-1.23 2.62 2.62 0 0 0-2.3 1.37 3.62 3.62 0 0 0-.33 1.78v5.51a5.59 5.59 0 0 0 .36 2.56 2.65 2.65 0 0 0 2.36 1.27 2.62 2.62 0 0 0 2.34-1.42v1.18h2.84V32.23h-2.82v5.55zm-2.29 2.46c0-.58 0-1.53 1.09-1.53a1.16 1.16 0 0 1 1.18 1.39v5.17a1.21 1.21 0 0 1-1.18 1.46c-1.09 0-1.09-.77-1.09-1.37v-5.11zM39.31 45.45c0 .89 0 3.64 3.69 3.64 2.5 0 3.88-1.2 3.88-3.37v-5.8a3 3 0 0 0-1.18-2.71 4.87 4.87 0 0 0-2.56-.66c-3.33 0-3.83 2-3.83 3.49v5.4zm2.82-5.65c0-.57 0-1.48 1-1.48.85 0 .95.78.95 1.46v6.14a1 1 0 0 1-1 1.27 1 1 0 0 1-1-1.25V39.8zM48.87 32.46h2.81v4.35h1.74v1.86h-1.76v6.87a1.07 1.07 0 0 0 1.27 1.32h.49v2a5.43 5.43 0 0 1-1.49.15c-2.65 0-3.05-1-3.05-2.52v-7.82h-1.53v-1.86h1.52v-4.35M53.56 33.66h.28a.48.48 0 0 0 .29-.06.19.19 0 0 0 .07-.16.16.16 0 0 0 0-.11.16.16 0 0 0-.1-.08.64.64 0 0 0-.24 0h-.3v.44zm-.24.82v-1.45h.5a1.21 1.21 0 0 1 .38 0 .32.32 0 0 1 .18.14.36.36 0 0 1 .07.21.4.4 0 0 1-.12.28.42.42 0 0 1-.3.13l.12.13a1.81 1.81 0 0 1 .22.29l.17.29h-.27l-.13-.23a1.13 1.13 0 0 0-.25-.35.32.32 0 0 0-.19 0h-.14v.62h-.24zm.6-1.88a1.13 1.13 0 0 0-.56.15 1 1 0 0 0-.43.41 1.15 1.15 0 0 0 0 1.13 1.07 1.07 0 0 0 .42.42 1.19 1.19 0 0 0 .57.15 1.21 1.21 0 0 0 .57-.15 1.16 1.16 0 0 0 .42-.42 1.18 1.18 0 0 0 .15-.57 1.19 1.19 0 0 0-.15-.56 1.12 1.12 0 0 0-.42-.41 1.14 1.14 0 0 0-.56-.15zm0-.22a1.41 1.41 0 0 1 .67.17 1.22 1.22 0 0 1 .51.5 1.34 1.34 0 0 1 .18.67 1.3 1.3 0 0 1-.18.67 1.24 1.24 0 0 1-.5.51 1.33 1.33 0 0 1-.67.18 1.37 1.37 0 0 1-.69-.16 1.26 1.26 0 0 1-.5-.51 1.34 1.34 0 0 1 0-1.35 1.16 1.16 0 0 1 .51-.5 1.44 1.44 0 0 1 .67-.17z"/><path class="b" d="M88.43 18.92c0-4.2-1.68-6.82-4.89-6.82h-2.6v13.64h2.57c3.17 0 4.92-2.75 4.92-6.79zM76.69 29.47V8.41h6.82c5.94 0 9.3 4.42 9.3 10.54s-3.36 10.51-9.27 10.51h-6.85zM94.91 29.47V8.41h12.16v3.72h-7.9v4.79h7.68v3.69h-7.69v5.15h7.9v3.73H94.91zM119.82 23.19a2.37 2.37 0 0 0-2.48-2.59h-3.68v5.15h3.68a2.28 2.28 0 0 0 2.48-2.56zm-.35-8.68a2.14 2.14 0 0 0-2.29-2.37h-3.52v4.78h3.52a2.13 2.13 0 0 0 2.29-2.4zm-10.06 15V8.41h8.79c3.81 0 5.62 2.49 5.62 5.37a4.65 4.65 0 0 1-3.43 4.83c2.16.35 3.78 2.56 3.78 5.15 0 3.22-1.81 5.71-5.68 5.71h-9.08zM126.36 8.41h4.25v21.06h-4.25V8.41zM137.12 29.47V12.14h-4.73V8.41h13.71v3.72h-4.73v17.34h-4.25zM75.86 46.73c0-6.41 3.46-10.89 9-10.89 4 0 6 2.62 7.08 5.05l-3.52 1.55a3.88 3.88 0 0 0-3.56-2.84c-2.92 0-4.67 3-4.67 7.13s1.75 7.13 4.67 7.13c1.75 0 3-1.33 3.59-3.06L92 52.32c-1 2.49-3 5.3-7.11 5.3-5.55 0-9-4.51-9-10.89M100.62 40.64l-2.44 9.15h4.92zm4.28 16.6l-1-3.72h-6.55l-1 3.72h-4.6l6.35-21.06h5.11l6.32 21.06h-4.6zM120.62 42.92a2.72 2.72 0 0 0-2.76-3h-3v6h3a2.72 2.72 0 0 0 2.76-3zm-.22 14.33l-3.27-7.61h-2.32v7.61h-4.25V36.18h7.9a6.28 6.28 0 0 1 6.54 6.67c0 3.63-2 5.46-3.75 6l3.9 8.37h-4.73zM139.06 46.73c0-4.2-1.68-6.82-4.89-6.82h-2.6v13.6h2.57c3.17 0 4.92-2.75 4.92-6.79zm-11.75 10.51V36.18h6.82c5.94 0 9.3 4.42 9.3 10.54s-3.36 10.51-9.27 10.51h-6.86zM144.2 54.92l2.06-3.28a6.93 6.93 0 0 0 5.14 2.27c1.94 0 2.92-1 2.92-2.34 0-3.73-9.49-2.4-9.49-9.53 0-3.32 2.6-6.16 7-6.16a9.36 9.36 0 0 1 6.44 2.34l-2 3.22a6.48 6.48 0 0 0-4.54-1.8c-1.56 0-2.54.88-2.54 2.15 0 3.32 9.46 2.37 9.46 9.44 0 3.66-2.51 6.44-7.2 6.44a9.7 9.7 0 0 1-7.25-2.75"/></svg>