<svg id="Layer_1" xmlns="http://www.w3.org/2000/svg" viewBox="-221.1 377.1 158.2 36.4"><style>.st0{fill:#FFFFFF;}</style><path class="st0" d="M-78.2 401v.1h.1c.1 0 .1 0 .1-.1h-.2c.1 0 0 0 0 0zM-119.1 398.6c0 .9.5 1.3 1.2 1.3.8 0 1.5-.6 1.7-1.2 0-.2.1-.3.1-.5V397c-1.6-.1-3 .3-3 1.6zM-146.5 398.6c0 .9.5 1.3 1.2 1.3.8 0 1.5-.6 1.7-1.2 0-.2.1-.3.1-.5V397c-1.6-.1-3 .3-3 1.6z"/><path class="st0" d="M-78.1 400.7c-.2 0-.4.2-.4.4s.2.4.4.4.4-.2.4-.4-.2-.4-.4-.4zm.1.7v-.1c0-.1 0-.1-.1-.1h-.1v.2h-.1v-.5h.4l.1.1c0 .1 0 .1-.1.1.1 0 .1.1.1.1v.1h-.2v.1z"/><path class="st0" d="M-167 380.2c-10.1 0-10.1 10.1-10.1 10.1v11.1c0 10.1 10.1 10.1 10.1 10.1h104.1v-31.3H-167zm12.5 19.6c-.3-1.4-.8-4-.8-4-.3-1.5-.5-2.5-.6-4-.2 1.5-.4 2.5-.8 4l-1.3 5.8c-2.1.4-2.8-.2-3.2-2-.5-1.5-2.7-10.9-2.7-10.9h2.7c.3 1.4 1 5.3 1 5.3.3 1.6.6 3.3.8 4.7.2-1.4.5-2.8.9-4.5l1.2-5.6h2.7l1.1 5.7c.3 1.6.5 2.8.7 4.3.2-1.5.5-2.8.8-4.4l1.1-5.6h2.6l-3.2 13c-2 .5-2.8-.4-3-1.8zm11.1.8c-.6.8-1.6 1.3-2.7 1.3-1.8 0-2.9-1.4-2.9-2.9 0-2.5 2.1-3.7 5.3-3.7v-.1c0-.6-.2-1.5-1.7-1.5-.9 0-1.9.3-2.5.7l-.5-1.8c.7-.4 1.9-.9 3.4-.9 3 0 3.8 1.9 3.8 4.1v3.5c0 .9 0 1.6.1 2.3-1.9.7-2.3-1-2.3-1zm6.1-1.7v2.7h-2.4v-12.9h2.4v10.2zm14.9 2.7h-2.5v-5.3c0-1.5-.5-2.4-1.5-2.4-.7 0-1.3.5-1.5 1.2-.1.2-.1.5-.1.8v5.8h-2.5v-5.5c0-1.3-.5-2.2-1.5-2.2-.8 0-1.3.7-1.5 1.2-.1.2-.1.5-.1.8v5.7h-2.5V392h2.3v1.3c.4-.7 1.1-1.5 2.6-1.5 1.2 0 2.1.7 2.5 1.7.3-.5.7-.9 1.1-1.2.5-.3 1.1-.5 1.8-.5 1.6 0 3 1.2 3 4.2v5.6h.4zm6.4-1c-.6.8-1.6 1.3-2.7 1.3-1.8 0-2.9-1.4-2.9-2.9 0-2.5 2.1-3.7 5.3-3.7v-.1c0-.6-.2-1.5-1.8-1.5-.9 0-1.9.3-2.5.7l-.5-1.8c.7-.4 1.9-.9 3.4-.9 3 0 3.8 1.9 3.8 4.1v3.5c0 .9 0 1.6.1 2.3-1.8.7-2.2-1-2.2-1zm8.8-6.3c-.2 0-.4-.1-.7-.1-1.1 0-1.8.7-2 1.7 0 .2-.1.4-.1.7v5h-2.5v-9.7h2.2v1.8h.1c.4-1.4 1.5-2.1 2.5-2.1.2 0 .4 0 .6.1l-.1 2.6zm5.6-.1h-2.1v3.7c0 1.2.3 1.8 1.1 1.8.4 0 .7-.1.9-.1v2.1c-.3.1-1 .3-1.8.3-.9 0-1.6-.3-2-.8-.5-.6-.7-1.5-.7-2.8v-9.7h2.4v3h2.1l.1 2.5zm10.2 3.9l-4.5 3.4c-.5.3-1.2-.1-1.6-.8-.4-.7-.3-1.6.1-1.8l5-2.5c.3-.1.7.1 1 .6.3.4.3.9 0 1.1zm.1-4.8c-.2.4-.7.7-1 .6l-5-2.5c-.5-.3-.5-1.1-.1-1.8s1.1-1.1 1.6-.8l4.5 3.4c.2.1.2.6 0 1.1zm2.9 13c-.8 0-1.4-.5-1.4-1.1l.5-5.8c.1-.4.5-.6.9-.6.5 0 .9.3.9.6l.5 5.8c0 .6-.6 1.1-1.4 1.1zm.9-15.5c-.1.3-.5.6-.9.6-.5 0-.9-.3-.9-.6l-.5-5.8c0-.6.6-1.1 1.4-1.1.8 0 1.4.5 1.4 1.1l-.5 5.8zm8.1 9.9c-.4.7-1.1 1.1-1.6.8l-4.5-3.4c-.3-.2-.3-.7 0-1.2.2-.5.7-.7 1-.6l5 2.5c.4.3.5 1.2.1 1.9zm-.1-9.3l-5 2.5c-.3.1-.7-.1-1-.6-.2-.5-.2-1 0-1.2l4.5-3.4c.5-.3 1.2.1 1.6.8.4.8.3 1.6-.1 1.9zm1.4 10.3c-.3 0-.5-.2-.5-.5s.2-.5.5-.5.5.2.5.5-.2.5-.5.5zM-204.9 400.8c-.5 0-.9.5-1 .9.9 0 1.4-.1 1.4-.5.1-.3-.1-.4-.4-.4zM-207.7 400.2c0-.5-.4-.7-.8-.7h-.5l-.3 1.6h.5c.6 0 1.1-.4 1.1-.9zM-200.8 394.2c0-.4-.2-.8-.7-.8-.6 0-1.1.6-1.3 1.6l-.2 1.1c.2.1.4.2.7.2.9 0 1.5-1.2 1.5-2.1zM-200.2 403.2c.6 0 1.1-.9 1.1-1.6 0-.4-.2-.8-.7-.8-.7 0-1.1.9-1.1 1.6.1.5.3.8.7.8zM-207.7 396.2c.4 0 1-.5 1.2-1.8l.2-1.2h-.4c-1 0-1.7 1.2-1.7 2.1.1.6.3.9.7.9zM-202 387.9c0 .2.1.2.2.2.2 0 .3-.1.3-.2V387.6c-.2 0-.5 0-.5.3zM-212.2 391.4c-.3 0-.5 0-.6.1l-.4 1.9h.6c.8 0 1.4-.5 1.4-1.2 0-.5-.4-.8-1-.8zM-207.6 387.9c0 .2.1.2.2.2.2 0 .3-.1.3-.2V387.6c-.2 0-.5 0-.5.3zM-193.6 388.3c-.1 0-.1 0 0 0 0 .1 0 0 0 0zM-193.2 402.4c0 .4.2.8.6.8s.8-.4 1-1.2l.2-1.1c-.1-.1-.3-.1-.5-.1-.8 0-1.3.8-1.3 1.6zM-195.2 395.3c0 .6.3 1 .7 1 .4 0 1-.5 1.2-1.4l.3-1.4c-.1-.1-.4-.2-.6-.2-.9-.1-1.6 1-1.6 2z"/><path class="st0" d="M-193.7 388.5c.1 0 .1-.1.1-.1 0-.1-.1-.1-.1-.1-.1 0-.1.1-.1.1l.1.1zm0-.2h.1s0 .1-.1 0l.1.1-.1-.1v.2-.2zM-195.3 400.8h-.4c-.8 0-1.4.9-1.4 1.7 0 .4.1.7.5.7s.9-.5 1.1-1.4l.2-1z"/><path class="st0" d="M-184.5 385.1c.6-.6.1-1 .1-1s-5.2-1.2-6.3-1.5c-.2 0-.3-.1-.4-.1-3.1-3.3-7.4-5.4-12.2-5.4-9.7-.1-17.7 8.1-17.8 18.3 0 3.4.8 6.5 2.3 9.3l-1 1c-.6.6 0 1 0 1s5.2 1.2 6.3 1.5c.2.1.3.1.5 0 3.1 3.2 7.3 5.2 12 5.3 9.6.1 17.6-8 17.7-18.2 0-3.4-.8-6.5-2.2-9.3-.1.1.3-.3 1-.9zm-7.9 4.8h1.5l-1 5.4c-.1.6-.2 1.4-.2 2h-1.4l.1-.8c-.4.7-1.1.9-1.7.9-.9 0-1.6-.7-1.6-1.9 0-1.8 1.3-3.4 3.2-3.4.2 0 .5 0 .7.1l.4-2.3zm1.8 13.4l.5-.1v.1h-.2v.6h-.1v-.6h-.2zm-.3-.8c-.1.4-.1.9-.2 1.3h-.8l.1-.6c-.3.5-.8.7-1.2.7-.6 0-1.1-.5-1.1-1.3 0-1.3.9-2.4 2.2-2.4.2 0 .4 0 .5.1l.3-1.7h.8l-.6 3.9zm-4.7.5c-.4.6-.8.9-1.3.9-.6 0-1-.5-1-1.2 0-1.2.8-2.5 2.5-2.5.4 0 .8.1 1.1.2l-.4 1.9c-.1.5-.2 1.2-.1 1.6h-.8v-.9zm-10.2-.2c.1.2.4.4.7.4.4 0 .7-.1 1-.2l.1.6c-.4.2-.8.3-1.3.3-1 0-1.5-.6-1.5-1.5 0-1.1.8-2.2 2-2.2.7 0 1.1.4 1.1 1 0 .9-1 1.2-2.3 1.2.1 0 .1.3.2.4zm-1.6-15.9c-.2 0-.4.1-.5.1l-.1-.3c.1-.1.4-.2.7-.2.6 0 .8.4.8.8v1c-.4.1-.5-.2-.5-.2-.1.1-.3.2-.5.2-.4 0-.6-.3-.6-.5 0-.5.4-.7 1.1-.7 0 0-.1-.2-.4-.2zm-1.2 1.5c-.4.1-.6-.1-.6-.3-.1-.3-.2-.8-.2-.8-.1-.3-.1-.5-.1-.7 0 .3-.1.5-.2.7l-.3 1.1c-.4.1-.6 0-.6-.4-.1-.3-.5-2-.5-2h.6c.1.3.2 1 .2 1 .1.3.1.6.2.9 0-.3.1-.5.2-.8l.2-1h.5l.2 1.1c.1.3.1.5.1.8 0-.3.1-.5.2-.8l.2-1h.5l-.6 2.2zm2.4 3.7c.6 0 1.3.1 1.7.3l-.5 2.7c-.1.7-.2 1.6-.2 2.3h-1.4c0-.3 0-.6.1-1-.5.8-1.1 1.1-1.7 1.1-.9 0-1.5-.7-1.5-1.8-.2-1.8 1-3.6 3.5-3.6zm0-3.7V386h.5v2.4h-.5zm1.3-1.5c.1-.1.2-.3.5-.3.2 0 .4.1.5.3.1-.1.1-.2.2-.2.1-.1.2-.1.4-.1.3 0 .6.2.6.8v1.1h-.5v-1c0-.3-.1-.5-.3-.5-.1 0-.3.1-.3.2V388.4h-.5v-1c0-.2-.1-.4-.3-.4s-.3.1-.3.2V388.4h-.5v-1.8h.5v.3zm-.1 12.4l1-5.2c.1-.6.2-1.5.3-2h1.3l-.1.9c.4-.6 1-.9 1.6-.9 1.1 0 1.6.9 1.6 1.9 0 1.8-1.2 3.4-2.9 3.4-.4 0-.8-.1-.9-.2l-.4 2.1h-1.5zm3.2-12.4c-.2 0-.4.1-.5.1l-.1-.3c.1-.1.4-.2.7-.2.6 0 .8.4.8.8v1c-.4.1-.5-.2-.5-.2-.1.1-.3.2-.5.2-.4 0-.6-.3-.6-.5 0-.5.4-.7 1.1-.7 0 0-.1-.2-.4-.2zm1.7.1c.1-.3.3-.4.5-.4h.1v.5h-.1c-.2 0-.4.1-.4.3v1h-.5v-1.8h.4v.4zm1.7-.4v.5h-.4v.6c0 .2.1.3.2.3h.2v.4c-.1 0-.2.1-.4.1s-.3-.1-.4-.2c-.1-.1-.1-.3-.1-.5V386h.5v.6h.4zm-4.1 12h.9l-1 5.2h-.9l1-5.2zm2.8 1.5c1 0 1.5.7 1.5 1.5 0 1.2-.8 2.2-2 2.2-.9 0-1.5-.6-1.5-1.5 0-1.1.8-2.2 2-2.2zm.5-2.8l1-5.1h1.5l-1 5.1h-1.5zm2.8-10.4c-.1.1-.1.1-.2.1l-1-.5c-.1-.1-.1-.2 0-.3.1-.1.2-.2.3-.1l.9.6c.1 0 .1.1 0 .2zm-1.1 1l1-.5c.1 0 .1 0 .2.1s0 .2 0 .2l-.9.6c-.1.1-.2 0-.3-.1-.1-.1-.1-.2 0-.3zm.3 2.1c.4 0 .8.3.8.7 0 .5-.4.8-.9.8-.4 0-.7-.3-.7-.7 0-.4.4-.8.8-.8zm1.2-2c0-.1.1-.1.2-.1s.2 0 .2.1l.1 1.1c0 .1-.1.2-.3.2s-.3-.1-.3-.2l.1-1.1zm-.1-2.6c0-.1.1-.2.3-.2s.3.1.3.2l-.1 1.1c0 .1-.1.1-.2.1s-.2-.1-.2-.1l-.1-1.1zm.9 2.2c.1-.1.1-.1.2-.1l1 .5c.1.1.1.2 0 .3-.1.1-.2.2-.3.1l-.9-.6v-.2zm0-.9l.9-.6c.1-.1.2 0 .3.1.1.1.1.3 0 .3l-1 .5c-.1 0-.1 0-.2-.1v-.2zm1.5 1.5c.1 0 .2.1.2.2s-.1.2-.2.2-.2-.1-.2-.2l.2-.2zm-19.3 19.7c0 .1-.3 0-.4 0-1.1-.3-5.6-1.3-6.3-1.5l-.1-.1s0-.1.2-.3l1-1 .2-.3-.1-.2c-.7-1.4-1.3-2.8-1.7-4.3-.4-1.6-.6-3.2-.6-4.8 0-1.2.1-2.4.4-3.6.2-1.1.6-2.3 1-3.4s1-2.1 1.6-3c.6-.9 1.3-1.8 2.1-2.6s1.6-1.5 2.5-2.2c.9-.6 1.9-1.2 2.9-1.7s2.1-.8 3.2-1.1c1.1-.3 2.3-.4 3.4-.4h.4c1.3 0 2.6.2 3.9.5 1.2.3 2.4.8 3.6 1.4.7.4 1.3.8 2 1.2-2.4-1.3-5.1-2-7.9-2h-.4c-9.1.2-16.5 7.5-16.6 16.4 0 2.8.7 5.5 2 7.9l.2.4 1.2-1.1c.1-.1.3-.2.4-.2 0 0 .1.1.1.2.2.9 1.5 4.6 1.8 5.4-.1.1 0 .3 0 .4zm1-12.3c-.1-.8-.4-1.1-1-1.1h-.5l-.5 2.8h-1.4l1.3-6.9c.5-.1 1.2-.2 1.9-.2s1.3.1 1.8.4c.5.3.8.7.8 1.4 0 1-.7 1.7-1.6 2 .4.2.6.6.7 1.3.1.8.1 1.7.3 2h-1.5c-.1-.2-.2-.8-.3-1.7zm2.3 3.3c.3-.1.8-.1 1.2-.1.5 0 .9.1 1.2.3.3.2.5.5.5.9 0 .7-.5 1.2-1.1 1.4.3.1.5.5.5.9.1.6.1 1.2.2 1.4h-.9c0-.1-.1-.6-.1-1.2s-.3-.9-.7-.9h-.4l-.4 2h-.8l.8-4.7zm25.5-8.4c.4 1.6.6 3.2.5 4.8 0 1.2-.1 2.4-.4 3.6-.2 1.1-.6 2.3-1 3.3-.4 1.1-1 2.1-1.6 3-.6.9-1.3 1.8-2.1 2.6s-1.6 1.5-2.5 2.2c-.9.6-1.9 1.2-2.9 1.6-1 .5-2.1.8-3.2 1.1-1.1.2-2.2.4-3.4.4h-.4c-1.3 0-2.6-.2-3.9-.5-1.2-.3-2.4-.8-3.6-1.4-.7-.4-1.3-.8-2-1.2 2.4 1.3 5.1 2 7.9 2h.4c9-.1 16.4-7.4 16.6-16.2 0-2.7-.6-5.5-1.9-7.9l-.2-.4-1.1 1.2c-.1.1-.3.2-.4.2 0 0-.1-.1-.1-.2-.2-.9-1.5-4.6-1.7-5.4 0-.1-.1-.3-.1-.3 0-.1.3 0 .4 0 1 .3 5.6 1.3 6.2 1.5l.1.1s0 .1-.2.3l-1 1-.2.2.1.2c.7 1.3 1.3 2.7 1.7 4.2zm-5.8 13.4v-.6h.1l.1.3c0 .1.1.1.1.2 0-.1 0-.1.1-.2l.1-.3h.1v.6h-.1v-.3-.3c0 .1 0 .2-.1.2l-.1.3h-.1l-.1-.3c0-.1-.1-.2-.1-.2v.6z"/></svg>