<svg width="496" height="73" viewBox="0 0 496 73" xmlns="http://www.w3.org/2000/svg"><title>logo walmart full</title><g fill="none" fill-rule="evenodd"><path d="M49.657 13.81c0 .174-.015.355-.063.51-.198.655-.874 1.207-1.72 1.207-.704 0-1.266-.4-1.266-1.248 0-1.297 1.427-1.654 3.05-1.645v1.176zm2.547-2.256c0-2.137-.915-4.015-3.998-4.015-1.583 0-2.84.444-3.525.84l.503 1.716c.626-.395 1.626-.723 2.57-.723 1.566-.003 1.823.886 1.823 1.456v.134c-3.413-.005-5.567 1.176-5.567 3.58 0 1.47 1.097 2.847 3.006 2.847 1.172 0 2.155-.467 2.742-1.216h.058s.39 1.63 2.536 1.005c-.112-.678-.148-1.403-.148-2.274v-3.352zM0 4.63s2.228 9.13 2.584 10.61c.415 1.732 1.162 2.37 3.32 1.94l1.39-5.662c.354-1.407.59-2.41.817-3.84h.04c.16 1.446.386 2.437.676 3.845 0 0 .567 2.57.858 3.92.29 1.35 1.1 2.2 3.212 1.736L16.21 4.63h-2.676L12.4 10.055c-.304 1.58-.578 2.814-.79 4.26h-.04c-.193-1.432-.44-2.617-.748-4.156L9.644 4.63h-2.79l-1.26 5.39c-.356 1.637-.692 2.96-.904 4.356h-.038c-.218-1.314-.507-2.977-.82-4.563 0 0-.75-3.855-1.013-5.183H0M21.118 13.81c0 .174-.015.355-.065.51-.196.655-.873 1.207-1.718 1.207-.705 0-1.267-.4-1.267-1.248 0-1.297 1.426-1.654 3.05-1.645v1.176zm2.546-2.256c0-2.137-.913-4.015-3.997-4.015-1.584 0-2.84.444-3.526.84l.503 1.716c.627-.395 1.625-.723 2.57-.723 1.565-.003 1.822.886 1.822 1.456v.134c-3.41-.005-5.566 1.176-5.566 3.58 0 1.47 1.097 2.847 3.004 2.847 1.175 0 2.156-.467 2.744-1.216h.057s.39 1.63 2.538 1.005c-.113-.678-.15-1.403-.15-2.274v-3.352zM27.6 14.514V4.63h-2.546v12.55H27.6v-2.666M60.017 4.63v9.26c0 1.275.24 2.168.755 2.714.45.478 1.188.787 2.073.787.755 0 1.497-.14 1.845-.272l-.032-1.992c-.26.065-.56.115-.97.115-.865 0-1.157-.553-1.157-1.7V9.998h2.22V7.596h-2.22V4.63h-2.513M53.438 7.752v9.427h2.63v-4.83c0-.26.015-.486.056-.695.195-1.01.97-1.657 2.078-1.657.306 0 .522.032.76.068v-2.47c-.198-.04-.334-.057-.58-.057-.98 0-2.098.632-2.565 1.99h-.073V7.75h-2.306M29.077 7.752v9.427h2.56v-5.53c0-.26.03-.534.122-.773.212-.555.73-1.207 1.556-1.207 1.034 0 1.518.875 1.518 2.137v5.372h2.56v-5.597c0-.248.033-.545.105-.765.21-.633.768-1.148 1.537-1.148 1.048 0 1.552.86 1.552 2.344v5.165h2.56v-5.553c0-2.93-1.488-4.088-3.166-4.088-.744 0-1.33.186-1.86.51-.447.275-.846.662-1.194 1.173h-.04c-.403-1.014-1.355-1.684-2.598-1.684-1.593 0-2.31.807-2.745 1.493h-.038v-1.28h-2.433" fill="#1A75CF"/><g fill="#FEBA30"><path d="M78.52 7.33c.508 0 .926-.265.982-.604l.502-5.663c0-.56-.656-1.018-1.48-1.018s-1.477.46-1.477 1.018l.5 5.663c.054.34.47.603.978.603h-.004M75.462 9.1c.254-.44.234-.934-.034-1.154l-4.652-3.262c-.484-.28-1.21.056-1.62.77-.413.714-.34 1.51.142 1.79L74.45 9.64c.322.122.76-.107 1.014-.545l-.002.004M81.584 9.095c.254.438.69.667 1.012.546l5.154-2.397c.485-.28.554-1.075.145-1.79-.414-.713-1.14-1.05-1.624-.77L81.62 7.947c-.266.22-.285.713-.034 1.153v-.005M78.52 14.4c.508 0 .926.26.982.602l.502 5.66c0 .56-.656 1.02-1.48 1.02s-1.477-.46-1.477-1.02l.5-5.66c.054-.34.47-.603.978-.603h-.004M81.584 12.632c.254-.44.69-.668 1.012-.545l5.154 2.394c.485.282.554 1.08.145 1.794-.414.71-1.14 1.05-1.624.77l-4.652-3.26c-.266-.22-.285-.715-.034-1.154v.002M75.462 12.63c.254.44.234.933-.034 1.153l-4.652 3.26c-.484.28-1.21-.058-1.62-.77-.413-.713-.34-1.51.142-1.792l5.152-2.393c.322-.123.76.105 1.014.545l-.002-.002"/></g><path d="M89.087 16.417h.073c.086 0 .156-.03.156-.1 0-.06-.045-.1-.144-.1-.04 0-.07.003-.085.007v.193zm-.005.377h-.155v-.668c.06-.013.147-.025.258-.025.127 0 .185.022.233.054.038.03.066.083.066.144 0 .078-.057.135-.14.16v.008c.067.02.104.074.124.164.02.103.033.144.05.164h-.17c-.02-.024-.032-.08-.052-.16-.012-.074-.053-.106-.14-.106h-.074v.266zm.103-.885c-.296 0-.517.24-.517.536 0 .3.22.537.525.537.295.004.513-.238.513-.537 0-.296-.218-.537-.517-.537h-.005zm.008-.137c.386 0 .685.3.685.673 0 .38-.3.676-.69.676-.384 0-.692-.295-.692-.676 0-.374.308-.673.693-.673h.003zM27.377 41.455c-.217-4.068-.476-8.96-.434-12.595h-.13c-.995 3.42-2.207 7.097-3.678 11.08l-5.15 14.153h-2.857L10.41 40.2c-1.384-4.11-2.553-7.878-3.375-11.34h-.087c-.086 3.635-.303 8.527-.563 12.897l-.778 12.51H2.014L4.05 25.093H8.85l4.977 14.11c1.21 3.592 2.208 6.795 2.942 9.824h.13c.736-2.94 1.775-6.146 3.073-9.825l5.195-14.11h4.804l1.817 29.173h-3.678l-.735-12.81M38.802 43.835c0 4.587 2.64 8.052 6.363 8.052 3.635 0 6.36-3.42 6.36-8.14 0-3.547-1.773-8.048-6.275-8.048-4.5 0-6.448 4.155-6.448 8.135zm16.62-.215c0 7.745-5.367 11.123-10.43 11.123-5.67 0-10.042-4.156-10.042-10.777 0-7.012 4.588-11.123 10.388-11.123 6.015 0 10.083 4.37 10.083 10.777zM58.106 38.988c0-2.165-.044-3.938-.173-5.67h3.375l.216 3.463h.087c1.04-1.99 3.464-3.937 6.926-3.937 2.9 0 7.4 1.73 7.4 8.914v12.51H72.13V42.19c0-3.375-1.254-6.188-4.847-6.188-2.51 0-4.457 1.775-5.106 3.894-.173.478-.26 1.126-.26 1.774v12.596h-3.808V38.988M93.292 41.757c.044-2.422-.996-6.19-5.28-6.19-3.852 0-5.54 3.55-5.843 6.19H93.29zm-11.166 2.727c.086 5.15 3.376 7.27 7.184 7.27 2.727 0 4.372-.473 5.8-1.08l.65 2.727c-1.342.606-3.637 1.343-6.97 1.343-6.448 0-10.3-4.287-10.3-10.605 0-6.32 3.722-11.295 9.825-11.295 6.84 0 8.655 6.015 8.655 9.868 0 .778-.085 1.384-.13 1.774H82.127zM102.684 33.32l4.588 12.376c.476 1.386.995 3.03 1.342 4.285h.086c.39-1.254.823-2.857 1.342-4.37l4.154-12.29h4.027l-5.713 14.93c-2.728 7.184-4.59 10.863-7.186 13.114-1.86 1.644-3.72 2.294-4.674 2.466l-.953-3.202c.953-.302 2.208-.91 3.333-1.86 1.038-.823 2.337-2.295 3.203-4.242.173-.39.303-.694.303-.91 0-.215-.087-.52-.26-.995l-7.746-19.3h4.154M141.81 53.313c-1.385.693-4.155 1.43-7.704 1.43-8.224 0-14.412-5.238-14.412-14.803 0-9.132 6.188-15.32 15.234-15.32 3.636 0 5.93.776 6.924 1.297l-.91 3.073c-1.426-.693-3.46-1.21-5.883-1.21-6.84 0-11.385 4.368-11.385 12.03 0 7.142 4.112 11.73 11.21 11.73 2.294 0 4.63-.478 6.145-1.212l.78 2.985M157.433 43.574c-4.154-.086-8.873.652-8.873 4.718 0 2.468 1.646 3.636 3.593 3.636 2.727 0 4.46-1.73 5.065-3.506.128-.39.215-.822.215-1.21v-3.638zm3.68 5.67c0 1.818.086 3.593.347 5.022h-3.464l-.304-2.64h-.13c-1.167 1.644-3.418 3.117-6.405 3.117-4.24 0-6.405-2.988-6.405-6.017 0-5.063 4.5-7.834 12.594-7.79V40.5c0-1.728-.476-4.845-4.76-4.845-1.948 0-3.983.607-5.453 1.558l-.866-2.51c1.732-1.125 4.242-1.86 6.88-1.86 6.407 0 7.966 4.37 7.966 8.568v7.835zM165.138 39.855c0-2.468-.044-4.59-.173-6.536h3.332l.13 4.11h.174c.952-2.813 3.247-4.587 5.8-4.587.433 0 .735.042 1.083.13v3.59c-.392-.086-.78-.13-1.298-.13-2.686 0-4.59 2.035-5.108 4.89-.088.522-.174 1.127-.174 1.777v11.166h-3.765v-14.41M193.183 41.845c0-.477-.044-1.125-.174-1.603-.562-2.423-2.64-4.414-5.496-4.414-3.938 0-6.277 3.46-6.277 8.093 0 4.244 2.078 7.75 6.19 7.75 2.555 0 4.89-1.69 5.582-4.547.13-.518.173-1.036.173-1.643v-3.635zm3.808-18.307v25.317c0 1.862.044 3.982.175 5.41h-3.42l-.173-3.635h-.085c-1.17 2.338-3.724 4.113-7.142 4.113-5.065 0-8.96-4.287-8.96-10.65-.042-6.967 4.286-11.25 9.392-11.25 3.205 0 5.367 1.513 6.32 3.202h.086V23.538h3.808zM200.57 26.293h.32c.37 0 .674-.124.674-.43 0-.265-.2-.444-.625-.444-.18 0-.304.017-.37.036v.837zm-.02 1.636h-.676v-2.9c.264-.054.638-.11 1.12-.11.552 0 .8.09 1.014.232.163.127.285.358.285.622 0 .34-.25.59-.607.695v.036c.285.088.446.32.537.71.085.45.14.628.213.713h-.73c-.09-.107-.142-.356-.235-.696-.048-.32-.225-.46-.598-.46h-.322v1.155zm.444-3.846c-1.284 0-2.246 1.05-2.246 2.333 0 1.3.962 2.334 2.282 2.334 1.278.017 2.225-1.033 2.225-2.333 0-1.283-.947-2.333-2.246-2.333h-.016zm.036-.586c1.675 0 2.974 1.3 2.974 2.92 0 1.654-1.3 2.935-2.995 2.935-1.673 0-3.006-1.28-3.006-2.936 0-1.62 1.333-2.92 3.005-2.92h.02z" fill="#1A75CF"/><path d="M221.5 7.5v54.01" stroke="#FFC220" stroke-linecap="square"/><path d="M126.885 70l.052-1.04h.04c.467.832 1.195 1.183 2.105 1.183 1.404 0 2.82-1.118 2.82-3.367.014-1.91-1.09-3.21-2.65-3.21-1.015 0-1.743.454-2.146 1.156h-.026V60.77h-1.13v7.605c0 .56-.027 1.196-.053 1.625h.988zm.195-3.653c0-.182.04-.338.065-.468.234-.872.962-1.405 1.742-1.405 1.222 0 1.872 1.08 1.872 2.34 0 1.443-.716 2.418-1.912 2.418-.832 0-1.495-.546-1.716-1.34-.026-.13-.052-.272-.052-.415v-1.13zm5.343-2.64l2.327 5.8c.052.142.078.233.078.298 0 .065-.04.156-.09.273-.26.585-.65 1.027-.963 1.274-.338.286-.715.468-1 .56l.285.96c.286-.05.845-.246 1.404-.74.78-.676 1.34-1.78 2.158-3.94l1.716-4.484h-1.21l-1.247 3.692c-.155.455-.285.936-.402 1.313h-.026c-.104-.377-.26-.87-.403-1.287l-1.38-3.718h-1.247zm16.42 1.69h-2.887v.91h1.78v2.614c-.26.13-.766.235-1.507.235-2.042 0-3.38-1.313-3.38-3.536 0-2.198 1.39-3.524 3.522-3.524.884 0 1.47.17 1.937.377l.272-.923c-.377-.182-1.17-.403-2.184-.403-2.938 0-4.732 1.91-4.745 4.524 0 1.366.468 2.536 1.222 3.264.858.82 1.95 1.157 3.276 1.157 1.184 0 2.185-.298 2.692-.48v-4.212zm1.69 4.603h1.13v-3.354c0-.195.026-.377.052-.533.156-.858.728-1.47 1.534-1.47.155 0 .272.014.39.04v-1.08c-.105-.025-.196-.038-.326-.038-.767 0-1.456.533-1.742 1.378h-.052l-.04-1.235h-1c.04.585.052 1.222.052 1.963V70zm9.177-2.938c.013-.117.04-.3.04-.533 0-1.158-.547-2.965-2.6-2.965-1.834 0-2.952 1.495-2.952 3.393 0 1.898 1.157 3.172 3.094 3.172 1 0 1.69-.208 2.093-.39l-.195-.82c-.43.183-.923.326-1.742.326-1.144 0-2.132-.637-2.158-2.184h4.42zm-4.407-.82c.09-.792.598-1.858 1.755-1.858 1.287 0 1.6 1.13 1.586 1.86h-3.34zm10.92.82c.013-.117.04-.3.04-.533 0-1.158-.547-2.965-2.6-2.965-1.834 0-2.952 1.495-2.952 3.393 0 1.898 1.158 3.172 3.095 3.172 1 0 1.69-.208 2.093-.39l-.195-.82c-.43.183-.923.326-1.742.326-1.143 0-2.13-.637-2.157-2.184h4.42zm-4.407-.82c.09-.792.598-1.858 1.755-1.858 1.288 0 1.6 1.13 1.587 1.86h-3.34zM167.68 70h1.143v-3.783c0-.195.026-.39.078-.533.196-.637.78-1.17 1.535-1.17 1.08 0 1.456.845 1.456 1.86V70h1.145v-3.757c0-2.158-1.352-2.678-2.223-2.678-1.04 0-1.768.585-2.08 1.183h-.026l-.065-1.04h-1.013c.04.52.052 1.053.052 1.703V70zm10.01-.026c.57.065 1.247.104 2.053.104 1.703 0 3.055-.442 3.874-1.26.82-.807 1.26-1.977 1.26-3.407 0-1.416-.454-2.43-1.234-3.145-.767-.715-1.924-1.092-3.55-1.092-.896 0-1.715.078-2.404.182v8.62zm1.13-7.787c.3-.065.74-.117 1.326-.117 2.392 0 3.562 1.313 3.55 3.38 0 2.366-1.314 3.718-3.732 3.718-.442 0-.858-.013-1.144-.065v-6.916zm10.205 1.378c-1.742 0-3.12 1.235-3.12 3.34 0 1.99 1.313 3.238 3.016 3.238 1.522 0 3.134-1.014 3.134-3.34 0-1.925-1.222-3.238-3.03-3.238zm-.026.858c1.35 0 1.884 1.352 1.884 2.418 0 1.418-.82 2.445-1.91 2.445-1.12 0-1.912-1.04-1.912-2.418 0-1.196.585-2.444 1.937-2.444zm4.757-2.223v1.508h-.975v.87h.975v3.433c0 .742.117 1.3.442 1.64.272.31.7.48 1.234.48.442 0 .793-.065 1.014-.156l-.052-.858c-.143.04-.364.078-.663.078-.637 0-.858-.442-.858-1.222V64.58h1.638v-.872h-1.638V61.9l-1.118.3z" fill="#666"/><path d="M239.923 54h2.2v-7.388h2.076c1.997.076 2.908.962 3.414 3.315.48 2.125.86 3.592 1.138 4.073h2.278c-.355-.658-.76-2.302-1.316-4.68-.405-1.77-1.19-2.986-2.505-3.44v-.077c1.796-.607 3.212-2.1 3.212-4.352 0-1.314-.48-2.478-1.34-3.237-1.063-.962-2.58-1.392-4.934-1.392-1.518 0-3.112.128-4.225.356V54zm2.2-15.28c.355-.102 1.114-.204 2.177-.204 2.327.026 3.92.987 3.92 3.188 0 1.948-1.492 3.24-3.844 3.24h-2.252v-6.225zM263.3 48.28c.025-.227.076-.582.076-1.037 0-2.252-1.063-5.768-5.06-5.768-3.567 0-5.743 2.91-5.743 6.603 0 3.694 2.25 6.173 6.02 6.173 1.95 0 3.29-.405 4.074-.76l-.38-1.593c-.834.354-1.795.633-3.39.633-2.226 0-4.148-1.24-4.2-4.25h8.603zm-8.577-1.594c.177-1.543 1.164-3.618 3.416-3.618 2.503 0 3.11 2.202 3.085 3.618h-6.502zM266.133 54h2.227V36.037h-2.226V54zm11.158-12.523c-3.39 0-6.07 2.403-6.07 6.502 0 3.87 2.554 6.298 5.868 6.298 2.96 0 6.098-1.973 6.098-6.502 0-3.744-2.378-6.3-5.895-6.3zm-.05 1.67c2.63 0 3.67 2.63 3.67 4.705 0 2.758-1.595 4.757-3.72 4.757-2.176-.002-3.72-2.025-3.72-4.707 0-2.328 1.14-4.757 3.77-4.757zM294.798 54c-.15-.835-.202-1.872-.202-2.935v-4.58c0-2.453-.91-5.008-4.655-5.008-1.542 0-3.01.43-4.022 1.087l.506 1.468c.86-.557 2.05-.91 3.188-.91 2.505 0 2.783 1.82 2.783 2.833v.253c-4.73-.026-7.362 1.594-7.362 4.554 0 1.77 1.265 3.516 3.744 3.516 1.746 0 3.06-.86 3.744-1.82h.077l.177 1.542h2.024zm-2.352-4.124c0 .228-.05.48-.127.71-.355 1.036-1.367 2.048-2.96 2.048-1.14 0-2.1-.683-2.1-2.125 0-2.38 2.757-2.81 5.186-2.76v2.126zm14.092-13.84v7.313h-.05c-.558-.988-1.823-1.873-3.695-1.873-2.985 0-5.515 2.504-5.49 6.578 0 3.72 2.277 6.223 5.237 6.223 2 0 3.492-1.037 4.175-2.403h.05l.102 2.125h1.998c-.076-.835-.1-2.075-.1-3.162v-14.8h-2.227zm0 12.828c0 .354-.026.658-.102.962-.404 1.67-1.77 2.656-3.263 2.656-2.404 0-3.618-2.05-3.618-4.53 0-2.706 1.366-4.73 3.668-4.73 1.67 0 2.885 1.164 3.213 2.58.076.28.102.66.102.937v2.124zM321.262 54c-.152-.835-.202-1.872-.202-2.935v-4.58c0-2.453-.91-5.008-4.655-5.008-1.544 0-3.01.43-4.023 1.087l.506 1.468c.86-.557 2.05-.91 3.188-.91 2.504 0 2.783 1.82 2.783 2.833v.253c-4.732-.026-7.364 1.594-7.364 4.554 0 1.77 1.265 3.516 3.745 3.516 1.747 0 3.062-.86 3.745-1.82h.076L319.24 54h2.024zm-2.353-4.124c0 .228-.05.48-.127.71-.354 1.036-1.366 2.048-2.96 2.048-1.14 0-2.1-.683-2.1-2.125 0-2.38 2.758-2.81 5.186-2.76v2.126zM326.473 54l.1-2.024h.077c.912 1.62 2.33 2.302 4.1 2.302 2.732 0 5.49-2.175 5.49-6.552.025-3.72-2.125-6.25-5.16-6.25-1.975 0-3.392.886-4.176 2.252h-.05v-7.69h-2.202v14.8c0 1.087-.05 2.327-.1 3.162h1.922zm.38-7.11c0-.353.075-.657.126-.91.455-1.695 1.872-2.732 3.39-2.732 2.378 0 3.643 2.1 3.643 4.554 0 2.808-1.39 4.705-3.72 4.705-1.618 0-2.908-1.062-3.338-2.606-.05-.252-.1-.53-.1-.808v-2.2zM339.048 54h2.227V36.037h-2.227V54zm15.813-5.718c.026-.227.077-.582.077-1.037 0-2.252-1.063-5.768-5.06-5.768-3.568 0-5.744 2.91-5.744 6.603 0 3.694 2.252 6.173 6.022 6.173 1.948 0 3.29-.405 4.073-.76l-.38-1.593c-.834.354-1.796.633-3.39.633-2.226 0-4.15-1.24-4.2-4.25h8.603zm-8.576-1.594c.177-1.543 1.164-3.618 3.415-3.618 2.504 0 3.11 2.202 3.086 3.618h-6.502zM363.134 54h2.2v-6.83c.507.126 1.114.15 1.772.15 2.15 0 4.048-.632 5.212-1.87.86-.887 1.315-2.1 1.315-3.645 0-1.518-.556-2.757-1.492-3.567-1.01-.91-2.605-1.417-4.78-1.417-1.772 0-3.164.153-4.226.33V54zm2.2-15.256c.38-.1 1.114-.177 2.075-.177 2.428 0 4.022 1.088 4.022 3.34 0 2.353-1.62 3.643-4.276 3.643-.733 0-1.34-.05-1.82-.177v-6.63zM376.518 54h2.202v-6.527c0-.38.05-.734.1-1.038.303-1.67 1.417-2.86 2.985-2.86.304 0 .53.027.76.077v-2.1c-.203-.05-.38-.075-.633-.075-1.493 0-2.834 1.037-3.39 2.68h-.102l-.076-2.402h-1.948c.076 1.138.1 2.378.1 3.82V54zm18.115-5.718c.026-.227.076-.582.076-1.037 0-2.252-1.062-5.768-5.06-5.768-3.567 0-5.743 2.91-5.743 6.603 0 3.694 2.252 6.173 6.02 6.173 1.95 0 3.29-.405 4.075-.76l-.38-1.593c-.835.354-1.796.633-3.39.633-2.226 0-4.15-1.24-4.2-4.25h8.602zm-8.576-1.594c.177-1.543 1.163-3.618 3.415-3.618 2.506 0 3.113 2.202 3.088 3.618h-6.502zm11.41 12.32h2.2v-6.653h.052c.733 1.215 2.15 1.923 3.77 1.923 2.883 0 5.565-2.175 5.565-6.578 0-3.72-2.226-6.223-5.186-6.223-2 0-3.44.885-4.352 2.378h-.05l-.102-2.1h-1.998c.05 1.164.1 2.43.1 3.997V59.01zm2.2-12.092c0-.304.077-.632.153-.91.43-1.67 1.846-2.758 3.364-2.758 2.353 0 3.643 2.1 3.643 4.554 0 2.808-1.366 4.73-3.72 4.73-1.593 0-2.934-1.062-3.34-2.605-.05-.28-.1-.582-.1-.91v-2.1zm21 7.084c-.152-.835-.202-1.872-.202-2.935v-4.58c0-2.453-.91-5.008-4.656-5.008-1.543 0-3.01.43-4.022 1.087l.506 1.468c.86-.557 2.05-.91 3.187-.91 2.504 0 2.782 1.82 2.782 2.833v.253c-4.73-.026-7.362 1.594-7.362 4.554 0 1.77 1.265 3.516 3.745 3.516 1.745 0 3.06-.86 3.744-1.82h.075l.177 1.542h2.024zm-2.353-4.124c0 .228-.05.48-.126.71-.355 1.036-1.367 2.048-2.96 2.048-1.14 0-2.1-.683-2.1-2.125 0-2.38 2.757-2.81 5.186-2.76v2.126zm7.97 4.124V41.755h-2.227V54h2.227zm-1.114-17.077c-.81 0-1.392.607-1.392 1.39 0 .76.556 1.367 1.34 1.367.886 0 1.443-.607 1.418-1.366 0-.784-.532-1.39-1.367-1.39zm13.155-.886v7.312h-.05c-.557-.988-1.822-1.873-3.694-1.873-2.984 0-5.514 2.504-5.49 6.578 0 3.72 2.278 6.223 5.238 6.223 2 0 3.49-1.037 4.174-2.403h.05l.102 2.125h2c-.077-.835-.102-2.075-.102-3.162v-14.8h-2.227zm0 12.827c0 .354-.025.658-.1.962-.406 1.67-1.772 2.656-3.265 2.656-2.403 0-3.617-2.05-3.617-4.53 0-2.706 1.366-4.73 3.668-4.73 1.67 0 2.885 1.164 3.214 2.58.076.28.1.66.1.937v2.124zm22.82 2.834c-.885.43-2.25.708-3.592.708-4.15 0-6.552-2.682-6.552-6.856 0-4.478 2.657-7.034 6.655-7.034 1.416 0 2.605.304 3.44.71l.532-1.797c-.582-.305-1.923-.76-4.048-.76-5.29 0-8.907 3.617-8.907 8.956 0 5.59 3.618 8.627 8.425 8.627 2.075 0 3.694-.405 4.503-.81l-.454-1.745zM473.09 54c-.152-.835-.203-1.872-.203-2.935v-4.58c0-2.453-.91-5.008-4.655-5.008-1.543 0-3.01.43-4.023 1.087l.506 1.468c.86-.557 2.05-.91 3.188-.91 2.506 0 2.784 1.82 2.784 2.833v.253c-4.73-.026-7.362 1.594-7.362 4.554 0 1.77 1.265 3.516 3.744 3.516 1.746 0 3.06-.86 3.745-1.82h.076l.178 1.542h2.024zm-2.353-4.124c0 .228-.05.48-.127.71-.354 1.036-1.366 2.048-2.96 2.048-1.138 0-2.1-.683-2.1-2.125 0-2.38 2.758-2.81 5.187-2.76v2.126zM476.478 54h2.2v-6.527c0-.38.05-.734.102-1.038.304-1.67 1.417-2.86 2.985-2.86.304 0 .532.027.76.077v-2.1c-.203-.05-.38-.075-.633-.075-1.493 0-2.834 1.037-3.39 2.68h-.1l-.077-2.402h-1.948c.075 1.138.1 2.378.1 3.82V54zM493.1 36.037v7.312h-.05c-.557-.988-1.822-1.873-3.695-1.873-2.985 0-5.515 2.504-5.49 6.578 0 3.72 2.277 6.223 5.237 6.223 2 0 3.492-1.037 4.175-2.403h.05L493.43 54h1.997c-.075-.835-.1-2.075-.1-3.162v-14.8H493.1zm0 12.827c0 .354-.025.658-.1.962-.406 1.67-1.772 2.656-3.265 2.656-2.404 0-3.618-2.05-3.618-4.53 0-2.706 1.366-4.73 3.67-4.73 1.668 0 2.883 1.164 3.212 2.58.075.28.1.66.1.937v2.124z" fill="#1C73C4"/></g></svg>