<svg xmlns="http://www.w3.org/2000/svg" viewBox="0 0 305.9 111.5"><defs><style>.a { fill: #006b35; } .b { fill: #7ac143; } .c { fill: #fff; }</style></defs><title>logo-moneypak-poweredby-white-v1</title><path class="a" d="M294.3 76.9H11.6A10.71 10.71 0 0 1 .9 66.2V11.6A10.71 10.71 0 0 1 11.6.9h282.7A10.71 10.71 0 0 1 305 11.6v54.5a10.73 10.73 0 0 1-10.7 10.8z"/><path class="b" d="M294.3 77.8H11.6A11.61 11.61 0 0 1 0 66.2V11.6A11.61 11.61 0 0 1 11.6 0h282.7a11.61 11.61 0 0 1 11.6 11.6v54.5a11.57 11.57 0 0 1-11.6 11.7zM11.6 1.9a9.82 9.82 0 0 0-9.8 9.8v54.5a9.82 9.82 0 0 0 9.8 9.8h282.7a9.82 9.82 0 0 0 9.8-9.8V11.6a9.82 9.82 0 0 0-9.8-9.8H11.6v.1z"/><path class="c" d="M58.7 58V30.2L47.2 58h-2.8L33 30.2V58h-6.6V20.6h9.3l10.2 24.7L56 20.6h9.3V58h-6.6zm12.7-13.5c0-7.8 5.3-14.2 13.9-14.2s14 6.5 14 14.2-5.3 14.3-14 14.3-13.9-6.5-13.9-14.3zm21.8 0c0-4.8-2.8-9-7.9-9s-7.8 4.2-7.8 9 2.8 9 7.8 9 7.9-4.2 7.9-9zM123.1 58V41c0-4.2-2.1-5.6-5.5-5.6a9 9 0 0 0-7 3.7V58h-5.9V30.9h5.9v3.7a13 13 0 0 1 9.6-4.4c5.8 0 8.8 3.1 8.8 8.7V58h-5.9zm11.3-13.5c0-7.9 5.7-14.2 13.8-14.2s13.4 6.2 13.4 14.8v1.4h-21c.4 4.1 3.5 7.5 8.7 7.5a11.62 11.62 0 0 0 7.7-3l2.7 3.9c-2.7 2.6-6.7 3.9-11 3.9-8.3-.1-14.3-5.8-14.3-14.3zm13.7-9.4a7.38 7.38 0 0 0-7.6 7.2h15.3a7.27 7.27 0 0 0-7.7-7.2zm17.8 28.3a5.7 5.7 0 0 0 2.2.4 3.71 3.71 0 0 0 3.9-2.4l1.3-3.1-11.1-27.5h6.3l7.9 20.3 7.9-20.3h6.3l-13.1 32c-1.9 4.6-5.1 6.1-9.3 6.1a18.59 18.59 0 0 1-3.3-.4zm28.6-5.4V20.6H211c7.9 0 12.2 5.4 12.2 11.7S218.8 44 211 44h-9.9v14h-6.6zm22-25.7c0-3.6-2.7-6-6.4-6h-9v11.9h9c3.7.1 6.4-2.3 6.4-5.9zM244.3 58v-2.9a11.51 11.51 0 0 1-8.8 3.6c-4.4 0-9.4-3-9.4-9 0-6.2 5-8.8 9.4-8.8 3.7 0 6.8 1.2 8.8 3.5v-4c0-3.1-2.6-5.1-6.3-5.1a11 11 0 0 0-8 3.4l-2.4-4.1a16 16 0 0 1 11.4-4.4c6 0 11.3 2.5 11.3 9.8v18h-6zm0-6.1v-4.1c-1.3-1.9-3.9-2.8-6.5-2.8-3.3 0-5.8 1.9-5.8 4.9s2.5 4.8 5.8 4.8a8 8 0 0 0 6.5-2.8zm30.9 6.1l-8.3-11.2-3.8 3.9V58h-5.9V20.6h5.9V44l12-13.1h7.3l-11.3 12.3L282.6 58h-7.4zM284.6 24a2.3 2.3 0 1 1 2.3-2.3 2.26 2.26 0 0 1-2.3 2.3zm0-4.2a2 2 0 1 0 2 2 2.07 2.07 0 0 0-2-2zm.6 3.3l-.7-1h-.5v1h-.4v-2.7h1.1a.88.88 0 0 1 .9.8.77.77 0 0 1-.7.8l.7 1.1h-.4zm-.4-2.4h-.7v.9h.7a.54.54 0 0 0 .5-.5.66.66 0 0 0-.5-.4z"/><g><path class="c" d="M118 98.6v3.5h-1V93h1v1a2.75 2.75 0 0 1 2.2-1.2c1.7 0 3 1.3 3 3.5s-1.2 3.5-3 3.5a2.51 2.51 0 0 1-2.2-1.2zm4.1-2.3c0-1.5-.8-2.6-2.1-2.6a2.55 2.55 0 0 0-2 1.1v3a2.55 2.55 0 0 0 2 1.1c1.3 0 2.1-1.1 2.1-2.6zM124.4 96.3a3.31 3.31 0 1 1 3.3 3.5 3.31 3.31 0 0 1-3.3-3.5zm5.5 0a2.38 2.38 0 0 0-2.2-2.6 2.64 2.64 0 1 0 2.2 2.6zM138.4 99.6l-1.7-5.3-1.7 5.3h-1l-2.1-6.6h1.1l1.6 5.3 1.7-5.3h.9l1.7 5.3 1.6-5.3h1.1l-2.1 6.6h-1.1zM142.4 96.3a3.38 3.38 0 0 1 3.3-3.5c2 0 3.2 1.6 3.2 3.6v.3h-5.4a2.42 2.42 0 0 0 2.4 2.3 2.79 2.79 0 0 0 2-.8l.5.7a3.54 3.54 0 0 1-2.6 1 3.42 3.42 0 0 1-3.4-3.6zm3.2-2.6a2.29 2.29 0 0 0-2.2 2.2h4.4a2.15 2.15 0 0 0-2.2-2.2zM150.5 99.6V93h1v1.1a2.75 2.75 0 0 1 2.2-1.2V94h-.4a2.34 2.34 0 0 0-1.8 1.1v4.7a1.8 1.8 0 0 0-1-.2zM154.6 96.3a3.38 3.38 0 0 1 3.3-3.5c2 0 3.2 1.6 3.2 3.6v.3h-5.4a2.42 2.42 0 0 0 2.4 2.3 2.79 2.79 0 0 0 2-.8l.5.7a3.54 3.54 0 0 1-2.6 1 3.42 3.42 0 0 1-3.4-3.6zm3.3-2.6a2.29 2.29 0 0 0-2.2 2.2h4.4a2.15 2.15 0 0 0-2.2-2.2zM167.5 99.6v-1a2.75 2.75 0 0 1-2.2 1.2c-1.7 0-3-1.3-3-3.5s1.2-3.5 3-3.5a2.51 2.51 0 0 1 2.2 1.2v-3.5h1v9.2h-1v-.1zm0-1.8v-3a2.55 2.55 0 0 0-2-1.1c-1.3 0-2.1 1.1-2.1 2.6s.8 2.6 2.1 2.6a2.27 2.27 0 0 0 2-1.1zM174.2 99.6v-9.2h1V94a2.75 2.75 0 0 1 2.2-1.2c1.7 0 3 1.4 3 3.5s-1.2 3.5-3 3.5a2.75 2.75 0 0 1-2.2-1.2v1h-1zm3-.7c1.3 0 2.1-1.1 2.1-2.6s-.8-2.6-2.1-2.6a2.55 2.55 0 0 0-2 1.1v3a2.55 2.55 0 0 0 2 1.1zM181.9 101.3a1.08 1.08 0 0 0 .6.1 1 1 0 0 0 1-.7l.4-1-2.8-6.7h1.1l2.2 5.4 2.2-5.4h1.1l-3.3 8a1.87 1.87 0 0 1-1.9 1.3 2.2 2.2 0 0 1-.8-.1z"/><g><path class="c" d="M197.5 95a1.47 1.47 0 0 1 1.4-1.8c1.4 0 1.4 1.2 1.4 1.9v6.8a1.42 1.42 0 0 1-1.5 1.7 1.4 1.4 0 0 1-1.4-1.7l.1-6.9m2.9-3a4.43 4.43 0 0 0-3.2-1.5c-3.2 0-3.2 3.3-3.2 3.9v8.1c0 1.8.4 3.8 3.3 3.8a3.66 3.66 0 0 0 3.1-1.5v2.4c0 .9-.2 1.8-1.4 1.8a1.18 1.18 0 0 1-1.2-.7 3.75 3.75 0 0 1-.1-1H194c0 1.4 0 4.2 4.7 4.2 5.2 0 5.2-3.3 5.2-4.9V90.7h-3.5V92zM205.8 90.7h3.6v1.9a3.45 3.45 0 0 1 3.5-2.2V94a3.26 3.26 0 0 0-1.2-.2c-2.3 0-2.3 2.1-2.3 3.3v9h-3.5V90.7M217.2 94.8a1.27 1.27 0 0 1 1.3-1.5 1.24 1.24 0 0 1 1.2 1.5v1.9h-2.5v-1.9m-.1 4.4h6.1v-4.4a4.36 4.36 0 0 0-1-3 5.24 5.24 0 0 0-3.7-1.3 6 6 0 0 0-3.2.9 4.09 4.09 0 0 0-1.6 3.7v6.5c0 3.1 1.4 4.9 4.9 4.9 2.2 0 4.7-.8 4.7-4.1V101h-3.5c0 1.6 0 1.8-.3 2.1a1 1 0 0 1-.9.4c-1.3 0-1.3-1.2-1.3-1.9v-2.4h-.2zM228.3 94.8a1.27 1.27 0 0 1 1.3-1.5 1.24 1.24 0 0 1 1.2 1.5v1.9h-2.5v-1.9m-.1 4.4h6.1v-4.4a4 4 0 0 0-1.1-3 5.24 5.24 0 0 0-3.7-1.3 6 6 0 0 0-3.2.9 4.09 4.09 0 0 0-1.6 3.7v6.5c0 3.1 1.4 4.9 4.9 4.9 2.2 0 4.7-.8 4.7-4.1V101h-3.5c0 1.6 0 1.8-.3 2.1a1.05 1.05 0 0 1-1 .4c-1.3 0-1.3-1.2-1.3-1.9v-2.4zM236 90.7h3.6l-.1 1.1a4 4 0 0 1 3.1-1.4 3.38 3.38 0 0 1 2.5 1 3.57 3.57 0 0 1 .7 2.6v12h-3.5V94.8c0-.8-.1-1.9-1.2-1.9-1.5 0-1.5 1.4-1.5 2.1v11H236V90.7M258.7 95c0-.7 0-1.9 1.4-1.9a1.49 1.49 0 0 1 1.5 1.8v6.6a1.57 1.57 0 0 1-1.5 1.9c-1.4 0-1.4-1-1.4-1.7V95m2.9-3.1a4.68 4.68 0 0 0-3.1-1.6 3.3 3.3 0 0 0-2.9 1.8 4.74 4.74 0 0 0-.4 2.3v7a7.37 7.37 0 0 0 .5 3.3 3.15 3.15 0 0 0 3 1.6 3.46 3.46 0 0 0 3-1.8v1.5h3.6V84.8h-3.5l-.2 7.1zM270.4 94.5c0-.7 0-1.9 1.3-1.9 1.1 0 1.2 1 1.2 1.9v7.8c0 .6 0 1.6-1.3 1.6a1.32 1.32 0 0 1-1.2-1.6v-7.8m-3.6 7.1c0 1.1 0 4.6 4.7 4.6 3.2 0 4.9-1.5 4.9-4.3v-7.3a3.75 3.75 0 0 0-1.5-3.4 6.09 6.09 0 0 0-3.2-.8c-4.2 0-4.8 2.6-4.8 4.4l-.1 6.8zM278.9 85.1h3.6v5.5h2.2V93h-2.2v8.7c0 1 .2 1.7 1.6 1.7h.6v2.5a5.12 5.12 0 0 1-1.9.2c-3.3 0-3.9-1.3-3.9-3.2V93H277v-2.4h1.9v-5.5M285.3 85a1.88 1.88 0 0 1 .8.2 1.17 1.17 0 0 1 .6.6 1.49 1.49 0 0 1 .2.9 2.92 2.92 0 0 1-.2.9 1.17 1.17 0 0 1-.6.6 1.34 1.34 0 0 1-.8.2 2.92 2.92 0 0 1-.9-.2 1.7 1.7 0 0 1-.6-.6 2.39 2.39 0 0 1-.2-.9 2.92 2.92 0 0 1 .2-.9 1.17 1.17 0 0 1 .6-.6 2.92 2.92 0 0 1 .9-.2m0 .3a1.85 1.85 0 0 0-.7.2 1.21 1.21 0 0 0-.5.5 1.85 1.85 0 0 0-.2.7 1.45 1.45 0 0 0 .2.7 1.21 1.21 0 0 0 .5.5 1.33 1.33 0 0 0 1.4 0 1.21 1.21 0 0 0 .5-.5 1.32 1.32 0 0 0 0-1.4 1.21 1.21 0 0 0-.5-.5 2.54 2.54 0 0 0-.7-.2zm-.8 2.4v-1.8h.6a.75.75 0 0 1 .5.1.22.22 0 0 1 .2.2.37.37 0 0 1 .1.3c0 .1-.1.3-.1.4a.52.52 0 0 1-.4.2c.1 0 .1.1.2.1a1.38 1.38 0 0 1 .3.4l.2.4h-.4l-.2-.3a.68.68 0 0 0-.3-.4c-.1 0-.1-.1-.2-.1h-.2v.8l-.3-.3zm.3-1h.4a.48.48 0 0 0 .4-.1c.1 0 .1-.1.1-.2v-.1l-.1-.1h-.6l-.2.5z"/></g></g></svg>