<svg id="Layer_1" xmlns="http://www.w3.org/2000/svg" viewBox="98.4 181.7 37.9 49.6"><style>.st0{fill:#979797;} .st1{enable-background:new ;}</style><title>AdvertisingOptions</title><g id="Page-1"><g id="Direct-Deposit-Mobile"><g id="GreenDot_x2F_Mobile_x2F_Footer"><g id="Footer"><g id="AdvertisingOptions"><path class="st0" d="M114.7 209.2l-6.9-6.9c-.6-.6-.6-1.5 0-2.1.6-.6 1.5-.6 2.1 0l4.8 4.8 11.9-11.9c.6-.6 1.5-.6 2.1 0 .6.6.6 1.5 0 2.1l-14 14z" id="Path-2-Copy-2"/><path class="st0" d="M117.8 218.7c-10.2 0-18.5-8.3-18.5-18.5s8.3-18.5 18.5-18.5 18.5 8.3 18.5 18.5-8.3 18.5-18.5 18.5zm0-34c-8.5 0-15.5 7-15.5 15.5s7 15.5 15.5 15.5 15.5-7 15.5-15.5-6.9-15.5-15.5-15.5z" id="Oval-71"/></g></g></g></g></g><g class="st1"><path class="st0" d="M101.7 226.2l-.4-.9h-2l-.4.9h-.6l1.6-4h.6l1.6 4h-.4zm-1.3-3.5l-.9 2.2h1.7l-.8-2.2zM102.8 226.2v-4h1.4c1.2 0 2.1.9 2.1 2s-.8 2-2.1 2h-1.4zm2.9-2c0-.9-.5-1.6-1.5-1.6h-.9v3.1h.9c1 0 1.5-.7 1.5-1.5zM108.1 226.2l-1.6-4h.6l1.3 3.5 1.3-3.5h.6l-1.6 4h-.6zM110.9 226.2v-4h2.6v.4h-2.1v1.3h2.1v.4h-2.1v1.4h2.1v.4h-2.6zM116.6 226.2l-1-1.6h-.8v1.6h-.5v-4h1.6c.7 0 1.3.5 1.3 1.2s-.5 1.1-1 1.2l1.1 1.6h-.7zm0-2.8c0-.4-.3-.8-.8-.8h-1v1.5h1c.5.1.8-.3.8-.7zM118.8 226.2v-3.6h-1.3v-.4h3v.4h-1.3v3.6h-.4zM121.3 226.2v-4h.5v4h-.5zM122.5 225.6l.3-.4c.3.3.7.6 1.3.6.7 0 .9-.4.9-.7 0-1-2.4-.5-2.4-1.9 0-.7.6-1.1 1.4-1.1.6 0 1.1.2 1.4.6l-.3.4c-.3-.3-.7-.5-1.2-.5s-.8.3-.8.6c0 .9 2.4.4 2.4 1.9 0 .6-.4 1.2-1.5 1.2-.7 0-1.2-.3-1.5-.7zM126.2 226.2v-4h.5v4h-.5zM130.5 226.2l-2.3-3.2v3.2h-.5v-4h.5l2.3 3.1v-3.1h.5v4h-.5zM131.7 224.2c0-1.2.9-2.1 2.1-2.1.7 0 1.2.3 1.6.7l-.4.2c-.3-.3-.7-.6-1.2-.6-.9 0-1.5.7-1.5 1.6 0 .9.7 1.6 1.5 1.6.5 0 .9-.2 1.1-.4v-.8h-1.4v-.4h1.9v1.4c-.4.4-.9.7-1.6.7-1.1.2-2.1-.7-2.1-1.9z"/></g><g class="st1"><path class="st0" d="M105.3 229.2c0-1.2.8-2.1 2-2.1s2 .9 2 2.1-.8 2.1-2 2.1-2-.9-2-2.1zm3.4 0c0-.9-.6-1.6-1.5-1.6s-1.5.7-1.5 1.6c0 .9.6 1.6 1.5 1.6s1.5-.7 1.5-1.6zM110 231.2v-4h1.6c.8 0 1.3.6 1.3 1.2 0 .7-.5 1.2-1.3 1.2h-1.1v1.6h-.5zm2.4-2.8c0-.4-.3-.8-.8-.8h-1v1.5h1c.4.1.8-.3.8-.7zM114.5 231.2v-3.6h-1.3v-.4h3v.4H115v3.6h-.5zM117 231.2v-4h.5v4h-.5zM118.2 229.2c0-1.2.8-2.1 2-2.1s2 .9 2 2.1-.8 2.1-2 2.1-2-.9-2-2.1zm3.5 0c0-.9-.6-1.6-1.5-1.6s-1.5.7-1.5 1.6c0 .9.6 1.6 1.5 1.6s1.5-.7 1.5-1.6zM125.8 231.2l-2.3-3.2v3.2h-.5v-4h.5l2.3 3.1v-3.1h.5v4h-.5zM127 230.6l.3-.4c.3.3.7.6 1.3.6.7 0 .9-.4.9-.7 0-1-2.4-.5-2.4-1.9 0-.7.6-1.1 1.4-1.1.6 0 1.1.2 1.4.6l-.3.4c-.3-.3-.7-.5-1.2-.5s-.8.3-.8.6c0 .9 2.4.4 2.4 1.9 0 .6-.4 1.2-1.5 1.2-.7 0-1.2-.3-1.5-.7z"/></g></svg>