<svg xmlns="http://www.w3.org/2000/svg" viewBox="0 0 402.78 84"><defs><style>.a { fill: #00c1d5; } .b { fill: #5d6d71; }</style></defs><title>logo-gobank-blue-v2</title><path class="a" d="M110.11 63.91V20.07l36 21.75zM122.53 0a41.66 41.66 0 0 0-40.61 32.4H35.67l6 18.51h21.2a23.14 23.14 0 1 1-7.33-27.77H79a41.67 41.67 0 1 0 3.11 28.5A41.66 41.66 0 1 0 122.53 0z"/><path class="b" d="M199.13 34.34c-10.68 0-12.3 9.05-12.3 19.49s1.62 19.61 12.3 19.61 12.18-9.17 12.18-19.61-1.51-19.49-12.18-19.49m17.4 44.44C213.29 82 208.07 84 202.15 84c-6.38 0-11.14-1.62-15.55-7v6.3H175V.69h11.84v29.7c4.29-5.11 9.17-6.61 15.43-6.61 5.92 0 11 2 14.27 5.22 5.92 5.92 6.62 15.9 6.62 24.83s-.7 19-6.62 24.95M263.83 57.31H250c-7 0-10.56 3.13-10.56 8.47s3.36 8.35 10.79 8.35c4.52 0 7.89-.35 11-3.36 1.74-1.74 2.55-4.53 2.55-8.7v-4.76zm.23 26V78c-4.29 4.29-8.35 6-15.67 6s-12.18-1.74-15.78-5.34A18.06 18.06 0 0 1 228 66c0-9.86 6.85-16.94 20.31-16.94h15.55V44.9c0-7.43-3.71-11-12.88-11-6.5 0-9.63 1.51-12.88 5.69l-7.77-7.31c5.57-6.5 11.37-8.47 21.12-8.47 16.13 0 24.25 6.85 24.25 20.19v39.3h-11.6zM318.25 83.3V47.45c0-9.17-5.22-13.11-11.83-13.11s-12.18 4.06-12.18 13.11V83.3H282.4V24.48H294v5.92a21 21 0 0 1 15.66-6.61c6 0 11 2 14.51 5.34 4.52 4.41 5.92 10 5.92 16.59V83.3h-11.84zM373.95 83.3l-16.48-27.15-8.7 9.85v17.3h-11.84V.69h11.84v50.94l22.86-27.15H386l-20.41 23.09 23 35.74h-14.64zM402.78 7.12A6.78 6.78 0 1 0 396 13.9a6.75 6.75 0 0 0 6.78-6.78zm-.86 0A5.92 5.92 0 1 1 396 1.2a5.95 5.95 0 0 1 5.92 5.92zM399.1 11L397 7.92a2.28 2.28 0 0 0 2-2.3 2.31 2.31 0 0 0-2.4-2.37h-3.17V11h1V8h1.47l2 3.07h1.22zM398 5.62A1.46 1.46 0 0 1 396.61 7h-2.21V4.14h2.21A1.48 1.48 0 0 1 398 5.62z"/></svg>