<svg width="25" height="40" viewBox="0 0 25 40" xmlns="http://www.w3.org/2000/svg"><title>Imported Layers</title><path d="M10.284 10.17L8.84 12.13c-.722.984-.498 2.727.49 3.43l2.674 1.908c.458.327.495.65.277.997l.39.285 1.353-1.852c.836-1.144.763-2.702-.477-3.594l-2.696-1.94c-.323-.232-.357-.557-.178-.92l-.388-.275zm2.313-8.673l-2.245 3.067c-1.053 1.438-.67 3.895.77 4.937l3.69 2.677c.748.543.846 1.924.3 2.632l.314.23 2.546-3.537c1.144-1.59 1.077-3.936-.718-5.224l-3.948-2.833c-.553-.396-.83-1.07-.37-1.713l-.34-.237zM6.68 20.732h2.976l.53 1.78h4.863l.53-1.78h2.974l-.39-1.31H7.07l-.39 1.31zM2.374 0H22.54c1.306 0 2.374 1.055 2.374 2.344V37.55c0 1.288-1.068 2.343-2.373 2.343H2.375C1.068 39.893 0 38.838 0 37.55V2.343C0 1.054 1.068 0 2.374 0zm0 .16H22.54c1.217 0 2.212.983 2.212 2.184V37.55c0 1.2-.995 2.182-2.21 2.182H2.373c-1.216 0-2.21-.982-2.21-2.183V2.343c0-1.2.994-2.183 2.21-2.183zm21.89 31.908v5.48c0 .936-.776 1.702-1.723 1.702H2.375c-.948 0-1.722-.766-1.722-1.7v-5.482h23.61zm-19.64 3.024l-.884-2.18h-.452l-.89 2.18h.497l.183-.486h.85l.184.486h.512zm-.854-.9h-.532l.15-.396c.024-.064.046-.127.067-.187.02-.06.038-.112.05-.154.01.042.026.093.047.153.02.06.044.122.068.186l.15.396zm2.818-.925c-.137-.156-.353-.3-.557-.354-.087-.024-.186-.036-.295-.036-.152 0-.292.027-.418.082-.127.054-.235.13-.326.23-.09.1-.16.217-.212.355-.05.138-.076.29-.076.456 0 .174.024.33.073.467.05.138.118.256.208.354.09.098.196.174.32.227.124.053.263.08.416.08.28 0 .768-.153.907-.424l-.33-.29c-.095.148-.39.28-.565.28-.086 0-.164-.018-.233-.053-.07-.035-.127-.084-.175-.146-.048-.063-.084-.136-.108-.22-.024-.084-.037-.175-.037-.273 0-.1.013-.193.037-.277.024-.084.06-.157.106-.22.047-.06.104-.107.173-.142.07-.033.146-.05.233-.05.173 0 .42.114.536.264l.322-.307zm4.415 1.825l-.516-.83c.15-.053.314-.15.388-.256.074-.105.112-.24.112-.403 0-.117-.022-.218-.064-.304-.042-.087-.1-.16-.172-.218-.073-.058-.158-.1-.255-.13-.098-.027-.2-.04-.31-.04H9.103v2.18h.465v-.785l.415.018.486.767h.535zm-.495-1.48c0 .19-.11.284-.333.284h-.608v-.56h.608c.105 0 .186.02.245.063.06.04.088.112.088.212zm2.45 1.48v-.427h-1.2v-.527h.967v-.423h-.966v-.377h1.15v-.427h-1.616v2.182h1.665zm2.233-1.09c0-.2-.03-.37-.087-.507-.06-.138-.14-.25-.243-.338-.103-.087-.225-.15-.366-.188-.14-.04-.294-.06-.46-.06h-.728v2.182H14c.15 0 .295-.02.438-.063.143-.042.27-.107.382-.195.112-.09.202-.202.27-.34.067-.138.1-.302.1-.494zm-.478 0c0 .1-.014.19-.043.272-.03.082-.073.152-.13.21-.058.058-.132.104-.222.136-.09.032-.195.048-.317.048h-.23v-1.333h.247c.246 0 .423.055.532.166.108.113.162.28.162.5zm.93 1.09h.464v-2.18h-.465v2.18zm2.633-1.75v-.43h-1.802v.43h.668v1.75h.467v-1.75h.668zm4.197.66c0-.2-.03-.37-.088-.507-.06-.138-.14-.25-.243-.338-.102-.087-.223-.15-.364-.188-.14-.04-.294-.06-.46-.06h-.728v2.182h.694c.15 0 .294-.02.437-.063.142-.042.27-.107.382-.195.11-.09.2-.202.27-.34.066-.138.1-.302.1-.494zm-.478 0c0 .1-.015.19-.044.272-.028.082-.072.152-.13.21-.057.058-.13.104-.22.136-.09.032-.196.048-.318.048h-.23v-1.333h.247c.245 0 .422.055.53.166.11.113.164.28.164.5zm-1.755 1.09v-.427h-1.2v-.527h.965v-.423h-.966v-.377h1.15v-.427h-1.616v2.182h1.665zm-3.895 2.815v-.426h-1.2v-.526h.966v-.424h-.964v-.376h1.15v-.427H14.68v2.18h1.665zm-7.608-4.64c-.137-.156-.354-.3-.557-.354-.09-.024-.188-.036-.296-.036-.153 0-.293.027-.42.082-.125.054-.234.13-.325.23-.092.1-.163.217-.213.355-.05.138-.077.29-.077.456 0 .174.025.33.073.467.05.138.118.256.208.354.09.098.198.174.322.227.124.053.262.08.415.08.282 0 .77-.153.91-.424l-.332-.29c-.094.148-.388.28-.564.28-.086 0-.163-.018-.232-.053-.07-.035-.127-.084-.175-.146-.047-.063-.083-.136-.108-.22C7.34 34.19 7.33 34.1 7.33 34c0-.1.01-.193.035-.277.025-.084.06-.157.107-.22.046-.06.104-.107.172-.142.07-.033.147-.05.233-.05.175 0 .422.114.537.264l.323-.307zm-1.902 3.936c0-.12-.03-.22-.09-.3-.06-.078-.137-.137-.227-.176.075-.044.134-.102.176-.175.042-.072.063-.155.063-.25 0-.186-.065-.33-.194-.427-.13-.1-.305-.148-.525-.148h-1.04v2.18h1.03c.12 0 .232-.015.33-.045.1-.03.185-.075.255-.134.07-.06.125-.133.164-.22.038-.09.058-.19.058-.305zm-.538-.866c0 .06-.018.11-.056.148-.037.04-.103.058-.198.058h-.6v-.414h.577c.098 0 .17.016.213.052.043.035.064.087.064.155zm.072.872c0 .087-.028.156-.08.207-.054.05-.135.076-.245.076h-.603v-.564h.603c.216 0 .324.093.324.28zm2.604-.265v-1.218H8.52v1.224c0 .177-.04.316-.125.415-.083.1-.196.15-.34.15-.146 0-.26-.05-.34-.153-.083-.102-.124-.24-.124-.417v-1.218h-.453v1.224c0 .16.023.302.067.425.044.122.106.225.186.31.08.084.177.148.29.19.113.045.238.067.374.067.29 0 .515-.087.677-.26.163-.174.244-.42.244-.737zm2.083.302c0-.118-.023-.216-.068-.293-.046-.077-.105-.14-.177-.19-.073-.05-.154-.09-.243-.117-.09-.028-.18-.052-.27-.073-.09-.02-.166-.04-.224-.056-.058-.017-.105-.034-.14-.053-.034-.02-.058-.04-.072-.064-.014-.023-.02-.052-.02-.088 0-.025.004-.048.015-.07.01-.024.028-.045.054-.064.026-.018.06-.033.1-.045.04-.01.092-.017.153-.017.103 0 .197.02.28.058.083.038.16.094.234.166l.33-.305c-.11-.108-.23-.192-.363-.252-.132-.06-.287-.09-.464-.09-.113 0-.218.014-.316.043-.098.03-.184.07-.257.126-.074.055-.13.122-.174.2-.042.08-.063.17-.063.27 0 .107.017.197.052.27.035.073.083.133.146.18.063.05.138.088.226.12.087.03.183.057.286.08.106.023.193.045.26.066.066.02.118.042.153.065.036.023.06.047.073.073.013.026.02.057.02.092 0 .083-.032.143-.096.18-.064.038-.163.057-.3.057-.11 0-.214-.02-.312-.058-.098-.038-.187-.102-.267-.19l-.327.28c.086.122.207.218.362.29.156.07.33.105.52.105.154 0 .287-.017.4-.05.11-.033.202-.08.275-.142.074-.06.128-.134.162-.22.035-.085.052-.18.052-.283zm.368.66h.453v-2.18h-.453v2.18zm2.76 0v-2.18h-.447v.922c0 .03 0 .068.002.114v.14c0 .046.002.09.003.13l.002.09c-.016-.028-.04-.065-.07-.112-.03-.047-.06-.09-.09-.133l-.802-1.153h-.434v2.18h.446v-.96c0-.03 0-.07-.002-.114l-.002-.137v-.133l-.003-.092c.014.03.037.068.07.115.03.047.06.09.088.132l.832 1.19h.405zm4.012-.66c0-.118-.023-.216-.068-.293-.047-.077-.106-.14-.178-.19-.072-.05-.153-.09-.243-.117-.09-.028-.18-.052-.27-.073-.092-.02-.166-.04-.225-.056-.058-.017-.104-.034-.14-.053-.033-.02-.058-.04-.072-.064-.014-.023-.02-.052-.02-.088 0-.025.005-.048.016-.07.01-.024.028-.045.054-.064.025-.018.06-.033.1-.045.04-.01.092-.017.152-.017.104 0 .197.02.28.058.083.038.162.094.235.166l.328-.305c-.108-.108-.228-.192-.36-.252-.134-.06-.29-.09-.466-.09-.112 0-.217.014-.315.043-.1.03-.184.07-.258.126-.074.055-.132.122-.174.2-.042.08-.063.17-.063.27 0 .107.017.197.052.27.034.073.083.133.145.18.063.05.138.088.225.12.088.03.183.057.287.08.106.023.192.045.26.066.066.02.117.042.153.065.035.023.06.047.073.073.013.026.02.057.02.092 0 .083-.033.143-.096.18-.064.038-.164.057-.3.057-.11 0-.214-.02-.312-.058-.1-.038-.188-.102-.268-.19l-.327.28c.087.122.208.218.363.29.155.07.328.105.518.105.156 0 .29-.017.4-.05.11-.033.204-.08.277-.142.073-.06.127-.134.162-.22.034-.085.052-.18.052-.283zm1.947 0c0-.118-.022-.216-.068-.293-.045-.077-.104-.14-.176-.19-.073-.05-.154-.09-.243-.117-.09-.028-.18-.052-.27-.073-.09-.02-.166-.04-.224-.056-.058-.017-.105-.034-.14-.053-.034-.02-.058-.04-.072-.064-.013-.023-.02-.052-.02-.088 0-.025.005-.048.016-.07.01-.024.03-.045.055-.064.027-.018.06-.033.1-.045.043-.01.093-.017.154-.017.103 0 .197.02.28.058.083.038.16.094.235.166l.326-.305c-.108-.108-.228-.192-.36-.252-.134-.06-.29-.09-.466-.09-.112 0-.218.014-.316.043-.098.03-.184.07-.257.126-.074.055-.13.122-.173.2-.043.08-.064.17-.064.27 0 .107.018.197.052.27.035.073.083.133.146.18.063.05.137.088.225.12.087.03.183.057.287.08.105.023.192.045.26.066.065.02.117.042.152.065.036.023.06.047.073.073.013.026.02.057.02.092 0 .083-.032.143-.096.18-.064.038-.164.057-.3.057-.11 0-.215-.02-.313-.058-.098-.038-.187-.102-.267-.19l-.327.28c.086.122.207.218.363.29.155.07.328.105.518.105.155 0 .29-.017.4-.05.11-.033.203-.08.276-.142.074-.06.128-.134.162-.22.035-.085.052-.18.052-.283zm-13.24-8.383H5.123V27.39h1.783c1.31 0 1.23 1.474 0 1.474zm6.11 0H11.23V27.39h1.784c1.31 0 1.23 1.474 0 1.474zm6.108 0H17.34V27.39h1.782c1.31 0 1.232 1.474 0 1.474zM6.784 26.237H5.122v-1.38h1.6c.998 0 1.034 1.38.062 1.38zm6.108 0h-1.66v-1.38h1.597c.998 0 1.034 1.38.062 1.38zm6.11 0h-1.663v-1.38h1.598c1 0 1.035 1.38.063 1.38zm-9.764 1.806c-.127-.847-.472-1.05-1.164-1.35.523-.303.844-.748.844-1.356 0-1.218-1.01-1.714-2.11-1.714H3.73v6.462h3.05c1.3 0 2.68-.562 2.458-2.042zm6.11 0c-.128-.847-.474-1.05-1.165-1.35.523-.303.844-.748.844-1.356 0-1.218-1.01-1.714-2.11-1.714H9.838v6.462h3.047c1.302 0 2.68-.562 2.46-2.042zm6.107 0c-.126-.847-.472-1.05-1.163-1.35.522-.303.844-.748.844-1.356 0-1.218-1.01-1.714-2.11-1.714h-3.078v6.462h3.048c1.302 0 2.68-.562 2.46-2.042zm.59 1.83c0-.027-.002-.05-.01-.072-.007-.02-.02-.04-.036-.056-.018-.018-.04-.034-.07-.048-.027-.015-.062-.03-.104-.044-.038-.013-.07-.025-.093-.036-.023-.01-.04-.023-.054-.034-.014-.012-.023-.023-.027-.036-.005-.012-.007-.025-.007-.04s.003-.03.008-.042c.006-.013.014-.024.026-.034.012-.01.027-.017.046-.023.02-.006.042-.01.068-.01.038 0 .07.007.1.018.027.012.054.028.082.05l.054-.063c-.032-.024-.066-.043-.1-.057-.037-.014-.08-.02-.13-.02-.036 0-.07.003-.098.012-.03.008-.054.02-.075.037-.02.016-.036.035-.048.058-.013.023-.018.05-.018.08 0 .025.003.048.01.068.008.02.02.04.038.055.017.016.04.032.067.046.028.015.062.03.104.043.035.012.064.023.087.035.023.01.042.023.056.035.014.012.024.024.03.038.006.015.01.03.01.047 0 .04-.016.07-.045.092-.03.02-.07.032-.12.032-.04 0-.075-.008-.108-.024-.034-.016-.065-.037-.094-.063l-.056.06c.03.03.067.053.11.072.045.02.093.03.145.03.04 0 .075-.006.106-.017.032-.01.058-.024.08-.042.022-.018.038-.04.05-.065.01-.025.016-.052.016-.08zm.788.192v-.73h-.092l-.18.437c-.004.01-.01.022-.014.035l-.016.04-.014.037-.01.03-.01-.03-.014-.036-.015-.04-.015-.036-.18-.436h-.093v.73h.08v-.573l.008.025.01.032c.005.01.01.02.013.033.006.01.01.022.014.03l.2.47.203-.47.013-.03.013-.033c.004-.01.008-.022.01-.032l.01-.025v.572h.08z" fill="#87969D" fill-rule="evenodd"/></svg>