<?xml version="1.0" encoding="UTF-8" standalone="no"?>
<svg width="176px" height="30px" viewBox="0 0 176 30" version="1.1" xmlns="http://www.w3.org/2000/svg" xmlns:xlink="http://www.w3.org/1999/xlink">
    <!-- Generator: Sketch 3.7.2 (28276) - http://www.bohemiancoding.com/sketch -->
    <title>SEIU member benefits logo </title>
    <desc>Created with Sketch.</desc>
    <defs>
        <polygon id="path-1" points="6.42833333 8.95719375 6.42833333 0.57800625 0.244325 0.57800625 0.244325 8.95719375 6.42833333 8.95719375"></polygon>
        <polygon id="path-3" points="0.5249 10.875 5.47181667 10.875 5.47181667 0.461160417 0.5249 0.461160417"></polygon>
        <polygon id="path-5" points="0.448110417 9.0625 5.83486042 9.0625 5.83486042 0.444183333 0.448110417 0.444183333 0.448110417 9.0625"></polygon>
    </defs>
    <g id="SEIU-Pages" stroke="none" stroke-width="1" fill="none" fill-rule="evenodd">
        <g id="Sign-Up-Branded-Desktop-v3" transform="translate(-24.000000, -44.000000)">
            <g id="Header-over-photography-(desktop)">
                <g id="SEIU-member-benefits-logo-" transform="translate(25.000000, 44.000000)">
                    <path d="M0.823358333,21.3642396 C2.93310833,22.3719896 5.5582125,23.0994062 8.1464625,23.0800729 C9.663525,23.0698021 12.3454208,22.8529062 12.8064,20.9999271 C13.64015,17.6492187 2.9735875,15.0525104 4.64169167,8.35109375 C5.40717083,5.27648958 9.06117083,1.51132292 17.2717958,1.45030208 C19.9494625,1.43036458 23.0198375,1.72519792 25.410525,2.14026042 L24.8861083,8.36136458 C23.039775,7.54876042 20.4201083,7.05334375 18.2336292,7.06965625 C16.8059833,7.08053125 14.1796708,7.61098958 13.8359,8.99151042 C12.8740667,12.8545521 23.7569208,14.5830729 22.0495458,21.4427812 C21.1668583,24.9904479 17.2295042,28.6396146 8.9294625,28.7012396 C5.94004583,28.7235937 3.0134625,28.3127604 0.230670833,27.8608437 L0.823358333,21.3642396 Z" id="Fill-1" fill="#FEFEFE"></path>
                    <path d="M0.823358333,21.3642396 C2.93310833,22.3719896 5.5582125,23.0994062 8.1464625,23.0800729 C9.663525,23.0698021 12.3454208,22.8529062 12.8064,20.9999271 C13.64015,17.6492187 2.9735875,15.0525104 4.64169167,8.35109375 C5.40717083,5.27648958 9.06117083,1.51132292 17.2717958,1.45030208 C19.9494625,1.43036458 23.0198375,1.72519792 25.410525,2.14026042 L24.8861083,8.36136458 C23.039775,7.54876042 20.4201083,7.05334375 18.2336292,7.06965625 C16.8059833,7.08053125 14.1796708,7.61098958 13.8359,8.99151042 C12.8740667,12.8545521 23.7569208,14.5830729 22.0495458,21.4427812 C21.1668583,24.9904479 17.2295042,28.6396146 8.9294625,28.7012396 C5.94004583,28.7235937 3.0134625,28.3127604 0.230670833,27.8608437 L0.823358333,21.3642396 L0.823358333,21.3642396 Z" id="Stroke-3" stroke="#FEFEFE" stroke-width="0.706"></path>
                    <polygon id="Fill-5" fill="#FEFEFE" points="49.1292625 11.7968375 47.7263875 17.4343167 35.276325 17.5267542 34.0891375 22.29665 48.9039083 22.1866917 47.5004292 27.8235667 25.0218042 28.0036083 31.5667417 1.710275 54.0459708 1.53023333 52.6424917 7.16710833 37.8277208 7.27767083 36.6798042 11.8898792"></polygon>
                    <polygon id="Stroke-7" stroke="#FEFEFE" stroke-width="0.706" points="49.1292625 11.7968375 47.7263875 17.4343167 35.276325 17.5267542 34.0891375 22.29665 48.9039083 22.1866917 47.5004292 27.8235667 25.0218042 28.0036083 31.5667417 1.710275 54.0459708 1.53023333 52.6424917 7.16710833 37.8277208 7.27767083 36.6798042 11.8898792"></polygon>
                    <polygon id="Fill-9" fill="#FEFEFE" points="58.7361771 1.81195625 68.1068021 1.74187292 61.5618646 28.0352062 52.1912396 28.1052896"></polygon>
                    <polygon id="Stroke-11" stroke="#FEFEFE" stroke-width="0.706" points="58.7361771 1.81195625 68.1068021 1.74187292 61.5618646 28.0352062 52.1912396 28.1052896"></polygon>
                    <path d="M83.5456167,1.42021458 L79.8167,16.3999229 C78.8748042,20.1850271 79.5200542,22.4228604 83.7594917,22.3908396 C87.998325,22.3594229 89.7624917,20.1034646 90.7043875,16.3195687 L94.4333042,1.33925625 L103.804533,1.26977708 L99.3687417,19.0878604 C97.7888458,25.4346312 91.072325,28.0808812 82.3264083,28.1461312 C73.5804917,28.2113812 68.1593042,25.6551521 69.7392,19.3083812 L74.1749917,1.49029792 L83.5456167,1.42021458 Z" id="Fill-13" fill="#FEFEFE"></path>
                    <path d="M83.5456167,1.42021458 L79.8167,16.3999229 C78.8748042,20.1850271 79.5200542,22.4228604 83.7594917,22.3908396 C87.998325,22.3594229 89.7624917,20.1034646 90.7043875,16.3195687 L94.4333042,1.33925625 L103.804533,1.26977708 L99.3687417,19.0878604 C97.7888458,25.4346312 91.072325,28.0808812 82.3264083,28.1461312 C73.5804917,28.2113812 68.1593042,25.6551521 69.7392,19.3083812 L74.1749917,1.49029792 L83.5456167,1.42021458 L83.5456167,1.42021458 Z" id="Stroke-15" stroke="#FEFEFE" stroke-width="0.706"></path>
                    <polygon id="Fill-17" fill="#FEFEFE" points="111.157544 1.93496458 109.481585 1.93496458 109.481585 1.17733958 112.773085 1.17733958 112.773085 1.93496458 117.042127 10.9322146 121.271294 1.93496458 121.271294 1.17733958 124.523523 1.17733958 124.523523 1.93496458 122.88744 1.93496458 122.88744 12.3689229 124.523523 12.3689229 124.523523 13.1265479 119.895002 13.1265479 119.895002 12.3689229 121.511148 12.3689229 121.511148 3.29192292 121.471273 3.29192292 116.903169 13.1265479 116.603502 13.1265479 111.995523 3.31125625 111.955044 3.31125625 111.955044 12.3689229 113.57119 12.3689229 113.57119 13.1265479 109.481585 13.1265479 109.481585 12.3689229 111.157544 12.3689229"></polygon>
                    <path d="M131.46854,7.68040833 C131.368852,6.10474167 130.31156,5.2867 129.154581,5.2867 C128.077352,5.2867 127.239373,6.42374167 127.199498,7.68040833 L131.46854,7.68040833 Z M127.199498,8.3190125 C127.039998,10.0741167 127.937185,12.5681167 130.371977,12.5681167 C131.249227,12.5681167 131.986915,12.2889917 133.044206,11.6105125 L132.905248,12.3488042 C131.887227,13.0671583 131.009977,13.3662208 129.91281,13.3662208 C127.478623,13.3662208 125.763394,11.4510125 125.763394,8.777575 C125.763394,6.36392917 127.199498,4.74778333 129.353956,4.74778333 C131.249227,4.74778333 132.665394,6.16455417 132.905248,8.3190125 L127.199498,8.3190125 Z" id="Fill-19" fill="#FEFEFE"></path>
                    <path d="M135.380277,5.62575833 L133.923631,5.62575833 L133.923631,4.98715417 L136.696756,4.98715417 L136.696756,6.14413333 C137.714173,5.24694583 138.871152,4.74790417 139.928444,4.74790417 C140.86611,4.74790417 141.70409,5.30675833 142.063569,6.14413333 C143.379444,5.14725833 144.317715,4.74790417 145.375006,4.74790417 C146.771235,4.74790417 147.788652,5.62575833 147.788652,7.52102917 L147.788652,12.4884875 L149.125069,12.4884875 L149.125069,13.1270917 L145.035465,13.1270917 L145.035465,12.4884875 L146.471569,12.4884875 L146.471569,7.72040417 C146.471569,6.3042375 145.873444,5.56594583 144.716465,5.56594583 C143.878485,5.56594583 143.340173,5.80519583 142.242402,6.643175 L142.242402,12.4884875 L143.67911,12.4884875 L143.67911,13.1270917 L139.489819,13.1270917 L139.489819,12.4884875 L140.925923,12.4884875 L140.925923,7.48115417 C140.925923,6.2643625 140.14836,5.56594583 139.170215,5.56594583 C138.432527,5.56594583 137.833798,5.82513333 136.696756,6.643175 L136.696756,12.4884875 L138.133465,12.4884875 L138.133465,13.1270917 L133.923631,13.1270917 L133.923631,12.4884875 L135.380277,12.4884875 L135.380277,5.62575833 Z" id="Fill-21" fill="#FEFEFE"></path>
                    <path d="M152.379533,12.3488646 C152.818762,12.6279896 153.616262,12.8273646 154.314075,12.8273646 C156.110262,12.8273646 157.247304,11.4909479 157.247304,9.41623958 C157.247304,8.39882292 157.00745,7.46115625 156.568825,6.74280208 C156.090325,5.94469792 155.431783,5.56588542 154.553929,5.56588542 C153.696012,5.56588542 153.057408,5.86494792 152.379533,6.54342708 L152.379533,12.3488646 Z M152.379533,5.76526042 C153.376408,4.98709375 153.935262,4.74784375 154.833658,4.74784375 C157.00745,4.74784375 158.683408,6.60323958 158.683408,9.03742708 C158.683408,11.7102604 156.9277,13.3662813 154.03495,13.3662813 C153.177033,13.3662813 152.079867,13.2267188 151.06245,13.0068021 L151.06245,0.638302083 L149.606408,0.638302083 L149.606408,0.000302083334 L152.379533,0.000302083334 L152.379533,5.76526042 Z" id="Fill-23" fill="#FEFEFE"></path>
                    <path d="M165.787442,7.68040833 C165.687754,6.10474167 164.630463,5.2867 163.473483,5.2867 C162.396254,5.2867 161.558275,6.42374167 161.5184,7.68040833 L165.787442,7.68040833 Z M161.5184,8.3190125 C161.3589,10.0741167 162.256088,12.5681167 164.690879,12.5681167 C165.568129,12.5681167 166.305817,12.2889917 167.363108,11.6105125 L167.22415,12.3488042 C166.206129,13.0671583 165.328879,13.3662208 164.231713,13.3662208 C161.797525,13.3662208 160.082296,11.4510125 160.082296,8.777575 C160.082296,6.36392917 161.5184,4.74778333 163.672858,4.74778333 C165.568129,4.74778333 166.984296,6.16455417 167.22415,8.3190125 L161.5184,8.3190125 Z" id="Fill-25" fill="#FEFEFE"></path>
                    <g id="Group-29" transform="translate(167.958333, 4.169898)">
                        <mask id="mask-2" fill="white">
                            <use xlink:href="#path-1"></use>
                        </mask>
                        <g id="Clip-28"></g>
                        <path d="M1.74084583,1.45586042 L0.244325,1.45586042 L0.244325,0.81725625 L3.057325,0.81725625 L3.057325,2.29383958 L3.0972,2.29383958 C3.5956375,1.39604792 4.59372083,0.57800625 5.19184583,0.57800625 C5.8503875,0.57800625 6.428575,1.21661042 6.428575,1.43592292 C6.428575,1.69511042 6.2092625,2.45333958 5.9700125,2.91250625 C5.49090833,2.15427708 5.15197083,1.89508958 4.71334583,1.89508958 C4.15449167,1.89508958 3.49595,2.41346458 3.057325,3.25144375 L3.057325,8.31858958 L4.65292917,8.31858958 L4.65292917,8.95719375 L0.244325,8.95719375 L0.244325,8.31858958 L1.74084583,8.31858958 L1.74084583,1.45586042 Z" id="Fill-27" fill="#FEFEFE" mask="url(#mask-2)"></path>
                    </g>
                    <path d="M114.868094,27.9430104 C116.383948,27.9430104 117.301677,27.3044063 117.301677,25.5293646 C117.301677,23.8733438 116.144698,23.0154271 113.711115,23.0154271 L112.51426,23.0154271 L112.51426,27.9430104 L114.868094,27.9430104 Z M113.750385,22.2571979 C115.027594,22.2571979 116.164635,21.5195104 116.164635,19.9033646 C116.164635,18.5470104 115.266844,17.5090521 113.890552,17.5090521 L112.51426,17.5090521 L112.51426,22.2571979 L113.750385,22.2571979 Z M109.481344,16.7514271 L113.890552,16.7514271 C116.543448,16.7514271 117.68049,18.2274063 117.68049,19.8036771 C117.68049,21.0005313 117.162115,21.8185729 115.80576,22.4173021 L115.80576,22.4565729 C117.780177,22.7562396 118.877948,23.9730313 118.877948,25.4490104 C118.877948,27.2252604 117.940281,28.7012396 115.087406,28.7012396 L109.481344,28.7012396 L109.481344,27.9430104 L111.137365,27.9430104 L111.137365,17.5090521 L109.481344,17.5090521 L109.481344,16.7514271 Z" id="Fill-30" fill="#FEFEFE"></path>
                    <path d="M125.862296,23.2548583 C125.762004,21.6791917 124.704713,20.86115 123.547733,20.86115 C122.470504,20.86115 121.632525,21.9981917 121.593254,23.2548583 L125.862296,23.2548583 Z M121.593254,23.8934625 C121.43315,25.6485667 122.330942,28.1425667 124.765129,28.1425667 C125.642983,28.1425667 126.380671,27.8634417 127.437963,27.1849625 L127.2984,27.9232542 C126.280983,28.6410042 125.403129,28.9406708 124.305963,28.9406708 C121.872379,28.9406708 120.156546,27.0254625 120.156546,24.352025 C120.156546,21.9383792 121.593254,20.3222333 123.747108,20.3222333 C125.642983,20.3222333 127.058546,21.7390042 127.2984,23.8934625 L121.593254,23.8934625 Z" id="Fill-32" fill="#FEFEFE"></path>
                    <path d="M129.833,21.2001479 L128.257333,21.2001479 L128.257333,20.5615438 L131.150083,20.5615438 L131.150083,21.4992104 C132.40675,20.6418979 133.144437,20.3222938 134.042833,20.3222938 C135.399187,20.3222938 136.476417,21.1602729 136.476417,22.7359396 L136.476417,28.0628771 L137.952396,28.0628771 L137.952396,28.7014813 L133.683354,28.7014813 L133.683354,28.0628771 L135.159333,28.0628771 L135.159333,23.3546063 C135.159333,21.8387521 134.640958,21.1403354 133.464042,21.1403354 C132.646,21.1403354 131.92825,21.4393979 131.150083,22.0780021 L131.150083,28.0628771 L132.586792,28.0628771 L132.586792,28.7014813 L128.257333,28.7014813 L128.257333,28.0628771 L129.833,28.0628771 L129.833,21.2001479 Z" id="Fill-34" fill="#FEFEFE"></path>
                    <path d="M144.477577,23.2548583 C144.37789,21.6791917 143.320598,20.86115 142.163619,20.86115 C141.08639,20.86115 140.24841,21.9981917 140.208535,23.2548583 L144.477577,23.2548583 Z M140.208535,23.8934625 C140.049035,25.6485667 140.946223,28.1425667 143.381015,28.1425667 C144.258265,28.1425667 144.995952,27.8634417 146.053244,27.1849625 L145.914285,27.9232542 C144.896265,28.6410042 144.019015,28.9406708 142.921848,28.9406708 C140.48766,28.9406708 138.772431,27.0254625 138.772431,24.352025 C138.772431,21.9383792 140.208535,20.3222333 142.362994,20.3222333 C144.258265,20.3222333 145.674431,21.7390042 145.914285,23.8934625 L140.208535,23.8934625 Z" id="Fill-36" fill="#FEFEFE"></path>
                    <path d="M148.528575,21.3198938 L147.311783,21.3198938 L147.311783,20.5616646 L148.528575,20.5616646 L148.528575,19.8233729 C148.528575,17.4097271 150.124783,14.9556021 153.676075,14.9556021 C154.214388,14.9556021 154.5932,14.9761438 155.052367,15.0552896 L155.052367,17.4496021 L154.733367,17.4496021 C154.393825,16.2726854 153.755221,15.7537063 152.677992,15.7537063 C150.922888,15.7537063 149.845658,17.3299771 149.845658,19.8837896 L149.845658,20.5616646 L155.191929,20.5616646 L155.191929,28.0629979 L156.68845,28.0629979 L156.68845,28.7009979 L152.438742,28.7009979 L152.438742,28.0629979 L153.87545,28.0629979 L153.87545,21.3198938 L149.845658,21.3198938 L149.845658,28.0629979 L151.341575,28.0629979 L151.341575,28.7009979 L147.032054,28.7009979 L147.032054,28.0629979 L148.528575,28.0629979 L148.528575,21.3198938 Z" id="Fill-38" fill="#FEFEFE"></path>
                    <g id="Group-42" transform="translate(157.083333, 18.065731)">
                        <mask id="mask-4" fill="white">
                            <use xlink:href="#path-3"></use>
                        </mask>
                        <g id="Clip-41"></g>
                        <path d="M5.15281667,2.49599375 L5.15281667,3.13459792 L2.85879583,3.13459792 L2.85879583,8.00236875 C2.85879583,9.23909792 3.29742083,9.97678542 4.03510833,9.97678542 C4.73412917,9.97678542 5.01325417,9.45841042 5.33225417,9.45841042 C5.41260833,9.45841042 5.47181667,9.53816042 5.47181667,9.61791042 C5.47181667,9.79734792 4.69365,10.8751812 3.65629583,10.8751812 C2.53979583,10.8751812 1.5417125,10.2166396 1.5417125,8.36124375 L1.5417125,3.13459792 L0.5249,3.13459792 L2.85879583,0.461160417 L2.85879583,2.49599375 L5.15281667,2.49599375 Z" id="Fill-40" fill="#FEFEFE" mask="url(#mask-4)"></path>
                    </g>
                    <g id="Group-45" transform="translate(163.125000, 19.878231)">
                        <mask id="mask-6" fill="white">
                            <use xlink:href="#path-5"></use>
                        </mask>
                        <g id="Clip-44"></g>
                        <path d="M0.927214583,8.98226667 L0.468047917,8.98226667 L0.468047917,6.56862083 L0.807589583,6.56862083 C1.04623542,7.9449125 2.08419375,8.52370417 3.02186042,8.52370417 C3.89971458,8.52370417 4.67727708,7.9050375 4.67727708,7.18668333 C4.67727708,5.351225 0.448110417,5.3711625 0.448110417,2.69832917 C0.448110417,1.421725 1.46613125,0.444183333 2.82248542,0.444183333 C3.42061042,0.444183333 3.91965208,0.583745833 4.65794375,0.982495833 L4.81683958,0.503995833 L5.17631875,0.503995833 L5.17631875,2.57870417 L4.81683958,2.57870417 C4.45796458,1.501475 3.87977708,0.982495833 2.98138125,0.982495833 C2.12346458,0.982495833 1.54527708,1.5612875 1.54527708,2.27964167 C1.54527708,4.17430833 5.83486042,4.2546625 5.83486042,6.70818333 C5.83486042,8.0446 4.83738125,9.06262083 3.20129792,9.06262083 C2.52342292,9.06262083 1.96456875,8.88257917 1.06617292,8.40407917 L0.927214583,8.98226667 Z" id="Fill-43" fill="#FEFEFE" mask="url(#mask-6)"></path>
                    </g>
                </g>
            </g>
        </g>
    </g>
</svg>