<svg xmlns="http://www.w3.org/2000/svg" viewBox="0 0 263.15 64.24"><defs><style>.a{fill:#fff}.b{mask:url(#a)}</style><mask id="a" x="0" y="0" width="64.24" height="64.24" maskUnits="userSpaceOnUse"><path class="a" d="M32.12 64.24H0V0h64.24v64.24H32.12z"/></mask></defs><title>logo-greendot-creditcards-white</title><path class="a" d="M52.95 33.42a.13.13 0 0 0 0-.1.16.16 0 0 0-.1-.08.74.74 0 0 0-.23 0h-.31v.44h.29a.46.46 0 0 0 .28-.06.19.19 0 0 0 .07-.16zM14.74 19.39a1.17 1.17 0 0 0-1.12 1.42v5.35a1.09 1.09 0 0 0 1.09 1.33 1.11 1.11 0 0 0 1.14-1.35v-5.29a1.16 1.16 0 0 0-1.11-1.46M41.2 38.17c-1 0-1 .91-1 1.47v6.08a1 1 0 0 0 1 1.23 1 1 0 0 0 1-1.25v-6.08c0-.68-.09-1.45-.94-1.45"/><path class="b a" d="M53.83 34.37a1.22 1.22 0 0 1-.5.51 1.27 1.27 0 0 1-.66.17 1.38 1.38 0 0 1-.67-.17 1.25 1.25 0 0 1-.48-.51 1.4 1.4 0 0 1-.18-.67 1.46 1.46 0 0 1 .16-.7 1.17 1.17 0 0 1 .5-.49 1.39 1.39 0 0 1 .67-.18 1.37 1.37 0 0 1 .66.18 1.22 1.22 0 0 1 .5.49 1.4 1.4 0 0 1 .18.67 1.34 1.34 0 0 1-.18.67zm-2.47 4.15h-1.74v6.82a1.07 1.07 0 0 0 1.25 1.32h.48v2a5.36 5.36 0 0 1-1.46.15c-2.62 0-3-1-3-2.5v-7.79h-1.53v-1.84h1.5v-4.32h2.78v4.32h1.72v1.84zm-6.47 7c0 2.15-1.35 3.35-3.82 3.35-3.65 0-3.65-2.73-3.65-3.62V39.9c0-1.44.49-3.45 3.78-3.45a4.75 4.75 0 0 1 2.53.65 3 3 0 0 1 1.16 2.69v5.75zm-8.54 3.11h-2.81v-1.17a2.68 2.68 0 0 1-4.64.14 5.59 5.59 0 0 1-.36-2.54V39.6a3.66 3.66 0 0 1 .33-1.77 2.59 2.59 0 0 1 2.27-1.41 3.66 3.66 0 0 1 2.42 1.22v-5.51h2.76v16.51zm-10.1-22.76v-5A3.18 3.18 0 0 1 27.53 18a4.55 4.55 0 0 1 2.52-.7 4.19 4.19 0 0 1 2.89 1.06 3.44 3.44 0 0 1 .81 2.38v3.36H29v2c0 .52 0 1.47 1 1.47a.91.91 0 0 0 .75-.34c.25-.32.25-.47.25-1.7h2.71v1c0 2.59-1.92 3.22-3.65 3.22-2.73 0-3.83-1.42-3.83-3.84zm-.6-5.87a3.13 3.13 0 0 0-.95-.17c-1.79 0-1.79 1.64-1.79 2.57v7h-2.76v-12h2.78v1.51a2.77 2.77 0 0 1 2.74-1.73V20zm-7 9.85c0 1.22 0 3.83-4 3.83-3.66 0-3.68-2.16-3.69-3.26h2.75a2 2 0 0 0 .11.74 1 1 0 0 0 1 .51c1 0 1.12-.69 1.12-1.41v-1.82a3 3 0 0 1-2.43 1.17c-2.28 0-2.59-1.61-2.59-3v-6.32c0-.45 0-3 2.52-3a3.56 3.56 0 0 1 2.5 1.18v-.95h2.78v12.37zm16.26-9.06A3.18 3.18 0 0 1 36.2 18a4.53 4.53 0 0 1 2.52-.7 4.16 4.16 0 0 1 2.89 1.06 3.41 3.41 0 0 1 .83 2.38v3.36h-4.77v2c0 .52 0 1.47 1 1.47a.91.91 0 0 0 .75-.34c.21-.28.24-.43.24-1.66h2.71v1c0 2.59-1.92 3.22-3.64 3.22-2.73 0-3.83-1.42-3.83-3.84v-5zm8.8-3.31h2.83v.89a3.15 3.15 0 0 1 2.41-1.12 2.5 2.5 0 0 1 1.92.8 2.82 2.82 0 0 1 .55 2.05v9.34h-2.77v-8.76c0-.65-.05-1.45-1-1.45-1.17 0-1.17 1.08-1.17 1.62v8.62h-2.76v-12zM32.12 0a32.12 32.12 0 1 0 32.12 32.12A32.15 32.15 0 0 0 32.12 0z"/><path class="a" d="M39.68 20.65a1 1 0 1 0-2 0v1.48h2v-1.48zM32.4 38.58c-1.09 0-1.09.93-1.09 1.51v5.08c0 .6 0 1.36 1.09 1.36a1.2 1.2 0 0 0 1.17-1.44V40a1.15 1.15 0 0 0-1.17-1.38M31 20.65a1 1 0 1 0-2 0v1.48h2v-1.48zM53 34.45l-.13-.23a1.5 1.5 0 0 0-.24-.34.39.39 0 0 0-.19 0h-.13v.61h-.23V33h.49a1.14 1.14 0 0 1 .37 0 .31.31 0 0 1 .18.14.32.32 0 0 1 .06.2.42.42 0 0 1-.11.29.4.4 0 0 1-.3.13l.12.07a1.76 1.76 0 0 1 .22.28l.17.29H53zm.21-1.71a1.14 1.14 0 0 0-.55-.15 1.18 1.18 0 0 0-.56.15 1 1 0 0 0-.43.42 1.15 1.15 0 0 0-.15.55 1.19 1.19 0 0 0 .15.57 1.17 1.17 0 0 0 1 .56 1.15 1.15 0 0 0 .56-.15 1.31 1.31 0 0 0 .42-.41 1.17 1.17 0 0 0 .14-.57 1.13 1.13 0 0 0-.14-.55 1.12 1.12 0 0 0-.43-.42zM76.17 31.88c0-6.68 3.6-11.48 9.48-11.48 3.92 0 6.12 2.4 7.44 5.12l-3.4 1.4a4.39 4.39 0 0 0-4-2.88c-3.28 0-5.24 3.32-5.24 7.84s2 7.84 5.24 7.84a4.35 4.35 0 0 0 4-3l3.4 1.36c-1.32 2.76-3.48 5.24-7.44 5.24-5.88 0-9.48-4.84-9.48-11.48M105.58 27.84c0-2-1.08-3.36-3.08-3.36H99v6.72h3.48c2 0 3.08-1.44 3.08-3.36zm-.12 15l-3.8-8.08H99v8.08h-4.1v-22h8.1c4.4 0 6.8 3 6.8 6.92 0 3.72-2 5.84-4.24 6.36l4.52 8.72h-4.6zM112.45 42.88v-22h12.88v3.6h-8.76v5.36h8.56v3.6h-8.56v5.84h8.76v3.6h-12.88zM140.8 31.92c0-4.4-1.88-7.44-5.6-7.44h-3v14.8h3c3.68 0 5.6-3.08 5.6-7.36zm-12.68 11v-22h7.08c6.32 0 9.8 4.64 9.8 11s-3.44 11-9.76 11h-7.12zM147.54 42.88h4.12v-22h-4.12v22zM158.3 42.88v-18.4h-4.96v-3.6h14v3.6h-4.92v18.4h-4.12zM176 31.88c0-6.68 3.6-11.48 9.48-11.48 3.92 0 6.12 2.4 7.44 5.12l-3.4 1.4a4.39 4.39 0 0 0-4-2.88c-3.28 0-5.24 3.32-5.24 7.84s2 7.84 5.24 7.84a4.35 4.35 0 0 0 4-3l3.4 1.36c-1.32 2.76-3.48 5.24-7.44 5.24-5.88 0-9.48-4.84-9.48-11.48M202.26 25.36L199.42 35H205zm2.4-4.48l6.88 22h-4.44l-1.2-4.28h-7.32l-1.2 4.28h-4.48l6.92-22h4.84zM223.59 27.84c0-2-1.08-3.36-3.08-3.36H217v6.72h3.48c2 0 3.08-1.44 3.08-3.36zm-.12 15l-3.8-8.08H217v8.08h-4.12v-22H221c4.4 0 6.8 3 6.8 6.92 0 3.72-2 5.84-4.24 6.36l4.52 8.72h-4.6zM243.14 31.92c0-4.4-1.88-7.44-5.6-7.44h-3v14.8h3c3.68 0 5.6-3.08 5.6-7.36zm-12.68 11v-22h7.08c6.32 0 9.8 4.64 9.8 11s-3.44 11-9.76 11h-7.12zM248 40.52l1.88-3.16a7.58 7.58 0 0 0 5.52 2.44c2.28 0 3.48-1.2 3.48-2.84 0-4.32-10.16-3-10.16-10.36 0-3.48 2.88-6.2 7.24-6.2a9.66 9.66 0 0 1 6.8 2.48l-1.8 3a7 7 0 0 0-4.88-2c-1.8 0-3.12 1-3.12 2.56 0 3.8 10.16 2.8 10.16 10.32 0 3.8-2.72 6.52-7.64 6.52a10.26 10.26 0 0 1-7.48-2.76"/></svg>