<svg xmlns="http://www.w3.org/2000/svg" width="32" height="32" viewBox="0 0 32 32"><path fill="#c5ced4" d="M16 0C7.175 0 0 7.175 0 16s7.175 16 16 16 16-7.175 16-16S24.825 0 16 0zM6.1 6.1C8.75 3.45 12.25 2 16 2s7.25 1.45 9.9 4.1C28.55 8.75 30 12.25 30 16c0 2.875-.85 5.6-2.45 7.925-1.7-1.775-3.8-3.15-6.175-4C22.975 18.475 24 16.35 24 14c0-4.425-3.575-8-8-8s-8 3.575-8 8c0 2.35 1.025 4.475 2.625 5.925-2.375.85-4.475 2.225-6.175 4C2.85 21.6 2 18.875 2 16c0-3.75 1.45-7.25 4.1-9.9zM10 14c0-3.325 2.675-6 6-6s6 2.675 6 6-2.675 6-6 6-6-2.675-6-6zm6 16c-3.75 0-7.25-1.45-9.9-4.1-.125-.125-.25-.275-.375-.4.125-.125.25-.275.375-.4 1.875-1.875 4.2-3.175 6.75-3.75.975.425 2.025.65 3.15.65s2.175-.225 3.15-.65c2.525.575 4.875 1.85 6.75 3.75.125.125.25.275.375.4-.125.125-.25.275-.375.4-2.65 2.65-6.15 4.1-9.9 4.1z"/></svg>