<svg xmlns="http://www.w3.org/2000/svg" width="32" height="32" viewBox="0 0 32 32"><path fill="#c5ced4" d="M16.475 16.4c-1.1-.375-1.775-.65-1.775-1.225 0-.65.7-.775 1.275-.775.85 0 1.3.275 1.725.65.15.15.35.25.575.25.425 0 .8-.35.8-.8 0-.275-.125-.45-.175-.5-.475-.625-1.225-1.05-2.15-1.175V12c0-.425-.325-.75-.75-.75s-.75.325-.75.75v.8c-1.4.225-2.225 1.075-2.225 2.35 0 1.825 1.6 2.35 2.9 2.8 1.075.375 1.725.625 1.725 1.175 0 .85-1 .975-1.575.975-.85 0-1.5-.25-2.05-.775-.225-.225-.425-.25-.575-.25-.425 0-.8.35-.8.8 0 .225.075.375.175.5.425.55 1.3 1.1 2.425 1.3v.825c0 .425.325.75.75.75s.75-.325.75-.75v-.8c.625-.075 1.175-.275 1.6-.575.65-.45 1-1.15 1-2 0-1.75-1.6-2.275-2.875-2.725zM29 24h-2v2h2c.55 0 1 .45 1 1s-.45 1-1 1H3c-.55 0-1-.45-1-1s.45-1 1-1h2.5l-1-2H3c-1.65 0-3 1.35-3 3s1.35 3 3 3h26c1.65 0 3-1.35 3-3s-1.35-3-3-3z"/><path fill="#c5ced4" d="M7.7 27C4.825 24.625 3 21.025 3 17 3 9.825 8.825 4 16 4s13 5.825 13 13c0 4.025-1.825 7.625-4.7 10h2.875C29.55 24.35 31 20.85 31 17c0-8.275-6.725-15-15-15S1 8.725 1 17c0 3.85 1.45 7.35 3.825 10H7.7z"/></svg>