<svg xmlns="http://www.w3.org/2000/svg" width="32" height="32" viewBox="0 0 32 32"><path fill="#c5ced4" d="M2 29.25c0-5.4 4.3-9.8 9.65-10 1.325.625 2.8 1 4.35 1 5.525 0 10-4.475 10-10s-4.475-10-10-10-10 4.475-10 10c0 2.9 1.225 5.5 3.2 7.325-5.275 1.275-9.2 6-9.2 11.675v3h22v-2H2v-1zm6-19c0-4.425 3.575-8 8-8s8 3.575 8 8-3.575 8-8 8-8-3.575-8-8z"/><path fill="#c5ced4" d="M31 24.25h-5v-5c0-.55-.45-1-1-1s-1 .45-1 1v5h-5c-.55 0-1 .45-1 1s.45 1 1 1h5v5c0 .55.45 1 1 1s1-.45 1-1v-5h5c.55 0 1-.45 1-1s-.45-1-1-1z"/></svg>