<svg xmlns="http://www.w3.org/2000/svg" width="32" height="32" viewBox="0 0 32 32"><path fill="#c5ced4" d="M5 29h22v1H5v-1zM5 31h22v1H5v-1zM29 0H3C1.35 0 0 1.35 0 3s1.35 3 3 3h2v22h22V6h2c1.65 0 3-1.35 3-3s-1.35-3-3-3zm0 4h-2V3h-2v19.1c-1.95.4-3.475 1.95-3.875 3.9H10.9c-.4-1.95-1.95-3.5-3.9-3.9V3H5v1H3c-.55 0-1-.45-1-1s.45-1 1-1h26c.55 0 1 .45 1 1s-.45 1-1 1z"/><path fill="#c5ced4" d="M19.55 14.625L16.975 17.2c.025-.075.025-.125.025-.2v-7c0-.55-.45-1-1-1s-1 .45-1 1v7c0 .075 0 .125.025.2l-2.575-2.575c-.4-.4-1.025-.4-1.425 0s-.4 1.025 0 1.425l4.25 4.25c.4.375.725.7.725.7l.7-.7 4.25-4.25c.4-.4.4-1.025 0-1.425-.375-.375-1.025-.375-1.4 0z"/></svg>