<svg xmlns="http://www.w3.org/2000/svg" width="32" height="32" viewBox="0 0 32 32"><path fill="#c5ced4" d="M11.05 14.35c.4.4 1.025.4 1.425 0l2.55-2.55C15 11.875 15 10.925 15 11v8c0 .55.45 1 1 1s1-.45 1-1v-8c0-.075 0 .875-.025.8l2.55 2.55c.4.4 1.025.4 1.425 0s.4-1.025 0-1.425l-4.25-4.25C16.325 8.325 16 8 16 8l-.7.7-4.25 4.25c-.4.375-.4 1.025 0 1.4zM5 29h22v1H5v-1zM5 31h22v1H5v-1zM29 0H3C1.35 0 0 1.35 0 3s1.35 3 3 3h4V4H3c-.55 0-1-.45-1-1s.45-1 1-1h26c.55 0 1 .45 1 1s-.45 1-1 1h-4v2h4c1.65 0 3-1.35 3-3s-1.35-3-3-3z"/><path fill="#c5ced4" d="M25 3v23H7V3H5v25h22V3z"/><path fill="#c5ced4" d="M7 22.1V26h3.9c-.4-1.95-1.95-3.5-3.9-3.9zM25 22.1V26h-3.875c.4-1.95 1.925-3.5 3.875-3.9z"/></svg>