<svg xmlns="http://www.w3.org/2000/svg" width="32" height="32" viewBox="0 0 32 32"><path fill="#c5ced4" d="M16 0C9.375 0 4 5.375 4 12s5.375 12 12 12 12-5.375 12-12S22.625 0 16 0zm0 22c-5.525 0-10-4.475-10-10S10.475 2 16 2s10 4.475 10 10-4.475 10-10 10z"/><path fill="#c5ced4" d="M16 26C9.7 26 4.55 21.15 4.05 15c-.025.325-.05.675-.05 1 0 6.625 5.375 12 12 12s12-5.375 12-12c0-.325-.025-.675-.05-1-.5 6.15-5.65 11-11.95 11z"/><path fill="#c5ced4" d="M16 30C9.7 30 4.55 25.15 4.05 19c-.025.325-.05.675-.05 1 0 6.625 5.375 12 12 12s12-5.375 12-12c0-.325-.025-.675-.05-1-.5 6.15-5.65 11-11.95 11z"/><path fill="#c5ced4" d="M16.625 10.875c-1.475-.5-2.35-.875-2.35-1.65 0-.85.925-1.025 1.725-1.025 1.15 0 1.75.35 2.3.875.225.2.475.325.75.325.575 0 1.05-.475 1.05-1.05 0-.35-.175-.575-.25-.675-.65-.85-1.625-1.4-2.875-1.575V5c0-.55-.45-1-1-1s-1 .45-1 1v1.075c-1.75.3-2.975 1.45-2.975 3.15 0 2.425 2.15 3.15 3.875 3.725 1.425.475 2.3.825 2.3 1.575 0 1.125-1.325 1.3-2.125 1.3-1.15 0-2-.325-2.725-1.05-.275-.275-.575-.35-.775-.35-.575 0-1.05.475-1.05 1.05 0 .3.125.5.225.675v.025c.575.75 1.725 1.475 3.225 1.75V19c0 .55.45 1 1 1s1-.45 1-1v-1.05c1-.1 1.575-.375 2.15-.775.875-.6 1.325-1.525 1.325-2.65.025-2.35-2.075-3.075-3.8-3.65z"/></svg>