<svg xmlns="http://www.w3.org/2000/svg" width="32" height="32" viewBox="0 0 32 32"><path fill="#c5ced4" d="M14.375 15.825c-.55-.2-.875-.325-.875-.625 0-.325.35-.4.65-.4.425 0 .65.125.85.325.075.075.175.125.275.125.225 0 .4-.175.4-.4 0-.125-.075-.225-.1-.25-.25-.325-.625-.525-1.075-.6v-.4c0-.2-.175-.375-.375-.375s-.375.175-.375.375v.4c-.7.1-1.125.55-1.125 1.175 0 .9.8 1.175 1.45 1.4.525.175.85.3.85.6 0 .425-.5.475-.8.475-.425 0-.75-.125-1.025-.4-.1-.1-.225-.125-.3-.125-.225 0-.4.175-.4.4 0 .1.05.175.1.25.225.275.65.55 1.2.65v.4c0 .2.175.375.375.375s.375-.175.375-.375v-.4c.325-.05.6-.125.8-.275.325-.225.5-.575.5-1 .05-.825-.75-1.1-1.375-1.325z"/><path fill="#c5ced4" d="M11 23V12h18v-2H11c-1.1 0-2 .875-2 1.975V23h2z"/><path fill="#c5ced4" d="M32 24V8c0-1.1-.9-2-2-2H2C.9 6 0 6.9 0 8v16c0 1.1.9 2 2 2h28c1.1 0 2-.9 2-2zM2 8h4v16H2V8zm6 16V8h22v16H8z"/><path fill="#c5ced4" d="M5 16c0 .552-.448 1-1 1s-1-.448-1-1 .448-1 1-1 1 .448 1 1z"/></svg>