<svg xmlns="http://www.w3.org/2000/svg" width="32" height="32" viewBox="0 0 32 32"><path fill="#c5ced4" d="M4 15h6v1H4v-1zM4 26h1v1H4v-1zM8.35 19L6 27l8-2.35.025-.025 16.8-16.8c1.55-1.55 1.55-4.1 0-5.65s-4.1-1.55-5.65 0L8.35 19zM26.575 3.575c.775-.775 2.05-.775 2.825 0s.775 2.05 0 2.825l-1.275 1.275L25.3 4.85l1.275-1.275zM9.775 20.4L23.9 6.275 26.725 9.1 12.6 23.225l-.025.025-2.8-2.85z"/><path fill="#c5ced4" d="M30 11h-.95l-2 2H30v10h-4c-1.1 0-2 .875-2 1.975V29H2V13h10.925l2-2H2c-1.1 0-2 .875-2 1.975v16C0 30.075.9 31 2 31h22l2-2h-.025L32 22.975v-10c0-1.1-.9-1.975-2-1.975z"/></svg>