<svg xmlns="http://www.w3.org/2000/svg" width="32" height="32" viewBox="0 0 32 32"><path fill="#c5ced4" d="M0 16c0 3.325 2.675 6 6 6V10c-3.325 0-6 2.675-6 6zm4 3.475C2.8 18.775 2 17.5 2 16c0-1.475.8-2.775 2-3.475v6.95zM26 10v12c3.325 0 6-2.675 6-6s-2.675-6-6-6zm2 2.525c1.2.7 2 1.975 2 3.475 0 1.475-.8 2.775-2 3.475v-6.95z"/><path fill="#c5ced4" d="M16 2c5.525 0 10 4.475 10 10h2c0-6.625-5.375-12-12-12S4 5.375 4 12h2C6 6.475 10.475 2 16 2zM22.05 28.3c-.4.4-1.025.4-1.425 0-.4-.4-.4-1.025 0-1.425l5.65-5.65c.4-.4 1.025-.4 1.425 0 .4.4.4 1.025 0 1.425l-5.65 5.65z"/><path fill="#c5ced4" d="M22.05 26.875c-1.175-1.175-3.075-1.175-4.25 0s-1.175 3.075 0 4.25c1.175 1.175 3.075 1.175 4.25 0s1.175-3.075 0-4.25zM19.225 29.7c-.4-.4-.4-1.025 0-1.425s1.025-.4 1.425 0c.4.4.4 1.025 0 1.425s-1.05.4-1.425 0zM14.925 28.075v-.125C9.9 27.4 6 23.15 6 18H4c0 6.4 5 11.625 11.3 11.975-.25-.6-.375-1.25-.375-1.9zM20.25 20.825c-.4-.4-1.025-.4-1.425 0-1.55 1.55-4.1 1.55-5.65 0-.4-.4-1.025-.4-1.425 0s-.4 1.025 0 1.425c2.35 2.35 6.15 2.35 8.475 0 .4-.4.4-1.025.025-1.425zM26.8 9.9c-.125-.7-.35-1.375-.6-2.025C24.5 9.2 22.35 10 20 10c-.9 0-1.75-.125-2.575-.325-.65.55-1.35 1-2.125 1.375-1.3.6-2.775.95-4.3.95-2 0-3.85-.575-5.4-1.575-.225.65-.4 1.325-.5 2.05 1.75.975 3.75 1.55 5.9 1.55 2.575 0 4.95-.8 6.9-2.175.675.125 1.375.175 2.1.175 2.525-.025 4.875-.8 6.8-2.125z"/></svg>