<svg xmlns="http://www.w3.org/2000/svg" width="32" height="32" viewBox="0 0 32 32"><path fill="#c5ced4" d="M24.475 3.525C22.15 1.175 19.075 0 16 0c-3.075 0-6.15 1.175-8.475 3.525-4.4 4.4-4.675 11.375-.8 16.1L16 32l9.275-12.375c3.875-4.725 3.625-11.7-.8-16.1zm-.75 14.825l-.025.025-7.7 10.3-7.7-10.3-.025-.025c-1.575-1.9-2.375-4.325-2.25-6.8.125-2.5 1.15-4.85 2.925-6.6C10.825 3.05 13.325 2 16 2s5.175 1.05 7.075 2.925c1.775 1.775 2.8 4.125 2.925 6.6.1 2.5-.7 4.9-2.275 6.825z"/><path fill="#c5ced4" d="M20 12c0 2.21-1.79 4-4 4s-4-1.79-4-4 1.79-4 4-4 4 1.79 4 4zM21 31c0 .552-.448 1-1 1s-1-.448-1-1 .448-1 1-1 1 .448 1 1zM24 31c0 .552-.448 1-1 1s-1-.448-1-1 .448-1 1-1 1 .448 1 1zM27 31c0 .552-.448 1-1 1s-1-.448-1-1 .448-1 1-1 1 .448 1 1zM30 31c0 .552-.448 1-1 1s-1-.448-1-1 .448-1 1-1 1 .448 1 1zM13 31c0 .552-.448 1-1 1s-1-.448-1-1 .448-1 1-1 1 .448 1 1zM10 31c0 .552-.448 1-1 1s-1-.448-1-1 .448-1 1-1 1 .448 1 1zM7 31c0 .552-.448 1-1 1s-1-.448-1-1 .448-1 1-1 1 .448 1 1zM4 31c0 .552-.448 1-1 1s-1-.448-1-1 .448-1 1-1 1 .448 1 1z"/></svg>