<svg xmlns="http://www.w3.org/2000/svg" width="32" height="32" viewBox="0 0 32 32"><path fill="#c5ced4" d="M0 16c0 8.825 7.175 16 16 16s16-7.175 16-16S24.825 0 16 0 0 7.175 0 16zm25.9-9.9C28.55 8.75 30 12.25 30 16s-1.45 7.25-4.1 9.9C23.25 28.55 19.75 30 16 30s-7.25-1.45-9.9-4.1C3.45 23.25 2 19.75 2 16s1.45-7.25 4.1-9.9C8.75 3.45 12.25 2 16 2s7.25 1.45 9.9 4.1z"/><path fill="#c5ced4" d="M16.625 14.875c-1.475-.5-2.35-.875-2.35-1.65 0-.85.925-1.025 1.725-1.025 1.15 0 1.75.35 2.3.875.225.2.475.325.75.325.575 0 1.05-.475 1.05-1.05 0-.35-.175-.575-.25-.675-.65-.85-1.65-1.4-2.875-1.575V9c0-.55-.45-1-1-1s-1 .45-1 1v1.075c-1.85.3-2.975 1.45-2.975 3.15 0 2.425 2.15 3.15 3.875 3.725 1.425.475 2.3.825 2.3 1.575 0 1.125-1.325 1.3-2.125 1.3-1.15 0-2-.325-2.725-1.05-.275-.275-.575-.35-.775-.35-.575 0-1.05.475-1.05 1.05 0 .3.125.5.225.675v.025c.575.75 1.75 1.475 3.225 1.75V23c0 .55.45 1 1 1s1-.45 1-1v-1.05c.85-.1 1.575-.375 2.15-.775.875-.6 1.325-1.525 1.325-2.65.025-2.35-2.075-3.075-3.8-3.65z"/></svg>