<svg xmlns="http://www.w3.org/2000/svg" width="32" height="32" viewBox="0 0 32 32"><path fill="#c5ced4" d="M16 18L2 12v2l14 6 14-6v-2z"/><path fill="#c5ced4" d="M30 10v18H2V10c-1.1 0-2 .9-2 2v16c0 1.1.9 2 2 2h28c1.1 0 2-.9 2-2V12c0-1.1-.9-2-2-2zM25 6.5c0 .275-.225.5-.5.5h-7c-.275 0-.5-.225-.5-.5s.225-.5.5-.5h7c.275 0 .5.225.5.5z"/><path fill="#c5ced4" d="M5 12.2V4h22v8.2l2-.85V3.975C29 2.875 28.1 2 27 2H5c-1.1 0-2 .875-2 1.975v7.35l2 .875z"/><path fill="#c5ced4" d="M8.825 8.425C8.1 8.175 7.65 8 7.65 7.6c0-.425.475-.525.85-.525.575 0 .875.175 1.15.45.1.1.225.15.375.15.3 0 .525-.225.525-.525 0-.175-.075-.3-.125-.325-.325-.425-.875-.7-1.425-.8V5.5c0-.275-.225-.5-.5-.5s-.5.225-.5.5v.55c-.95.15-1.475.725-1.475 1.575 0 1.2 1.075 1.575 1.95 1.875.725.25 1.15.425 1.15.8 0 .55-.65.65-1.05.65-.575 0-1-.175-1.35-.525-.15-.15-.3-.175-.4-.175-.3 0-.525.225-.525.525 0 .15.05.25.125.325.3.375.925.75 1.6.875v.525c0 .275.225.5.5.5s.5-.225.5-.5v-.525c.375-.05.8-.175 1.075-.375.425-.3.65-.775.65-1.325-.025-1.175-1.075-1.55-1.925-1.85z"/></svg>