<svg xmlns="http://www.w3.org/2000/svg" width="32" height="32" viewBox="0 0 32 32"><path fill="#c5ced4" d="M28 0c-.55 0-1 .45-1 1v5h-5c-.55 0-1 .45-1 1s.45 1 1 1h6c.55 0 1-.45 1-1V1c0-.55-.45-1-1-1zM10 24H4c-.55 0-1 .45-1 1v6c0 .55.45 1 1 1s1-.45 1-1v-5h5c.55 0 1-.45 1-1s-.45-1-1-1z"/><path fill="#c5ced4" d="M3.375 22.075C2.475 20.2 2 18.125 2 16c0-3.75 1.45-7.25 4.1-9.9S12.25 2 16 2s7.25 1.45 9.9 4.1c.075.075.15.15.2.225L28 6l.1-.475C25.15 2.15 20.825 0 16 0 7.175 0 0 7.175 0 16c0 2.55.6 4.975 1.675 7.125.425-.525 1.025-.925 1.7-1.05zM30.325 8.875c-.425.525-1.025.9-1.7 1.05C29.525 11.8 30 13.85 30 16c0 3.75-1.45 7.25-4.1 9.9S19.75 30 16 30s-7.25-1.45-9.9-4.1c-.3-.3-.575-.6-.825-.9H4v1.575C6.925 29.9 11.225 32 16 32c8.825 0 16-7.175 16-16 0-2.55-.6-4.975-1.675-7.125z"/><path fill="#c5ced4" d="M23.4 13.15L18.85 8.6c-.775-.775-2.05-.775-2.825 0L8.6 16.025c-.775.775-.775 2.05 0 2.825l4.55 4.55c.775.775 2.05.775 2.825 0l7.425-7.425c.8-.775.8-2.05 0-2.825zM9.3 16.725L16.725 9.3c.4-.4 1.025-.4 1.425 0L9.3 18.15c-.4-.4-.4-1.025 0-1.425zm13.4-1.45L15.275 22.7c-.4.4-1.025.4-1.425 0l-2.775-2.8 8.85-8.85 2.8 2.8c.375.4.375 1.025-.025 1.425z"/></svg>