<svg width="32" height="32" viewBox="0 0 32 32" xmlns="http://www.w3.org/2000/svg"><title>Artboard 1</title><path d="M16.658 14.2v-1.893c.297-.025.566-.077.807-.157.24-.08.46-.175.66-.286.296-.185.522-.41.678-.674.156-.264.234-.563.234-.895 0-.7-.287-1.193-.86-1.477-.574-.282-1.73-.682-1.73-.682-.497-.148-.887-.29-1.17-.425-.283-.134-.424-.32-.424-.553 0-.246.127-.41.382-.49.255-.08.517-.12.786-.12.397 0 .71.05.935.15.227.098.44.22.638.368.07.062.148.11.233.148.085.037.177.055.276.055.184 0 .347-.06.49-.185.14-.122.21-.27.21-.442 0-.098-.02-.18-.062-.25-.043-.066-.078-.112-.107-.137-.212-.258-.485-.468-.817-.628-.333-.16-.712-.264-1.137-.313V3.4h9.22l2.7 10.8H16.658zM3.4 17.8h25.2V16H3.4v1.8zm0 3.6h25.2v-1.8H3.4v1.8zm0 3.6h25.2v-1.8H3.4V25zm0 3.6h25.2v-1.8H3.4v1.8zM6.1 3.4h9.22v1.893c-.624.1-1.115.308-1.476.628-.362.32-.542.733-.542 1.237 0 .714.294 1.218.88 1.514.59.296 1.173.524 1.754.684.48.147.863.286 1.147.415.283.128.425.304.425.525 0 .332-.174.542-.52.628-.348.086-.656.13-.925.13-.396 0-.743-.05-1.04-.15-.298-.097-.574-.25-.83-.46-.084-.086-.176-.142-.275-.166-.1-.025-.177-.037-.234-.037-.198 0-.368.058-.51.175-.14.117-.212.262-.212.434 0 .085.018.162.053.23.035.067.067.126.096.193.2.222.49.428.872.62.382.19.82.328 1.317.414V14.2H3.4L6.1 3.4zm24.297 10.89c.01-.176-.008-.353-.05-.527l-2.7-10.8c-.2-.8-.92-1.363-1.747-1.363H6.1c-.827 0-1.547.562-1.747 1.363l-2.7 10.8c-.043.174-.06.35-.05.526H1.6V28.6c0 .397.13.788.38 1.108.342.437.865.692 1.42.692h25.2c.554 0 1.077-.255 1.418-.692.25-.32.38-.71.38-1.108h.002V14.29h-.003z" fill="#000" fill-rule="evenodd"/></svg>