<svg xmlns="http://www.w3.org/2000/svg" width="32" height="32" viewBox="0 0 32 32"><path fill="#c5ced4" d="M16.475 20.075c-1.1-.375-1.775-.65-1.775-1.225 0-.65.7-.775 1.275-.775.85 0 1.3.275 1.725.65.15.15.35.25.575.25.425 0 .8-.35.8-.8 0-.275-.125-.45-.175-.5-.475-.625-1.225-1.05-2.15-1.175v-.8c0-.425-.35-.75-.75-.75s-.75.325-.75.75v.8c-1.4.225-2.225 1.075-2.225 2.35 0 1.825 1.6 2.35 2.9 2.8 1.075.375 1.725.625 1.725 1.175 0 .85-1 .975-1.575.975-.85 0-1.5-.25-2.05-.775-.225-.225-.425-.25-.575-.25-.425 0-.8.35-.8.8 0 .225.075.375.175.5.425.55 1.3 1.1 2.425 1.3v.825c0 .425.35.75.75.75s.75-.325.75-.75v-.8c.625-.075 1.175-.275 1.6-.575.65-.45 1-1.15 1-2 0-1.75-1.6-2.3-2.875-2.75zM2 10h28v2H2v-2zM10 5c0 .55-.45 1-1 1s-1-.45-1-1V1c0-.55.45-1 1-1s1 .45 1 1v4zM24 5c0 .55-.45 1-1 1s-1-.45-1-1V1c0-.55.45-1 1-1s1 .45 1 1v4zM11 2h10v2H11V2z"/><path fill="#c5ced4" d="M28 2h-3v2h3c1.1 0 2 .9 2 2v22c0 1.1-.9 2-2 2H4c-1.1 0-2-.9-2-2V6c0-1.1.9-2 2-2h3V2H4C1.8 2 0 3.8 0 6v22c0 2.2 1.8 4 4 4h24c2.2 0 4-1.8 4-4V6c0-2.2-1.8-4-4-4z"/></svg>