<svg xmlns="http://www.w3.org/2000/svg" viewBox="0 0 28.8 28.8"><title>social</title><path d="M14.4 0a14.4 14.4 0 1 0 14.4 14.4A14.4 14.4 0 0 0 14.4 0zM5.49 5.49A12.6 12.6 0 0 1 25.63 20.1a7.29 7.29 0 0 0-2-1.91A5.4 5.4 0 0 0 19.79 9h-.26A5.39 5.39 0 0 0 9.35 9h-.31a5.4 5.4 0 0 0-3.84 9.19 7.28 7.28 0 0 0-2 1.91A12.59 12.59 0 0 1 5.49 5.49zm12.76 9.14a5.38 5.38 0 0 0 1.59-3.82 3.59 3.59 0 0 1 1.12 7 7.27 7.27 0 0 0-2.71-3.18zm-.21-3.83a3.6 3.6 0 1 1-3.64-3.6 3.6 3.6 0 0 1 3.64 3.6zm-10.21 7a3.59 3.59 0 0 1 1.21-7 5.38 5.38 0 0 0 1.56 3.79 7.27 7.27 0 0 0-2.77 3.19zm-3.61 4a5.4 5.4 0 0 1 2.64-2.47c.14.06.29.11.44.16a7.12 7.12 0 0 0-.1 1.21v4a11.93 11.93 0 0 1-2.98-2.89zm4.78 4v-5.1a5.36 5.36 0 0 1 1.59-3.81 5.43 5.43 0 0 1 1.68-1.15 5.4 5.4 0 0 0 4.31 0 5.44 5.44 0 0 1 1.64 1.13 5.36 5.36 0 0 1 1.58 3.83v5.07a12.51 12.51 0 0 1-10.8 0zm12.6-1v-4a7.12 7.12 0 0 0-.11-1.19c.15-.05.3-.1.45-.16a5.4 5.4 0 0 1 2.64 2.47 11.93 11.93 0 0 1-2.98 2.81z"/></svg>