<svg width="244" height="97" viewBox="0 0 244 97" xmlns="http://www.w3.org/2000/svg"><title>gobank social sprite</title><g fill="none" fill-rule="evenodd"><circle fill="#F4F5F6" cx="24" cy="24" r="24"/><path d="M14.063 29.54c0-.782.015-1.575.046-2.38.03-.805.132-1.582.304-2.332.125-.516.387-.953.785-1.312.398-.36.855-.57 1.37-.633 1.235-.14 2.473-.223 3.715-.246 1.242-.024 2.48-.035 3.715-.035 1.25 0 2.496.01 3.738.035 1.242.023 2.473.105 3.692.246.53.062.992.273 1.383.633.39.36.648.796.773 1.312.172.75.273 1.527.305 2.332.032.805.047 1.598.047 2.38 0 .765-.015 1.55-.046 2.355-.03.804-.132 1.582-.304 2.332-.125.53-.383.972-.773 1.324-.39.352-.852.56-1.383.622-1.235.14-2.473.223-3.715.246-1.242.023-2.48.035-3.715.035-1.234 0-2.477-.012-3.727-.035-1.25-.023-2.484-.105-3.703-.246-.53-.063-.992-.27-1.383-.62-.39-.353-.648-.794-.773-1.325-.172-.75-.273-1.528-.305-2.332-.032-.805-.047-1.59-.047-2.356zm1.546-3.423h1.43v7.688h1.194v-7.688h1.453v-1.195H15.61v1.195zm3.07-13.687l.96 3.54.915-3.54h1.36l-1.76 5.343v3.797h-1.194v-3.797c-.124-.328-.237-.726-.34-1.195-.1-.47-.26-1.015-.48-1.64l-.433-1.3c-.148-.447-.293-.85-.434-1.208h1.407zm1.242 20.015c0 .235.008.43.023.586.016.158.04.29.07.4.063.172.153.297.27.375.117.078.277.117.48.117.22 0 .434-.067.645-.2.21-.132.434-.34.668-.62v.703h1.195v-6.727h-1.195v5.18c-.125.187-.246.328-.363.422-.117.093-.23.14-.34.14-.094 0-.16-.023-.2-.07-.038-.047-.066-.117-.08-.21 0-.017.003-.063.01-.142.008-.078.012-.187.012-.328v-4.992h-1.195v5.367zm2.156-13.195v-2.344c0-.36.02-.672.06-.937.038-.267.12-.486.245-.658.172-.218.367-.386.586-.503.218-.12.475-.177.772-.177.313 0 .578.058.797.176.218.116.405.284.562.502.14.172.23.39.27.657.038.264.058.577.058.936v2.344c0 .344-.024.648-.07.914-.048.266-.133.484-.258.656-.172.22-.368.387-.586.504-.22.117-.485.176-.797.176-.298 0-.552-.06-.763-.176-.21-.117-.402-.285-.574-.504-.125-.172-.207-.39-.246-.656-.04-.266-.06-.57-.06-.914zm.96.21c0 .313.052.548.153.704.103.156.255.234.458.234.188 0 .332-.078.434-.234.102-.156.152-.39.152-.703V16.65c0-.312-.05-.543-.152-.69-.102-.15-.246-.224-.434-.224-.203 0-.355.075-.457.223-.1.148-.15.38-.15.69v2.814zm1.43 14.345h.962v-.61c.25.235.48.414.69.54.212.124.427.187.646.187.234 0 .433-.063.597-.188.164-.125.285-.312.364-.562.046-.14.078-.32.093-.54.016-.218.024-.484.024-.796V29.21c0-.312-.008-.58-.024-.808-.015-.226-.04-.402-.07-.527-.078-.25-.207-.437-.387-.563-.18-.125-.386-.187-.62-.187-.22 0-.43.06-.634.176-.204.118-.43.302-.68.552v-2.93h-.96v8.883zm.962-1.266v-4.056c.125-.093.238-.164.34-.21.1-.047.207-.07.316-.07.172 0 .31.073.41.222.102.148.152.38.152.69v2.814c0 .297-.05.52-.152.668-.1.148-.238.222-.41.222-.11 0-.215-.023-.316-.07-.102-.047-.215-.117-.34-.21zm.96-17.696h1.454v4.804c0 .14-.008.25-.024.33-.015.077-.023.124-.023.14.016.093.04.163.07.21.03.047.086.07.164.07.126 0 .255-.046.388-.14.133-.094.262-.235.387-.422v-4.992H30v6.726h-1.195v-.89c-.25.28-.49.488-.715.62-.227.134-.457.2-.692.2-.187 0-.36-.04-.515-.117-.156-.078-.258-.203-.305-.375-.047-.11-.09-.246-.13-.41-.038-.164-.057-.364-.057-.598v-5.156zm2.415 16.828c0 .36.035.668.105.926.07.257.168.472.293.644.172.22.38.387.62.504.243.117.53.176.857.176.312 0 .59-.06.832-.176.242-.117.45-.3.62-.55.08-.11.138-.223.177-.34.038-.118.065-.24.08-.364V31.647h-1.17c0 .235-.005.41-.013.528-.008.117-.012.19-.012.222-.03.157-.093.27-.187.34s-.22.106-.375.106c-.203 0-.36-.078-.47-.235-.108-.157-.163-.39-.163-.704v-1.218h2.39v-1.336c0-.344-.023-.645-.07-.903-.047-.26-.132-.473-.258-.645-.17-.235-.374-.407-.61-.516-.233-.11-.5-.165-.796-.165-.297 0-.57.055-.82.164-.25.108-.46.28-.633.515-.14.172-.242.386-.305.644-.062.257-.093.558-.093.902v2.32zM30 29.117c0-.297.05-.523.152-.68.102-.156.254-.234.457-.234.187 0 .33.078.433.235.102.156.152.382.152.68v.61H30v-.61z" fill="#87969D"/><g transform="translate(49)"><circle fill="#F4F5F6" cx="24" cy="24" r="24"/><path d="M12 31.977c.188.03.38.05.574.058.196.008.395.012.598.012 1.156 0 2.254-.188 3.293-.563 1.04-.375 1.98-.89 2.824-1.547-1.08-.015-2.036-.343-2.872-.984-.836-.64-1.41-1.453-1.723-2.437.14.03.29.054.446.07.157.016.313.023.47.023.234 0 .456-.016.667-.047.21-.032.426-.07.645-.118-1.125-.234-2.067-.8-2.824-1.7-.758-.897-1.137-1.94-1.137-3.128v-.07c.33.187.68.332 1.056.433.375.102.765.16 1.171.176-.656-.437-1.183-1.015-1.582-1.734-.398-.72-.597-1.508-.597-2.367 0-.438.058-.867.176-1.29.117-.42.277-.812.48-1.17.61.733 1.29 1.405 2.04 2.014.75.61 1.554 1.136 2.413 1.58.86.447 1.77.802 2.73 1.068.962.265 1.95.422 2.965.47-.03-.173-.058-.353-.082-.54-.023-.188-.035-.383-.035-.586 0-.672.13-1.31.387-1.91.258-.602.61-1.126 1.055-1.57.445-.446.965-.798 1.558-1.056.594-.257 1.235-.386 1.922-.386.703 0 1.367.14 1.992.422.624.28 1.156.664 1.593 1.148.563-.11 1.106-.266 1.63-.47.522-.202 1.026-.444 1.51-.725-.187.562-.468 1.078-.843 1.547-.375.468-.82.86-1.336 1.17.5-.06.988-.16 1.465-.292.475-.132.932-.292 1.37-.48-.328.484-.7.94-1.113 1.37-.414.43-.864.825-1.348 1.185 0 .093.003.195.01.304.01.11.013.218.013.328 0 1.625-.305 3.27-.915 4.933-.61 1.665-1.507 3.17-2.695 4.513-1.187 1.344-2.652 2.44-4.394 3.293-1.744.85-3.747 1.277-6.013 1.277-.688 0-1.367-.05-2.04-.152-.67-.1-1.323-.245-1.956-.433-.632-.187-1.245-.422-1.84-.703-.593-.28-1.163-.594-1.71-.937z" fill="#87969D"/></g><g transform="translate(98)"><circle fill="#F4F5F6" cx="24" cy="24" r="24"/><path d="M14 32.043c0 .065.007.13.02.195.065.547.315 1.01.75 1.387.438.378.936.566 1.496.566H31.97c.56-.077 1.034-.33 1.425-.76.39-.43.585-.93.585-1.504V16.278c-.065-.598-.32-1.096-.76-1.493-.444-.397-.965-.596-1.564-.596H20.143c-1.283 0-2.562.008-3.838.02H16.1c-.072 0-.14.007-.205.02-.573.118-1.032.388-1.377.81-.345.424-.518.93-.518 1.515v15.488zm2.207-.957v-8.35-.127h1.816c-.136.553-.205 1.093-.205 1.62 0 .228.013.453.04.674.084.736.315 1.45.693 2.14.274.52.606.99.997 1.405.39.416.846.774 1.367 1.073.495.287 1.022.498 1.582.635.514.124 1.03.186 1.543.186h.146c.566-.013 1.123-.108 1.67-.283.546-.175 1.06-.426 1.542-.75.547-.366 1.013-.796 1.397-1.29.384-.495.693-1.05.928-1.66.234-.613.367-1.218.4-1.817.007-.104.01-.208.01-.313 0-.507-.065-1.048-.195-1.62h1.66v.136c0 .703.003 1.4.01 2.09.006.69.01 1.383.01 2.08 0 .697.002 1.393.01 2.09.005.696.01 1.39.01 2.08 0 .234-.073.426-.216.576-.143.15-.332.225-.567.225H17.028c-.234 0-.43-.075-.586-.225-.155-.15-.233-.342-.233-.576zm3.926-6.875c0-.533.1-1.034.303-1.503.2-.47.478-.876.83-1.22.35-.346.758-.62 1.22-.82.463-.203.96-.304 1.494-.304s1.036.1 1.504.303c.47.202.876.475 1.22.82.346.345.62.752.82 1.22.203.47.304.965.304 1.485 0 .535-.1 1.037-.303 1.505-.2.47-.475.876-.82 1.22-.345.346-.752.62-1.22.82-.47.203-.97.304-1.505.304-.533 0-1.03-.102-1.494-.304-.462-.2-.87-.475-1.22-.82-.352-.345-.63-.752-.83-1.22-.202-.47-.303-.964-.303-1.485zm7.695-4.628V17.277c0-.22.075-.403.225-.547.15-.143.335-.214.556-.214h2.285c.22 0 .406.074.556.224.15.15.226.336.226.557v2.284c0 .22-.075.407-.225.557-.15.148-.334.223-.555.223H28.61c-.222 0-.408-.075-.557-.224-.15-.15-.225-.337-.225-.558z" fill="#87969D"/></g><g transform="translate(147)"><circle fill="#F4F5F6" cx="24" cy="24" r="24"/><path d="M19.137 24.816v-3.378h2.48V18.547c0-.56.095-1.105.283-1.632.19-.527.482-.993.88-1.396.396-.404.898-.726 1.503-.967.606-.24 1.332-.362 2.178-.362.69 0 1.26.024 1.71.07l.674.068-.078 3.164-.655-.01c-.435-.006-.94-.01-1.512-.01-.6 0-.983.134-1.153.4-.17.268-.254.636-.254 1.105V21.438h3.673l-.156 3.378H25.19v9.375h-3.573v-9.374h-2.48z" fill="#87969D"/></g><circle fill="#F4F5F6" cx="220" cy="24" r="24"/><g fill="#87969D"><path d="M210 16.672c0-.326.06-.632.176-.918.117-.287.293-.547.527-.78.248-.236.51-.415.79-.538.28-.124.59-.186.93-.186.337 0 .647.062.927.186.28.123.543.302.79.537.235.234.41.494.528.78.117.287.176.593.176.92 0 .337-.06.65-.176.936-.117.286-.293.546-.527.78-.247.235-.51.41-.79.528-.28.117-.59.176-.928.176-.34 0-.648-.06-.928-.176-.28-.117-.543-.293-.79-.527-.235-.234-.41-.494-.528-.78-.117-.287-.176-.6-.176-.938zm.137 16.973V21.047c0-.065.013-.127.04-.186.025-.057.057-.113.096-.165.053-.052.108-.09.166-.117.058-.026.126-.04.205-.04h3.554c.077 0 .146.014.204.04.06.026.114.065.166.117.04.052.072.108.098.166.026.06.04.122.04.187v12.598c0 .065-.014.126-.04.185-.026.06-.06.114-.098.166-.052.052-.107.088-.166.108-.058.02-.127.03-.205.03h-3.555c-.08 0-.147-.01-.206-.03-.06-.02-.114-.056-.167-.108-.04-.052-.07-.107-.097-.166-.026-.06-.04-.12-.04-.185zm6.523 0V21.047c0-.065.013-.127.04-.186.025-.057.064-.113.116-.165.052-.052.108-.09.166-.117.06-.026.12-.04.186-.04h3.457c.065 0 .124.008.176.02.053.014.098.033.137.06.04.025.072.058.098.097.026.04.046.09.06.156.012.066.022.122.028.167.007.046.01.08.01.108v.312c.456-.417.98-.73 1.572-.937.593-.21 1.26-.313 2.002-.313.82 0 1.556.104 2.207.313.65.208 1.21.514 1.68.918.47.416.82.934 1.054 1.552.235.62.352 1.332.352 2.14v8.495c0 .078-.013.146-.04.205-.025.06-.064.114-.116.166-.052.052-.108.088-.166.108-.06.02-.12.03-.186.03h-3.652c-.065 0-.127-.01-.186-.03-.058-.02-.114-.056-.166-.108-.052-.052-.09-.107-.117-.166-.025-.06-.038-.127-.038-.205V25.97c0-.353-.033-.652-.098-.9-.065-.247-.162-.455-.293-.625-.13-.156-.308-.273-.536-.35-.228-.08-.51-.118-.85-.118-.416 0-.774.06-1.074.185-.3.124-.533.31-.703.557-.182.246-.315.546-.4.897-.085.352-.127.75-.127 1.192v6.835c0 .065-.013.126-.04.185-.025.06-.064.114-.116.166-.04.052-.09.088-.156.108-.066.02-.13.03-.196.03h-3.574c-.065 0-.127-.01-.186-.03-.058-.02-.114-.056-.166-.108-.052-.052-.09-.107-.117-.166-.027-.06-.04-.12-.04-.185z"/></g><g><g transform="translate(0 49)"><circle fill="#00C1D5" cx="24" cy="24" r="24"/><path d="M14.063 29.54c0-.782.015-1.575.046-2.38.03-.805.132-1.582.304-2.332.125-.516.387-.953.785-1.312.398-.36.855-.57 1.37-.633 1.235-.14 2.473-.223 3.715-.246 1.242-.024 2.48-.035 3.715-.035 1.25 0 2.496.01 3.738.035 1.242.023 2.473.105 3.692.246.53.062.992.273 1.383.633.39.36.648.796.773 1.312.172.75.273 1.527.305 2.332.032.805.047 1.598.047 2.38 0 .765-.015 1.55-.046 2.355-.03.804-.132 1.582-.304 2.332-.125.53-.383.972-.773 1.324-.39.352-.852.56-1.383.622-1.235.14-2.473.223-3.715.246-1.242.023-2.48.035-3.715.035-1.234 0-2.477-.012-3.727-.035-1.25-.023-2.484-.105-3.703-.246-.53-.063-.992-.27-1.383-.62-.39-.353-.648-.794-.773-1.325-.172-.75-.273-1.528-.305-2.332-.032-.805-.047-1.59-.047-2.356zm1.546-3.423h1.43v7.688h1.194v-7.688h1.453v-1.195H15.61v1.195zm3.07-13.687l.96 3.54.915-3.54h1.36l-1.76 5.343v3.797h-1.194v-3.797c-.124-.328-.237-.726-.34-1.195-.1-.47-.26-1.015-.48-1.64l-.433-1.3c-.148-.447-.293-.85-.434-1.208h1.407zm1.242 20.015c0 .235.008.43.023.586.016.158.04.29.07.4.063.172.153.297.27.375.117.078.277.117.48.117.22 0 .434-.067.645-.2.21-.132.434-.34.668-.62v.703h1.195v-6.727h-1.195v5.18c-.125.187-.246.328-.363.422-.117.093-.23.14-.34.14-.094 0-.16-.023-.2-.07-.038-.047-.066-.117-.08-.21 0-.017.003-.063.01-.142.008-.078.012-.187.012-.328v-4.992h-1.195v5.367zm2.156-13.195v-2.344c0-.36.02-.672.06-.937.038-.267.12-.486.245-.658.172-.218.367-.386.586-.503.218-.12.475-.177.772-.177.313 0 .578.058.797.176.218.116.405.284.562.502.14.172.23.39.27.657.038.264.058.577.058.936v2.344c0 .344-.024.648-.07.914-.048.266-.133.484-.258.656-.172.22-.368.387-.586.504-.22.117-.485.176-.797.176-.298 0-.552-.06-.763-.176-.21-.117-.402-.285-.574-.504-.125-.172-.207-.39-.246-.656-.04-.266-.06-.57-.06-.914zm.96.21c0 .313.052.548.153.704.103.156.255.234.458.234.188 0 .332-.078.434-.234.102-.156.152-.39.152-.703V16.65c0-.312-.05-.543-.152-.69-.102-.15-.246-.224-.434-.224-.203 0-.355.075-.457.223-.1.148-.15.38-.15.69v2.814zm1.43 14.345h.962v-.61c.25.235.48.414.69.54.212.124.427.187.646.187.234 0 .433-.063.597-.188.164-.125.285-.312.364-.562.046-.14.078-.32.093-.54.016-.218.024-.484.024-.796V29.21c0-.312-.008-.58-.024-.808-.015-.226-.04-.402-.07-.527-.078-.25-.207-.437-.387-.563-.18-.125-.386-.187-.62-.187-.22 0-.43.06-.634.176-.204.118-.43.302-.68.552v-2.93h-.96v8.883zm.962-1.266v-4.056c.125-.093.238-.164.34-.21.1-.047.207-.07.316-.07.172 0 .31.073.41.222.102.148.152.38.152.69v2.814c0 .297-.05.52-.152.668-.1.148-.238.222-.41.222-.11 0-.215-.023-.316-.07-.102-.047-.215-.117-.34-.21zm.96-17.696h1.454v4.804c0 .14-.008.25-.024.33-.015.077-.023.124-.023.14.016.093.04.163.07.21.03.047.086.07.164.07.126 0 .255-.046.388-.14.133-.094.262-.235.387-.422v-4.992H30v6.726h-1.195v-.89c-.25.28-.49.488-.715.62-.227.134-.457.2-.692.2-.187 0-.36-.04-.515-.117-.156-.078-.258-.203-.305-.375-.047-.11-.09-.246-.13-.41-.038-.164-.057-.364-.057-.598v-5.156zm2.415 16.828c0 .36.035.668.105.926.07.257.168.472.293.644.172.22.38.387.62.504.243.117.53.176.857.176.312 0 .59-.06.832-.176.242-.117.45-.3.62-.55.08-.11.138-.223.177-.34.038-.118.065-.24.08-.364V31.647h-1.17c0 .235-.005.41-.013.528-.008.117-.012.19-.012.222-.03.157-.093.27-.187.34s-.22.106-.375.106c-.203 0-.36-.078-.47-.235-.108-.157-.163-.39-.163-.704v-1.218h2.39v-1.336c0-.344-.023-.645-.07-.903-.047-.26-.132-.473-.258-.645-.17-.235-.374-.407-.61-.516-.233-.11-.5-.165-.796-.165-.297 0-.57.055-.82.164-.25.108-.46.28-.633.515-.14.172-.242.386-.305.644-.062.257-.093.558-.093.902v2.32zM30 29.117c0-.297.05-.523.152-.68.102-.156.254-.234.457-.234.187 0 .33.078.433.235.102.156.152.382.152.68v.61H30v-.61z" fill="#FFF"/></g><g transform="translate(49 49)"><circle fill="#00C1D5" cx="24" cy="24" r="24"/><path d="M12 31.977c.188.03.38.05.574.058.196.008.395.012.598.012 1.156 0 2.254-.188 3.293-.563 1.04-.375 1.98-.89 2.824-1.547-1.08-.015-2.036-.343-2.872-.984-.836-.64-1.41-1.453-1.723-2.437.14.03.29.054.446.07.157.016.313.023.47.023.234 0 .456-.016.667-.047.21-.032.426-.07.645-.118-1.125-.234-2.067-.8-2.824-1.7-.758-.897-1.137-1.94-1.137-3.128v-.07c.33.187.68.332 1.056.433.375.102.765.16 1.171.176-.656-.437-1.183-1.015-1.582-1.734-.398-.72-.597-1.508-.597-2.367 0-.438.058-.867.176-1.29.117-.42.277-.812.48-1.17.61.733 1.29 1.405 2.04 2.014.75.61 1.554 1.136 2.413 1.58.86.447 1.77.802 2.73 1.068.962.265 1.95.422 2.965.47-.03-.173-.058-.353-.082-.54-.023-.188-.035-.383-.035-.586 0-.672.13-1.31.387-1.91.258-.602.61-1.126 1.055-1.57.445-.446.965-.798 1.558-1.056.594-.257 1.235-.386 1.922-.386.703 0 1.367.14 1.992.422.624.28 1.156.664 1.593 1.148.563-.11 1.106-.266 1.63-.47.522-.202 1.026-.444 1.51-.725-.187.562-.468 1.078-.843 1.547-.375.468-.82.86-1.336 1.17.5-.06.988-.16 1.465-.292.475-.132.932-.292 1.37-.48-.328.484-.7.94-1.113 1.37-.414.43-.864.825-1.348 1.185 0 .093.003.195.01.304.01.11.013.218.013.328 0 1.625-.305 3.27-.915 4.933-.61 1.665-1.507 3.17-2.695 4.513-1.187 1.344-2.652 2.44-4.394 3.293-1.744.85-3.747 1.277-6.013 1.277-.688 0-1.367-.05-2.04-.152-.67-.1-1.323-.245-1.956-.433-.632-.187-1.245-.422-1.84-.703-.593-.28-1.163-.594-1.71-.937z" fill="#FFF"/></g><g transform="translate(98 49)"><circle fill="#00C1D5" cx="24" cy="24" r="24"/><path d="M14 32.043c0 .065.007.13.02.195.065.547.315 1.01.75 1.387.438.378.936.566 1.496.566H31.97c.56-.077 1.034-.33 1.425-.76.39-.43.585-.93.585-1.504V16.278c-.065-.598-.32-1.096-.76-1.493-.444-.397-.965-.596-1.564-.596H20.143c-1.283 0-2.562.008-3.838.02H16.1c-.072 0-.14.007-.205.02-.573.118-1.032.388-1.377.81-.345.424-.518.93-.518 1.515v15.488zm2.207-.957v-8.35-.127h1.816c-.136.553-.205 1.093-.205 1.62 0 .228.013.453.04.674.084.736.315 1.45.693 2.14.274.52.606.99.997 1.405.39.416.846.774 1.367 1.073.495.287 1.022.498 1.582.635.514.124 1.03.186 1.543.186h.146c.566-.013 1.123-.108 1.67-.283.546-.175 1.06-.426 1.542-.75.547-.366 1.013-.796 1.397-1.29.384-.495.693-1.05.928-1.66.234-.613.367-1.218.4-1.817.007-.104.01-.208.01-.313 0-.507-.065-1.048-.195-1.62h1.66v.136c0 .703.003 1.4.01 2.09.006.69.01 1.383.01 2.08 0 .697.002 1.393.01 2.09.005.696.01 1.39.01 2.08 0 .234-.073.426-.216.576-.143.15-.332.225-.567.225H17.028c-.234 0-.43-.075-.586-.225-.155-.15-.233-.342-.233-.576zm3.926-6.875c0-.533.1-1.034.303-1.503.2-.47.478-.876.83-1.22.35-.346.758-.62 1.22-.82.463-.203.96-.304 1.494-.304s1.036.1 1.504.303c.47.202.876.475 1.22.82.346.345.62.752.82 1.22.203.47.304.965.304 1.485 0 .535-.1 1.037-.303 1.505-.2.47-.475.876-.82 1.22-.345.346-.752.62-1.22.82-.47.203-.97.304-1.505.304-.533 0-1.03-.102-1.494-.304-.462-.2-.87-.475-1.22-.82-.352-.345-.63-.752-.83-1.22-.202-.47-.303-.964-.303-1.485zm7.695-4.628V17.277c0-.22.075-.403.225-.547.15-.143.335-.214.556-.214h2.285c.22 0 .406.074.556.224.15.15.226.336.226.557v2.284c0 .22-.075.407-.225.557-.15.148-.334.223-.555.223H28.61c-.222 0-.408-.075-.557-.224-.15-.15-.225-.337-.225-.558z" fill="#FFF"/></g><g transform="translate(147 49)"><circle fill="#00C1D5" cx="24" cy="24" r="24"/><path d="M19.137 24.816v-3.378h2.48V18.547c0-.56.095-1.105.283-1.632.19-.527.482-.993.88-1.396.396-.404.898-.726 1.503-.967.606-.24 1.332-.362 2.178-.362.69 0 1.26.024 1.71.07l.674.068-.078 3.164-.655-.01c-.435-.006-.94-.01-1.512-.01-.6 0-.983.134-1.153.4-.17.268-.254.636-.254 1.105V21.438h3.673l-.156 3.378H25.19v9.375h-3.573v-9.374h-2.48z" fill="#FFF"/></g><g transform="translate(196 49)"><circle fill="#00C1D5" cx="24" cy="24" r="24"/><path d="M14 16.672c0-.326.06-.632.176-.918.117-.287.293-.547.527-.78.248-.236.51-.415.79-.538.28-.124.59-.186.93-.186.337 0 .647.062.927.186.28.123.543.302.79.537.235.234.41.494.528.78.117.287.176.593.176.92 0 .337-.06.65-.176.936-.117.286-.293.546-.527.78-.247.235-.51.41-.79.528-.28.117-.59.176-.928.176-.34 0-.648-.06-.928-.176-.28-.117-.543-.293-.79-.527-.235-.234-.41-.494-.528-.78-.117-.287-.176-.6-.176-.938zm.137 16.973V21.047c0-.065.013-.127.04-.186.025-.057.057-.113.096-.165.053-.052.108-.09.166-.117.058-.026.126-.04.205-.04H18.2c.077 0 .146.014.204.04.06.026.114.065.166.117.04.052.072.108.098.166.026.06.04.122.04.187v12.598c0 .065-.014.126-.04.185-.026.06-.06.114-.098.166-.052.052-.107.088-.166.108-.058.02-.127.03-.205.03h-3.555c-.08 0-.147-.01-.206-.03-.06-.02-.114-.056-.167-.108-.04-.052-.07-.107-.097-.166-.026-.06-.04-.12-.04-.185zm6.523 0V21.047c0-.065.013-.127.04-.186.025-.057.064-.113.116-.165.052-.052.108-.09.166-.117.06-.026.12-.04.186-.04h3.457c.065 0 .124.008.176.02.053.014.098.033.137.06.04.025.072.058.098.097.026.04.046.09.06.156.012.066.022.122.028.167.007.046.01.08.01.108v.312c.456-.417.98-.73 1.572-.937.593-.21 1.26-.313 2.002-.313.82 0 1.556.104 2.207.313.65.208 1.21.514 1.68.918.47.416.82.934 1.054 1.552.235.62.352 1.332.352 2.14v8.495c0 .078-.013.146-.04.205-.025.06-.064.114-.116.166-.052.052-.108.088-.166.108-.06.02-.12.03-.186.03H29.84c-.065 0-.127-.01-.186-.03-.058-.02-.114-.056-.166-.108-.052-.052-.09-.107-.117-.166-.025-.06-.038-.127-.038-.205V25.97c0-.353-.033-.652-.098-.9-.065-.247-.162-.455-.293-.625-.13-.156-.308-.273-.536-.35-.228-.08-.51-.118-.85-.118-.416 0-.774.06-1.074.185-.3.124-.533.31-.703.557-.182.246-.315.546-.4.897-.085.352-.127.75-.127 1.192v6.835c0 .065-.013.126-.04.185-.025.06-.064.114-.116.166-.04.052-.09.088-.157.108-.065.02-.13.03-.195.03h-3.574c-.065 0-.127-.01-.186-.03-.058-.02-.114-.056-.166-.108-.052-.052-.09-.107-.117-.166-.027-.06-.04-.12-.04-.185z" fill="#FFF"/></g></g></g></svg>