<svg width="244" height="97" viewBox="0 0 244 97" xmlns="http://www.w3.org/2000/svg"><title>secured card social sprite</title><g fill="none" fill-rule="evenodd"><circle fill="#00AEEF" cx="24" cy="24" r="24"/><circle fill="#FFF" cx="24" cy="24" r="22"/><path d="M14.063 29.54c0-.782.015-1.575.046-2.38.032-.805.133-1.582.305-2.332.125-.516.387-.953.785-1.312.399-.36.856-.57 1.371-.633a39.36 39.36 0 0 1 3.715-.246 196.917 196.917 0 0 1 7.453 0c1.242.023 2.473.105 3.692.246.53.062.992.273 1.383.633.39.359.648.796.773 1.312.172.75.273 1.527.305 2.332a61.308 61.308 0 0 1 0 4.735 12.609 12.609 0 0 1-.305 2.332 2.51 2.51 0 0 1-.773 1.324c-.391.351-.852.558-1.383.62a39.36 39.36 0 0 1-3.715.247 196.918 196.918 0 0 1-7.442 0 38.603 38.603 0 0 1-3.703-.246 2.444 2.444 0 0 1-1.383-.621 2.51 2.51 0 0 1-.773-1.324 12.609 12.609 0 0 1-.305-2.332 60.723 60.723 0 0 1-.046-2.356zm1.546-3.423h1.43v7.688h1.195v-7.688h1.453v-1.195H15.61v1.195zm3.07-13.687l.962 3.539.914-3.54h1.36l-1.759 5.344v3.797h-1.195v-3.797a8.399 8.399 0 0 1-.34-1.195 14.133 14.133 0 0 0-.48-1.64l-.434-1.301a25.21 25.21 0 0 0-.434-1.207h1.407zm1.243 20.015c0 .235.008.43.023.586.016.157.04.29.07.399a.732.732 0 0 0 .27.375c.117.078.277.117.48.117.22 0 .434-.067.645-.2.211-.132.434-.34.668-.62v.703h1.195v-6.727h-1.195v5.18a1.86 1.86 0 0 1-.363.422.55.55 0 0 1-.34.14c-.094 0-.16-.023-.2-.07a.441.441 0 0 1-.081-.21c0-.017.004-.063.011-.142a3.51 3.51 0 0 0 .012-.328v-4.992h-1.195v5.367zm2.156-13.195v-2.344c0-.36.02-.672.059-.937a1.46 1.46 0 0 1 .246-.656 1.87 1.87 0 0 1 .586-.504c.219-.118.476-.176.773-.176.313 0 .578.058.797.176.219.117.406.285.563.504.14.171.23.39.27.656.038.265.058.578.058.937v2.344c0 .344-.024.648-.07.914a1.563 1.563 0 0 1-.258.656 1.87 1.87 0 0 1-.586.504 1.668 1.668 0 0 1-.797.176c-.297 0-.551-.059-.762-.176a1.922 1.922 0 0 1-.574-.504 1.46 1.46 0 0 1-.246-.656 6.342 6.342 0 0 1-.059-.914zm.961.21c0 .313.05.548.152.704a.509.509 0 0 0 .457.234.488.488 0 0 0 .434-.234c.102-.156.152-.39.152-.703v-2.813c0-.312-.05-.543-.152-.691a.494.494 0 0 0-.434-.223c-.203 0-.355.075-.457.223-.101.148-.152.379-.152.691v2.813zm1.43 14.345h.96v-.61c.25.235.481.414.692.54.211.124.426.187.645.187a.957.957 0 0 0 .597-.188c.164-.125.285-.312.364-.562.046-.14.078-.32.093-.54.016-.218.024-.484.024-.796V29.21c0-.313-.008-.582-.024-.809a3.206 3.206 0 0 0-.07-.527 1.032 1.032 0 0 0-.387-.563 1.06 1.06 0 0 0-.62-.187c-.22 0-.43.059-.634.176-.203.117-.43.3-.68.55v-2.93h-.96v8.884zm.96-1.266v-4.055c.126-.093.239-.164.34-.21a.747.747 0 0 1 .317-.07c.172 0 .309.073.41.222.102.148.152.379.152.691v2.813c0 .297-.05.52-.152.668a.473.473 0 0 1-.41.222.747.747 0 0 1-.316-.07 1.933 1.933 0 0 1-.34-.21zm.962-17.695h1.453v4.804c0 .141-.008.25-.024.329a1.17 1.17 0 0 0-.023.14c.016.094.039.164.07.211.031.047.086.07.164.07a.673.673 0 0 0 .387-.14c.133-.094.262-.235.387-.422v-4.992H30v6.726h-1.195v-.89c-.25.28-.489.488-.715.62-.227.134-.457.2-.692.2-.187 0-.359-.04-.515-.117a.567.567 0 0 1-.305-.375 2.568 2.568 0 0 1-.129-.41 2.619 2.619 0 0 1-.058-.598v-5.156zm2.414 16.828c0 .36.035.668.105.926.07.257.168.472.293.644.172.219.379.387.621.504.242.117.528.176.856.176.312 0 .59-.059.832-.176.242-.117.449-.3.62-.55.079-.11.138-.223.177-.34.039-.118.066-.239.082-.364v-.843h-1.172c0 .234-.004.41-.012.527a4.62 4.62 0 0 0-.012.222c-.03.157-.093.27-.187.34a.61.61 0 0 1-.375.106.538.538 0 0 1-.469-.235c-.11-.156-.164-.39-.164-.703v-1.218h2.39v-1.336c0-.344-.023-.645-.07-.903a1.553 1.553 0 0 0-.258-.644 1.588 1.588 0 0 0-.609-.516c-.234-.11-.5-.164-.797-.164-.297 0-.57.055-.82.164-.25.11-.461.281-.633.516-.14.172-.242.386-.305.644a3.858 3.858 0 0 0-.093.903v2.32zM30 29.117c0-.297.05-.523.152-.68a.509.509 0 0 1 .457-.234c.188 0 .332.078.434.235.102.156.152.382.152.68v.609H30v-.61z" fill="#00AEEF"/><g transform="translate(49)"><circle fill="#00AEEF" cx="24" cy="24" r="24"/><circle fill="#FFF" cx="24" cy="24" r="22"/><path d="M12 31.977c.188.03.379.05.574.058.196.008.395.012.598.012a9.625 9.625 0 0 0 3.293-.563c1.039-.375 1.98-.89 2.824-1.547a4.71 4.71 0 0 1-2.871-.984 4.862 4.862 0 0 1-1.723-2.437c.14.03.29.054.446.07a4.708 4.708 0 0 0 1.136-.023c.211-.032.426-.07.645-.118-1.125-.234-2.067-.8-2.824-1.699a4.707 4.707 0 0 1-1.137-3.129v-.07c.328.187.68.332 1.055.433.375.102.765.16 1.171.176a4.905 4.905 0 0 1-1.582-1.734 4.8 4.8 0 0 1-.597-2.367c0-.438.058-.867.176-1.29.117-.421.277-.812.48-1.171a14.63 14.63 0 0 0 2.04 2.015 14.056 14.056 0 0 0 5.145 2.648c.96.266 1.948.423 2.963.47a9.836 9.836 0 0 1-.082-.54 4.723 4.723 0 0 1-.035-.585c0-.672.13-1.309.387-1.91a4.958 4.958 0 0 1 1.055-1.57 4.995 4.995 0 0 1 1.558-1.056 4.773 4.773 0 0 1 1.922-.386c.703 0 1.367.14 1.992.422a4.738 4.738 0 0 1 1.594 1.148 9.51 9.51 0 0 0 1.629-.469 10.753 10.753 0 0 0 1.512-.726 5.047 5.047 0 0 1-2.18 2.719c.5-.063.988-.16 1.465-.294.476-.132.933-.292 1.371-.48-.328.484-.7.941-1.113 1.371-.414.43-.864.824-1.348 1.184 0 .093.004.195.012.304.008.11.011.22.011.328 0 1.626-.304 3.27-.914 4.934a14.061 14.061 0 0 1-2.695 4.512c-1.187 1.344-2.652 2.441-4.394 3.293-1.743.851-3.746 1.277-6.012 1.277-.688 0-1.367-.05-2.04-.152a14.519 14.519 0 0 1-1.956-.434 12.757 12.757 0 0 1-1.84-.703A16.42 16.42 0 0 1 12 31.977z" fill="#00AEEF"/></g><g transform="translate(98)"><circle fill="#00AEEF" cx="24" cy="24" r="24"/><circle fill="#FFF" cx="24" cy="24" r="22"/><path d="M30.512 18.655a1.198 1.198 0 1 0-2.396 0 1.198 1.198 0 0 0 2.396 0m-6.528 8.657a3.328 3.328 0 1 1 0-6.656 3.328 3.328 0 0 1 0 6.656m0-8.455a5.127 5.127 0 1 0 0 10.254 5.127 5.127 0 0 0 0-10.254m0-4.857c-2.711 0-3.051.011-4.116.06-1.063.049-1.789.217-2.424.464a4.894 4.894 0 0 0-1.768 1.152 4.893 4.893 0 0 0-1.152 1.768c-.247.635-.415 1.361-.464 2.424-.049 1.065-.06 1.405-.06 4.116 0 2.712.011 3.052.06 4.117.049 1.062.217 1.788.464 2.423a4.893 4.893 0 0 0 1.152 1.769 4.892 4.892 0 0 0 1.768 1.151c.635.247 1.361.416 2.424.464 1.065.049 1.405.06 4.116.06 2.712 0 3.052-.011 4.117-.06 1.062-.048 1.788-.217 2.423-.464a4.892 4.892 0 0 0 1.769-1.151 4.893 4.893 0 0 0 1.151-1.769c.247-.635.416-1.36.464-2.423.049-1.065.06-1.405.06-4.117 0-2.711-.011-3.051-.06-4.116-.048-1.063-.217-1.789-.464-2.424a4.893 4.893 0 0 0-1.151-1.768 4.894 4.894 0 0 0-1.769-1.152c-.635-.247-1.36-.415-2.423-.464-1.065-.049-1.405-.06-4.117-.06m0 1.799c2.666 0 2.982.01 4.035.058.973.045 1.502.207 1.854.344.466.181.798.397 1.148.747.35.35.565.682.746 1.148.137.352.3.88.344 1.854.048 1.053.058 1.368.058 4.034 0 2.666-.01 2.982-.058 4.035-.044.973-.207 1.502-.344 1.854a3.093 3.093 0 0 1-.746 1.148c-.35.349-.682.565-1.148.747-.352.136-.88.299-1.854.343-1.053.048-1.369.058-4.035.058-2.666 0-2.982-.01-4.034-.058-.974-.044-1.502-.207-1.854-.343a3.094 3.094 0 0 1-1.148-.747 3.096 3.096 0 0 1-.747-1.148c-.137-.352-.3-.88-.344-1.854-.048-1.053-.058-1.369-.058-4.035 0-2.666.01-2.981.058-4.034.045-.974.207-1.502.344-1.854.181-.466.397-.799.747-1.148.35-.35.682-.566 1.148-.747.352-.137.88-.3 1.854-.344 1.053-.048 1.368-.058 4.034-.058" fill="#00AEEF"/></g><g transform="translate(147)"><circle fill="#00AEEF" cx="24" cy="24" r="24"/><circle fill="#FFF" cx="24" cy="24" r="22"/><path d="M19.137 24.816v-3.378h2.48v-2.891c0-.56.095-1.104.283-1.631.19-.527.482-.993.88-1.396.396-.404.898-.726 1.503-.967.606-.241 1.332-.362 2.178-.362.69 0 1.26.023 1.709.069l.674.068-.078 3.164-.655-.01c-.436-.006-.94-.01-1.513-.01-.6 0-.983.134-1.153.401-.169.267-.254.635-.254 1.104v2.46h3.672l-.156 3.38h-3.516v9.374h-3.574v-9.375h-2.48z" fill="#00AEEF"/></g><circle fill="#00AEEF" cx="220" cy="24" r="24"/><circle fill="#FFF" cx="220" cy="24" r="22"/><g fill="#00AEEF"><path d="M210 16.672a2.4 2.4 0 0 1 .176-.918c.117-.287.293-.547.527-.781.248-.235.511-.414.791-.537.28-.124.59-.186.928-.186.338 0 .648.062.928.186.28.123.543.302.79.537.235.234.41.494.528.78a2.4 2.4 0 0 1 .176.919c0 .338-.059.65-.176.937a2.368 2.368 0 0 1-.527.782c-.248.234-.511.41-.791.527a2.38 2.38 0 0 1-.928.176 2.38 2.38 0 0 1-.928-.176 2.626 2.626 0 0 1-.79-.527 2.368 2.368 0 0 1-.528-.782 2.453 2.453 0 0 1-.176-.937zm.137 16.973V21.047c0-.065.013-.127.039-.186a.854.854 0 0 1 .097-.166.554.554 0 0 1 .166-.117.501.501 0 0 1 .206-.039h3.554c.078 0 .147.013.205.04a.554.554 0 0 1 .166.116c.04.052.072.108.098.166.026.059.039.12.039.186v12.598a.452.452 0 0 1-.039.185.854.854 0 0 1-.098.166.427.427 0 0 1-.166.108.65.65 0 0 1-.205.029h-3.554a.65.65 0 0 1-.206-.03.427.427 0 0 1-.166-.107.854.854 0 0 1-.097-.166.452.452 0 0 1-.04-.185zm6.523 0V21.047c0-.065.013-.127.04-.186a.554.554 0 0 1 .116-.166.554.554 0 0 1 .166-.117.452.452 0 0 1 .186-.039h3.457c.065 0 .124.007.176.02a.434.434 0 0 1 .137.058c.039.026.071.059.097.098.026.039.046.091.059.156.013.065.023.12.029.166.007.046.01.081.01.108v.312c.456-.417.98-.73 1.572-.937.593-.209 1.26-.313 2.002-.313.82 0 1.556.104 2.207.313.651.208 1.211.514 1.68.918.469.416.82.934 1.054 1.552.235.619.352 1.332.352 2.139v8.496a.501.501 0 0 1-.04.205.554.554 0 0 1-.116.166.427.427 0 0 1-.166.108.583.583 0 0 1-.186.029h-3.652a.583.583 0 0 1-.186-.03.427.427 0 0 1-.166-.107.554.554 0 0 1-.117-.166.501.501 0 0 1-.039-.205v-7.656c0-.352-.033-.651-.098-.899a1.738 1.738 0 0 0-.293-.625 1.176 1.176 0 0 0-.537-.351 2.648 2.648 0 0 0-.85-.117c-.416 0-.774.061-1.074.185-.299.124-.533.31-.703.557a2.471 2.471 0 0 0-.4.898 5.105 5.105 0 0 0-.127 1.192v6.836a.452.452 0 0 1-.04.185.554.554 0 0 1-.116.166.296.296 0 0 1-.156.108.677.677 0 0 1-.196.029h-3.574a.583.583 0 0 1-.186-.03.427.427 0 0 1-.166-.107.554.554 0 0 1-.117-.166.452.452 0 0 1-.039-.185z"/></g><g><g transform="translate(0 49)"><circle fill="#00AEEF" cx="24" cy="24" r="24"/><path d="M14.063 29.54c0-.782.015-1.575.046-2.38.032-.805.133-1.582.305-2.332.125-.516.387-.953.785-1.312.399-.36.856-.57 1.371-.633a39.36 39.36 0 0 1 3.715-.246 196.917 196.917 0 0 1 7.453 0c1.242.023 2.473.105 3.692.246.53.062.992.273 1.383.633.39.359.648.796.773 1.312.172.75.273 1.527.305 2.332a61.308 61.308 0 0 1 0 4.735 12.609 12.609 0 0 1-.305 2.332 2.51 2.51 0 0 1-.773 1.324c-.391.351-.852.558-1.383.62a39.36 39.36 0 0 1-3.715.247 196.918 196.918 0 0 1-7.442 0 38.603 38.603 0 0 1-3.703-.246 2.444 2.444 0 0 1-1.383-.621 2.51 2.51 0 0 1-.773-1.324 12.609 12.609 0 0 1-.305-2.332 60.723 60.723 0 0 1-.046-2.356zm1.546-3.423h1.43v7.688h1.195v-7.688h1.453v-1.195H15.61v1.195zm3.07-13.687l.962 3.539.914-3.54h1.36l-1.759 5.344v3.797h-1.195v-3.797a8.399 8.399 0 0 1-.34-1.195 14.133 14.133 0 0 0-.48-1.64l-.434-1.301a25.21 25.21 0 0 0-.434-1.207h1.407zm1.243 20.015c0 .235.008.43.023.586.016.157.04.29.07.399a.732.732 0 0 0 .27.375c.117.078.277.117.48.117.22 0 .434-.067.645-.2.211-.132.434-.34.668-.62v.703h1.195v-6.727h-1.195v5.18a1.86 1.86 0 0 1-.363.422.55.55 0 0 1-.34.14c-.094 0-.16-.023-.2-.07a.441.441 0 0 1-.081-.21c0-.017.004-.063.011-.142a3.51 3.51 0 0 0 .012-.328v-4.992h-1.195v5.367zm2.156-13.195v-2.344c0-.36.02-.672.059-.937a1.46 1.46 0 0 1 .246-.656 1.87 1.87 0 0 1 .586-.504c.219-.118.476-.176.773-.176.313 0 .578.058.797.176.219.117.406.285.563.504.14.171.23.39.27.656.038.265.058.578.058.937v2.344c0 .344-.024.648-.07.914a1.563 1.563 0 0 1-.258.656 1.87 1.87 0 0 1-.586.504 1.668 1.668 0 0 1-.797.176c-.297 0-.551-.059-.762-.176a1.922 1.922 0 0 1-.574-.504 1.46 1.46 0 0 1-.246-.656 6.342 6.342 0 0 1-.059-.914zm.961.21c0 .313.05.548.152.704a.509.509 0 0 0 .457.234.488.488 0 0 0 .434-.234c.102-.156.152-.39.152-.703v-2.813c0-.312-.05-.543-.152-.691a.494.494 0 0 0-.434-.223c-.203 0-.355.075-.457.223-.101.148-.152.379-.152.691v2.813zm1.43 14.345h.96v-.61c.25.235.481.414.692.54.211.124.426.187.645.187a.957.957 0 0 0 .597-.188c.164-.125.285-.312.364-.562.046-.14.078-.32.093-.54.016-.218.024-.484.024-.796V29.21c0-.313-.008-.582-.024-.809a3.206 3.206 0 0 0-.07-.527 1.032 1.032 0 0 0-.387-.563 1.06 1.06 0 0 0-.62-.187c-.22 0-.43.059-.634.176-.203.117-.43.3-.68.55v-2.93h-.96v8.884zm.96-1.266v-4.055c.126-.093.239-.164.34-.21a.747.747 0 0 1 .317-.07c.172 0 .309.073.41.222.102.148.152.379.152.691v2.813c0 .297-.05.52-.152.668a.473.473 0 0 1-.41.222.747.747 0 0 1-.316-.07 1.933 1.933 0 0 1-.34-.21zm.962-17.695h1.453v4.804c0 .141-.008.25-.024.329a1.17 1.17 0 0 0-.023.14c.016.094.039.164.07.211.031.047.086.07.164.07a.673.673 0 0 0 .387-.14c.133-.094.262-.235.387-.422v-4.992H30v6.726h-1.195v-.89c-.25.28-.489.488-.715.62-.227.134-.457.2-.692.2-.187 0-.359-.04-.515-.117a.567.567 0 0 1-.305-.375 2.568 2.568 0 0 1-.129-.41 2.619 2.619 0 0 1-.058-.598v-5.156zm2.414 16.828c0 .36.035.668.105.926.07.257.168.472.293.644.172.219.379.387.621.504.242.117.528.176.856.176.312 0 .59-.059.832-.176.242-.117.449-.3.62-.55.079-.11.138-.223.177-.34.039-.118.066-.239.082-.364v-.843h-1.172c0 .234-.004.41-.012.527a4.62 4.62 0 0 0-.012.222c-.03.157-.093.27-.187.34a.61.61 0 0 1-.375.106.538.538 0 0 1-.469-.235c-.11-.156-.164-.39-.164-.703v-1.218h2.39v-1.336c0-.344-.023-.645-.07-.903a1.553 1.553 0 0 0-.258-.644 1.588 1.588 0 0 0-.609-.516c-.234-.11-.5-.164-.797-.164-.297 0-.57.055-.82.164-.25.11-.461.281-.633.516-.14.172-.242.386-.305.644a3.858 3.858 0 0 0-.093.903v2.32zM30 29.117c0-.297.05-.523.152-.68a.509.509 0 0 1 .457-.234c.188 0 .332.078.434.235.102.156.152.382.152.68v.609H30v-.61z" fill="#FFF"/></g><g transform="translate(49 49)"><circle fill="#00AEEF" cx="24" cy="24" r="24"/><path d="M12 31.977c.188.03.379.05.574.058.196.008.395.012.598.012a9.625 9.625 0 0 0 3.293-.563c1.039-.375 1.98-.89 2.824-1.547a4.71 4.71 0 0 1-2.871-.984 4.862 4.862 0 0 1-1.723-2.437c.14.03.29.054.446.07a4.708 4.708 0 0 0 1.136-.023c.211-.032.426-.07.645-.118-1.125-.234-2.067-.8-2.824-1.699a4.707 4.707 0 0 1-1.137-3.129v-.07c.328.187.68.332 1.055.433.375.102.765.16 1.171.176a4.905 4.905 0 0 1-1.582-1.734 4.8 4.8 0 0 1-.597-2.367c0-.438.058-.867.176-1.29.117-.421.277-.812.48-1.171a14.63 14.63 0 0 0 2.04 2.015 14.056 14.056 0 0 0 5.145 2.648c.96.266 1.948.423 2.963.47a9.836 9.836 0 0 1-.082-.54 4.723 4.723 0 0 1-.035-.585c0-.672.13-1.309.387-1.91a4.958 4.958 0 0 1 1.055-1.57 4.995 4.995 0 0 1 1.558-1.056 4.773 4.773 0 0 1 1.922-.386c.703 0 1.367.14 1.992.422a4.738 4.738 0 0 1 1.594 1.148 9.51 9.51 0 0 0 1.629-.469 10.753 10.753 0 0 0 1.512-.726 5.047 5.047 0 0 1-2.18 2.719c.5-.063.988-.16 1.465-.294.476-.132.933-.292 1.371-.48-.328.484-.7.941-1.113 1.371-.414.43-.864.824-1.348 1.184 0 .093.004.195.012.304.008.11.011.22.011.328 0 1.626-.304 3.27-.914 4.934a14.061 14.061 0 0 1-2.695 4.512c-1.187 1.344-2.652 2.441-4.394 3.293-1.743.851-3.746 1.277-6.012 1.277-.688 0-1.367-.05-2.04-.152a14.519 14.519 0 0 1-1.956-.434 12.757 12.757 0 0 1-1.84-.703A16.42 16.42 0 0 1 12 31.977z" fill="#FFF"/></g><g transform="translate(98 49)"><circle fill="#00AEEF" cx="24" cy="24" r="24"/><path d="M30.512 18.655a1.198 1.198 0 1 0-2.396 0 1.198 1.198 0 0 0 2.396 0m-6.528 8.657a3.328 3.328 0 1 1 0-6.656 3.328 3.328 0 0 1 0 6.656m0-8.455a5.127 5.127 0 1 0 0 10.254 5.127 5.127 0 0 0 0-10.254m0-4.857c-2.711 0-3.051.011-4.116.06-1.063.049-1.789.217-2.424.464a4.894 4.894 0 0 0-1.768 1.152 4.893 4.893 0 0 0-1.152 1.768c-.247.635-.415 1.361-.464 2.424-.049 1.065-.06 1.405-.06 4.116 0 2.712.011 3.052.06 4.117.049 1.062.217 1.788.464 2.423a4.893 4.893 0 0 0 1.152 1.769 4.892 4.892 0 0 0 1.768 1.151c.635.247 1.361.416 2.424.464 1.065.049 1.405.06 4.116.06 2.712 0 3.052-.011 4.117-.06 1.062-.048 1.788-.217 2.423-.464a4.892 4.892 0 0 0 1.769-1.151 4.893 4.893 0 0 0 1.151-1.769c.247-.635.416-1.36.464-2.423.049-1.065.06-1.405.06-4.117 0-2.711-.011-3.051-.06-4.116-.048-1.063-.217-1.789-.464-2.424a4.893 4.893 0 0 0-1.151-1.768 4.894 4.894 0 0 0-1.769-1.152c-.635-.247-1.36-.415-2.423-.464-1.065-.049-1.405-.06-4.117-.06m0 1.799c2.666 0 2.982.01 4.035.058.973.045 1.502.207 1.854.344.466.181.798.397 1.148.747.35.35.565.682.746 1.148.137.352.3.88.344 1.854.048 1.053.058 1.368.058 4.034 0 2.666-.01 2.982-.058 4.035-.044.973-.207 1.502-.344 1.854a3.093 3.093 0 0 1-.746 1.148c-.35.349-.682.565-1.148.747-.352.136-.88.299-1.854.343-1.053.048-1.369.058-4.035.058-2.666 0-2.982-.01-4.034-.058-.974-.044-1.502-.207-1.854-.343a3.094 3.094 0 0 1-1.148-.747 3.096 3.096 0 0 1-.747-1.148c-.137-.352-.3-.88-.344-1.854-.048-1.053-.058-1.369-.058-4.035 0-2.666.01-2.981.058-4.034.045-.974.207-1.502.344-1.854.181-.466.397-.799.747-1.148.35-.35.682-.566 1.148-.747.352-.137.88-.3 1.854-.344 1.053-.048 1.368-.058 4.034-.058" fill="#FFF"/></g><g transform="translate(147 49)"><circle fill="#00AEEF" cx="24" cy="24" r="24"/><path d="M19.137 24.816v-3.378h2.48v-2.891c0-.56.095-1.104.283-1.631.19-.527.482-.993.88-1.396.396-.404.898-.726 1.503-.967.606-.241 1.332-.362 2.178-.362.69 0 1.26.023 1.709.069l.674.068-.078 3.164-.655-.01c-.436-.006-.94-.01-1.513-.01-.6 0-.983.134-1.153.401-.169.267-.254.635-.254 1.104v2.46h3.672l-.156 3.38h-3.516v9.374h-3.574v-9.375h-2.48z" fill="#FFF"/></g><g transform="translate(196 49)"><circle fill="#00AEEF" cx="24" cy="24" r="24"/><path d="M14 16.672a2.4 2.4 0 0 1 .176-.918c.117-.287.293-.547.527-.781.248-.235.511-.414.791-.537.28-.124.59-.186.928-.186.338 0 .648.062.928.186.28.123.543.302.79.537.235.234.41.494.528.78a2.4 2.4 0 0 1 .176.919c0 .338-.059.65-.176.937a2.368 2.368 0 0 1-.527.782c-.248.234-.511.41-.791.527a2.38 2.38 0 0 1-.928.176 2.38 2.38 0 0 1-.928-.176 2.626 2.626 0 0 1-.79-.527 2.368 2.368 0 0 1-.528-.782 2.453 2.453 0 0 1-.176-.937zm.137 16.973V21.047c0-.065.013-.127.039-.186a.854.854 0 0 1 .097-.166.554.554 0 0 1 .166-.117.501.501 0 0 1 .206-.039h3.554c.078 0 .147.013.205.04a.554.554 0 0 1 .166.116c.04.052.072.108.098.166.026.059.039.12.039.186v12.598a.452.452 0 0 1-.039.185.854.854 0 0 1-.098.166.427.427 0 0 1-.166.108.65.65 0 0 1-.205.029h-3.554a.65.65 0 0 1-.206-.03.427.427 0 0 1-.166-.107.854.854 0 0 1-.097-.166.452.452 0 0 1-.04-.185zm6.523 0V21.047c0-.065.013-.127.04-.186a.554.554 0 0 1 .116-.166.554.554 0 0 1 .166-.117.452.452 0 0 1 .186-.039h3.457c.065 0 .124.007.176.02a.434.434 0 0 1 .137.058c.039.026.071.059.097.098.026.039.046.091.059.156.013.065.023.12.029.166.007.046.01.081.01.108v.312c.456-.417.98-.73 1.572-.937.593-.209 1.26-.313 2.002-.313.82 0 1.556.104 2.207.313.651.208 1.211.514 1.68.918.469.416.82.934 1.054 1.552.235.619.352 1.332.352 2.139v8.496a.501.501 0 0 1-.04.205.554.554 0 0 1-.116.166.427.427 0 0 1-.166.108.583.583 0 0 1-.186.029H29.84a.583.583 0 0 1-.186-.03.427.427 0 0 1-.166-.107.554.554 0 0 1-.117-.166.501.501 0 0 1-.039-.205v-7.656c0-.352-.033-.651-.098-.899a1.738 1.738 0 0 0-.293-.625 1.176 1.176 0 0 0-.537-.351 2.648 2.648 0 0 0-.85-.117c-.416 0-.774.061-1.074.185-.299.124-.533.31-.703.557a2.471 2.471 0 0 0-.4.898 5.105 5.105 0 0 0-.127 1.192v6.836a.452.452 0 0 1-.04.185.554.554 0 0 1-.116.166.296.296 0 0 1-.157.108.677.677 0 0 1-.195.029h-3.574a.583.583 0 0 1-.186-.03.427.427 0 0 1-.166-.107.554.554 0 0 1-.117-.166.452.452 0 0 1-.039-.185z" fill="#F5F6F7"/></g></g></g></svg>