<svg width="258" height="65" viewBox="0 0 258 65" xmlns="http://www.w3.org/2000/svg"><title>logo-secured-card-white</title><g fill="#FFF" fill-rule="evenodd"><path d="M14.735 19.39c-1.124 0-1.124 1.037-1.124 1.42v5.347c0 .382 0 1.327 1.092 1.327 1.01 0 1.142-.742 1.142-1.346V20.85c0-.506 0-1.46-1.11-1.46M41.201 38.175c-1 0-1 .908-1 1.474v6.08c0 .299 0 1.23.96 1.23.975 0 .975-.811.975-1.25v-6.088c0-.677-.092-1.446-.935-1.446"/><path d="M53.826 34.372a1.223 1.223 0 0 1-.498.507 1.266 1.266 0 0 1-.66.175c-.233 0-.46-.05-.685-.175a1.251 1.251 0 0 1-.484-.507 1.399 1.399 0 0 1-.18-.668c0-.225.065-.451.18-.672.12-.216.282-.373.503-.488.216-.116.438-.176.667-.176.217 0 .443.06.655.176.207.115.387.272.502.488a1.345 1.345 0 0 1 0 1.34zm-2.47 4.149h-1.735v6.82c0 .779.129 1.323 1.253 1.323.188 0 .294-.032.483-.032v1.985c-.19.04-.525.147-1.46.147-2.625 0-3.021-.986-3.021-2.501V38.52H45.36v-1.843h1.496v-4.32h2.778v4.32h1.722v1.843zm-6.47 7.01c0 2.15-1.35 3.349-3.82 3.349-3.646 0-3.646-2.732-3.646-3.621v-5.361c0-1.441.493-3.455 3.78-3.455.844 0 1.83.189 2.526.654 1.009.7 1.16 1.737 1.16 2.686v5.748zm-8.538 3.109h-2.811l.028-1.17c-.442.636-.981 1.41-2.307 1.41-1.133 0-1.991-.6-2.336-1.272-.308-.576-.36-1.372-.36-2.542v-5.467c0-.834.098-1.304.329-1.77.515-1.054 1.61-1.404 2.27-1.404 1.092 0 1.838.7 2.422 1.22v-5.518h2.765V48.64zM26.25 25.87v-5.042c0-1.501.516-2.335 1.28-2.874.705-.493 1.677-.705 2.525-.705 1.09 0 2.178.36 2.893 1.055.672.704.814 1.686.814 2.38v3.414H29v1.953c0 .525 0 1.474 1.027 1.474.327 0 .585-.13.746-.341.212-.277.24-.428.24-1.658h2.713v.963c0 2.588-1.92 3.219-3.65 3.219-2.725 0-3.826-1.42-3.826-3.837zm-.603-5.825c-.216-.056-.502-.175-.95-.175-1.79 0-1.79 1.64-1.79 2.57v7.029h-2.755V17.516h2.778l-.023 1.507c.469-.84 1.1-1.774 2.74-1.728v2.75zm-6.992 9.847c0 1.216 0 3.832-4.03 3.832-3.661 0-3.68-2.16-3.694-3.265h2.746c0 .16 0 .455.115.74.147.282.424.512.963.512.97 0 1.123-.691 1.123-1.414V28.44c-.391.442-1.027 1.17-2.432 1.17-2.285 0-2.59-1.612-2.59-2.985v-6.332c0-.447 0-3.017 2.52-3.017 1.217 0 1.917.659 2.502 1.179v-.94h2.777v12.376zm16.259-9.064c0-1.501.52-2.335 1.289-2.874.696-.493 1.677-.705 2.515-.705 1.1 0 2.174.36 2.888 1.055.682.704.829 1.686.829 2.38v3.414h-4.766v1.953c0 .525 0 1.474 1.026 1.474.327 0 .585-.13.746-.341.212-.277.236-.428.236-1.658h2.708v.963c0 2.588-1.916 3.219-3.64 3.219-2.731 0-3.831-1.42-3.831-3.837v-5.043zm8.802-3.312h2.828l-.047.885c.558-.54 1.17-1.124 2.41-1.124.85 0 1.515.332 1.92.797.548.63.548 1.33.548 2.054v9.34h-2.726v-8.783c0-.654-.052-1.451-.982-1.451-1.17 0-1.17 1.078-1.17 1.617v8.618h-2.781V17.516zM32.116 0C14.409 0 0 14.407 0 32.12c0 17.71 14.408 32.123 32.117 32.123 17.709 0 32.12-14.412 32.12-32.122C64.238 14.407 49.827 0 32.118 0z"/><path d="M39.677 20.652c0-.309 0-1.183-.96-1.183-.722 0-1.021.455-1.021 1.183v1.48h1.98v-1.48zM32.4 38.576c-1.088 0-1.088.935-1.088 1.515v5.084c0 .6 0 1.364 1.087 1.364 1.165 0 1.165-1.064 1.165-1.442v-5.145c0-.368 0-1.376-1.165-1.376M31.012 20.652c0-.309 0-1.183-.958-1.183-.723 0-1.027.455-1.027 1.183v1.48h1.985v-1.48zM53.01 34.45l-.129-.225a1.505 1.505 0 0 0-.244-.336.386.386 0 0 0-.194-.047h-.129v.609h-.234v-1.446h.488c.175 0 .3.018.373.046a.306.306 0 0 1 .18.142c.046.06.063.13.063.203a.421.421 0 0 1-.11.286c-.064.083-.175.12-.295.129.051.023.088.05.116.073.06.06.137.152.221.28l.17.287h-.276zm.207-1.713a1.145 1.145 0 0 0-.548-.152c-.193 0-.373.055-.557.152-.18.088-.328.235-.429.415a1.153 1.153 0 0 0-.147.553c0 .198.051.386.147.566a1.1 1.1 0 0 0 .424.41 1.098 1.098 0 0 0 1.12 0 1.31 1.31 0 0 0 .418-.41c.097-.18.138-.368.138-.566 0-.184-.04-.382-.138-.553a1.118 1.118 0 0 0-.428-.415zM75.28 42.055c0-7.182 3.87-12.341 10.191-12.341 4.214 0 6.58 2.58 7.998 5.504l-3.655 1.505c-.86-1.936-2.408-3.096-4.343-3.096-3.526 0-5.633 3.569-5.633 8.428 0 4.815 2.107 8.428 5.633 8.428 1.978 0 3.57-1.247 4.343-3.183l3.655 1.463c-1.419 2.967-3.74 5.633-7.998 5.633-6.32 0-10.19-5.203-10.19-12.341M106.859 37.711c0-2.106-1.161-3.61-3.311-3.61h-3.741v7.222h3.74c2.194 0 3.312-1.548 3.312-3.612zm-.13 16.168l-4.084-8.686h-2.838v8.686h-4.428V30.23h8.685c4.73 0 7.31 3.267 7.31 7.438 0 4-2.15 6.278-4.558 6.837l4.859 9.374h-4.945zM114.216 53.88V30.23h13.846v3.87h-9.417v5.761h9.202v3.871h-9.202v6.277h9.417v3.87zM144.66 42.098c0-4.73-2.02-7.998-6.02-7.998h-3.183v15.909h3.182c3.957 0 6.021-3.31 6.021-7.911zm-13.63 11.78V30.23h7.61c6.793 0 10.535 4.988 10.535 11.868 0 6.837-3.699 11.78-10.493 11.78h-7.653zM151.875 53.879h4.429v-23.65h-4.429zM163.402 53.88V34.1h-5.33v-3.87h15.05v3.87h-5.29v19.78zM181.376 42.055c0-7.182 3.87-12.341 10.19-12.341 4.215 0 6.58 2.58 7.998 5.504l-3.654 1.505c-.86-1.936-2.408-3.096-4.343-3.096-3.526 0-5.633 3.569-5.633 8.428 0 4.815 2.107 8.428 5.633 8.428 1.978 0 3.569-1.247 4.343-3.183l3.654 1.463c-1.418 2.967-3.74 5.633-7.997 5.633-6.321 0-10.191-5.203-10.191-12.341M209.554 35.046L206.5 45.408h6.02l-2.967-10.362zm2.58-4.816l7.397 23.65h-4.774l-1.29-4.602h-7.87l-1.288 4.601h-4.817l7.439-23.649h5.203zM232.455 37.711c0-2.106-1.161-3.61-3.311-3.61h-3.741v7.222h3.741c2.193 0 3.311-1.548 3.311-3.612zm-.129 16.168l-4.085-8.686h-2.838v8.686h-4.428V30.23h8.685c4.731 0 7.31 3.267 7.31 7.438 0 4-2.15 6.278-4.558 6.837l4.859 9.374h-4.945zM253.443 42.098c0-4.73-2.02-7.998-6.02-7.998h-3.182v15.909h3.181c3.957 0 6.021-3.31 6.021-7.911zm-13.63 11.78V30.23h7.61c6.793 0 10.535 4.988 10.535 11.868 0 6.837-3.699 11.78-10.493 11.78h-7.653zM76.47 20.7l.94-1.582c.622.7 1.662 1.221 2.762 1.221 1.14 0 1.74-.6 1.74-1.42 0-2.16-5.081-1.5-5.081-5.182 0-1.74 1.44-3.1 3.62-3.1 1.42 0 2.52.44 3.402 1.24l-.901 1.52c-.66-.66-1.58-.98-2.44-.98-.9 0-1.561.52-1.561 1.28 0 1.9 5.082 1.4 5.082 5.161 0 1.901-1.36 3.261-3.821 3.261-1.6 0-2.861-.54-3.741-1.42M85.749 21.88V10.876h6.44v1.8h-4.38v2.681h4.282v1.8H87.81v2.921h4.38v1.8zM93.574 16.378c0-3.34 1.8-5.74 4.74-5.74 1.962 0 3.062 1.2 3.722 2.56l-1.7.7c-.401-.9-1.12-1.44-2.021-1.44-1.64 0-2.62 1.66-2.62 3.92 0 2.24.98 3.921 2.62 3.921.92 0 1.66-.58 2.02-1.48l1.7.68c-.66 1.38-1.74 2.62-3.72 2.62-2.94 0-4.741-2.42-4.741-5.74M103.506 17.738v-6.86h2.08v7.12c0 1.461.68 2.301 2 2.301 1.301 0 2.001-.84 2.001-2.3v-7.122h2.08v6.861c0 2.841-1.44 4.381-4.08 4.381-2.642 0-4.08-1.56-4.08-4.38M119.33 14.358c0-.98-.54-1.681-1.54-1.681h-1.742v3.362h1.742c1.018 0 1.54-.721 1.54-1.681zm-.061 7.52l-1.9-4.04h-1.32v4.04h-2.06v-11h4.04c2.2 0 3.401 1.52 3.401 3.46 0 1.86-1 2.92-2.122 3.18l2.261 4.36h-2.3zM123.376 21.88V10.876h6.441v1.8h-4.38v2.681h4.28v1.8h-4.28v2.921h4.38v1.8zM138.159 16.399c0-2.201-.94-3.722-2.801-3.722h-1.48v7.403h1.48c1.84 0 2.8-1.541 2.8-3.681zm-6.341 5.48V10.878h3.54c3.16 0 4.902 2.32 4.902 5.52 0 3.182-1.721 5.48-4.881 5.48h-3.561z"/></g></svg>