<svg xmlns="http://www.w3.org/2000/svg" viewBox="0 0 395.2 100.5"><defs><style>.a { fill: #006b35; } .b { fill: #7ac143; } .c { fill: #fff; }</style></defs><title>logo-moneypak-v2</title><path class="a" d="M380.2 99.3H15A13.83 13.83 0 0 1 1.2 85.5V15A13.83 13.83 0 0 1 15 1.2h365.2A13.83 13.83 0 0 1 394 15v70.5a13.83 13.83 0 0 1-13.8 13.8z"/><path class="b" d="M380.2 100.5H15a15 15 0 0 1-15-15V15A15 15 0 0 1 15 0h365.2a15 15 0 0 1 15 15v70.5a15 15 0 0 1-15 15zM15 2.4A12.61 12.61 0 0 0 2.4 15v70.5A12.61 12.61 0 0 0 15 98.1h365.2a12.61 12.61 0 0 0 12.6-12.6V15a12.61 12.61 0 0 0-12.6-12.6H15z"/><g><path class="c" d="M75.9 75V39L61 75h-3.6L42.5 39v35.9H34V26.6h12l13.1 31.9 13.2-31.9h12V75h-8.4zm16.3-17.6c0-10 6.9-18.4 18-18.4s18.1 8.3 18.1 18.4-6.8 18.4-18.1 18.4c-11.1 0-18-8.3-18-18.4zm28.1 0c0-6.2-3.6-11.6-10.2-11.6S100 51.2 100 57.4s3.6 11.7 10.1 11.7 10.2-5.5 10.2-11.7zM159 75V53c0-5.4-2.8-7.3-7-7.3a11.48 11.48 0 0 0-9 4.7v24.5h-7.6v-35h7.6v4.8a16.36 16.36 0 0 1 12.3-5.7c7.5 0 11.3 4.1 11.3 11.3V75H159zm14.6-17.6c0-10.2 7.4-18.4 17.8-18.4s17.3 8.1 17.3 19.1v1.8h-27.1c.6 5.3 4.6 9.7 11.2 9.7a14.91 14.91 0 0 0 9.9-3.8l3.5 5c-3.5 3.3-8.6 5.1-14.2 5.1-10.6-.1-18.4-7.4-18.4-18.5zm17.8-12.1c-6.5 0-9.5 5-9.9 9.3h19.7a9.31 9.31 0 0 0-9.8-9.3zm22.9 36.6a7.17 7.17 0 0 0 2.9.6c2.4 0 4-.7 5-3l1.7-4-14.3-35.6h8.1l10.2 26.3 10.2-26.3h8.2l-16.9 41.4c-2.4 6-6.6 7.8-12 7.9a21 21 0 0 1-4.3-.5zm37-6.9V26.6h21.3c10.2 0 15.8 7 15.8 15.2S282.7 57 272.6 57h-12.8v18.1h-8.5V75zm28.3-33.3c0-4.6-3.5-7.7-8.3-7.7h-11.6v15.4h11.6c4.8 0 8.3-3 8.3-7.7zm36 33.3v-3.8c-2.6 3-6.7 4.6-11.3 4.6-5.7 0-12.2-3.8-12.2-11.6 0-8.1 6.5-11.4 12.2-11.4 4.7 0 8.8 1.5 11.3 4.5v-5.2c0-4.1-3.3-6.5-8.2-6.5A14.8 14.8 0 0 0 297 50l-3.1-5.3a21 21 0 0 1 14.7-5.7c7.8 0 14.6 3.3 14.6 12.7v23.2l-7.6.1zm0-8v-5.3c-1.7-2.4-5-3.6-8.3-3.6-4.3 0-7.5 2.5-7.5 6.3s3.2 6.2 7.5 6.2c3.3 0 6.6-1.2 8.3-3.6zm39.9 8l-10.7-14.5-4.9 5v9.4h-7.6V26.6h7.6v30.3L355.4 40h9.4l-14.6 15.9 14.9 19.2h-9.6V75zM367.6 31a3 3 0 1 1 3-3 3 3 0 0 1-3 3zm0-5.5a2.5 2.5 0 1 0 2.5 2.5 2.48 2.48 0 0 0-2.5-2.5zm.8 4.3l-.9-1.4h-.6v1.4h-.5v-3.4h1.4a1 1 0 0 1 1.1 1 1 1 0 0 1-.9 1l.9 1.4h-.5zm-.6-3h-.9V28h.9a.58.58 0 0 0 .6-.6.53.53 0 0 0-.6-.6z"/></g></svg>