<svg id="Layer_1" xmlns="http://www.w3.org/2000/svg" viewBox="0 0 100 33"><style>.st0{fill:#FFFFFF;}</style><path class="st0" d="M38.21 1.56L25.38 32.17h-8.374l-6.31-24.43c-.386-1.504-.72-2.055-1.885-2.688C6.91 4.018 3.767 3.05 1 2.45l.188-.89h13.475c1.717 0 3.26 1.14 3.65 3.12l3.336 17.715L29.89 1.56h8.32zm32.8 20.616c.03-8.08-11.175-8.524-11.096-12.133.02-1.1 1.07-2.266 3.356-2.565 1.138-.148 4.26-.263 7.81 1.37l1.39-6.49C70.564 1.664 68.11 1 65.062 1 57.236 1 51.727 5.16 51.68 11.12c-.05 4.405 3.933 6.863 6.935 8.33 3.084 1.5 4.118 2.462 4.108 3.803-.022 2.054-2.462 2.96-4.738 2.995-3.982.065-6.293-1.073-8.136-1.932l-1.436 6.707c1.85.85 5.263 1.59 8.81 1.626 8.314 0 13.757-4.112 13.785-10.474m20.666 9.994H99L92.61 1.56h-6.763c-1.517 0-2.8.884-3.37 2.245L70.597 32.17h8.312l1.652-4.57h10.16l.954 4.57zm-8.834-10.845L87.01 9.83l2.397 11.495h-6.565zM49.522 1.56l-6.546 30.61h-7.92l6.55-30.61h7.917z"/></svg>