<svg xmlns="http://www.w3.org/2000/svg" viewBox="0 0 305.97 111.47"><defs><style>.a { fill: #006b35; } .b { fill: #7ac143; } .c { fill: #fff; }</style></defs><title>logo-moneypak-poweredby-white-v2</title><path class="a" d="M294.33 76.87H11.64a10.7 10.7 0 0 1-10.7-10.7V11.64A10.7 10.7 0 0 1 11.64.94h282.69A10.7 10.7 0 0 1 305 11.64v54.53a10.7 10.7 0 0 1-10.67 10.7z"/><path class="b" d="M294.33 77.81H11.64A11.65 11.65 0 0 1 0 66.17V11.64A11.65 11.65 0 0 1 11.64 0h282.69A11.65 11.65 0 0 1 306 11.64v54.53a11.65 11.65 0 0 1-11.67 11.64zM11.64 1.88a9.77 9.77 0 0 0-9.76 9.76v54.53a9.77 9.77 0 0 0 9.76 9.76h282.69a9.78 9.78 0 0 0 9.76-9.76V11.64a9.78 9.78 0 0 0-9.76-9.76H11.64z"/><path class="c" d="M58.74 58V30.24L47.23 58h-2.81L33 30.24V58h-6.62V20.57h9.27l10.17 24.67L56 20.57h9.27V58h-6.53zm12.64-13.6c0-7.75 5.34-14.21 13.93-14.21s14 6.46 14 14.21-5.31 14.32-14 14.32-13.93-6.46-13.93-14.27zm21.8 0c0-4.78-2.81-9-7.86-9s-7.81 4.21-7.81 9 2.81 9 7.81 9 7.86-4.12 7.86-8.95zM123.1 58V41c0-4.21-2.13-5.62-5.45-5.62a8.93 8.93 0 0 0-7 3.65V58h-5.9V30.91h5.9v3.71a12.84 12.84 0 0 1 9.55-4.38c5.84 0 8.76 3.15 8.76 8.71V58h-5.9zm11.28-13.6c0-7.87 5.73-14.21 13.76-14.21s13.38 6.28 13.38 14.81v1.4h-21c.45 4.1 3.54 7.47 8.65 7.47a11.48 11.48 0 0 0 7.7-3l2.7 3.88a15.82 15.82 0 0 1-11 3.93c-8.12.04-14.19-5.68-14.19-14.23zm13.76-9.38c-5.06 0-7.36 3.88-7.64 7.19h15.28a7.26 7.26 0 0 0-7.63-7.14zm17.78 28.32a6.17 6.17 0 0 0 2.25.45 3.68 3.68 0 0 0 3.83-2.32l1.35-3.09-11.08-27.47h6.29l7.92 20.34 7.92-20.34h6.35l-13.09 32c-1.85 4.61-5.11 6.07-9.33 6.12a16.67 16.67 0 0 1-3.32-.39zm28.6-5.34V20.57H211c7.87 0 12.25 5.39 12.25 11.74S218.79 44.06 211 44.06h-9.89V58h-6.57zm22-25.73c0-3.6-2.7-6-6.4-6h-9v12h9c3.67 0 6.36-2.36 6.36-5.96zM244.34 58v-2.87a11.46 11.46 0 0 1-8.76 3.6c-4.44 0-9.44-3-9.44-9 0-6.24 5-8.82 9.44-8.82 3.65 0 6.8 1.18 8.76 3.48v-4c0-3.15-2.59-5.06-6.35-5.06a11.11 11.11 0 0 0-8 3.43l-2.42-4.1A16.13 16.13 0 0 1 239 30.24c6 0 11.29 2.53 11.29 9.83V58h-5.9zm0-6.18v-4.1a8 8 0 0 0-6.46-2.72c-3.32 0-5.79 1.91-5.79 4.89s2.47 4.83 5.79 4.83a7.94 7.94 0 0 0 6.46-2.85zM275.22 58l-8.32-11.13-3.76 3.88V58h-5.9V20.57h5.9V44l12-13.09h7.3l-11.29 12.3L282.63 58h-7.42zM284.56 24a2.32 2.32 0 1 1 2.32-2.32 2.32 2.32 0 0 1-2.32 2.32zm0-4.29a2 2 0 1 0 2 2 2 2 0 0 0-2-1.95zm.63 3.3l-.69-1h-.46v1h-.37v-2.6h1.08a.83.83 0 0 1 .86.81.78.78 0 0 1-.68.79l.71 1.06h-.44zm-.44-2.33h-.71v.94h.71a.47.47 0 1 0 .01-.89z"/><g><path class="c" d="M118 98.63v3.53h-1V93h1v1a2.77 2.77 0 0 1 2.24-1.15c1.74 0 3 1.32 3 3.47s-1.21 3.49-3 3.49a2.72 2.72 0 0 1-2.24-1.18zm4.11-2.32c0-1.47-.8-2.56-2.13-2.56a2.45 2.45 0 0 0-2 1.06v3a2.47 2.47 0 0 0 2 1.07c1.33 0 2.13-1.1 2.13-2.57zM124.44 96.31a3.29 3.29 0 1 1 3.28 3.49 3.25 3.25 0 0 1-3.28-3.49zm5.48 0a2.23 2.23 0 1 0-2.2 2.57 2.31 2.31 0 0 0 2.2-2.57zM138.42 99.64l-1.73-5.33-1.69 5.33h-1L131.81 93h1.07l1.62 5.29 1.75-5.29h.88l1.74 5.29 1.62-5.29h1.07l-2.12 6.63h-1zM142.37 96.31a3.32 3.32 0 0 1 3.27-3.47c2 0 3.19 1.57 3.19 3.56v.26h-5.37a2.34 2.34 0 0 0 2.39 2.34 2.9 2.9 0 0 0 2-.84l.49.67a3.6 3.6 0 0 1-2.64 1 3.29 3.29 0 0 1-3.33-3.52zm3.25-2.62a2.21 2.21 0 0 0-2.17 2.21h4.35a2.15 2.15 0 0 0-2.18-2.21zM150.48 99.64V93h1v1.07a2.82 2.82 0 0 1 2.21-1.21v1.06a1.84 1.84 0 0 0-.41 0 2.43 2.43 0 0 0-1.8 1.06v4.7h-1zM154.63 96.31a3.32 3.32 0 0 1 3.27-3.47c2 0 3.19 1.57 3.19 3.56v.26h-5.37A2.34 2.34 0 0 0 158.1 99a2.9 2.9 0 0 0 2-.84l.49.67a3.6 3.6 0 0 1-2.64 1 3.29 3.29 0 0 1-3.32-3.52zm3.26-2.62a2.21 2.21 0 0 0-2.17 2.21h4.35a2.15 2.15 0 0 0-2.19-2.21zM167.55 99.64v-1a2.79 2.79 0 0 1-2.24 1.15c-1.73 0-3-1.32-3-3.47s1.21-3.49 3-3.49a2.77 2.77 0 0 1 2.24 1.17v-3.52h1v9.16h-1zm0-1.8v-3a2.49 2.49 0 0 0-2-1.07c-1.33 0-2.13 1.1-2.13 2.57s.8 2.56 2.13 2.56a2.47 2.47 0 0 0 2-1.06zM174.17 99.64v-9.16h1V94a2.75 2.75 0 0 1 2.24-1.17c1.73 0 3 1.37 3 3.49s-1.22 3.47-3 3.47a2.79 2.79 0 0 1-2.24-1.15v1h-1zm3-.76c1.35 0 2.14-1.08 2.14-2.56s-.8-2.57-2.14-2.57a2.47 2.47 0 0 0-2 1.07v3a2.44 2.44 0 0 0 2.01 1.06zM181.86 101.3a1.59 1.59 0 0 0 .56.11 1 1 0 0 0 1-.7l.44-1-2.79-6.71h1.11l2.21 5.44 2.2-5.44h1.13l-3.32 8a2 2 0 0 1-1.95 1.35 3.34 3.34 0 0 1-.76-.1z"/><g><path class="c" d="M197.48 95a1.5 1.5 0 0 1 1.44-1.82c1.42 0 1.42 1.22 1.42 1.87v6.76c0 .77-.17 1.72-1.46 1.72a1.4 1.4 0 0 1-1.39-1.7V95m2.9-3a4.55 4.55 0 0 0-3.2-1.51c-3.23 0-3.23 3.29-3.23 3.86v8.1c0 1.76.38 3.82 3.31 3.82a3.8 3.8 0 0 0 3.11-1.5v2.37c0 .93-.19 1.82-1.44 1.82a1.26 1.26 0 0 1-1.23-.65 2.55 2.55 0 0 1-.15-1H194c0 1.41 0 4.18 4.73 4.18 5.15 0 5.15-3.35 5.15-4.89V90.74h-3.55V92zM205.83 90.74h3.55v1.93a3.53 3.53 0 0 1 3.5-2.21V94a3.83 3.83 0 0 0-1.21-.23c-2.29 0-2.29 2.1-2.29 3.29v9h-3.52V90.74M217.19 94.77a1.29 1.29 0 1 1 2.53 0v1.89h-2.53v-1.89m0 4.39h6.09V94.8a4.39 4.39 0 0 0-1-3 5.37 5.37 0 0 0-3.7-1.35 5.86 5.86 0 0 0-3.23.9 4 4 0 0 0-1.72 3.65v6.46c0 3.09 1.4 4.9 4.89 4.9 2.21 0 4.66-.8 4.66-4.12V101h-3.47c0 1.58 0 1.76-.3 2.11a1.15 1.15 0 0 1-.95.44c-1.32 0-1.32-1.22-1.32-1.88v-2.5zM228.26 94.77a1.29 1.29 0 1 1 2.53 0v1.89h-2.53v-1.89m0 4.39h6.1V94.8a4.38 4.38 0 0 0-1.05-3 5.35 5.35 0 0 0-3.7-1.35 5.84 5.84 0 0 0-3.21.9 4.05 4.05 0 0 0-1.69 3.65v6.46c0 3.09 1.4 4.9 4.9 4.9 2.2 0 4.66-.8 4.66-4.12V101h-3.47c0 1.58 0 1.76-.3 2.11a1.14 1.14 0 0 1-1 .44c-1.31 0-1.31-1.22-1.31-1.88v-2.5zM236 90.74h3.61l-.05 1.13a4 4 0 0 1 3.07-1.43 3.19 3.19 0 0 1 2.45 1 3.61 3.61 0 0 1 .71 2.63V106h-3.5V94.8c0-.84-.05-1.86-1.24-1.86-1.5 0-1.5 1.39-1.5 2.07v11H236V90.74M258.66 95c0-.74 0-1.94 1.38-1.94a1.47 1.47 0 0 1 1.49 1.76v6.57a1.53 1.53 0 0 1-1.49 1.85c-1.38 0-1.38-1-1.38-1.74V95m2.9-3.13a4.68 4.68 0 0 0-3.1-1.56 3.31 3.31 0 0 0-2.9 1.8 4.62 4.62 0 0 0-.42 2.26v7a7.15 7.15 0 0 0 .45 3.25 3.34 3.34 0 0 0 3 1.62 3.31 3.31 0 0 0 3-1.8v1.5h3.58v-21.1h-3.52v7.05zM270.38 94.46c0-.72 0-1.89 1.27-1.89 1.08 0 1.2 1 1.2 1.85v7.77c0 .57 0 1.61-1.26 1.61a1.31 1.31 0 0 1-1.22-1.58v-7.76m-3.56 7.18c0 1.14 0 4.62 4.66 4.62 3.16 0 4.89-1.53 4.89-4.28v-7.34a3.81 3.81 0 0 0-1.49-3.44 6.12 6.12 0 0 0-3.23-.84c-4.21 0-4.83 2.58-4.83 4.43v6.85zM278.88 85.14h3.55v5.52h2.2V93h-2.23v8.72c0 1 .17 1.68 1.61 1.68h.62v2.54a6.83 6.83 0 0 1-1.87.19c-3.35 0-3.85-1.26-3.85-3.2V93H277v-2.34h1.91v-5.52M285.27 85a1.77 1.77 0 0 1 .84.22 1.54 1.54 0 0 1 .64.63 1.72 1.72 0 0 1 .23.86 1.65 1.65 0 0 1-.23.86 1.59 1.59 0 0 1-.63.64 1.67 1.67 0 0 1-.85.22 1.73 1.73 0 0 1-.86-.22 1.6 1.6 0 0 1-.63-.64 1.71 1.71 0 0 1 0-1.71 1.47 1.47 0 0 1 .64-.63 1.8 1.8 0 0 1 .85-.22m0 .28a1.43 1.43 0 0 0-.71.19 1.33 1.33 0 0 0-.56.52 1.47 1.47 0 0 0 0 1.43 1.36 1.36 0 0 0 .54.53 1.49 1.49 0 0 0 .72.19A1.51 1.51 0 0 0 286 88a1.47 1.47 0 0 0 .53-.53 1.5 1.5 0 0 0 .19-.72 1.51 1.51 0 0 0-.19-.71 1.48 1.48 0 0 0-1.26-.72zm-.75 2.39v-1.82h.63a1.52 1.52 0 0 1 .48.06.41.41 0 0 1 .23.18.45.45 0 0 1 .09.27.51.51 0 0 1-.15.36.53.53 0 0 1-.38.17.61.61 0 0 1 .15.1 2.22 2.22 0 0 1 .28.36l.22.36h-.37l-.17-.29a1.42 1.42 0 0 0-.32-.43.4.4 0 0 0-.24-.06h-.17v.76h-.3zm.3-1h.36a.61.61 0 0 0 .36-.07.24.24 0 0 0 .09-.2.2.2 0 0 0 0-.14.2.2 0 0 0-.13-.1.8.8 0 0 0-.3 0h-.34v.56z"/></g></g></svg>