<svg id="Layer_1" xmlns="http://www.w3.org/2000/svg" viewBox="-408 326 261.3 70"><style>.st0{fill:#5CBA48;} .st1{fill:#FFFFFF;} .st2{fill:#818285;}</style><g id="XMLID_14_"><g id="XMLID_39_"><path class="st0" d="M-374.9 328.8c-17.7 0-32.1 14.4-32.1 32.1 0 17.7 14.4 32.1 32.1 32.1 17.7 0 32.1-14.4 32.1-32.1 0-17.8-14.4-32.1-32.1-32.1"/><path class="st1" d="M-374.9 393.8c-18.2 0-33-14.8-33-32.9s14.8-33 33-33c18.1 0 32.9 14.8 32.9 33s-14.8 32.9-32.9 32.9zm0-64.2c-17.2 0-31.3 14-31.3 31.3 0 17.2 14 31.3 31.3 31.3s31.3-14 31.3-31.3c-.1-17.3-14.1-31.3-31.3-31.3z"/></g><path id="XMLID_36_" class="st1" d="M-393.4 349.5c0-.4 0-1.4 1.1-1.4s1.1 1 1.1 1.5v5.3c0 .6-.1 1.3-1.1 1.3-1.1 0-1.1-.9-1.1-1.3v-5.4m2.3-2.3c-.6-.5-1.3-1.2-2.5-1.2-2.5 0-2.5 2.6-2.5 3v6.3c0 1.4.3 3 2.6 3 1.4 0 2-.7 2.4-1.2v1.9c0 .7-.2 1.4-1.1 1.4-.5 0-.8-.2-1-.5-.1-.3-.1-.6-.1-.7h-2.8c0 1.1 0 3.3 3.7 3.3 4 0 4-2.6 4-3.8v-12.4h-2.7v.9z"/><path id="XMLID_35_" class="st1" d="M-386.9 346.3h2.8v1.5c.5-.8 1.1-1.8 2.7-1.7v2.7c-.2-.1-.5-.2-.9-.2-1.8 0-1.8 1.6-1.8 2.6v7h-2.8v-11.9"/><path id="XMLID_32_" class="st1" d="M-378 349.4c0-.7.3-1.2 1-1.2 1 0 1 .9 1 1.2v1.5h-2v-1.5m0 3.4h4.8v-3.4c0-.7-.1-1.7-.8-2.4s-1.8-1.1-2.9-1.1c-.8 0-1.8.2-2.5.7-.8.5-1.3 1.4-1.3 2.9v5c0 2.4 1.1 3.8 3.8 3.8 1.7 0 3.6-.6 3.6-3.2v-1h-2.7c0 1.2 0 1.4-.2 1.7-.2.2-.4.3-.7.3-1 0-1-.9-1-1.5l-.1-1.8z"/><path id="XMLID_29_" class="st1" d="M-369.3 349.4c0-.7.3-1.2 1-1.2 1 0 1 .9 1 1.2v1.5h-2v-1.5m-.1 3.4h4.8v-3.4c0-.7-.1-1.7-.8-2.4-.7-.7-1.8-1.1-2.9-1.1-.8 0-1.8.2-2.5.7-.8.5-1.3 1.4-1.3 2.9v5c0 2.4 1.1 3.8 3.8 3.8 1.7 0 3.6-.6 3.6-3.2v-1h-2.7c0 1.2 0 1.4-.2 1.7-.2.2-.4.3-.7.3-1 0-1-.9-1-1.5l-.1-1.8z"/><path id="XMLID_28_" class="st1" d="M-363.3 346.3h2.8v.9c.6-.5 1.2-1.1 2.4-1.1.9 0 1.5.3 1.9.8.5.6.5 1.3.5 2.1v9.3h-2.7v-8.8c0-.7-.1-1.4-1-1.4-1.2 0-1.2 1.1-1.2 1.6v8.6h-2.8v-12"/><g id="XMLID_20_"><path id="XMLID_25_" class="st1" d="M-375.7 368.8c0-.6 0-1.5 1.1-1.5 1.2 0 1.2 1 1.2 1.4v5.1c0 .4 0 1.4-1.2 1.4-1.1 0-1.1-.8-1.1-1.4v-5m2.3-2.4c-.6-.5-1.3-1.2-2.4-1.2-.7 0-1.8.3-2.3 1.4-.2.5-.3.9-.3 1.8v5.5c0 1.2.1 2 .4 2.5.3.7 1.2 1.3 2.3 1.3 1.3 0 1.9-.8 2.3-1.4v1.2h2.8V361h-2.8v5.4z"/><path id="XMLID_22_" class="st1" d="M-366.8 368.4c0-.6 0-1.5 1-1.5.8 0 .9.8.9 1.4v6.1c0 .4 0 1.2-1 1.2s-1-.9-1-1.2v-6m-2.7 5.6c0 .9 0 3.6 3.6 3.6 2.5 0 3.8-1.2 3.8-3.3v-5.7c0-.9-.2-2-1.2-2.7-.7-.5-1.7-.7-2.5-.7-3.3 0-3.8 2-3.8 3.4v5.4h.1z"/><path id="XMLID_21_" class="st1" d="M-360.2 361.1h2.8v4.3h1.7v1.8h-1.7v6.8c0 .8.1 1.3 1.3 1.3h.5v2c-.2 0-.5.1-1.5.1-2.6 0-3-1-3-2.5v-7.7h-1.5v-1.8h1.5l-.1-4.3"/></g><path id="XMLID_15_" class="st1" d="M-354.4 361.1c.2 0 .4.1.7.2.2.1.4.3.5.5.1.2.2.4.2.7 0 .2-.1.4-.2.7-.1.2-.3.4-.5.5-.2.1-.4.2-.7.2-.2 0-.5-.1-.7-.2-.2-.1-.4-.3-.5-.5-.1-.2-.2-.4-.2-.7 0-.2.1-.5.2-.7.1-.2.3-.4.5-.5.3-.2.5-.2.7-.2m0 .2c-.2 0-.4.1-.6.2s-.3.2-.4.4c-.1.2-.1.4-.1.6s.1.4.1.6c.1.2.2.3.4.4s.4.2.6.2c.2 0 .4-.1.6-.2.2-.1.3-.2.4-.4.1-.2.1-.4.1-.6s0-.4-.1-.6c-.1-.2-.3-.3-.4-.4-.2-.1-.4-.2-.6-.2m-.6 1.9v-1.5h.9s.1.1.2.1c0 .1.1.1.1.2s0 .2-.1.3c-.1.1-.2.1-.3.1.1 0 .1.1.1.1.1.1.1.2.2.3l.2.3h-.3l-.1-.2c-.1-.2-.2-.3-.2-.3H-354.6v.6h-.4zm.3-.8h.3c.1 0 .2 0 .3-.1.1 0 .1-.1.1-.2v-.1s0-.1-.1-.1h-.5l-.1.5z"/></g><path id="XMLID_6_" class="st2" d="M-153.6 344.6l-9.8 26.9h-.1l-10.2-26.9h-7.6l2.9 7c-.4-.7-.9-1.4-1.4-2.1-1.4-1.7-3.1-3.1-5.2-4.2s-4.7-1.6-7.7-1.6c-2.6 0-4.9.5-7.1 1.4s-4.1 2.2-5.6 3.8c-1.6 1.6-2.8 3.5-3.7 5.7-.6 1.5-1 3.2-1.2 4.9v-2.7c0-2.3-.3-4.3-1-5.9-.7-1.7-1.6-3-2.7-4.1-1.1-1.1-2.5-1.9-4-2.4s-3.1-.8-4.8-.8c-2.7 0-5 .6-7 1.7s-3.5 2.6-4.3 4.5h-.1v-5.3h-6.5V359c-.2-1.5-.6-3-1.2-4.4-.9-2.2-2.2-4.1-3.9-5.7-1.6-1.6-3.6-2.9-5.8-3.9-2.2-.9-4.6-1.4-7.2-1.4s-5 .5-7.2 1.4c-2.2.9-4.2 2.2-5.8 3.9-1.6 1.6-2.9 3.6-3.9 5.7-.6 1.5-1.1 3.1-1.3 4.7v-.5c0-1.9-.2-3.8-.5-5.6-.4-1.8-1-3.4-2-4.9-1-1.4-2.3-2.6-4-3.5-1.7-.9-3.9-1.3-6.5-1.3-2.1 0-4.1.5-6.2 1.6-2 1.1-3.6 2.7-4.7 4.8-1.1-2.1-2.5-3.7-4.3-4.8-1.7-1.1-3.9-1.6-6.5-1.6-1.6 0-3 .2-4.3.7-1.3.5-2.4 1-3.3 1.7-.9.7-1.7 1.3-2.3 2.1-.6.7-1 1.3-1.1 1.8h-.4v-5.4h-6.1v34.4h6.5v-17.9c0-1.9.2-3.6.7-5.1.5-1.4 1.1-2.6 2-3.5.8-.9 1.8-1.6 2.9-2.1s2.2-.7 3.4-.7c1.6 0 2.9.3 3.8.8.9.6 1.7 1.3 2.2 2.3s.8 2.2 1 3.5c.2 1.4.3 2.9.3 4.5v18h6.5v-18.8c0-3.1.7-5.5 2-7.5 1.4-1.9 3.6-2.9 6.8-2.9 1.6 0 2.9.3 3.9.8 1 .6 1.7 1.3 2.3 2.2.5.9.9 2 1.1 3.2.2 1.2.3 2.5.3 3.8v19.2h6.5v-14.9c.2 1.7.6 3.2 1.3 4.7.9 2.2 2.2 4.1 3.9 5.7 1.6 1.6 3.6 2.9 5.8 3.9 2.2.9 4.6 1.4 7.2 1.4s5-.5 7.2-1.4 4.2-2.2 5.8-3.9c1.6-1.6 2.9-3.5 3.9-5.7.6-1.4 1-2.9 1.2-4.4v14.5h6.5v-17.7c0-2 .2-3.7.7-5.2s1.2-2.7 2-3.6c.9-.9 1.9-1.6 3.1-2.1 1.2-.4 2.4-.7 3.8-.7 1 0 2 .2 2.9.5.9.3 1.8.8 2.5 1.5s1.3 1.6 1.7 2.8c.4 1.1.7 2.5.7 4.1v20.3h6.5v-14.8c.2 1.7.5 3.3 1.1 4.8.8 2.2 2 4.1 3.5 5.7s3.4 2.9 5.6 3.8 4.7 1.4 7.4 1.4c6.5 0 11.6-2.3 15.3-7l-4.9-3.8c-1.3 1.6-2.6 2.8-4.1 3.7-1.5.9-3.3 1.4-5.3 1.4-1.5 0-3-.2-4.4-.7s-2.6-1.2-3.7-2c-1.1-.9-1.9-1.9-2.6-3.2-.7-1.2-1-2.6-1-4.1h27.6v-2.3c0-2.2-.3-4.4-.9-6.5l9.8 23.9-2.1 5.4c-.3.9-.7 1.6-1 2.3-.3.7-.8 1.3-1.3 1.8s-1.1.9-1.8 1.2c-.7.3-1.6.4-2.6.4-1.3 0-2.6-.3-3.9-.8l-.8 6c.9.4 1.9.6 2.9.8 1 .1 2 .2 2.9.2 1.8 0 3.3-.2 4.5-.7s2.3-1.2 3.1-2c.9-.9 1.6-1.9 2.2-3.2.6-1.2 1.2-2.6 1.8-4.1l16.3-41.9h-6.9v.5zm-94.9 22c-.5 1.5-1.3 2.7-2.3 3.8-1 1-2.2 1.9-3.6 2.5s-3 .9-4.7.9-3.3-.3-4.7-.9c-1.4-.6-2.6-1.4-3.6-2.5-1-1-1.7-2.3-2.3-3.8-.5-1.5-.8-3.1-.8-4.8 0-1.7.3-3.4.8-4.8.5-1.5 1.3-2.7 2.3-3.8 1-1 2.2-1.9 3.6-2.5 1.4-.6 3-.9 4.7-.9s3.3.3 4.7.9c1.4.6 2.6 1.4 3.6 2.5 1 1 1.7 2.3 2.3 3.8.5 1.5.8 3.1.8 4.8 0 1.7-.3 3.4-.8 4.8zm44.9-7.6c0-1.2.3-2.3.8-3.5s1.2-2.3 2.1-3.2c.9-1 2-1.8 3.4-2.4 1.3-.6 2.8-.9 4.4-.9s3.1.3 4.3.8 2.3 1.2 3.1 2.1 1.4 2 1.9 3.2c.4 1.2.6 2.5.7 4h-20.7v-.1z"/><path class="st1" d="M-354.1 362.1v-.1s0-.1-.1-.1h-.5v.4h.3c.1 0 .2 0 .3-.2 0 .2 0 .1 0 0z"/><path class="st1" d="M-353.8 361.5c-.2-.1-.4-.2-.5-.2-.2 0-.4.1-.6.2-.2.1-.3.2-.4.4-.1.2-.1.4-.1.6s.1.4.1.6c.1.2.2.3.4.4.2.1.4.2.6.2.2 0 .4-.1.6-.2.2-.1.3-.2.4-.4.1-.2.1-.4.1-.6s0-.4-.1-.6c-.2-.2-.4-.4-.5-.4zm-.2 1.7l-.1-.2c-.1-.2-.2-.3-.2-.3H-354.6v.6h-.2v-1.6h.9s.1.1.2.1c0 .1.1.1.1.2s0 .2-.1.3c-.1.1-.2.1-.3.1.1 0 .1.1.1.1.1.1.1.2.2.3l.2.3h-.5v.1z"/></svg>