<svg width="204" height="73" viewBox="0 0 204 73" xmlns="http://www.w3.org/2000/svg"><title>logo-walmart-full-white</title><g fill="none" fill-rule="evenodd"><path d="M49.657 13.807c0 .173-.015.354-.063.51-.198.654-.874 1.206-1.72 1.206-.704 0-1.266-.4-1.266-1.247 0-1.297 1.427-1.654 3.05-1.644v1.175zm2.547-2.257c0-2.137-.915-4.015-3.998-4.015-1.583 0-2.84.445-3.525.84l.503 1.717c.626-.394 1.626-.723 2.57-.723 1.566-.004 1.823.885 1.823 1.455v.135c-3.413-.005-5.567 1.176-5.567 3.58 0 1.47 1.097 2.848 3.006 2.848 1.172 0 2.155-.47 2.742-1.217h.058s.39 1.63 2.536 1.006c-.112-.678-.148-1.403-.148-2.274V11.55zM0 4.626s2.228 9.13 2.584 10.61c.415 1.732 1.162 2.37 3.32 1.94l1.39-5.662c.354-1.407.59-2.41.817-3.84h.04c.16 1.446.386 2.437.676 3.845 0 0 .567 2.57.858 3.92.29 1.348 1.1 2.2 3.212 1.736l3.315-12.55h-2.676L12.4 10.05c-.304 1.582-.578 2.815-.79 4.26h-.04c-.193-1.43-.44-2.616-.748-4.155l-1.178-5.53h-2.79l-1.26 5.39c-.356 1.638-.692 2.96-.904 4.357h-.038c-.218-1.313-.507-2.977-.82-4.562 0 0-.75-3.856-1.013-5.184H0M21.118 13.807c0 .173-.015.354-.065.51-.196.654-.873 1.206-1.718 1.206-.705 0-1.267-.4-1.267-1.247 0-1.297 1.426-1.654 3.05-1.644v1.175zm2.546-2.257c0-2.137-.913-4.015-3.997-4.015-1.584 0-2.84.445-3.526.84l.503 1.717c.627-.394 1.625-.723 2.57-.723 1.565-.004 1.822.885 1.822 1.455v.135c-3.41-.005-5.566 1.176-5.566 3.58 0 1.47 1.097 2.848 3.004 2.848 1.175 0 2.156-.47 2.744-1.217h.057s.39 1.63 2.538 1.006c-.113-.678-.15-1.403-.15-2.274V11.55zM27.6 14.51V4.626h-2.546v12.55H27.6V14.51M60.017 4.626v9.26c0 1.275.24 2.168.755 2.714.45.478 1.188.788 2.073.788.755 0 1.497-.143 1.845-.273l-.032-1.993c-.26.065-.56.115-.97.115-.865 0-1.157-.554-1.157-1.7V9.994h2.22V7.592h-2.22V4.626h-2.513M53.438 7.748v9.428h2.63v-4.83c0-.26.015-.486.056-.695.195-1.01.97-1.656 2.078-1.656.306 0 .522.032.76.068v-2.47c-.198-.038-.334-.057-.58-.057-.98 0-2.098.633-2.565 1.99h-.073V7.748h-2.306M29.077 7.748v9.428h2.56v-5.53c0-.26.03-.534.122-.773.212-.555.73-1.207 1.556-1.207 1.034 0 1.518.875 1.518 2.137v5.373h2.56V11.58c0-.25.033-.546.105-.765.21-.634.768-1.15 1.537-1.15 1.048 0 1.552.86 1.552 2.345v5.166h2.56v-5.553c0-2.93-1.488-4.088-3.166-4.088-.744 0-1.33.187-1.86.51-.447.276-.846.663-1.194 1.174h-.04c-.403-1.015-1.355-1.685-2.598-1.685-1.593 0-2.31.808-2.745 1.494h-.038V7.747h-2.433" fill="#FFF"/><g fill="#FEBA30"><path d="M78.52 7.325c.508 0 .926-.264.982-.603l.502-5.663c0-.56-.656-1.02-1.48-1.02s-1.477.46-1.477 1.02l.5 5.662c.054.34.47.603.978.603h-.004M75.462 9.095c.254-.44.234-.933-.034-1.153L70.776 4.68c-.484-.28-1.21.057-1.62.77-.413.714-.34 1.51.142 1.79l5.152 2.397c.322.122.76-.108 1.014-.546l-.002.005M81.584 9.09c.254.44.69.67 1.012.547L87.75 7.24c.485-.28.554-1.076.145-1.79-.414-.713-1.14-1.05-1.624-.77L81.62 7.942c-.266.22-.285.713-.034 1.153V9.09M78.52 14.395c.508 0 .926.262.982.603l.502 5.66c0 .56-.656 1.02-1.48 1.02s-1.477-.46-1.477-1.02l.5-5.66c.054-.34.47-.603.978-.603h-.004M81.584 12.628c.254-.44.69-.668 1.012-.545l5.154 2.394c.485.282.554 1.08.145 1.793-.414.71-1.14 1.05-1.624.77l-4.652-3.26c-.266-.22-.285-.715-.034-1.153M75.462 12.627c.254.438.234.932-.034 1.152l-4.652 3.26c-.484.28-1.21-.06-1.62-.77-.413-.714-.34-1.51.142-1.793l5.152-2.394c.322-.123.76.105 1.014.545h-.002"/></g><path d="M89.087 16.413h.073c.086 0 .156-.03.156-.098 0-.062-.045-.103-.144-.103-.04 0-.07.004-.085.008v.193zm-.005.377h-.155v-.668c.06-.012.147-.024.258-.024.127 0 .185.02.233.052.038.03.066.083.066.144 0 .078-.057.135-.14.16v.008c.067.02.104.075.124.164.02.103.033.144.05.164h-.17c-.02-.024-.032-.08-.052-.16-.012-.074-.053-.106-.14-.106h-.074v.266zm.103-.885c-.296 0-.517.24-.517.537 0 .3.22.537.525.537.295.003.513-.24.513-.538 0-.296-.218-.537-.517-.537h-.005zm.008-.136c.386 0 .685.298.685.672 0 .38-.3.676-.69.676-.384 0-.692-.295-.692-.676 0-.374.308-.673.693-.673h.003zM27.377 41.45c-.217-4.067-.476-8.96-.434-12.594h-.13c-.995 3.42-2.207 7.098-3.678 11.08l-5.15 14.153h-2.857L10.41 40.195c-1.384-4.11-2.553-7.878-3.375-11.34h-.087c-.086 3.635-.303 8.527-.563 12.898l-.778 12.508H2.014L4.05 25.09H8.85L13.83 39.2c1.21 3.593 2.208 6.795 2.942 9.824h.13c.736-2.94 1.775-6.146 3.073-9.825l5.195-14.11h4.804l1.817 29.172h-3.678l-.735-12.81M38.802 43.832c0 4.586 2.64 8.05 6.363 8.05 3.635 0 6.36-3.42 6.36-8.14 0-3.546-1.773-8.047-6.275-8.047-4.5 0-6.448 4.156-6.448 8.137zm16.62-.216c0 7.745-5.367 11.123-10.43 11.123-5.67 0-10.042-4.157-10.042-10.778 0-7.012 4.588-11.123 10.388-11.123 6.015 0 10.083 4.37 10.083 10.776zM58.106 38.984c0-2.165-.044-3.938-.173-5.67h3.375l.216 3.463h.087c1.04-1.992 3.464-3.938 6.926-3.938 2.9 0 7.4 1.73 7.4 8.914v12.508H72.13V42.186c0-3.375-1.254-6.188-4.847-6.188-2.51 0-4.457 1.775-5.106 3.894-.173.478-.26 1.126-.26 1.774v12.596h-3.808V38.984M93.292 41.754c.044-2.423-.996-6.19-5.28-6.19-3.852 0-5.54 3.548-5.843 6.19H93.29zM82.126 44.48c.086 5.15 3.376 7.27 7.184 7.27 2.727 0 4.372-.473 5.8-1.08l.65 2.727c-1.342.605-3.637 1.342-6.97 1.342-6.448 0-10.3-4.288-10.3-10.606 0-6.32 3.722-11.295 9.825-11.295 6.84 0 8.655 6.014 8.655 9.867 0 .777-.085 1.383-.13 1.773H82.127zM102.684 33.315l4.588 12.377c.476 1.386.995 3.03 1.342 4.285h.086c.39-1.255.823-2.858 1.342-4.372l4.154-12.29h4.027l-5.713 14.93c-2.728 7.185-4.59 10.865-7.186 13.115-1.86 1.644-3.72 2.294-4.674 2.466l-.953-3.202c.953-.302 2.208-.91 3.333-1.86 1.038-.823 2.337-2.295 3.203-4.242.173-.39.303-.694.303-.91 0-.215-.087-.52-.26-.995L98.53 33.315h4.154M141.81 53.31c-1.385.692-4.155 1.43-7.704 1.43-8.224 0-14.412-5.24-14.412-14.803 0-9.133 6.188-15.322 15.234-15.322 3.636 0 5.93.778 6.924 1.298l-.91 3.073c-1.426-.693-3.46-1.21-5.883-1.21-6.84 0-11.385 4.368-11.385 12.03 0 7.142 4.112 11.73 11.21 11.73 2.294 0 4.63-.478 6.145-1.212l.78 2.986M157.433 43.57c-4.154-.086-8.873.652-8.873 4.718 0 2.468 1.646 3.636 3.593 3.636 2.727 0 4.46-1.73 5.065-3.506.128-.39.215-.822.215-1.21V43.57zm3.68 5.67c0 1.818.086 3.593.347 5.022h-3.464l-.304-2.64h-.13c-1.167 1.644-3.418 3.117-6.405 3.117-4.24 0-6.405-2.99-6.405-6.018 0-5.063 4.5-7.834 12.594-7.79v-.434c0-1.73-.476-4.847-4.76-4.847-1.948 0-3.983.608-5.453 1.56l-.866-2.51c1.732-1.126 4.242-1.86 6.88-1.86 6.407 0 7.966 4.37 7.966 8.567v7.834zM165.138 39.85c0-2.467-.044-4.59-.173-6.535h3.332l.13 4.11h.174c.952-2.812 3.247-4.586 5.8-4.586.433 0 .735.04 1.083.128v3.592c-.392-.087-.78-.13-1.298-.13-2.686 0-4.59 2.034-5.108 4.89-.088.52-.174 1.126-.174 1.776v11.166h-3.765v-14.41M193.183 41.84c0-.476-.044-1.124-.174-1.602-.562-2.423-2.64-4.414-5.496-4.414-3.938 0-6.277 3.46-6.277 8.093 0 4.243 2.078 7.748 6.19 7.748 2.555 0 4.89-1.688 5.582-4.546.13-.52.173-1.037.173-1.644V41.84zm3.808-18.306V48.85c0 1.863.044 3.983.175 5.412h-3.42l-.173-3.635h-.085c-1.17 2.337-3.724 4.112-7.142 4.112-5.065 0-8.96-4.288-8.96-10.65-.042-6.968 4.286-11.25 9.392-11.25 3.205 0 5.367 1.512 6.32 3.2h.086V23.535h3.808zM200.57 26.29h.32c.37 0 .674-.125.674-.43 0-.266-.2-.445-.625-.445-.18 0-.304.018-.37.037v.837zm-.02 1.635h-.676v-2.9c.264-.053.638-.108 1.12-.108.552 0 .8.09 1.014.23.163.128.285.36.285.624 0 .34-.25.59-.607.695v.037c.285.088.446.32.537.71.085.45.14.628.213.713h-.73c-.09-.106-.142-.355-.235-.695-.048-.32-.225-.46-.598-.46h-.322v1.155zm.444-3.845c-1.284 0-2.246 1.05-2.246 2.334 0 1.3.962 2.333 2.282 2.333 1.278.016 2.225-1.034 2.225-2.333 0-1.284-.947-2.334-2.246-2.334h-.016zm.036-.586c1.675 0 2.974 1.3 2.974 2.92 0 1.654-1.3 2.935-2.995 2.935-1.673 0-3.006-1.282-3.006-2.936 0-1.62 1.333-2.92 3.005-2.92h.02z" fill="#FFF"/><text font-family="MyriadPro-Regular, Myriad Pro" font-size="13" fill="#FFF" transform="translate(0 -.004)"><tspan x="125" y="70">by Green Dot</tspan></text></g></svg>