<svg xmlns="http://www.w3.org/2000/svg" viewBox="0 0 64.2 64.2"><defs><style>.a{fill:#fff}</style></defs><title>logo-secured-card-white-small</title><path class="a" d="M14.7 19.4a1.14 1.14 0 0 0-1.1 1.4v5.3a1.07 1.07 0 0 0 1.1 1.3 1.05 1.05 0 0 0 1.1-1.3v-5.3a1.11 1.11 0 0 0-1.1-1.4m26.5 18.8c-1 0-1 .9-1 1.5v6.1a1 1 0 0 0 1 1.2 1 1 0 0 0 1-1.2v-6.1c-.1-.8-.2-1.5-1-1.5"/><path class="a" d="M53.8 34.4a1.21 1.21 0 0 1-.5.5 1.45 1.45 0 0 1-.7.2 1 1 0 0 1-.7-.2 1.21 1.21 0 0 1-.5-.5 1.45 1.45 0 0 1-.2-.7 1.85 1.85 0 0 1 .2-.7 1.21 1.21 0 0 1 .5-.5 1.45 1.45 0 0 1 .7-.2 2.54 2.54 0 0 1 .7.2 1.39 1.39 0 0 1 .5 1.9zm-2.4 4.1h-1.7v6.8c0 .8.1 1.3 1.3 1.3h.5v2a11.93 11.93 0 0 1-1.5.1c-2.6 0-3-1-3-2.5v-7.7h-1.5v-1.8H47v-4.3h2.8v4.3h1.7v1.8h-.1zm-6.5 7c0 2.2-1.3 3.3-3.8 3.3-3.6 0-3.6-2.7-3.6-3.6v-5.4c0-1.4.5-3.5 3.8-3.5a4.51 4.51 0 0 1 2.5.7 3 3 0 0 1 1.2 2.7c-.1.1-.1 5.8-.1 5.8zm-8.6 3.1h-2.8v-1.2a2.61 2.61 0 0 1-2.3 1.4 2.49 2.49 0 0 1-2.3-1.3 5.67 5.67 0 0 1-.4-2.5v-5.5a4.5 4.5 0 0 1 .3-1.8 2.49 2.49 0 0 1 2.3-1.4 3.69 3.69 0 0 1 2.4 1.2V32h2.8v16.6zM26.2 25.9v-5a3.24 3.24 0 0 1 1.3-2.9 4.51 4.51 0 0 1 2.5-.7 4.17 4.17 0 0 1 2.9 1.1 3.32 3.32 0 0 1 .8 2.4v3.4H29v2c0 .5 0 1.5 1 1.5a.78.78 0 0 0 .7-.3c.2-.3.2-.4.2-1.7h2.7v1c0 2.6-1.9 3.2-3.6 3.2-2.6-.2-3.7-1.6-3.8-4zm-.6-5.9a2.15 2.15 0 0 0-1-.2c-1.8 0-1.8 1.6-1.8 2.6v7H20v-12h2.8v1.5a2.75 2.75 0 0 1 2.7-1.7 27.15 27.15 0 0 1 .1 2.8zm-6.9 9.9c0 1.2 0 3.8-4 3.8-3.7 0-3.7-2.2-3.7-3.3h2.7a1.7 1.7 0 0 0 .1.7.91.91 0 0 0 1 .5c1 0 1.1-.7 1.1-1.4v-1.9a3 3 0 0 1-2.4 1.2c-2.3 0-2.6-1.6-2.6-3v-6.3c0-.4 0-3 2.5-3a3.72 3.72 0 0 1 2.5 1.2v-.9h2.8v12.4zm16.2-9.1a3.24 3.24 0 0 1 1.3-2.9 4.51 4.51 0 0 1 2.5-.7 4.17 4.17 0 0 1 2.9 1.1 3.32 3.32 0 0 1 .8 2.4v3.4h-4.8v2c0 .5 0 1.5 1 1.5a.78.78 0 0 0 .7-.3c.2-.3.2-.4.2-1.7h2.7v1c0 2.6-1.9 3.2-3.6 3.2-2.7 0-3.8-1.4-3.8-3.8.1-.1.1-5.2.1-5.2zm8.8-3.3h2.8v.9a3.4 3.4 0 0 1 2.4-1.1 2.41 2.41 0 0 1 1.9.8 3 3 0 0 1 .5 2.1v9.3h-2.7v-8.8c0-.7-.1-1.5-1-1.5a1.28 1.28 0 0 0-1.2 1.6v8.6h-2.8c.1.1.1-11.9.1-11.9zM32.1 0a32.1 32.1 0 1 0 32.1 32.1A32.14 32.14 0 0 0 32.1 0z"/><path class="a" d="M39.7 20.7a1 1 0 1 0-2 0v1.5h2v-1.5zm-7.3 17.9c-1.1 0-1.1.9-1.1 1.5v5.1c0 .6 0 1.4 1.1 1.4a1.2 1.2 0 0 0 1.2-1.4V40a1.16 1.16 0 0 0-1.2-1.4M31 20.7a1 1 0 1 0-2 0v1.5h2v-1.5zm22 13.8l-.1-.2c-.1-.1-.1-.2-.2-.3h-.3v.6h-.2V33h.9c.1 0 .1.1.2.1s.1.1.1.2a.35.35 0 0 1-.4.4c.1 0 .1 0 .1.1s.1.2.2.3l.2.3-.5.1zm.2-1.8a2.57 2.57 0 0 1-.5-.2 1.42 1.42 0 0 0-.6.2.78.78 0 0 0-.4.4 1.27 1.27 0 0 0-.1.6c0 .2.1.4.1.6a.78.78 0 0 0 .4.4 1.08 1.08 0 0 0 1.1 0 .78.78 0 0 0 .4-.4 1.85 1.85 0 0 0 0-1.2 1.51 1.51 0 0 0-.4-.4z"/></svg>