<svg id="Layer_1" xmlns="http://www.w3.org/2000/svg" viewBox="-186 366.2 237.5 60.8"><style>.st0{fill:#4fc143}</style><path class="st0" d="M50.7 394.8c-.9 0-2.8-1.2-2.8-2.6v-5.7c0-2.8-1.9-4.4-3.8-4.4h-173c-5.2-9.4-15.2-15.9-26.7-15.9-16.7 0-30.4 13.6-30.4 30.4 0 16.8 13.6 30.4 30.4 30.4 11.6 0 21.7-6.5 26.8-16.1H44.1c1.9 0 3.8-1.7 3.8-4.4v-5.7c0-1.6 1.9-2.5 2.8-2.5h.8v-3.4h-.8v-.1zm-6.5 5.5v5.7c0 .4 0 1.7-.6 1.7h-173.5c-.5 1.1-1 2.2-1.6 3.2-4.9 8.2-13.8 13.6-24 13.6-15.4 0-27.9-12.5-27.9-27.9s12.5-27.9 27.9-27.9c10.1 0 18.9 5.4 23.8 13.4.6 1 1.2 2.1 1.7 3.2H43.6c.5 0 .6 1 .6 1.7v5.7c0 2 .9 3.2 1.6 3.8-.7.5-1.6 1.7-1.6 3.8z"/><path class="st0" d="M-156.4 386.8c0-.3 0-1-.8-1-.6 0-.9.4-.9 1v1.3h1.7v-1.3zM-155.2 402.1c-.9 0-.9.8-.9 1.3v4.3c0 .5 0 1.2.9 1.2 1 0 1-.9 1-1.2v-4.4c0-.3 0-1.2-1-1.2zM-170.3 385.8c-1 0-1 .9-1 1.2v4.6c0 .3 0 1.1.9 1.1s1-.6 1-1.1v-4.5c0-.5 0-1.3-.9-1.3zM-149 386.8c0-.3 0-1-.8-1-.6 0-.9.4-.9 1v1.3h1.7v-1.3zM-147.7 401.8c-.9 0-.9.8-.9 1.3v5.2c0 .3 0 1 .8 1s.8-.7.8-1.1V403c.1-.6 0-1.2-.7-1.2z"/><path class="st0" d="M-155.5 369.8c-14.8 0-26.8 12-26.8 26.8s12 26.8 26.8 26.8 26.8-12 26.8-26.8c.1-14.8-12-26.8-26.8-26.8zm9.9 14.4h2.4v.8c.5-.5 1-1 2.1-1 .7 0 1.3.3 1.6.7.5.5.5 1.1.5 1.8v8h-2.3V387c0-.6 0-1.2-.8-1.2-1 0-1 .9-1 1.4v7.3h-2.4v-10.3h-.1zm-7.5 2.8c0-1.3.4-2 1.1-2.5.6-.4 1.4-.6 2.1-.6.9 0 1.9.3 2.5.9.6.6.7 1.4.7 2v2.9h-4.1v1.7c0 .4 0 1.3.9 1.3.3 0 .5-.1.6-.3.2-.2.2-.4.2-1.4h2.3v.8c0 2.2-1.6 2.7-3.1 2.7-2.3 0-3.3-1.2-3.3-3.3l.1-4.2zm-13.9 7.7c0 1 0 3.3-3.4 3.3-3.1 0-3.1-1.8-3.1-2.8h2.3c0 .1 0 .4.1.6.1.2.4.4.8.4.8 0 1-.6 1-1.2v-1.5c-.3.4-.9 1-2.1 1-1.9 0-2.2-1.4-2.2-2.5v-5.5c0-.4 0-2.6 2.1-2.6 1 0 1.6.6 2.1 1v-.8h2.4v10.6zm6-8.4c-.2 0-.4-.1-.8-.1-1.5 0-1.5 1.4-1.5 2.2v6h-2.3v-10.2h2.4v1.3c.4-.7.9-1.5 2.3-1.5l-.1 2.3zm.5 5V387c0-1.3.4-2 1.1-2.5.6-.4 1.4-.6 2.2-.6.9 0 1.9.3 2.5.9.6.6.7 1.4.7 2v2.9h-4.1v1.7c0 .4 0 1.3.9 1.3.3 0 .5-.1.6-.3.2-.2.2-.4.2-1.4h2.3v.8c0 2.2-1.6 2.7-3.1 2.7-2.3.1-3.3-1.1-3.3-3.2zm8.6 19.4h-2.4v-1c-.4.5-.8 1.2-2 1.2-1 0-1.7-.5-2-1.1-.3-.5-.3-1.2-.3-2.2v-4.7c0-.7.1-1.1.3-1.5.4-.9 1.4-1.2 1.9-1.2.9 0 1.6.6 2.1 1v-4.7h2.4v14.2zm7.3-2.6c0 1.8-1.2 2.9-3.3 2.9-3.1 0-3.1-2.3-3.1-3.1v-4.6c0-1.2.4-2.9 3.2-2.9.7 0 1.6.2 2.2.6.9.6 1 1.5 1 2.3v4.8zm5.5-6h-1.5v5.8c0 .7.1 1.1 1.1 1.1h.4v1.7c-.2 0-.4.1-1.2.1-2.2 0-2.6-.8-2.6-2.1v-6.6h-1.3v-1.6h1.3v-3.7h2.4v3.7h1.5l-.1 1.6zm2.1-3.6c-.1.2-.2.3-.4.4-.2.1-.4.1-.6.1s-.4 0-.6-.1c-.2-.1-.3-.2-.4-.4-.1-.2-.2-.4-.2-.6 0-.2.1-.4.2-.6.1-.2.2-.3.4-.4.2-.1.4-.1.6-.1s.4.1.6.1c.2.1.3.2.4.4.1.2.2.4.2.6 0 .3-.1.5-.2.6z"/><path class="st0" d="M-137.7 397.7c-.1-.1-.1-.1-.1-.2h-.4v.4h.2c.1 0 .2 0 .2-.1.1 0 .1 0 .1-.1z"/><path class="st0" d="M-137.5 397.1c-.2-.1-.3-.1-.5-.1s-.3 0-.5.1-.3.2-.4.4c-.1.1-.1.3-.1.5s0 .3.1.5c.1.1.2.3.4.3.1.1.3.1.5.1s.3 0 .5-.1c.1-.1.3-.2.4-.3.1-.2.1-.3.1-.5s0-.3-.1-.5-.2-.3-.4-.4zm-.2 1.5l-.1-.2c-.1-.2-.2-.3-.2-.3H-138.3v.5h-.2v-1.2h.7c.1 0 .1.1.2.1 0 .1.1.1.1.2s0 .2-.1.2c-.1.1-.1.1-.3.1 0 0 .1 0 .1.1l.2.2.1.2-.2.1zM-59.1 398c-.7 1.1-1.6 2-2.5 2.8-.5.4-1 .7-1.3.9-.3.1-.5.2-.7.2s-.4.1-.6.1l-.4.1h-1.5v-5.3h.1c.5 0 1 .2 1.5.5.1.1.2.1.3.2l.2.2.5.5.3.3.3.6h.9v-5.6h-.9l-.1.2c-.4.8-.9 1.3-1.3 1.6-.5.3-1 .4-1.6.4h-.1V391h1.5c.6 0 1.1.1 1.4.2.4.1.8.4 1.3.8s1 .9 1.4 1.4c.5.5.9 1 1.2 1.6l.1.1h.8v-5.3h-15v1.1h.8l1 .1c.2 0 .3.1.4.2s.2.2.2.4.1.6.1 1.1v7.6c0 .5 0 .9-.1 1.1-.1.2-.1.3-.2.4l-.2.2h-.1-1.8c-.3 0-.5 0-.7-.1-.2 0-.4-.1-.5-.2-.3-.2-.5-.5-.8-1L-77 397c2-.5 3-1.7 3-3.6 0-.7-.2-1.4-.5-1.9-.4-.6-.8-1-1.4-1.3-.7-.3-1.4-.4-2-.4h-11.4v1.1h1.8c.2 0 .3.1.4.2s.2.2.2.4.1.6.1 1.1v7.6c0 .5 0 .9-.1 1.1-.1.2-.1.3-.2.4l-.2.2h-.1-.2c-.1 0-.3.1-.9.1h-.9v1.1h9.3V402h-.4l-1-.1c-.2-.1-.3-.1-.4-.2s-.2-.2-.2-.4-.1-.6-.1-1.1v-3.1h.4l3 6h20.7v-5.3h-.9l-.1.2zm-22.5-1.9h-.8v-5.2h.6c.8 0 1.4.2 1.8.5.5.5.8 1.2.8 2.1 0 1.8-.7 2.6-2.4 2.6zM-39.8 396.4h-9.7v1.1h1c.9 0 1.2.2 1.2.3.1.1.3.5.3 1.6s-.1 1.9-.4 2.3c-.4.5-.9.8-1.7.8-.9 0-1.5-.3-1.9-1.1-.6-1.1-.9-2.7-.9-4.8s.3-3.7.9-4.9c.4-.7 1-1.1 1.8-1.1.2 0 .5 0 .7.1.3 0 .5.1.7.2.2.1.5.2.7.4.2.1.4.3.6.4l.7.7c.2.3.4.5.6.8l.6.9.2.4.3.6 1-.2-.2-5.3h-.8l-.1.1c-.5.5-1 .8-1.5.8l-.4-.1-.6-.3s-.1 0-.4-.2c-.2-.1-.4-.2-.5-.2l-.8-.3c-.5-.1-1.1-.2-1.8-.2-2.1 0-3.7.6-5 1.9-.7.7-1.2 1.5-1.6 2.3-.3.9-.5 1.8-.5 2.8 0 2 .7 3.8 2.1 5.2 1.4 1.4 3.1 2.1 5.1 2.1l1.2-.1 1.1-.2.9-.3c.9-.3 1.5-.4 2-.4.7 0 1.3.2 1.8.6l.2.1.6-.4-.1-.2c-.1-.4-.1-.7-.1-1V399.9c0-.7 0-1.2.1-1.5 0-.2.1-.3.1-.4s.1-.2.2-.3l.3-.3c.1 0 .2-.1.3-.1h1.6l.1-.9c-.1 0 0 0 0 0z"/><path class="st0" d="M-41.3 390.9h1.8c.2 0 .3.1.4.2s.2.2.2.4.1.6.1 1.1v7.6c0 .5 0 .9-.1 1.1-.1.2-.1.3-.2.4l-.2.2h-.1-.2c-.1 0-.3.1-.9.1h-.9v1.1h9.7V402h-.8l-1-.1c-.2-.1-.3-.1-.4-.2s-.2-.2-.2-.4-.1-.6-.1-1.1V391.9v-.2-.2c0-.2.1-.4.3-.4.1-.1.2-.2.4-.2s.5-.1.9-.1h.9v-1.1h-9.7l.1 1.2zM-18 395.7c-.3-.3-.7-.5-1.1-.6s-.7-.2-1-.3c-.1 0-.3-.1-.4-.1-.2 0-.4-.1-.7-.2-.3-.1-.6-.1-.8-.2l-2.9-.5-1.7-.4c-.2 0-.4-.1-.6-.2-.1 0-.2-.1-.4-.2-.4-.2-.7-.5-.7-1s.2-.9.7-1.2c.5-.3 1.2-.5 2.1-.5 1 0 1.9.2 2.9.7s1.8 1.1 2.5 1.8c.5.5.9 1.1 1.3 1.9l.1.2h.8v-5.5h-.7l-2 1.6c-1.6-1.2-3.2-1.8-5-1.8-1.6 0-3 .5-4.1 1.4s-1.7 2.1-1.7 3.4c0 2.5 1.7 4 5.1 4.6l3.3.5.9.2.9.2.5.2.4.2c.4.2.6.5.6 1s-.2.8-.7 1c-.5.3-1.2.4-2.2.4-1.5 0-2.8-.4-4-1.2-.4-.3-.8-.5-1.2-.9-.4-.3-.7-.6-1-1l-.8-1c-.2-.3-.4-.6-.6-1l-.1-.2h-.9v5.9h.8l2.2-1.8c.5.4.8.6.8.6.3.2.5.4.8.5.2.1.4.2.7.3.2.1.5.2.8.3l.7.2 1.1.1h.8c1.7 0 3.1-.4 4.1-1.2 1-.8 1.5-2 1.5-3.4 0-.9-.2-1.7-.7-2.4.2.2 0-.1-.4-.4zm-4 7.8zM-15.5 395.8h.9l.4-1.1.3-.7c.3-.5.6-1.1.9-1.5.3-.4.7-.8 1.2-1.3.4-.3.6-.5.7-.5l.2-.1H-10.3v9.7c0 .5 0 .9-.1 1.2 0 .2-.1.3-.2.4l-.2.2h-.1-2v1.1h9.7v-1.1H-4l-1-.1c-.2-.1-.3-.1-.4-.2s-.2-.2-.2-.4c-.1-.2-.1-.6-.1-1.1v-9.8c.5 0 .9.1 1.2.4.6.4 1.1 1.1 1.7 1.8l.5.7.4.8c.1.2.2.5.3.7.1.2.2.4.2.6l.1.3h.9v-6.5h-15.2l.1 6.5zM14.9 397.8c-.7 1.1-1.6 2.1-2.5 2.8-.5.5-1 .8-1.3.9s-.5.2-.7.3c-.1.1-.4.1-.6.1l-.4.1H7.9v-5.5H8c.5 0 1 .2 1.5.5.1.1.2.1.3.2.1 0 .1.1.2.2l.5.5.3.4.3.6h.9v-5.7h-.9l-.1.2c-.4.8-.9 1.4-1.3 1.7-.5.3-1 .5-1.6.5H8v-5.1h1.5c.6 0 1.1.1 1.4.2.4.2.8.4 1.3.9.5.4 1 .9 1.5 1.5.5.5.9 1.1 1.2 1.6l.1.1h.8v-5.4H.8v1.1h.8l1 .1c.2 0 .3.1.4.2.1.1.2.2.2.4s.1.6.1 1.1v7.9c0 .5 0 .9-.1 1.1 0 .2-.1.3-.2.4l-.2.2h-.1-2v1.1h15.2v-5.5H15l-.1.3zM32.5 402c-.2 0-.4-.1-.5-.2-.3-.2-.5-.5-.8-1.1l-1.8-3.9c2-.5 3-1.8 3-3.7 0-.7-.2-1.4-.5-2-.4-.6-.8-1-1.4-1.3-.7-.3-1.4-.4-2-.4H17.1v1.1h.8l1 .1c.2 0 .3.1.4.2.1.1.2.2.2.4s.1.6.1 1.1v7.9c0 .5 0 .9-.1 1.1-.1.2-.1.3-.2.4l-.2.2H19h-2v1.1h9.3v-1.1h-.4l-1-.1c-.2-.1-.3-.1-.4-.3-.1-.1-.2-.2-.2-.4s-.1-.6-.1-1.1v-3.2h.4l3 6.2h6v-1.1h-.3c-.3.2-.6.1-.8.1zm-8.4-11.5h.6c.8 0 1.4.2 1.8.5.5.5.8 1.2.8 2.2 0 1.8-.8 2.6-2.4 2.6h-.8v-5.3zM33.7 389.9h.9v2.4h.5v-2.4h.9v-.4h-2.3zM38 391.7l-.7-2.2h-.7v2.8h.4v-2.1l.8 2.1h.4l.8-2.1v2.1h.5v-2.8h-.7zM-116 394.5h-1.1l-.1.4c-.4-.6-.9-.8-1.5-.8-1.4-.1-2.7 1-2.7 2.7 0 1.1.8 2.2 1.8 2.4.8.1 1.2-.1 1.5-.5 0 .4.3.7.8.7.8 0 3.2-1 3.2-3.6 0-2.3-2.2-3.8-4.7-3.8-2.6 0-4.7 2.1-4.7 4.7s2.1 4.7 4.7 4.7c1.9 0 3.3-.7 4.2-2h-1.1c-.7.4-1.6.8-2.7.8-1.9 0-3.6-1.6-3.6-3.5 0-1.8 1.5-3.5 3.5-3.5 1.8 0 3.4 1.2 3.4 2.9 0 1.3-.8 2.2-1.3 2.2-.2 0-.3-.1-.3-.3 0-.1 0-.3.1-.5l.6-3zm-3.2 3.4c-.5 0-.9-.5-.9-1 0-.8.6-1.6 1.4-1.6.5 0 1 .4 1 1-.1.8-.7 1.6-1.5 1.6zM-108 390.4h-2.5v2.3h-1.1v1.9h1.1v4.4c0 1.7.3 2.4 2.2 2.4.5 0 .9 0 1.3-.1h.3v-1.9H-107.3c-.4 0-.5-.1-.5-.7v-4.2h1.2v-1.9h-1.2v-2.2h-.2zM-101.8 392.6c-.7 0-1.3.2-1.8.7v-3.1h-2.5v11.3h2.5v-5.6c0-1 .5-1.1.9-1.1s.7.1.7.9v5.9h2.5v-6.3c0-2.3-1.3-2.7-2.3-2.7zM-95.5 392.4c-3.1 0-3.5 2.2-3.5 4.4 0 1.8 0 4.6 3.4 4.6 2 0 3.1-1.1 3.2-3.2v-.2h-2.3v.2c-.1 1.1-.5 1.3-.9 1.3-.7 0-.8-1.3-.8-1.7v-.4h4.1v-.7c0-2.2-.4-4.3-3.2-4.3zm-1 3.3c0-.5.1-1.5.9-1.5.6 0 .8.3.8 1.5h-1.7z"/></svg>