<svg id="Layer_1" xmlns="http://www.w3.org/2000/svg" viewBox="223 380.3 166.7 31.3"><style>.st0{fill:#3274BA;} .st1{fill:#F3B73C;} .st2{fill:#FFFFFF;}</style><path class="st0" d="M389.7 411.6H232c-5 0-9-4-9-9v-13.3c0-5 4-9 9-9h157.7v31.3z"/><path class="st1" d="M362.4 391.5c.5 0 .9-.3.9-.6l.5-5.7c0-.6-.6-1-1.4-1s-1.4.5-1.4 1l.5 5.7c0 .3.4.6.9.6zM359.5 393.2c.2-.4.2-.9 0-1.2l-4.4-3.3c-.5-.3-1.1.1-1.5.8-.4.7-.3 1.5.1 1.8l4.8 2.4c.4.2.8 0 1-.5zM365.3 393.2c.2.4.6.7 1 .6l4.8-2.4c.5-.3.5-1.1.1-1.8s-1.1-1.1-1.5-.8l-4.4 3.3c-.3.2-.3.7 0 1.1zM362.4 398.6c.5 0 .9.3.9.6l.5 5.7c0 .6-.6 1-1.4 1s-1.4-.5-1.4-1l.5-5.7c0-.4.4-.6.9-.6zM365.3 396.8c.2-.4.6-.7 1-.5l4.8 2.4c.5.3.5 1.1.1 1.8s-1.1 1.1-1.5.8l-4.4-3.3c-.3-.3-.3-.8 0-1.2zM359.5 396.8c.2.4.2.9 0 1.2l-4.4 3.3c-.5.3-1.1-.1-1.5-.8-.4-.7-.3-1.5.1-1.8l4.8-2.4c.4-.2.8.1 1 .5z"/><path class="st2" d="M335.3 398c0 .2 0 .4-.1.5-.2.7-.8 1.2-1.6 1.2-.7 0-1.2-.4-1.2-1.3 0-1.3 1.3-1.7 2.9-1.7v1.3zm2.4-2.3c0-2.2-.9-4-3.8-4-1.5 0-2.7.4-3.3.8l.5 1.7c.6-.4 1.5-.7 2.4-.7 1.5 0 1.7.9 1.7 1.5v.1c-3.2 0-5.2 1.2-5.2 3.6 0 1.5 1 2.9 2.8 2.9 1.1 0 2-.5 2.6-1.2h.1s.4 1.6 2.4 1c-.1-.7-.1-1.4-.1-2.3v-3.4h-.1zM288.6 388.7s2.1 9.2 2.4 10.7c.4 1.7 1.1 2.4 3.1 2l1.3-5.7c.3-1.4.6-2.4.8-3.9.1 1.5.4 2.5.6 3.9 0 0 .5 2.6.8 3.9.3 1.4 1 2.2 3 1.8l3.1-12.7h-2.5l-1.1 5.5c-.3 1.6-.5 2.8-.7 4.3-.2-1.4-.4-2.6-.7-4.2l-1.1-5.6H295l-1.2 5.4c-.3 1.7-.6 3-.9 4.4-.2-1.3-.5-3-.8-4.6 0 0-.7-3.9-.9-5.2h-2.6zM308.4 398c0 .2 0 .4-.1.5-.2.7-.8 1.2-1.6 1.2-.7 0-1.2-.4-1.2-1.3 0-1.3 1.3-1.7 2.9-1.7v1.3zm2.4-2.3c0-2.2-.9-4-3.8-4-1.5 0-2.7.4-3.3.8l.5 1.7c.6-.4 1.5-.7 2.4-.7 1.5 0 1.7.9 1.7 1.5v.1c-3.2 0-5.2 1.2-5.2 3.6 0 1.5 1 2.9 2.8 2.9 1.1 0 2-.5 2.6-1.2h.1s.4 1.6 2.4 1c-.1-.7-.1-1.4-.1-2.3v-3.4h-.1zM314.5 398.7v-10h-2.4v12.7h2.4zM345 388.7v9.3c0 1.3.2 2.2.7 2.7.4.5 1.1.8 2 .8.7 0 1.4-.1 1.7-.3v-2c-.2.1-.5.1-.9.1-.8 0-1.1-.6-1.1-1.7V394h2.1v-2.4h-2.1v-3H345v.1zM338.8 391.9v9.5h2.5v-4.9c0-.3 0-.5.1-.7.2-1 .9-1.7 2-1.7.3 0 .5 0 .7.1v-2.5c-.2 0-.3-.1-.5-.1-.9 0-2 .6-2.4 2h-.2v-1.8h-2.2v.1zM315.9 391.9v9.5h2.4v-5.6c0-.3 0-.5.1-.8.2-.6.7-1.2 1.5-1.2 1 0 1.4.9 1.4 2.2v5.4h2.4v-5.6c0-.2 0-.6.1-.8.2-.6.7-1.2 1.4-1.2 1 0 1.5.9 1.5 2.4v5.2h2.4v-5.6c0-3-1.4-4.1-3-4.1-.7 0-1.2.2-1.7.5-.4.3-.8.7-1.1 1.2-.4-1-1.3-1.7-2.4-1.7-1.5 0-2.2.8-2.6 1.5v-1.3h-2.4z"/><path class="st1" d="M372.4 400.4c.3 0 .5.2.5.5s-.2.5-.5.5-.5-.2-.5-.5.3-.5.5-.5zm0 .1c-.2 0-.4.2-.4.4s.2.4.4.4.4-.2.4-.4-.1-.4-.4-.4zm0 .7h-.1v-.5h.4l.1.1c0 .1 0 .1-.1.1l.1.1v.1h-.1v-.1c0-.1 0-.1-.1-.1v.3h-.2zm0-.3c.1 0 .1 0 .1-.1 0 0 0-.1-.1-.1h-.1v.2h.1z"/><path class="st2" d="M247.1 395.2c0 4.2-2.4 6.5-5.3 6.5-3 0-5.1-2.5-5.1-6.2 0-3.9 2.2-6.5 5.3-6.5 3 0 5.1 2.5 5.1 6.2m-8.9.2c0 2.6 1.3 5 3.7 5 2.3 0 3.7-2.3 3.7-5.1 0-2.5-1.2-5-3.6-5-2.6 0-3.8 2.4-3.8 5.1M248.6 395c0-.9 0-1.7-.1-2.4h1.3l.1 1.5c.4-.8 1.4-1.6 2.7-1.6 1.1 0 2.9.7 2.9 3.8v5.2H254v-5.1c0-1.4-.5-2.6-1.9-2.6-1 0-1.7.7-2 1.6-.1.2-.1.5-.1.7v5.3h-1.5V395h.1zM257.7 388.5h1.5v12.9h-1.5zM261.9 392.6l1.8 5.2c.2.6.4 1.3.5 1.8.2-.5.3-1.2.5-1.8l1.6-5.2h1.6l-2.2 6.3c-1.1 3-1.8 4.6-2.8 5.5-.7.7-1.5.9-1.8 1l-.4-1.3c.4-.1.9-.4 1.3-.8.4-.3.9-1 1.3-1.8.1-.2.1-.3.1-.4s0-.2-.1-.4l-3-8.1h1.6zM278 399.4c0 .8 0 1.5.1 2.1h-1.3l-.1-1.1h-.1c-.5.7-1.3 1.3-2.5 1.3-1.7 0-2.5-1.3-2.5-2.5 0-2.1 1.8-3.3 4.9-3.3v-.2c0-.7-.2-2-1.9-2-.8 0-1.6.2-2.2.7l-.3-1.1c.7-.5 1.7-.8 2.7-.8 2.5 0 3.1 1.8 3.1 3.6l.1 3.3zm-1.4-2.4c-1.6 0-3.5.3-3.5 2 0 1.1.6 1.5 1.4 1.5 1.1 0 1.8-.7 2-1.5.1-.2.1-.4.1-.5V397zM281.8 390.5v2.1h2.1v1.2h-2.1v4.8c0 1.1.3 1.7 1.1 1.7.4 0 .6 0 .9-.1l.1 1.2c-.3.1-.7.2-1.3.2-.7 0-1.3-.3-1.6-.7-.4-.5-.6-1.3-.6-2.3v-4.8h-1.3v-1.2h1.3V391l1.4-.5z"/></svg>