<svg width="327" height="76" viewBox="0 0 327 76" xmlns="http://www.w3.org/2000/svg" xmlns:xlink="http://www.w3.org/1999/xlink"><title>logo-greendot-white-v2</title><defs><path id="a" d="M38.257.183C59.163.183 76.11 17.118 76.11 38.01c0 20.89-16.947 37.824-37.853 37.824C17.35 75.834.403 58.9.403 38.01.403 17.117 17.35.182 38.257.182"/><path id="c" d="M38.257.183C59.163.183 76.11 17.118 76.11 38.01c0 20.89-16.947 37.824-37.853 37.824C17.35 75.834.403 58.9.403 38.01.403 17.117 17.35.182 38.257.182"/><path id="e" d="M38.257.183C59.163.183 76.11 17.118 76.11 38.01c0 20.89-16.947 37.824-37.853 37.824C17.35 75.834.403 58.9.403 38.01.403 17.117 17.35.182 38.257.182"/><path id="g" d="M38.257.183C59.163.183 76.11 17.118 76.11 38.01c0 20.89-16.947 37.824-37.853 37.824C17.35 75.834.403 58.9.403 38.01.403 17.117 17.35.182 38.257.182"/><path id="i" d="M38.257.183C59.163.183 76.11 17.118 76.11 38.01c0 20.89-16.947 37.824-37.853 37.824C17.35 75.834.403 58.9.403 38.01.403 17.117 17.35.182 38.257.182"/></defs><g fill="none" fill-rule="evenodd"><g><mask id="b" fill="#fff"><use xlink:href="#a"/></mask><path d="M38.257.183C59.163.183 76.11 17.118 76.11 38.01c0 20.89-16.947 37.824-37.853 37.824C17.35 75.834.403 58.9.403 38.01.403 17.117 17.35.182 38.257.182" mask="url(#b)"/></g><g><mask id="d" fill="#fff"><use xlink:href="#c"/></mask><path d="M38.257.183C59.163.183 76.11 17.118 76.11 38.01c0 20.89-16.947 37.824-37.853 37.824C17.35 75.834.403 58.9.403 38.01.403 17.117 17.35.182 38.257.182" mask="url(#d)"/></g><g><mask id="f" fill="#fff"><use xlink:href="#e"/></mask><path d="M38.257.183C59.163.183 76.11 17.118 76.11 38.01c0 20.89-16.947 37.824-37.853 37.824C17.35 75.834.403 58.9.403 38.01.403 17.117 17.35.182 38.257.182" mask="url(#f)"/></g><g><mask id="h" fill="#fff"><use xlink:href="#g"/></mask><path d="M38.257.183C59.163.183 76.11 17.118 76.11 38.01c0 20.89-16.947 37.824-37.853 37.824C17.35 75.834.403 58.9.403 38.01.403 17.117 17.35.182 38.257.182" mask="url(#h)"/></g><use fill="#4FC143" xlink:href="#i"/><path d="M16.79 25.764c0-.48 0-1.785 1.407-1.785 1.39 0 1.39 1.195 1.39 1.832v6.618c0 .756-.17 1.687-1.432 1.687-1.365 0-1.365-1.185-1.365-1.665v-6.688m2.838-2.94c-.734-.656-1.615-1.48-3.13-1.48-3.16 0-3.16 3.217-3.16 3.773v7.928c0 1.72.376 3.738 3.24 3.738 1.76 0 2.55-.913 3.05-1.466v2.318c0 .906-.185 1.777-1.407 1.777-.677 0-1.024-.293-1.208-.64-.144-.36-.144-.732-.144-.937h-3.446c.026 1.384.048 4.09 4.63 4.09 5.05 0 5.05-3.273 5.05-4.79v-15.5h-3.474v1.19M24.977 21.636h3.48l-.03 1.892c.588-1.048 1.372-2.22 3.432-2.16v3.443c-.277-.073-.624-.228-1.184-.228-2.247 0-2.247 2.053-2.247 3.22v8.8h-3.452V21.636M36.096 25.575c0-.923.376-1.49 1.286-1.49 1.19 0 1.19 1.09 1.19 1.49v1.848h-2.476v-1.848m-.037 4.303h5.97v-4.266c0-.874-.18-2.104-1.024-2.984-.9-.867-2.254-1.32-3.624-1.32-1.06 0-2.285.268-3.163.88-.966.67-1.605 1.722-1.605 3.595v6.32c0 3.02 1.373 4.798 4.792 4.798 2.168 0 4.567-.786 4.567-4.032v-1.2h-3.402c0 1.544-.02 1.726-.29 2.07-.2.27-.53.435-.932.435-1.29 0-1.29-1.192-1.29-1.844v-2.452M46.947 25.575c0-.923.38-1.49 1.28-1.49 1.202 0 1.202 1.09 1.202 1.49v1.848h-2.483v-1.848m-.032 4.303h5.97v-4.266c0-.874-.183-2.104-1.03-2.984-.9-.867-2.244-1.32-3.627-1.32-1.044 0-2.274.268-3.15.88-.965.67-1.61 1.722-1.61 3.595v6.32c0 3.02 1.376 4.798 4.796 4.798 2.16 0 4.564-.786 4.564-4.032v-1.2H49.43c0 1.544-.03 1.726-.295 2.07-.198.27-.518.435-.94.435-1.28 0-1.28-1.192-1.28-1.844v-2.452M54.492 21.636h3.538l-.053 1.108c.697-.676 1.467-1.4 3.01-1.4 1.075 0 1.905.417 2.404.99.696.794.696 1.675.696 2.58V36.6H60.66v-10.99c0-.82-.052-1.825-1.216-1.825-1.467 0-1.467 1.358-1.467 2.026v10.79h-3.485V21.635M38.642 47.834c0-.724 0-1.9 1.35-1.9 1.46 0 1.46 1.26 1.46 1.727v6.43c0 .48 0 1.814-1.46 1.814-1.35 0-1.35-.956-1.35-1.7v-6.37m2.838-3.063c-.735-.653-1.67-1.524-3.033-1.524-.83 0-2.203.44-2.843 1.757-.297.586-.413 1.175-.413 2.217v6.844c0 1.468.057 2.458.446 3.184.437.834 1.515 1.583 2.924 1.583 1.667 0 2.334-.962 2.892-1.76l-.03 1.467h3.51V37.87H41.48v6.9M50.118 47.282c0-.708 0-1.846 1.247-1.846 1.055 0 1.174.967 1.174 1.813v7.61c0 .557 0 1.577-1.23 1.577-1.192 0-1.192-1.165-1.192-1.55V47.28m-3.488 7.023c0 1.112 0 4.527 4.562 4.527 3.095 0 4.793-1.497 4.793-4.188v-7.188c0-1.2-.194-2.492-1.46-3.37-.87-.577-2.106-.82-3.16-.82-4.122 0-4.735 2.524-4.735 4.333v6.705M58.45 38.158h3.482v5.402h2.155v2.314h-2.18v8.54c0 .974.165 1.64 1.572 1.64.232 0 .376-.032.607-.032v2.483c-.23.052-.66.187-1.837.187-3.28 0-3.774-1.232-3.774-3.134v-9.684h-1.9V43.56h1.874v-5.402M64.703 38.06c.28 0 .56.073.825.214.262.14.483.35.626.618.155.274.227.552.227.838 0 .303-.07.57-.226.838-.137.267-.36.48-.62.63-.268.153-.543.217-.83.217-.297 0-.574-.064-.848-.216-.27-.15-.466-.365-.616-.632-.146-.27-.223-.535-.223-.838 0-.285.077-.564.227-.838.146-.267.35-.48.63-.618.275-.14.542-.213.83-.213zm0 .27c-.243 0-.464.063-.696.19-.227.12-.406.292-.533.513-.123.22-.183.466-.183.697 0 .246.06.487.184.706.12.226.306.396.523.52.225.122.458.187.706.187.243 0 .47-.065.7-.186.214-.126.386-.295.52-.52.12-.22.185-.46.185-.707 0-.23-.065-.477-.185-.697-.134-.22-.31-.394-.525-.512-.236-.127-.45-.19-.695-.19zm-.738 2.34v-1.81h.618c.22 0 .375.022.466.055.098.025.167.09.225.173.057.078.086.165.086.263 0 .134-.05.247-.143.348-.084.105-.22.154-.375.166.065.032.116.062.15.093.07.076.17.19.274.355l.216.357h-.35l-.16-.287c-.13-.227-.238-.37-.31-.418-.058-.04-.128-.06-.234-.06h-.166v.765h-.297zm.297-1.024h.35c.17 0 .284-.02.353-.074.06-.048.09-.115.09-.2 0-.05-.013-.1-.044-.133-.026-.05-.063-.087-.124-.102-.05-.024-.153-.04-.294-.04h-.33v.548zM90.33 12.78h5.575c2.472 0 3.98 1.298 3.98 3.853 0 1.99-.796 3.33-2.493 3.684v.042c2.054.272 2.368 1.402 2.41 4.563.02 1.57.104 2.387.67 2.68v.126h-3.268c-.294-.42-.356-.985-.377-1.57l-.084-2.87c-.042-1.172-.566-1.884-1.78-1.884h-1.614v6.323H90.33V12.78zm3.018 6.532h1.257c1.446 0 2.263-.628 2.263-2.24 0-1.38-.733-2.073-2.095-2.073h-1.425v4.312zM109.868 12.78v2.47h-5.343v3.518h5.028v2.47h-5.028v4.02h5.552v2.47h-8.57V12.78h8.36M111.113 27.73V12.78h3.017v12.478h5.343v2.47h-8.36M125.108 12.487c4.526 0 5.09 3.224 5.09 7.767s-.564 7.767-5.09 7.767-5.092-3.223-5.092-7.766.566-7.767 5.092-7.767zm0 13.316c1.78 0 2.074-1.53 2.074-5.548 0-4-.293-5.548-2.074-5.548-1.78 0-2.075 1.55-2.075 5.548 0 4.02.294 5.548 2.075 5.548zM134.255 12.78h3.73l3.96 14.95H138.8l-.69-3.162h-3.98l-.693 3.16h-3.143l3.96-14.948zm.397 9.317h2.934l-1.447-6.72h-.043l-1.445 6.72zM142.833 12.78h4.945c4.19 0 4.944 2.87 4.944 7.265 0 5.297-1.13 7.684-5.133 7.684h-4.757V12.78zm3.017 12.73h1.34c2.096 0 2.516-1.32 2.516-5.38 0-3.393-.272-5.13-2.577-5.13h-1.28v10.51zM156.817 12.78h3.73l3.958 14.95h-3.143l-.69-3.162h-3.982l-.69 3.16h-3.144l3.96-14.948zm.398 9.317h2.933l-1.446-6.72h-.042l-1.445 6.72zM165.33 12.78h5.048c2.472 0 4.253.922 4.253 3.79 0 1.612-.774 2.847-2.262 3.266v.042c1.655.23 2.724 1.486 2.724 3.475 0 2.345-1.152 4.376-4.672 4.376h-5.09V12.78zm3.016 6.135h.858c1.655 0 2.41-.566 2.41-1.968 0-1.424-.69-1.947-2.18-1.947h-1.088v3.915zm0 6.594h1.173c1.444 0 2.43-.524 2.43-2.262 0-1.737-.985-2.24-2.305-2.24h-1.3v4.5zM176.344 27.73V12.78h3.017v12.478h5.344v2.47h-8.36M194.022 12.78v2.47h-5.343v3.518h5.027v2.47h-5.028v4.02h5.55v2.47h-8.568V12.78h8.36M90.447 35.18h9.97c5.774 0 7.752 4.228 7.752 8.457 0 5.85-3.6 8.5-8.98 8.5h-3.047V63.4h-5.696V35.18zm5.697 12.767h2.532c2.254 0 3.797-1.345 3.797-4.23 0-2.767-1.107-4.347-3.956-4.347h-2.373v8.577zM109.697 35.18h10.522c4.667 0 7.515 2.45 7.515 7.272 0 3.755-1.503 6.286-4.707 6.957v.078c3.876.514 4.47 2.648 4.55 8.617.038 2.964.196 4.506 1.264 5.06v.236h-6.17c-.554-.79-.673-1.856-.712-2.963l-.16-5.415c-.078-2.214-1.067-3.558-3.36-3.558h-3.047V63.4h-5.696V35.18zm5.696 12.332h2.374c2.73 0 4.272-1.186 4.272-4.23 0-2.608-1.385-3.912-3.957-3.912h-2.69v8.142zM146.17 35.18v4.664h-10.087v6.64h9.494v4.665h-9.494v7.59h10.483v4.664h-16.18V35.18h15.784M148.11 35.18h9.968c5.775 0 7.752 4.228 7.752 8.457 0 5.85-3.6 8.5-8.98 8.5h-3.045V63.4h-5.696V35.18zm5.695 12.767h2.532c2.255 0 3.797-1.345 3.797-4.23 0-2.767-1.107-4.347-3.955-4.347h-2.375v8.577zM170.974 35.18h7.04l7.478 28.222h-5.934l-1.306-5.97h-7.515l-1.306 5.97H163.5l7.476-28.223zm.752 17.588h5.538l-2.73-12.688h-.08l-2.728 12.688zM186.767 35.18h5.696V63.4h-5.696V35.18zM195.34 35.18h9.334c7.912 0 9.336 5.414 9.336 13.715 0 10-2.136 14.507-9.692 14.507h-8.98V35.18zm5.695 24.032h2.532c3.956 0 4.747-2.49 4.747-10.158 0-6.404-.514-9.684-4.865-9.684h-2.415v19.842zM238.14 44.705c0-4.11-.83-5.89-3.4-5.89-2.89 0-3.56 2.887-3.56 10.872 0 8.538 1.186 10.08 3.638 10.08 2.057 0 3.56-1.068 3.56-7.155h5.697c0 6.087-1.504 11.343-8.98 11.343-8.545 0-9.612-6.087-9.612-14.664 0-8.576 1.067-14.664 9.612-14.664 8.148 0 8.742 5.97 8.742 10.08h-5.696M251.406 35.18h7.04l7.477 28.222h-5.934l-1.306-5.97h-7.516l-1.305 5.97h-5.934l7.476-28.223zm.75 17.588h5.54l-2.73-12.688h-.08l-2.73 12.688zM267.076 35.18h10.522c4.668 0 7.515 2.45 7.515 7.272 0 3.755-1.502 6.286-4.706 6.957v.078c3.876.514 4.47 2.648 4.55 8.617.04 2.964.197 4.506 1.265 5.06v.236h-6.17c-.555-.79-.674-1.856-.713-2.963l-.16-5.415c-.08-2.214-1.068-3.558-3.362-3.558h-3.046V63.4h-5.696V35.18zm5.696 12.332h2.373c2.73 0 4.272-1.186 4.272-4.23 0-2.608-1.384-3.912-3.955-3.912h-2.69v8.142zM287.892 35.18h9.336c7.91 0 9.335 5.414 9.335 13.715 0 10-2.136 14.507-9.69 14.507h-8.98V35.18zm5.696 24.032h2.532c3.957 0 4.748-2.49 4.748-10.158 0-6.404-.515-9.684-4.866-9.684h-2.414v19.842zM313.586 54.588v.83c0 2.648.752 4.347 3.757 4.347 1.74 0 3.402-1.107 3.402-3.48 0-2.567-1.305-3.517-5.063-4.82-5.063-1.74-7.397-3.835-7.397-8.54 0-5.494 3.362-8.3 8.74-8.3 5.064 0 8.743 2.174 8.743 7.59v.79h-5.458c0-2.65-.91-4.19-3.086-4.19-2.57 0-3.243 1.62-3.243 3.28 0 1.74.515 2.807 2.927 3.835l4.39 1.898c4.273 1.857 5.38 4.032 5.38 7.47 0 5.97-3.638 8.657-9.81 8.657-6.447 0-8.978-3.004-8.978-8.22v-1.147h5.696" fill="#FFF"/></g></svg>