<svg width="15" height="16" viewBox="0 0 15 16" xmlns="http://www.w3.org/2000/svg"><title>logo spark</title><g fill="#FEBA30" fill-rule="evenodd"><path d="M7.515 5.235c.362 0 .66-.188.7-.43l.36-4.046c0-.4-.47-.728-1.06-.728-.586 0-1.053.328-1.053.727l.357 4.044c.038.243.336.43.698.43h-.003M5.33 6.5c.18-.315.167-.667-.024-.824l-3.323-2.33c-.346-.2-.863.04-1.158.55-.295.51-.243 1.078.102 1.278l3.68 1.713c.23.086.543-.078.724-.39v.002M9.703 6.496c.18.313.493.477.723.39l3.68-1.712c.347-.2.397-.768.105-1.278-.295-.51-.814-.75-1.16-.55l-3.323 2.33c-.19.157-.204.51-.024.823v-.004M7.515 10.285c.362 0 .66.187.7.43l.36 4.044c0 .4-.47.727-1.06.727-.586 0-1.053-.328-1.053-.728l.357-4.044c.038-.244.336-.43.698-.43h-.003M9.703 9.023c.18-.314.493-.477.723-.39l3.68 1.71c.347.202.397.77.105 1.28-.295.51-.814.75-1.16.55L9.728 9.846c-.19-.157-.204-.51-.024-.823M5.33 9.022c.18.313.167.666-.024.823l-3.323 2.33c-.346.198-.863-.043-1.158-.55-.295-.51-.243-1.08.102-1.282l3.68-1.71c.23-.087.543.076.724.39"/></g></svg>