<?xml version="1.0" encoding="utf-8"?>
<!-- Generator: Adobe Illustrator 19.2.1, SVG Export Plug-In . SVG Version: 6.00 Build 0)  -->
<svg version="1.1" id="Layer_1" xmlns="http://www.w3.org/2000/svg" xmlns:xlink="http://www.w3.org/1999/xlink" x="0px" y="0px"
	 viewBox="240 280 290 30" xml:space="preserve">
<style type="text/css">
	.st0{fill:#6B429A;stroke:#6B429A;stroke-width:0.7063;}
	.st1{fill:#231F20;}
</style>
<g>
	<g>
		<g>
			<path class="st0" d="M242.1,304.9c3.5,1.7,7.8,2.9,12.1,2.8c2.5,0,7-0.4,7.7-3.4c1.4-5.5-16.3-9.8-13.5-20.9
				c1.3-5.1,7.3-11.3,20.9-11.4c4.4,0,9.5,0.5,13.5,1.1l-0.9,10.3c-3.1-1.3-7.4-2.2-11-2.1c-2.4,0-6.7,0.9-7.3,3.2
				c-1.6,6.4,16.4,9.3,13.6,20.6c-1.5,5.9-8,11.9-21.7,12c-4.9,0-9.8-0.6-14.4-1.4L242.1,304.9z"/>
			<path class="st0" d="M322,289.1l-2.3,9.3l-20.6,0.2l-2,7.9l24.5-0.2l-2.3,9.3l-37.2,0.3l10.8-43.5l37.2-0.3l-2.3,9.3l-24.5,0.2
				l-1.9,7.6L322,289.1z"/>
			<path class="st0" d="M337.9,272.5l15.5-0.1l-10.8,43.5l-15.5,0.1L337.9,272.5z"/>
			<path class="st0" d="M379,271.9l-6.2,24.8c-1.6,6.3-0.5,10,6.5,9.9s9.9-3.8,11.5-10l6.2-24.8l15.5-0.1l-7.3,29.5
				c-2.6,10.5-13.7,14.9-28.2,15s-23.4-4.1-20.8-14.6l7.3-29.5L379,271.9z"/>
		</g>
	</g>
</g>
<g>
	<g>
		<path class="st1" d="M424.7,272.7h-2.8v-1.3h5.4v1.3l7.1,14.9l7-14.9v-1.3h5.4v1.3h-2.7V290h2.7v1.3h-7.7V290h2.7v-15h-0.1
			l-7.6,16.3h-0.5l-7.6-16.2l0,0v15h2.7v1.3h-6.8V290h2.8V272.7z"/>
		<path class="st1" d="M451.3,283.3c-0.3,2.9,1.2,7,5.3,7c1.5,0,2.7-0.5,4.4-1.6l-0.2,1.2c-1.7,1.2-3.1,1.7-5,1.7
			c-4,0-6.9-3.2-6.9-7.6c0-4,2.4-6.7,5.9-6.7c3.1,0,5.5,2.3,5.9,5.9h-9.4V283.3z M458.3,282.2c-0.2-2.6-1.9-4-3.8-4
			c-1.8,0-3.2,1.9-3.2,4H458.3z"/>
		<path class="st1" d="M464.8,278.8h-2.4v-1.1h4.6v1.9c1.7-1.5,3.6-2.3,5.3-2.3c1.6,0,2.9,0.9,3.5,2.3c2.2-1.7,3.7-2.3,5.5-2.3
			c2.3,0,4,1.5,4,4.6v8.2h2.2v1.1h-6.8v-1.1h2.4v-7.9c0-2.3-1-3.6-2.9-3.6c-1.4,0-2.3,0.4-4.1,1.8v9.7h2.4v1.1h-6.9v-1.1h2.4v-8.3
			c0-2-1.3-3.2-2.9-3.2c-1.2,0-2.2,0.4-4.1,1.8v9.7h2.4v1.1h-7v-1.1h2.4V278.8z"/>
		<path class="st1" d="M492.9,279.1c1.7-1.3,2.6-1.7,4.1-1.7c3.6,0,6.4,3.1,6.4,7.1c0,4.4-2.9,7.2-7.7,7.2c-1.4,0-3.2-0.2-4.9-0.6
			v-20.5h-2.4v-1.1h4.6v9.6H492.9z M492.9,290c0.7,0.5,2,0.8,3.2,0.8c3,0,4.9-2.2,4.9-5.6c0-1.7-0.4-3.2-1.1-4.4
			c-0.8-1.3-1.9-1.9-3.3-1.9s-2.5,0.5-3.6,1.6v9.5H492.9z"/>
		<path class="st1" d="M508.1,283.3c-0.3,2.9,1.2,7,5.3,7c1.5,0,2.7-0.5,4.4-1.6l-0.2,1.2c-1.7,1.2-3.1,1.7-5,1.7
			c-4,0-6.9-3.2-6.9-7.6c0-4,2.4-6.7,5.9-6.7c3.1,0,5.5,2.3,5.9,5.9h-9.4V283.3z M515.1,282.2c-0.2-2.6-1.9-4-3.8-4
			c-1.8,0-3.2,1.9-3.2,4H515.1z"/>
		<path class="st1" d="M521.6,278.8h-2.5v-1.1h4.7v2.4h0.1c0.8-1.5,2.5-2.8,3.5-2.8c1.1,0,2,1.1,2,1.4c0,0.4-0.4,1.7-0.8,2.4
			c-0.8-1.3-1.4-1.7-2.1-1.7c-0.9,0-2,0.9-2.7,2.2v8.4h2.6v1.1h-7.3V290h2.5V278.8z"/>
	</g>
	<g>
		<path class="st1" d="M421.9,297.3h7.3c4.4,0,6.3,2.4,6.3,5.1c0,2-0.9,3.3-3.1,4.3v0.1c3.3,0.5,5.1,2.5,5.1,5
			c0,2.9-1.6,5.4-6.3,5.4h-9.3v-1.3h2.7v-17.3h-2.7V297.3z M429,306.4c2.1,0,4-1.2,4-3.9c0-2.2-1.5-4-3.8-4H427v7.9H429z
			 M430.9,315.8c2.5,0,4-1.1,4-4c0-2.7-1.9-4.2-5.9-4.2h-2v8.2H430.9z"/>
		<path class="st1" d="M442,309.1c-0.3,2.9,1.2,7,5.2,7c1.5,0,2.7-0.5,4.4-1.6l-0.2,1.2c-1.7,1.2-3.1,1.7-5,1.7
			c-4,0-6.9-3.2-6.9-7.6c0-4,2.4-6.7,5.9-6.7c3.1,0,5.5,2.3,5.9,5.9H442V309.1z M449.1,308c-0.2-2.6-1.9-4-3.8-4
			c-1.8,0-3.2,1.9-3.2,4H449.1z"/>
		<path class="st1" d="M455.6,304.6H453v-1.1h4.8v1.6c2.1-1.4,3.3-1.9,4.8-1.9c2.2,0,4,1.4,4,4v8.8h2.4v1.1h-7V316h2.4v-7.8
			c0-2.5-0.9-3.7-2.8-3.7c-1.4,0-2.5,0.5-3.8,1.6v9.9h2.4v1.1H453V316h2.6V304.6z"/>
		<path class="st1" d="M472.8,309.1c-0.3,2.9,1.2,7,5.3,7c1.5,0,2.7-0.5,4.4-1.6l-0.2,1.2c-1.7,1.2-3.1,1.7-5,1.7
			c-4,0-6.9-3.2-6.9-7.6c0-4,2.4-6.7,5.9-6.7c3.1,0,5.5,2.3,5.9,5.9h-9.4V309.1z M479.9,308c-0.2-2.6-1.9-4-3.8-4
			c-1.8,0-3.2,1.9-3.2,4H479.9z"/>
		<path class="st1" d="M486.6,304.8h-2v-1.3h2v-1.2c0-4,2.6-8.1,8.5-8.1c0.9,0,1.5,0,2.3,0.2v4h-0.5c-0.6-1.9-1.6-2.8-3.4-2.8
			c-2.9,0-4.7,2.6-4.7,6.8v1.1h8.8V316h2.5v1.1h-7V316h2.4v-11.2h-6.7V316h2.5v1.1h-7.1V316h2.5L486.6,304.8L486.6,304.8z"/>
		<path class="st1" d="M509.3,303.6v1.1h-3.8v8.1c0,2,0.7,3.3,1.9,3.3c1.2,0,1.6-0.9,2.1-0.9c0.1,0,0.2,0.1,0.2,0.3
			c0,0.3-1.3,2.1-3,2.1c-1.8,0-3.5-1.1-3.5-4.2v-8.7h-1.7l3.9-4.4v3.4L509.3,303.6L509.3,303.6z"/>
		<path class="st1" d="M512.3,317.3h-0.8v-4h0.6c0.4,2.3,2.1,3.2,3.7,3.2c1.5,0,2.7-1,2.7-2.2c0-3-7-3-7-7.4c0-2.1,1.7-3.7,3.9-3.7
			c1,0,1.8,0.2,3,0.9l0.3-0.8h0.6v3.4h-0.6c-0.6-1.8-1.6-2.6-3-2.6s-2.4,1-2.4,2.1c0,3.1,7.1,3.3,7.1,7.3c0,2.2-1.7,3.9-4.4,3.9
			c-1.1,0-2-0.3-3.5-1.1L512.3,317.3z"/>
	</g>
</g>
</svg>
