<svg id="Layer_1" xmlns="http://www.w3.org/2000/svg" viewBox="-436 360 350 74"><style>.st0{fill:#FFFFFF;}</style><g id="artwork"><path class="st0" d="M-313.2 403.6l1.2 1.5c-1.3 1-3.1.8-4.2-.4l-4.6-5.8h-7c-.6 0-1.1.5-1.2 1.1v5.5h-2v-16.7h12.4c2.8 0 5.1 2.3 5.1 5.1 0 2.7-2.2 5-4.9 5.1l3.7 4.6c.3.3 1 .4 1.5 0zm-2.1-9.8c0-1.8-1.5-3.3-3.3-3.3h-10.5v6.8c.4-.1.7-.2 1.1-.2h9.3c1.9-.1 3.4-1.5 3.4-3.3zm-49-5.1h15.5v1.9h-13.5v5.5c.3-.1.7-.2 1.1-.2h8.3v1.9h-8.3c-.6 0-1.1.5-1.1 1.2v4.6h14.1v1.9h-16.1v-16.8zm-22 16.7h-12.4v-16.7h12.5c2.5 0 4.5 2 4.5 4.5 0 1.5-.7 2.8-1.8 3.6 1.2.9 2 2.3 2 3.9 0 2.5-2.1 4.7-4.8 4.7zm.1-14.9h-10.6v5.6c.3-.1.7-.2 1-.2h9.6c1.5 0 2.7-1.2 2.7-2.7 0-1.5-1.2-2.7-2.7-2.7zm-.1 7.2h-9.4c-.6 0-1.2.5-1.2 1.2v4.7h10.6c1.6 0 3-1.3 3-3 0-1.6-1.3-2.9-3-2.9zm-37.9 8c-5.3 0-8.4-2.7-8.4-6.6v-7.5c-.1-.6-.5-1-1.1-1v-1.9c1.6 0 3 1.3 3 2.9v6.9c0 3.3 1.6 5.3 6.5 5.3 4.8 0 6.4-2 6.4-5.3v-9.8h1.9v10.4c0 3.9-3 6.6-8.3 6.6zM-277.1 371.8h.9v50.5h-.9zM-236.6 397.6c-.4-.2-1-.4-1.5-.4-1.6 0-2.3.8-2.3 2.9 0 2.3.8 3.1 2.3 3.1.6 0 1.2-.2 1.6-.5l.1.6c-.4.3-1.1.5-1.8.5-1.9 0-2.9-1.1-2.9-3.7 0-2.4.9-3.5 2.9-3.5.7 0 1.3.2 1.7.4l-.1.6zM-230.3 403.6v-4.7c0-1.1-.6-1.7-1.8-1.7-.9 0-1.6.4-1.9 1v5.5h-.7v-9.4l.7-.1v3.3c.5-.6 1.2-.9 2.1-.9 1.5 0 2.4.8 2.4 2.4v4.7l-.8-.1zM-227.9 399.9c0-2.2.9-3.4 2.8-3.4 1.6 0 2.7 1 2.7 3.2v.4h-4.7c0 2.2.8 3 2.5 3 .7 0 1.3-.2 1.9-.5l.1.6c-.6.3-1.3.5-2.1.5-2.3.1-3.2-1.1-3.2-3.8zm4.8-.3c0-1.8-.9-2.4-2-2.4-1.4 0-2 .8-2.1 2.4h4.1zM-216.5 397.6c-.4-.2-1-.4-1.5-.4-1.6 0-2.3.8-2.3 2.9 0 2.3.8 3.1 2.3 3.1.6 0 1.2-.2 1.6-.5l.1.6c-.4.3-1.1.5-1.8.5-1.9 0-2.9-1.1-2.9-3.7 0-2.4.9-3.5 2.9-3.5.7 0 1.3.2 1.7.4l-.1.6zM-213.8 399.5h1.1l2.4-2.9h.9l-2.7 3.2 2.8 3.8h-.9l-2.6-3.5h-1.1v3.5h-.7v-9.5h.7l.1 5.4zM-207.1 395.2c-.4 0-.6-.1-.6-.5 0-.3.2-.5.6-.5.4 0 .6.2.6.5-.1.3-.3.5-.6.5zm-.4 8.4v-7l.7-.1v7h-.7v.1zM-199.7 403.6v-4.7c0-1.2-.7-1.7-1.9-1.7-.7 0-1.5.3-1.9 1v5.5h-.7v-7h.5l.1.8c.5-.6 1.3-.9 2.1-.9 1.5 0 2.4.8 2.4 2.4v4.7l-.6-.1zM-195.6 400.5c-.5.1-.7.3-.7.6s.2.5.8.6l1.6.2c1.7.2 2.2.7 2.2 1.6 0 1.2-.7 2-2.8 2-1.8 0-2.6-.7-2.6-1.9 0-.5.3-1.1.8-1.4-.4-.2-.6-.5-.6-.9s.3-.8.9-1c-.5-.3-.9-.8-.9-1.7 0-1.3.7-2.1 2.4-2.1.6 0 1.2.1 1.7.5l1.1-.5.2.4-.9.6c.2.3.2.6.2 1.1 0 1.3-.6 2-2.4 2-.4 0-.7-.1-1-.1zm-.2 1.7c-.5.3-.8.8-.8 1.2 0 .8.6 1.3 1.9 1.3 1.7 0 2.2-.5 2.2-1.3 0-.6-.3-.9-1.7-1.1l-1.6-.1zm-.5-3.6c0 1.2.7 1.4 1.7 1.4 1.3 0 1.7-.5 1.7-1.4 0-1.1-.5-1.5-1.7-1.5s-1.7.5-1.7 1.5zM-183.4 403.8c-.9 0-1.7-.3-2.2-1l-.1.8h-.5V394h.7v3.3c.5-.6 1.3-.9 2.2-.9 1.6 0 2.7.9 2.7 3.6-.1 2.8-1.1 3.8-2.8 3.8zm-.1-6.6c-.9 0-1.6.4-2 1v4c.3.5 1 1 2 1 1.2 0 2.1-.6 2.1-3s-.8-3-2.1-3zM-176.6 403.9v-.2l-3.1-7.1h.9l2.3 5.5.4.9.3-.9 1.9-5.5h.8l-2.6 7.2c-.4 1.2-1.1 1.7-1.9 1.7-.4 0-.7-.1-1-.2l.1-.6c.3.2.6.2.8.2.4 0 .8-.3 1.1-1zM-124.9 404.4c-.7.7-1.7 1.1-2.9 1.1-1.3 0-2.2-.3-3.1-1.4v1.3h-2.3v-16.7h2.4v6c.9-1 1.8-1.3 3.1-1.3 1.2 0 2.2.4 2.9 1.1 1.2 1.2 1.3 3.2 1.3 5-.1 1.7-.2 3.7-1.4 4.9zm-3.5-8.9c-2.2 0-2.5 1.8-2.5 3.9s.3 4 2.5 4 2.5-1.9 2.5-4-.4-3.9-2.5-3.9zM-115.3 405.2v-1.1c-.9.9-1.7 1.2-3.2 1.2s-2.5-.4-3.2-1.1c-.6-.6-.9-1.5-.9-2.6 0-2 1.4-3.4 4.1-3.4h3.1v-.8c0-1.5-.7-2.2-2.6-2.2-1.3 0-1.9.3-2.6 1.1l-1.6-1.5c1.1-1.3 2.3-1.7 4.3-1.7 3.3 0 4.9 1.4 4.9 4.1v7.9h-2.3v.1zm-.1-5.1h-2.8c-1.4 0-2.1.6-2.1 1.7s.7 1.7 2.2 1.7c.9 0 1.6-.1 2.2-.7.4-.4.5-.9.5-1.8v-.9zM-104.4 405.2V398c0-1.9-1.1-2.6-2.4-2.6s-2.5.8-2.5 2.6v7.2h-2.4v-11.9h2.3v1.2c.8-.9 2-1.3 3.2-1.3s2.2.4 2.9 1.1c.9.9 1.2 2 1.2 3.3v7.6h-2.3zM-93.2 405.2l-3.3-5.5-1.8 2v3.5h-2.4v-16.7h2.4v10.3l4.6-5.5h2.9l-4.1 4.7 4.6 7.2h-2.9z"/><g><path class="st0" d="M-89.3 392c-.6 0-1-.5-1-1s.5-1 1-1 1 .5 1 1-.4 1-1 1zm0-1.8c-.5 0-.8.4-.8.8s.4.8.8.8c.5 0 .8-.4.8-.8s-.3-.8-.8-.8zm.2 1.4l-.1-.5h-.1v.5h-.2v-1.1h.3c.1 0 .2 0 .2.1.1.1.1.1.1.3 0 .1 0 .2-.1.2h-.1l.2.5h-.2zm-.1-.9s0-.1 0 0h-.2v.3h.2v-.1-.2z"/></g><g><path class="st0" d="M-142.8 388.6c-4 0-7.3 2.8-8.2 6.5h-9.3l1.2 3.7h4.3c-.7 1.6-2.4 2.8-4.3 2.8-2.6 0-4.7-2.1-4.7-4.7s2.1-4.7 4.7-4.7c1.1 0 2 .3 2.8.9h4.7c-1.4-2.8-4.2-4.7-7.5-4.7-4.6 0-8.4 3.8-8.4 8.4s3.8 8.4 8.4 8.4c3.9 0 7.2-2.7 8.2-6.4.9 3.7 4.2 6.4 8.2 6.4 4.6 0 8.4-3.8 8.4-8.4-.1-4.4-3.8-8.2-8.5-8.2zm-2.5 12.9v-8.8l7.3 4.4-7.3 4.4z"/></g></g></svg>